<svg width="626" height="125" viewBox="0 0 626 125" fill="none" xmlns="http://www.w3.org/2000/svg">
<mask id="path-1-outside-1_145_18" maskUnits="userSpaceOnUse" x="-3" y="-3" width="632" height="131" fill="black">
<rect fill="white" x="-3" y="-3" width="632" height="131"/>
<path d="M67.8984 30.2031C75.5156 30.2031 81.9609 32.14 87.2344 36.0137C92.5404 39.8548 96.4792 45.2585 99.0508 52.2246C101.655 59.1582 102.957 67.459 102.957 77.127C102.957 84.1908 101.98 90.6686 100.027 96.5605C98.0742 102.42 95.3724 107.352 91.9219 111.355C88.5039 115.327 84.4023 118.419 79.6172 120.633C74.8646 122.846 69.6888 123.953 64.0898 123.953C61.4857 123.953 58.9792 123.725 56.5703 123.27C54.1615 122.814 52.0618 122.26 50.2715 121.609C48.4811 120.926 46.7233 120.063 44.998 119.021C43.3053 117.98 41.8893 117.02 40.75 116.141C39.6432 115.262 38.5202 114.22 37.3809 113.016C36.2741 111.811 35.444 110.867 34.8906 110.184C34.3698 109.5 33.7839 108.702 33.1328 107.791L23.6113 122H10.6719V16.5312H0.90625V0.90625H38.0156V46.8047C39.3503 44.4935 40.9128 42.3776 42.7031 40.457C44.4935 38.5365 46.5931 36.7949 49.002 35.2324C51.4434 33.6374 54.2754 32.4004 57.498 31.5215C60.7207 30.6426 64.1875 30.2031 67.8984 30.2031ZM38.0156 92.752C39.7409 96.7559 41.987 99.946 44.7539 102.322C47.5208 104.666 50.7923 105.838 54.5684 105.838C61.0137 105.838 65.7988 103.315 68.9238 98.2695C72.0814 93.224 73.6602 86.0625 73.6602 76.7852C73.6602 72.4232 73.1393 68.403 72.0977 64.7246C71.0885 61.0137 69.7214 57.9375 67.9961 55.4961C66.3034 53.0547 64.3503 51.1667 62.1367 49.832C59.9232 48.4648 57.612 47.7812 55.2031 47.7812C51.6224 47.7812 48.4648 48.888 45.7305 51.1016C43.0286 53.2826 40.457 56.554 38.0156 60.916V92.752ZM195.828 63.1621V106.375H205.594V122H175.174L170.828 111.844C167.508 116.596 163.65 119.852 159.256 121.609C154.894 123.367 148.79 124.246 140.945 124.246C136.876 124.246 133.084 123.53 129.568 122.098C126.085 120.698 123.107 118.777 120.633 116.336C118.191 113.895 116.271 110.965 114.871 107.547C113.504 104.129 112.82 100.467 112.82 96.5605C112.82 89.8223 115.457 84.2396 120.73 79.8125C126.004 75.3529 132.742 73.123 140.945 73.123C147.553 73.123 153.022 73.7578 157.352 75.0273C161.681 76.2643 165.392 78.25 168.484 80.9844V60.2812C168.484 57.3516 168.077 54.9102 167.264 52.957C166.482 50.9714 165.294 49.4577 163.699 48.416C162.104 47.3418 160.314 46.5931 158.328 46.1699C156.342 45.7467 153.966 45.5352 151.199 45.5352C148.986 45.5352 146.984 46.0072 145.193 46.9512C146.202 49.0671 146.707 51.2969 146.707 53.6406C146.707 57.9701 145.177 61.6647 142.117 64.7246C139.09 67.752 135.411 69.2656 131.082 69.2656C126.753 69.2656 123.058 67.752 119.998 64.7246C116.971 61.6647 115.457 57.9701 115.457 53.6406C115.457 51.4271 115.88 49.3438 116.727 47.3906C117.605 45.4375 118.81 43.7285 120.34 42.2637C121.642 40.8965 122.993 39.6758 124.393 38.6016C125.792 37.4948 127.55 36.4043 129.666 35.3301C131.814 34.2233 134.142 33.3118 136.648 32.5957C139.155 31.8796 142.15 31.3099 145.633 30.8867C149.148 30.431 152.99 30.2031 157.156 30.2031C162.56 30.2031 167.638 31.0007 172.391 32.5957C177.143 34.1908 181.245 36.4043 184.695 39.2363C188.146 42.0684 190.864 45.5514 192.85 49.6855C194.835 53.8197 195.828 58.3118 195.828 63.1621ZM168.484 100.32V93.582C166.466 91.6615 164.188 90.0501 161.648 88.748C159.142 87.4134 156.814 86.7461 154.666 86.7461C150.044 86.7461 146.788 87.5273 144.9 89.0898C143.012 90.6198 142.068 93.11 142.068 96.5605C142.068 100.695 142.882 103.738 144.51 105.691C146.137 107.645 149.165 108.621 153.592 108.621C156.098 108.621 158.702 107.824 161.404 106.229C164.139 104.601 166.499 102.632 168.484 100.32ZM278.836 30.2031C283.393 30.2031 287.381 30.8216 290.799 32.0586C294.217 33.2956 297.016 35.0046 299.197 37.1855C301.378 39.334 303.136 42.0846 304.471 45.4375C305.838 48.7578 306.782 52.3385 307.303 56.1797C307.856 59.9883 308.133 64.3503 308.133 69.2656V106.375H317.898V122H271.023V106.375H280.789V67.3125C280.789 62.1693 280.317 58.1654 279.373 55.3008C278.462 52.4362 277.127 50.4668 275.369 49.3926C273.644 48.3184 271.284 47.7812 268.289 47.7812C265.555 47.7812 262.755 48.9368 259.891 51.248C257.026 53.5592 254.308 56.7819 251.736 60.916L251.492 106.375H261.258V122H214.383V106.375H224.148V47.7812H214.383V32.1562H244.705L251.541 45.3887C252.745 43.2077 254.129 41.2546 255.691 39.5293C257.286 37.7715 259.174 36.1764 261.355 34.7441C263.569 33.2793 266.157 32.1562 269.119 31.375C272.081 30.5938 275.32 30.2031 278.836 30.2031ZM405.789 63.1621V106.375H415.555V122H385.135L380.789 111.844C377.469 116.596 373.611 119.852 369.217 121.609C364.855 123.367 358.751 124.246 350.906 124.246C346.837 124.246 343.045 123.53 339.529 122.098C336.046 120.698 333.068 118.777 330.594 116.336C328.152 113.895 326.232 110.965 324.832 107.547C323.465 104.129 322.781 100.467 322.781 96.5605C322.781 89.8223 325.418 84.2396 330.691 79.8125C335.965 75.3529 342.703 73.123 350.906 73.123C357.514 73.123 362.983 73.7578 367.312 75.0273C371.642 76.2643 375.353 78.25 378.445 80.9844V60.2812C378.445 57.3516 378.038 54.9102 377.225 52.957C376.443 50.9714 375.255 49.4577 373.66 48.416C372.065 47.3418 370.275 46.5931 368.289 46.1699C366.303 45.7467 363.927 45.5352 361.16 45.5352C358.947 45.5352 356.945 46.0072 355.154 46.9512C356.163 49.0671 356.668 51.2969 356.668 53.6406C356.668 57.9701 355.138 61.6647 352.078 64.7246C349.051 67.752 345.372 69.2656 341.043 69.2656C336.714 69.2656 333.019 67.752 329.959 64.7246C326.932 61.6647 325.418 57.9701 325.418 53.6406C325.418 51.4271 325.841 49.3438 326.688 47.3906C327.566 45.4375 328.771 43.7285 330.301 42.2637C331.603 40.8965 332.954 39.6758 334.354 38.6016C335.753 37.4948 337.511 36.4043 339.627 35.3301C341.775 34.2233 344.103 33.3118 346.609 32.5957C349.116 31.8796 352.111 31.3099 355.594 30.8867C359.109 30.431 362.951 30.2031 367.117 30.2031C372.521 30.2031 377.599 31.0007 382.352 32.5957C387.104 34.1908 391.206 36.4043 394.656 39.2363C398.107 42.0684 400.825 45.5514 402.811 49.6855C404.796 53.8197 405.789 58.3118 405.789 63.1621ZM378.445 100.32V93.582C376.427 91.6615 374.148 90.0501 371.609 88.748C369.103 87.4134 366.775 86.7461 364.627 86.7461C360.005 86.7461 356.749 87.5273 354.861 89.0898C352.973 90.6198 352.029 93.11 352.029 96.5605C352.029 100.695 352.843 103.738 354.471 105.691C356.098 107.645 359.126 108.621 363.553 108.621C366.059 108.621 368.663 107.824 371.365 106.229C374.1 104.601 376.46 102.632 378.445 100.32ZM488.797 30.2031C493.354 30.2031 497.342 30.8216 500.76 32.0586C504.178 33.2956 506.977 35.0046 509.158 37.1855C511.339 39.334 513.097 42.0846 514.432 45.4375C515.799 48.7578 516.743 52.3385 517.264 56.1797C517.817 59.9883 518.094 64.3503 518.094 69.2656V106.375H527.859V122H480.984V106.375H490.75V67.3125C490.75 62.1693 490.278 58.1654 489.334 55.3008C488.423 52.4362 487.088 50.4668 485.33 49.3926C483.605 48.3184 481.245 47.7812 478.25 47.7812C475.516 47.7812 472.716 48.9368 469.852 51.248C466.987 53.5592 464.269 56.7819 461.697 60.916L461.453 106.375H471.219V122H424.344V106.375H434.109V47.7812H424.344V32.1562H454.666L461.502 45.3887C462.706 43.2077 464.09 41.2546 465.652 39.5293C467.247 37.7715 469.135 36.1764 471.316 34.7441C473.53 33.2793 476.118 32.1562 479.08 31.375C482.042 30.5938 485.281 30.2031 488.797 30.2031ZM615.75 63.1621V106.375H625.516V122H595.096L590.75 111.844C587.43 116.596 583.572 119.852 579.178 121.609C574.816 123.367 568.712 124.246 560.867 124.246C556.798 124.246 553.006 123.53 549.49 122.098C546.007 120.698 543.029 118.777 540.555 116.336C538.113 113.895 536.193 110.965 534.793 107.547C533.426 104.129 532.742 100.467 532.742 96.5605C532.742 89.8223 535.379 84.2396 540.652 79.8125C545.926 75.3529 552.664 73.123 560.867 73.123C567.475 73.123 572.944 73.7578 577.273 75.0273C581.603 76.2643 585.314 78.25 588.406 80.9844V60.2812C588.406 57.3516 587.999 54.9102 587.186 52.957C586.404 50.9714 585.216 49.4577 583.621 48.416C582.026 47.3418 580.236 46.5931 578.25 46.1699C576.264 45.7467 573.888 45.5352 571.121 45.5352C568.908 45.5352 566.906 46.0072 565.115 46.9512C566.124 49.0671 566.629 51.2969 566.629 53.6406C566.629 57.9701 565.099 61.6647 562.039 64.7246C559.012 67.752 555.333 69.2656 551.004 69.2656C546.674 69.2656 542.98 67.752 539.92 64.7246C536.893 61.6647 535.379 57.9701 535.379 53.6406C535.379 51.4271 535.802 49.3438 536.648 47.3906C537.527 45.4375 538.732 43.7285 540.262 42.2637C541.564 40.8965 542.915 39.6758 544.314 38.6016C545.714 37.4948 547.472 36.4043 549.588 35.3301C551.736 34.2233 554.064 33.3118 556.57 32.5957C559.077 31.8796 562.072 31.3099 565.555 30.8867C569.07 30.431 572.911 30.2031 577.078 30.2031C582.482 30.2031 587.56 31.0007 592.312 32.5957C597.065 34.1908 601.167 36.4043 604.617 39.2363C608.068 42.0684 610.786 45.5514 612.771 49.6855C614.757 53.8197 615.75 58.3118 615.75 63.1621ZM588.406 100.32V93.582C586.388 91.6615 584.109 90.0501 581.57 88.748C579.064 87.4134 576.736 86.7461 574.588 86.7461C569.965 86.7461 566.71 87.5273 564.822 89.0898C562.934 90.6198 561.99 93.11 561.99 96.5605C561.99 100.695 562.804 103.738 564.432 105.691C566.059 107.645 569.087 108.621 573.514 108.621C576.02 108.621 578.624 107.824 581.326 106.229C584.061 104.601 586.421 102.632 588.406 100.32Z"/>
</mask>
<path d="M87.2344 36.0137L85.4583 38.4315L85.4667 38.4376L85.4752 38.4437L87.2344 36.0137ZM99.0508 52.2246L96.2364 53.2636L96.2394 53.2715L96.2423 53.2794L99.0508 52.2246ZM100.027 96.5605L102.873 97.5092L102.875 97.5045L100.027 96.5605ZM91.9219 111.355L89.6493 109.397L89.6481 109.398L91.9219 111.355ZM79.6172 120.633L78.3577 117.91L78.3506 117.913L79.6172 120.633ZM50.2715 121.609L49.2014 124.412L49.2238 124.421L49.2463 124.429L50.2715 121.609ZM44.998 119.021L43.4258 121.576L43.4366 121.583L43.4474 121.59L44.998 119.021ZM40.75 116.141L38.8844 118.49L38.9009 118.503L38.9176 118.516L40.75 116.141ZM37.3809 113.016L35.1719 115.046L35.1866 115.061L35.2015 115.077L37.3809 113.016ZM34.8906 110.184L32.5043 112.002L32.5311 112.037L32.5589 112.071L34.8906 110.184ZM33.1328 107.791L35.574 106.047L33.0541 102.519L30.6406 106.121L33.1328 107.791ZM23.6113 122V125H25.2123L26.1035 123.67L23.6113 122ZM10.6719 122H7.67188V125H10.6719V122ZM10.6719 16.5312H13.6719V13.5312H10.6719V16.5312ZM0.90625 16.5312H-2.09375V19.5312H0.90625V16.5312ZM0.90625 0.90625V-2.09375H-2.09375V0.90625H0.90625ZM38.0156 0.90625H41.0156V-2.09375H38.0156V0.90625ZM38.0156 46.8047H35.0156V57.9989L40.6136 48.3049L38.0156 46.8047ZM49.002 35.2324L50.6345 37.7493L50.6428 37.7439L49.002 35.2324ZM38.0156 92.752H35.0156V93.3708L35.2605 93.9391L38.0156 92.752ZM44.7539 102.322L42.7993 104.598L42.8071 104.605L42.8149 104.611L44.7539 102.322ZM68.9238 98.2695L66.3807 96.678L66.3734 96.6899L68.9238 98.2695ZM72.0977 64.7246L69.2028 65.5118L69.2069 65.5269L69.2112 65.542L72.0977 64.7246ZM67.9961 55.4961L65.5307 57.2054L65.5383 57.2165L65.5461 57.2274L67.9961 55.4961ZM62.1367 49.832L60.5602 52.3844L60.5739 52.3929L60.5877 52.4012L62.1367 49.832ZM45.7305 51.1016L47.6148 53.4359L47.6181 53.4333L45.7305 51.1016ZM38.0156 60.916L35.3978 59.4508L35.0156 60.1336V60.916H38.0156ZM67.8984 33.2031C74.9853 33.2031 80.7809 34.9956 85.4583 38.4315L89.0104 33.5959C83.1409 29.2844 76.0459 27.2031 67.8984 27.2031V33.2031ZM85.4752 38.4437C90.2368 41.8908 93.8424 46.7784 96.2364 53.2636L101.865 51.1857C99.1159 43.7385 94.8439 37.8188 88.9936 33.5836L85.4752 38.4437ZM96.2423 53.2794C98.6877 59.7903 99.957 67.715 99.957 77.127H105.957C105.957 67.203 104.622 58.5261 101.859 51.1698L96.2423 53.2794ZM99.957 77.127C99.957 83.9136 99.0191 90.0679 97.1797 95.6166L102.875 97.5045C104.942 91.2693 105.957 84.468 105.957 77.127H99.957ZM97.1813 95.6119C95.3312 101.162 92.8055 105.735 89.6493 109.397L94.1944 113.314C97.9393 108.968 100.817 103.678 102.873 97.5092L97.1813 95.6119ZM89.6481 109.398C86.5114 113.043 82.7564 115.875 78.3577 117.91L80.8767 123.356C86.0483 120.963 90.4964 117.611 94.1957 113.312L89.6481 109.398ZM78.3506 117.913C74.0212 119.93 69.2815 120.953 64.0898 120.953V126.953C70.0961 126.953 75.7079 125.763 80.8838 123.352L78.3506 117.913ZM64.0898 120.953C61.6613 120.953 59.342 120.741 57.128 120.322L56.0126 126.217C58.6163 126.71 61.3101 126.953 64.0898 126.953V120.953ZM57.128 120.322C54.8356 119.888 52.899 119.373 51.2967 118.79L49.2463 124.429C51.2247 125.148 53.4873 125.739 56.0126 126.217L57.128 120.322ZM51.3416 118.807C49.7264 118.19 48.1289 117.407 46.5487 116.453L43.4474 121.59C45.3177 122.719 47.2359 123.662 49.2014 124.412L51.3416 118.807ZM46.5703 116.467C44.9363 115.461 43.6136 114.561 42.5824 113.765L38.9176 118.516C40.165 119.478 41.6744 120.499 43.4258 121.576L46.5703 116.467ZM42.6156 113.791C41.6372 113.014 40.6182 112.072 39.5603 110.954L35.2015 115.077C36.4222 116.368 37.6492 117.509 38.8844 118.49L42.6156 113.791ZM39.5898 110.986C38.4961 109.796 37.7162 108.906 37.2224 108.296L32.5589 112.071C33.1719 112.828 34.0521 113.827 35.1719 115.046L39.5898 110.986ZM37.2769 108.365C36.7794 107.712 36.2122 106.941 35.574 106.047L30.6916 109.535C31.3555 110.464 31.9602 111.288 32.5043 112.002L37.2769 108.365ZM30.6406 106.121L21.1191 120.33L26.1035 123.67L35.625 109.461L30.6406 106.121ZM23.6113 119H10.6719V125H23.6113V119ZM13.6719 122V16.5312H7.67188V122H13.6719ZM10.6719 13.5312H0.90625V19.5312H10.6719V13.5312ZM3.90625 16.5312V0.90625H-2.09375V16.5312H3.90625ZM0.90625 3.90625H38.0156V-2.09375H0.90625V3.90625ZM35.0156 0.90625V46.8047H41.0156V0.90625H35.0156ZM40.6136 48.3049C41.8366 46.1869 43.2644 44.2546 44.8975 42.5027L40.5087 38.4114C38.5611 40.5007 36.8639 42.8 35.4177 45.3045L40.6136 48.3049ZM44.8975 42.5027C46.5058 40.7774 48.4125 39.1906 50.6345 37.7493L47.3694 32.7155C44.7737 34.3992 42.4812 36.2955 40.5087 38.4114L44.8975 42.5027ZM50.6428 37.7439C52.7871 36.343 55.3237 35.2241 58.2874 34.4158L56.7087 28.6272C53.2271 29.5767 50.0996 30.9318 47.3611 32.7209L50.6428 37.7439ZM58.2874 34.4158C61.2261 33.6143 64.425 33.2031 67.8984 33.2031V27.2031C63.95 27.2031 60.2153 27.6709 56.7087 28.6272L58.2874 34.4158ZM35.2605 93.9391C37.1314 98.2811 39.625 101.872 42.7993 104.598L46.7085 100.046C44.3489 98.0199 42.3503 95.2306 40.7707 91.5648L35.2605 93.9391ZM42.8149 104.611C46.1475 107.434 50.1142 108.838 54.5684 108.838V102.838C51.4705 102.838 48.8941 101.898 46.6929 100.033L42.8149 104.611ZM54.5684 108.838C61.9451 108.838 67.7482 105.865 71.4743 99.8492L66.3734 96.6899C63.8495 100.765 60.0822 102.838 54.5684 102.838V108.838ZM71.4669 99.861C75.0461 94.1417 76.6602 86.3366 76.6602 76.7852H70.6602C70.6602 85.7884 69.1167 92.3063 66.3808 96.6781L71.4669 99.861ZM76.6602 76.7852C76.6602 72.1849 76.1109 67.8859 74.9841 63.9072L69.2112 65.542C70.1678 68.9201 70.6602 72.6614 70.6602 76.7852H76.6602ZM74.9925 63.9374C73.9165 59.9803 72.4223 56.5613 70.4461 53.7648L65.5461 57.2274C67.0204 59.3137 68.2606 62.047 69.2028 65.5118L74.9925 63.9374ZM70.4615 53.7868C68.5633 51.049 66.3123 48.8466 63.6858 47.2629L60.5877 52.4012C62.3882 53.4868 64.0434 55.0603 65.5307 57.2054L70.4615 53.7868ZM63.7132 47.2796C61.0653 45.6442 58.2134 44.7812 55.2031 44.7812V50.7812C57.0106 50.7812 58.7811 51.2855 60.5602 52.3844L63.7132 47.2796ZM55.2031 44.7812C50.9486 44.7812 47.1216 46.1156 43.8429 48.7698L47.6181 53.4333C49.8081 51.6604 52.2962 50.7812 55.2031 50.7812V44.7812ZM43.8461 48.7672C40.7463 51.2694 37.9506 54.8897 35.3978 59.4508L40.6335 62.3812C42.9634 58.2184 45.311 55.2957 47.6148 53.4359L43.8461 48.7672ZM35.0156 60.916V92.752H41.0156V60.916H35.0156ZM195.828 106.375H192.828V109.375H195.828V106.375ZM205.594 106.375H208.594V103.375H205.594V106.375ZM205.594 122V125H208.594V122H205.594ZM175.174 122L172.416 123.18L173.194 125H175.174V122ZM170.828 111.844L173.586 110.664L171.462 105.699L168.369 110.126L170.828 111.844ZM159.256 121.609L158.142 118.824L158.135 118.827L159.256 121.609ZM129.568 122.098L130.7 119.319L130.694 119.317L130.687 119.314L129.568 122.098ZM120.633 116.336L118.511 118.457L118.519 118.464L118.526 118.471L120.633 116.336ZM114.871 107.547L112.086 108.661L112.09 108.672L112.095 108.684L114.871 107.547ZM120.73 79.8125L122.659 82.1102L122.668 82.1032L120.73 79.8125ZM157.352 75.0273L156.507 77.9061L156.517 77.9091L156.527 77.9119L157.352 75.0273ZM168.484 80.9844L166.497 83.2318L171.484 87.6416V80.9844H168.484ZM167.264 52.957L164.472 54.0554L164.483 54.0833L164.494 54.1109L167.264 52.957ZM163.699 48.416L162.023 50.9043L162.041 50.9162L162.059 50.9278L163.699 48.416ZM158.328 46.1699L157.703 49.104L158.328 46.1699ZM145.193 46.9512L143.794 44.2975L141.245 45.6415L142.486 48.2426L145.193 46.9512ZM142.117 64.7246L144.239 66.8459L142.117 64.7246ZM119.998 64.7246L117.865 66.8346L117.877 66.846L117.888 66.8572L119.998 64.7246ZM116.727 47.3906L113.991 46.1595L113.982 46.1786L113.974 46.1978L116.727 47.3906ZM120.34 42.2637L122.415 44.4306L122.465 44.3827L122.512 44.3326L120.34 42.2637ZM124.393 38.6016L126.219 40.9815L126.236 40.9683L126.253 40.9548L124.393 38.6016ZM129.666 35.3301L131.024 38.0051L131.032 38.0011L131.04 37.997L129.666 35.3301ZM145.633 30.8867L145.995 33.8648L146.007 33.8634L146.018 33.8618L145.633 30.8867ZM168.484 100.32L170.76 102.275L171.484 101.432V100.32H168.484ZM168.484 93.582H171.484V92.2956L170.552 91.4088L168.484 93.582ZM161.648 88.748L160.238 91.3961L160.259 91.4069L160.279 91.4175L161.648 88.748ZM144.9 89.0898L146.789 91.4206L146.801 91.4109L146.813 91.401L144.9 89.0898ZM161.404 106.229L162.929 108.812L162.939 108.806L161.404 106.229ZM192.828 63.1621V106.375H198.828V63.1621H192.828ZM195.828 109.375H205.594V103.375H195.828V109.375ZM202.594 106.375V122H208.594V106.375H202.594ZM205.594 119H175.174V125H205.594V119ZM177.932 120.82L173.586 110.664L168.07 113.024L172.416 123.18L177.932 120.82ZM168.369 110.126C165.308 114.507 161.882 117.328 158.142 118.824L160.37 124.395C165.418 122.375 169.708 118.685 173.287 113.562L168.369 110.126ZM158.135 118.827C154.289 120.376 148.628 121.246 140.945 121.246V127.246C148.952 127.246 155.498 126.358 160.377 124.392L158.135 118.827ZM140.945 121.246C137.236 121.246 133.831 120.595 130.7 119.319L128.436 124.876C132.337 126.465 136.516 127.246 140.945 127.246V121.246ZM130.687 119.314C127.543 118.051 124.909 116.341 122.74 114.201L118.526 118.471C121.305 121.214 124.627 123.345 128.45 124.881L130.687 119.314ZM122.754 114.215C120.613 112.074 118.907 109.486 117.647 106.41L112.095 108.684C113.635 112.444 115.769 115.715 118.511 118.457L122.754 114.215ZM117.657 106.433C116.44 103.39 115.82 100.109 115.82 96.5605H109.82C109.82 100.825 110.568 104.867 112.086 108.661L117.657 106.433ZM115.82 96.5605C115.82 90.7309 118.048 85.9816 122.659 82.1102L118.802 77.5148C112.866 82.4976 109.82 88.9136 109.82 96.5605H115.82ZM122.668 82.1032C127.302 78.1843 133.312 76.123 140.945 76.123V70.123C132.172 70.123 124.706 72.5215 118.793 77.5218L122.668 82.1032ZM140.945 76.123C147.387 76.123 152.547 76.7449 156.507 77.9061L158.196 72.1486C153.497 70.7708 147.719 70.123 140.945 70.123V76.123ZM156.527 77.9119C160.466 79.0373 163.77 80.8201 166.497 83.2318L170.472 78.7369C167.014 75.6799 162.896 73.4914 158.176 72.1428L156.527 77.9119ZM171.484 80.9844V60.2812H165.484V80.9844H171.484ZM171.484 60.2812C171.484 57.0976 171.046 54.2335 170.033 51.8032L164.494 54.1109C165.109 55.5868 165.484 57.6055 165.484 60.2812H171.484ZM170.055 51.8587C169.075 49.3664 167.517 47.3265 165.34 45.9042L162.059 50.9278C163.071 51.5889 163.89 52.5763 164.472 54.0554L170.055 51.8587ZM165.375 45.9277C163.444 44.6272 161.293 43.7345 158.953 43.2358L157.703 49.104C159.334 49.4517 160.764 50.0563 162.023 50.9043L165.375 45.9277ZM158.953 43.2358C156.703 42.7563 154.106 42.5352 151.199 42.5352V48.5352C153.826 48.5352 155.981 48.7372 157.703 49.104L158.953 43.2358ZM151.199 42.5352C148.545 42.5352 146.055 43.1052 143.794 44.2975L146.593 49.6049C147.912 48.9091 149.427 48.5352 151.199 48.5352V42.5352ZM142.486 48.2426C143.302 49.9552 143.707 51.7438 143.707 53.6406H149.707C149.707 50.8499 149.103 48.1789 147.901 45.6598L142.486 48.2426ZM143.707 53.6406C143.707 57.1748 142.493 60.1063 139.996 62.6033L144.239 66.8459C147.861 63.2231 149.707 58.7653 149.707 53.6406H143.707ZM139.996 62.6033C137.538 65.061 134.626 66.2656 131.082 66.2656V72.2656C136.197 72.2656 140.641 70.4429 144.239 66.8459L139.996 62.6033ZM131.082 66.2656C127.538 66.2656 124.603 65.06 122.108 62.592L117.888 66.8572C121.513 70.4439 125.968 72.2656 131.082 72.2656V66.2656ZM122.131 62.6147C119.663 60.1201 118.457 57.1851 118.457 53.6406H112.457C112.457 58.755 114.279 63.2093 117.865 66.8346L122.131 62.6147ZM118.457 53.6406C118.457 51.8207 118.803 50.145 119.479 48.5834L113.974 46.1978C112.958 48.5425 112.457 51.0335 112.457 53.6406H118.457ZM119.462 48.6217C120.185 47.0161 121.166 45.6258 122.415 44.4306L118.265 40.0967C116.454 41.8312 115.026 43.8589 113.991 46.1595L119.462 48.6217ZM122.512 44.3326C123.715 43.0701 124.951 41.9548 126.219 40.9815L122.566 36.2216C121.035 37.3967 119.569 38.7228 118.167 40.1947L122.512 44.3326ZM126.253 40.9548C127.455 40.0045 129.032 39.0166 131.024 38.0051L128.308 32.6551C126.069 33.792 124.13 34.9851 122.532 36.2483L126.253 40.9548ZM131.04 37.997C133 36.9875 135.141 36.1464 137.473 35.4803L135.824 29.7111C133.143 30.4773 130.629 31.4591 128.292 32.6632L131.04 37.997ZM137.473 35.4803C139.786 34.8193 142.618 34.275 145.995 33.8648L145.271 27.9086C141.681 28.3447 138.524 28.9398 135.824 29.7111L137.473 35.4803ZM146.018 33.8618C149.386 33.4252 153.097 33.2031 157.156 33.2031V27.2031C152.882 27.2031 148.911 27.4367 145.247 27.9116L146.018 33.8618ZM157.156 33.2031C162.261 33.2031 167.014 33.9557 171.436 35.4398L173.345 29.7516C168.262 28.0456 162.859 27.2031 157.156 27.2031V33.2031ZM171.436 35.4398C175.885 36.9331 179.656 38.9812 182.792 41.5553L186.599 36.9174C182.834 33.8274 178.401 31.4484 173.345 29.7516L171.436 35.4398ZM182.792 41.5553C185.895 44.102 188.344 47.2335 190.145 50.9844L195.554 48.3867C193.384 43.8693 190.397 40.0347 186.599 36.9174L182.792 41.5553ZM190.145 50.9844C191.925 54.69 192.828 58.735 192.828 63.1621H198.828C198.828 57.8887 197.745 52.9493 195.554 48.3867L190.145 50.9844ZM171.484 100.32V93.582H165.484V100.32H171.484ZM170.552 91.4088C168.321 89.2854 165.806 87.5086 163.017 86.0786L160.279 91.4175C162.569 92.5917 164.611 94.0375 166.416 95.7553L170.552 91.4088ZM163.058 86.1C160.252 84.6059 157.439 83.7461 154.666 83.7461V89.7461C156.19 89.7461 158.031 90.2209 160.238 91.3961L163.058 86.1ZM154.666 83.7461C149.884 83.7461 145.719 84.5186 142.988 86.7787L146.813 91.401C147.858 90.536 150.203 89.7461 154.666 89.7461V83.7461ZM143.012 86.759C140.161 89.0687 139.068 92.6023 139.068 96.5605H145.068C145.068 93.6178 145.863 92.1709 146.789 91.4206L143.012 86.759ZM139.068 96.5605C139.068 100.987 139.922 104.872 142.205 107.612L146.814 103.771C145.842 102.604 145.068 100.402 145.068 96.5605H139.068ZM142.205 107.612C144.71 110.618 148.904 111.621 153.592 111.621V105.621C149.425 105.621 147.565 104.671 146.814 103.771L142.205 107.612ZM153.592 111.621C156.754 111.621 159.881 110.612 162.929 108.812L159.879 103.645C157.524 105.035 155.442 105.621 153.592 105.621V111.621ZM162.939 108.806C165.94 107.02 168.553 104.844 170.76 102.275L166.209 98.3653C164.444 100.419 162.338 102.182 159.87 103.651L162.939 108.806ZM299.197 37.1855L297.076 39.3069L297.084 39.3148L297.092 39.3228L299.197 37.1855ZM304.471 45.4375L301.683 46.547L301.69 46.5634L301.697 46.5797L304.471 45.4375ZM307.303 56.1797L304.33 56.5828L304.332 56.5969L304.334 56.6111L307.303 56.1797ZM308.133 106.375H305.133V109.375H308.133V106.375ZM317.898 106.375H320.898V103.375H317.898V106.375ZM317.898 122V125H320.898V122H317.898ZM271.023 122H268.023V125H271.023V122ZM271.023 106.375V103.375H268.023V106.375H271.023ZM280.789 106.375V109.375H283.789V106.375H280.789ZM279.373 55.3008L276.514 56.2104L276.519 56.2251L276.524 56.2397L279.373 55.3008ZM275.369 49.3926L273.783 51.9393L273.794 51.9459L273.805 51.9524L275.369 49.3926ZM259.891 51.248L258.007 48.9132L259.891 51.248ZM251.736 60.916L249.189 59.3314L248.741 60.0517L248.736 60.8999L251.736 60.916ZM251.492 106.375L248.492 106.359L248.476 109.375H251.492V106.375ZM261.258 106.375H264.258V103.375H261.258V106.375ZM261.258 122V125H264.258V122H261.258ZM214.383 122H211.383V125H214.383V122ZM214.383 106.375V103.375H211.383V106.375H214.383ZM224.148 106.375V109.375H227.148V106.375H224.148ZM224.148 47.7812H227.148V44.7812H224.148V47.7812ZM214.383 47.7812H211.383V50.7812H214.383V47.7812ZM214.383 32.1562V29.1562H211.383V32.1562H214.383ZM244.705 32.1562L247.37 30.7793L246.532 29.1562H244.705V32.1562ZM251.541 45.3887L248.876 46.7656L251.453 51.7542L254.167 46.8389L251.541 45.3887ZM255.691 39.5293L253.47 37.5133L253.468 37.5155L255.691 39.5293ZM261.355 34.7441L263.002 37.2518L263.011 37.2459L261.355 34.7441ZM278.836 33.2031C283.13 33.2031 286.758 33.7868 289.778 34.8795L291.82 29.2376C288.003 27.8565 283.657 27.2031 278.836 27.2031V33.2031ZM289.778 34.8795C292.855 35.9933 295.257 37.4876 297.076 39.3069L301.319 35.0642C298.776 32.5215 295.578 30.5979 291.82 29.2376L289.778 34.8795ZM297.092 39.3228C298.929 41.1322 300.475 43.5121 301.683 46.547L307.258 44.328C305.797 40.6571 303.828 37.5358 301.303 35.0483L297.092 39.3228ZM301.697 46.5797C302.959 49.6452 303.841 52.9755 304.33 56.5828L310.276 55.7766C309.723 51.7016 308.717 47.8704 307.245 44.2953L301.697 46.5797ZM304.334 56.6111C304.862 60.244 305.133 64.4572 305.133 69.2656H311.133C311.133 64.2433 310.85 59.7326 310.272 55.7483L304.334 56.6111ZM305.133 69.2656V106.375H311.133V69.2656H305.133ZM308.133 109.375H317.898V103.375H308.133V109.375ZM314.898 106.375V122H320.898V106.375H314.898ZM317.898 119H271.023V125H317.898V119ZM274.023 122V106.375H268.023V122H274.023ZM271.023 109.375H280.789V103.375H271.023V109.375ZM283.789 106.375V67.3125H277.789V106.375H283.789ZM283.789 67.3125C283.789 62.0417 283.312 57.6693 282.222 54.3618L276.524 56.2397C277.322 58.6614 277.789 62.2968 277.789 67.3125H283.789ZM282.232 54.3912C281.2 51.1478 279.537 48.4237 276.933 46.8327L273.805 51.9524C274.717 52.5099 275.723 53.7246 276.514 56.2104L282.232 54.3912ZM276.955 46.8459C274.579 45.3667 271.595 44.7812 268.289 44.7812V50.7812C270.972 50.7812 272.709 51.27 273.783 51.9393L276.955 46.8459ZM268.289 44.7812C264.665 44.7812 261.221 46.3204 258.007 48.9132L261.774 53.5829C264.29 51.5533 266.445 50.7812 268.289 50.7812V44.7812ZM258.007 48.9132C254.811 51.4913 251.884 54.9985 249.189 59.3314L254.284 62.5006C256.732 58.5653 259.241 55.6272 261.774 53.5829L258.007 48.9132ZM248.736 60.8999L248.492 106.359L254.492 106.391L254.736 60.9321L248.736 60.8999ZM251.492 109.375H261.258V103.375H251.492V109.375ZM258.258 106.375V122H264.258V106.375H258.258ZM261.258 119H214.383V125H261.258V119ZM217.383 122V106.375H211.383V122H217.383ZM214.383 109.375H224.148V103.375H214.383V109.375ZM227.148 106.375V47.7812H221.148V106.375H227.148ZM224.148 44.7812H214.383V50.7812H224.148V44.7812ZM217.383 47.7812V32.1562H211.383V47.7812H217.383ZM214.383 35.1562H244.705V29.1562H214.383V35.1562ZM242.04 33.5332L248.876 46.7656L254.206 44.0117L247.37 30.7793L242.04 33.5332ZM254.167 46.8389C255.267 44.8466 256.519 43.0851 257.915 41.5431L253.468 37.5155C251.739 39.424 250.223 41.5688 248.915 43.9384L254.167 46.8389ZM257.913 41.5453C259.322 39.9925 261.012 38.5587 263.002 37.2517L259.709 32.2365C257.337 33.7942 255.251 35.5505 253.47 37.5133L257.913 41.5453ZM263.011 37.2459C264.913 35.9873 267.191 34.9862 269.884 34.2758L268.354 28.4742C265.123 29.3263 262.225 30.5713 259.7 32.2423L263.011 37.2459ZM269.884 34.2758C272.563 33.5693 275.541 33.2031 278.836 33.2031V27.2031C275.099 27.2031 271.6 27.6182 268.354 28.4742L269.884 34.2758ZM405.789 106.375H402.789V109.375H405.789V106.375ZM415.555 106.375H418.555V103.375H415.555V106.375ZM415.555 122V125H418.555V122H415.555ZM385.135 122L382.377 123.18L383.155 125H385.135V122ZM380.789 111.844L383.547 110.664L381.423 105.699L378.33 110.126L380.789 111.844ZM369.217 121.609L368.103 118.824L368.095 118.827L369.217 121.609ZM339.529 122.098L340.661 119.319L340.655 119.317L340.648 119.314L339.529 122.098ZM330.594 116.336L328.472 118.457L328.479 118.464L328.487 118.471L330.594 116.336ZM324.832 107.547L322.047 108.661L322.051 108.672L322.056 108.684L324.832 107.547ZM330.691 79.8125L332.62 82.1102L332.629 82.1032L330.691 79.8125ZM367.312 75.0273L366.468 77.9061L366.478 77.9091L366.488 77.9119L367.312 75.0273ZM378.445 80.9844L376.458 83.2318L381.445 87.6416V80.9844H378.445ZM377.225 52.957L374.433 54.0554L374.444 54.0833L374.455 54.1109L377.225 52.957ZM373.66 48.416L371.984 50.9043L372.002 50.9162L372.02 50.9278L373.66 48.416ZM368.289 46.1699L367.664 49.104L368.289 46.1699ZM355.154 46.9512L353.755 44.2975L351.206 45.6415L352.446 48.2426L355.154 46.9512ZM352.078 64.7246L354.199 66.8459L352.078 64.7246ZM329.959 64.7246L327.826 66.8346L327.838 66.846L327.849 66.8572L329.959 64.7246ZM326.688 47.3906L323.952 46.1595L323.943 46.1786L323.935 46.1978L326.688 47.3906ZM330.301 42.2637L332.375 44.4306L332.425 44.3827L332.473 44.3326L330.301 42.2637ZM334.354 38.6016L336.18 40.9815L336.197 40.9683L336.214 40.9548L334.354 38.6016ZM339.627 35.3301L340.985 38.0051L340.993 38.0011L341.001 37.997L339.627 35.3301ZM355.594 30.8867L355.956 33.8648L355.967 33.8634L355.979 33.8618L355.594 30.8867ZM378.445 100.32L380.721 102.275L381.445 101.432V100.32H378.445ZM378.445 93.582H381.445V92.2956L380.513 91.4088L378.445 93.582ZM371.609 88.748L370.199 91.3961L370.22 91.4069L370.24 91.4175L371.609 88.748ZM354.861 89.0898L356.75 91.4206L356.762 91.4109L356.774 91.401L354.861 89.0898ZM371.365 106.229L372.89 108.812L372.9 108.806L371.365 106.229ZM402.789 63.1621V106.375H408.789V63.1621H402.789ZM405.789 109.375H415.555V103.375H405.789V109.375ZM412.555 106.375V122H418.555V106.375H412.555ZM415.555 119H385.135V125H415.555V119ZM387.893 120.82L383.547 110.664L378.031 113.024L382.377 123.18L387.893 120.82ZM378.33 110.126C375.268 114.507 371.843 117.328 368.103 118.824L370.331 124.395C375.379 122.375 379.669 118.685 383.248 113.562L378.33 110.126ZM368.095 118.827C364.25 120.376 358.589 121.246 350.906 121.246V127.246C358.913 127.246 365.459 126.358 370.338 124.392L368.095 118.827ZM350.906 121.246C347.197 121.246 343.792 120.595 340.661 119.319L338.397 124.876C342.298 126.465 346.477 127.246 350.906 127.246V121.246ZM340.648 119.314C337.504 118.051 334.87 116.341 332.701 114.201L328.487 118.471C331.266 121.214 334.588 123.345 338.411 124.881L340.648 119.314ZM332.715 114.215C330.574 112.074 328.868 109.486 327.608 106.41L322.056 108.684C323.596 112.444 325.73 115.715 328.472 118.457L332.715 114.215ZM327.617 106.433C326.401 103.39 325.781 100.109 325.781 96.5605H319.781C319.781 100.825 320.529 104.867 322.047 108.661L327.617 106.433ZM325.781 96.5605C325.781 90.7309 328.009 85.9816 332.62 82.1102L328.762 77.5148C322.827 82.4976 319.781 88.9136 319.781 96.5605H325.781ZM332.629 82.1032C337.263 78.1843 343.273 76.123 350.906 76.123V70.123C342.133 70.123 334.667 72.5215 328.754 77.5218L332.629 82.1032ZM350.906 76.123C357.348 76.123 362.508 76.7449 366.468 77.9061L368.157 72.1486C363.458 70.7708 357.68 70.123 350.906 70.123V76.123ZM366.488 77.9119C370.427 79.0373 373.731 80.8201 376.458 83.2318L380.433 78.7369C376.975 75.6799 372.857 73.4914 368.137 72.1428L366.488 77.9119ZM381.445 80.9844V60.2812H375.445V80.9844H381.445ZM381.445 60.2812C381.445 57.0976 381.006 54.2335 379.994 51.8032L374.455 54.1109C375.07 55.5868 375.445 57.6055 375.445 60.2812H381.445ZM380.016 51.8587C379.036 49.3664 377.478 47.3265 375.301 45.9042L372.02 50.9278C373.032 51.5889 373.851 52.5763 374.433 54.0554L380.016 51.8587ZM375.336 45.9277C373.405 44.6272 371.254 43.7345 368.914 43.2358L367.664 49.104C369.295 49.4517 370.725 50.0563 371.984 50.9043L375.336 45.9277ZM368.914 43.2358C366.664 42.7563 364.067 42.5352 361.16 42.5352V48.5352C363.787 48.5352 365.942 48.7372 367.664 49.104L368.914 43.2358ZM361.16 42.5352C358.506 42.5352 356.016 43.1052 353.755 44.2975L356.554 49.6049C357.873 48.9091 359.388 48.5352 361.16 48.5352V42.5352ZM352.446 48.2426C353.263 49.9552 353.668 51.7438 353.668 53.6406H359.668C359.668 50.8499 359.064 48.1789 357.862 45.6598L352.446 48.2426ZM353.668 53.6406C353.668 57.1748 352.454 60.1063 349.957 62.6033L354.199 66.8459C357.822 63.2231 359.668 58.7653 359.668 53.6406H353.668ZM349.957 62.6033C347.499 65.061 344.587 66.2656 341.043 66.2656V72.2656C346.158 72.2656 350.602 70.4429 354.199 66.8459L349.957 62.6033ZM341.043 66.2656C337.498 66.2656 334.564 65.06 332.069 62.592L327.849 66.8572C331.474 70.4439 335.929 72.2656 341.043 72.2656V66.2656ZM332.092 62.6147C329.624 60.1201 328.418 57.1851 328.418 53.6406H322.418C322.418 58.755 324.24 63.2093 327.826 66.8346L332.092 62.6147ZM328.418 53.6406C328.418 51.8207 328.763 50.145 329.44 48.5834L323.935 46.1978C322.919 48.5425 322.418 51.0335 322.418 53.6406H328.418ZM329.423 48.6217C330.146 47.0161 331.127 45.6258 332.375 44.4306L328.226 40.0967C326.415 41.8312 324.987 43.8589 323.952 46.1595L329.423 48.6217ZM332.473 44.3326C333.676 43.0701 334.912 41.9548 336.18 40.9815L332.527 36.2216C330.996 37.3967 329.53 38.7228 328.128 40.1947L332.473 44.3326ZM336.214 40.9548C337.416 40.0045 338.993 39.0166 340.985 38.0051L338.269 32.6551C336.029 33.792 334.09 34.9851 332.493 36.2483L336.214 40.9548ZM341.001 37.997C342.961 36.9875 345.102 36.1464 347.434 35.4803L345.785 29.7111C343.103 30.4773 340.59 31.4591 338.253 32.6632L341.001 37.997ZM347.434 35.4803C349.747 34.8193 352.579 34.275 355.956 33.8648L355.232 27.9086C351.642 28.3447 348.485 28.9398 345.785 29.7111L347.434 35.4803ZM355.979 33.8618C359.347 33.4252 363.058 33.2031 367.117 33.2031V27.2031C362.843 27.2031 358.871 27.4367 355.208 27.9116L355.979 33.8618ZM367.117 33.2031C372.222 33.2031 376.975 33.9557 381.397 35.4398L383.306 29.7516C378.223 28.0456 372.82 27.2031 367.117 27.2031V33.2031ZM381.397 35.4398C385.846 36.9331 389.617 38.9812 392.753 41.5553L396.56 36.9174C392.795 33.8274 388.362 31.4484 383.306 29.7516L381.397 35.4398ZM392.753 41.5553C395.856 44.102 398.305 47.2335 400.106 50.9844L405.515 48.3867C403.345 43.8693 400.358 40.0347 396.56 36.9174L392.753 41.5553ZM400.106 50.9844C401.886 54.69 402.789 58.735 402.789 63.1621H408.789C408.789 57.8887 407.706 52.9493 405.515 48.3867L400.106 50.9844ZM381.445 100.32V93.582H375.445V100.32H381.445ZM380.513 91.4088C378.282 89.2854 375.767 87.5086 372.978 86.0786L370.24 91.4175C372.53 92.5917 374.572 94.0375 376.377 95.7553L380.513 91.4088ZM373.019 86.1C370.213 84.6059 367.4 83.7461 364.627 83.7461V89.7461C366.151 89.7461 367.992 90.2209 370.199 91.3961L373.019 86.1ZM364.627 83.7461C359.845 83.7461 355.679 84.5186 352.949 86.7787L356.774 91.401C357.819 90.536 360.164 89.7461 364.627 89.7461V83.7461ZM352.973 86.759C350.122 89.0687 349.029 92.6023 349.029 96.5605H355.029C355.029 93.6178 355.824 92.1709 356.75 91.4206L352.973 86.759ZM349.029 96.5605C349.029 100.987 349.883 104.872 352.166 107.612L356.775 103.771C355.803 102.604 355.029 100.402 355.029 96.5605H349.029ZM352.166 107.612C354.671 110.618 358.865 111.621 363.553 111.621V105.621C359.386 105.621 357.526 104.671 356.775 103.771L352.166 107.612ZM363.553 111.621C366.715 111.621 369.842 110.612 372.89 108.812L369.84 103.645C367.485 105.035 365.403 105.621 363.553 105.621V111.621ZM372.9 108.806C375.901 107.02 378.514 104.844 380.721 102.275L376.17 98.3653C374.405 100.419 372.299 102.182 369.831 103.651L372.9 108.806ZM509.158 37.1855L507.037 39.3069L507.045 39.3148L507.053 39.3228L509.158 37.1855ZM514.432 45.4375L511.644 46.547L511.651 46.5634L511.658 46.5797L514.432 45.4375ZM517.264 56.1797L514.291 56.5828L514.293 56.5969L514.295 56.6111L517.264 56.1797ZM518.094 106.375H515.094V109.375H518.094V106.375ZM527.859 106.375H530.859V103.375H527.859V106.375ZM527.859 122V125H530.859V122H527.859ZM480.984 122H477.984V125H480.984V122ZM480.984 106.375V103.375H477.984V106.375H480.984ZM490.75 106.375V109.375H493.75V106.375H490.75ZM489.334 55.3008L486.475 56.2104L486.48 56.2251L486.485 56.2397L489.334 55.3008ZM485.33 49.3926L483.744 51.9393L483.755 51.9459L483.766 51.9524L485.33 49.3926ZM469.852 51.248L467.968 48.9132L469.852 51.248ZM461.697 60.916L459.15 59.3314L458.702 60.0517L458.697 60.8999L461.697 60.916ZM461.453 106.375L458.453 106.359L458.437 109.375H461.453V106.375ZM471.219 106.375H474.219V103.375H471.219V106.375ZM471.219 122V125H474.219V122H471.219ZM424.344 122H421.344V125H424.344V122ZM424.344 106.375V103.375H421.344V106.375H424.344ZM434.109 106.375V109.375H437.109V106.375H434.109ZM434.109 47.7812H437.109V44.7812H434.109V47.7812ZM424.344 47.7812H421.344V50.7812H424.344V47.7812ZM424.344 32.1562V29.1562H421.344V32.1562H424.344ZM454.666 32.1562L457.331 30.7793L456.493 29.1562H454.666V32.1562ZM461.502 45.3887L458.837 46.7656L461.414 51.7542L464.128 46.8389L461.502 45.3887ZM465.652 39.5293L463.431 37.5133L463.429 37.5155L465.652 39.5293ZM471.316 34.7441L472.963 37.2518L472.972 37.2459L471.316 34.7441ZM488.797 33.2031C493.091 33.2031 496.719 33.7868 499.739 34.8795L501.781 29.2376C497.964 27.8565 493.618 27.2031 488.797 27.2031V33.2031ZM499.739 34.8795C502.816 35.9933 505.218 37.4876 507.037 39.3069L511.28 35.0642C508.737 32.5215 505.539 30.5979 501.781 29.2376L499.739 34.8795ZM507.053 39.3228C508.89 41.1322 510.436 43.5121 511.644 46.547L517.219 44.328C515.758 40.6571 513.789 37.5358 511.264 35.0483L507.053 39.3228ZM511.658 46.5797C512.92 49.6452 513.802 52.9755 514.291 56.5828L520.236 55.7766C519.684 51.7016 518.678 47.8704 517.206 44.2953L511.658 46.5797ZM514.295 56.6111C514.823 60.244 515.094 64.4572 515.094 69.2656H521.094C521.094 64.2433 520.811 59.7326 520.232 55.7483L514.295 56.6111ZM515.094 69.2656V106.375H521.094V69.2656H515.094ZM518.094 109.375H527.859V103.375H518.094V109.375ZM524.859 106.375V122H530.859V106.375H524.859ZM527.859 119H480.984V125H527.859V119ZM483.984 122V106.375H477.984V122H483.984ZM480.984 109.375H490.75V103.375H480.984V109.375ZM493.75 106.375V67.3125H487.75V106.375H493.75ZM493.75 67.3125C493.75 62.0417 493.273 57.6693 492.183 54.3618L486.485 56.2397C487.283 58.6614 487.75 62.2968 487.75 67.3125H493.75ZM492.193 54.3912C491.161 51.1478 489.498 48.4237 486.894 46.8327L483.766 51.9524C484.678 52.5099 485.684 53.7246 486.475 56.2104L492.193 54.3912ZM486.916 46.8459C484.54 45.3667 481.556 44.7812 478.25 44.7812V50.7812C480.933 50.7812 482.67 51.27 483.744 51.9393L486.916 46.8459ZM478.25 44.7812C474.626 44.7812 471.181 46.3204 467.968 48.9132L471.735 53.5829C474.251 51.5533 476.406 50.7812 478.25 50.7812V44.7812ZM467.968 48.9132C464.772 51.4913 461.845 54.9985 459.15 59.3314L464.245 62.5006C466.693 58.5653 469.202 55.6272 471.735 53.5829L467.968 48.9132ZM458.697 60.8999L458.453 106.359L464.453 106.391L464.697 60.9321L458.697 60.8999ZM461.453 109.375H471.219V103.375H461.453V109.375ZM468.219 106.375V122H474.219V106.375H468.219ZM471.219 119H424.344V125H471.219V119ZM427.344 122V106.375H421.344V122H427.344ZM424.344 109.375H434.109V103.375H424.344V109.375ZM437.109 106.375V47.7812H431.109V106.375H437.109ZM434.109 44.7812H424.344V50.7812H434.109V44.7812ZM427.344 47.7812V32.1562H421.344V47.7812H427.344ZM424.344 35.1562H454.666V29.1562H424.344V35.1562ZM452.001 33.5332L458.837 46.7656L464.167 44.0117L457.331 30.7793L452.001 33.5332ZM464.128 46.8389C465.228 44.8466 466.479 43.0851 467.876 41.5431L463.429 37.5155C461.7 39.424 460.184 41.5688 458.876 43.9384L464.128 46.8389ZM467.874 41.5453C469.283 39.9925 470.973 38.5587 472.963 37.2517L469.67 32.2365C467.298 33.7942 465.212 35.5505 463.431 37.5133L467.874 41.5453ZM472.972 37.2459C474.874 35.9873 477.152 34.9862 479.845 34.2758L478.315 28.4742C475.084 29.3263 472.186 30.5713 469.661 32.2423L472.972 37.2459ZM479.845 34.2758C482.524 33.5693 485.502 33.2031 488.797 33.2031V27.2031C485.06 27.2031 481.561 27.6182 478.315 28.4742L479.845 34.2758ZM615.75 106.375H612.75V109.375H615.75V106.375ZM625.516 106.375H628.516V103.375H625.516V106.375ZM625.516 122V125H628.516V122H625.516ZM595.096 122L592.338 123.18L593.116 125H595.096V122ZM590.75 111.844L593.508 110.664L591.384 105.699L588.291 110.126L590.75 111.844ZM579.178 121.609L578.064 118.824L578.056 118.827L579.178 121.609ZM549.49 122.098L550.622 119.319L550.616 119.317L550.609 119.314L549.49 122.098ZM540.555 116.336L538.433 118.457L538.44 118.464L538.447 118.471L540.555 116.336ZM534.793 107.547L532.008 108.661L532.012 108.672L532.017 108.684L534.793 107.547ZM540.652 79.8125L542.581 82.1102L542.59 82.1032L540.652 79.8125ZM577.273 75.0273L576.429 77.9061L576.439 77.9091L576.449 77.9119L577.273 75.0273ZM588.406 80.9844L586.419 83.2318L591.406 87.6416V80.9844H588.406ZM587.186 52.957L584.394 54.0554L584.405 54.0833L584.416 54.1109L587.186 52.957ZM583.621 48.416L581.945 50.9043L581.963 50.9162L581.981 50.9278L583.621 48.416ZM578.25 46.1699L577.625 49.104L578.25 46.1699ZM565.115 46.9512L563.716 44.2975L561.167 45.6415L562.407 48.2426L565.115 46.9512ZM562.039 64.7246L564.16 66.8459L562.039 64.7246ZM539.92 64.7246L537.787 66.8346L537.799 66.846L537.81 66.8572L539.92 64.7246ZM536.648 47.3906L533.913 46.1595L533.904 46.1786L533.896 46.1978L536.648 47.3906ZM540.262 42.2637L542.336 44.4306L542.386 44.3827L542.434 44.3326L540.262 42.2637ZM544.314 38.6016L546.141 40.9815L546.158 40.9683L546.175 40.9548L544.314 38.6016ZM549.588 35.3301L550.946 38.0051L550.954 38.0011L550.962 37.997L549.588 35.3301ZM565.555 30.8867L565.917 33.8648L565.928 33.8634L565.94 33.8618L565.555 30.8867ZM588.406 100.32L590.682 102.275L591.406 101.432V100.32H588.406ZM588.406 93.582H591.406V92.2956L590.474 91.4088L588.406 93.582ZM581.57 88.748L580.16 91.3961L580.181 91.4069L580.201 91.4175L581.57 88.748ZM564.822 89.0898L566.711 91.4206L566.723 91.4109L566.735 91.401L564.822 89.0898ZM581.326 106.229L582.851 108.812L582.861 108.806L581.326 106.229ZM612.75 63.1621V106.375H618.75V63.1621H612.75ZM615.75 109.375H625.516V103.375H615.75V109.375ZM622.516 106.375V122H628.516V106.375H622.516ZM625.516 119H595.096V125H625.516V119ZM597.854 120.82L593.508 110.664L587.992 113.024L592.338 123.18L597.854 120.82ZM588.291 110.126C585.229 114.507 581.804 117.328 578.064 118.824L580.292 124.395C585.34 122.375 589.63 118.685 593.209 113.562L588.291 110.126ZM578.056 118.827C574.211 120.376 568.55 121.246 560.867 121.246V127.246C568.874 127.246 575.42 126.358 580.299 124.392L578.056 118.827ZM560.867 121.246C557.158 121.246 553.753 120.595 550.622 119.319L548.358 124.876C552.259 126.465 556.438 127.246 560.867 127.246V121.246ZM550.609 119.314C547.465 118.051 544.831 116.341 542.662 114.201L538.447 118.471C541.227 121.214 544.549 123.345 548.372 124.881L550.609 119.314ZM542.676 114.215C540.535 112.074 538.829 109.486 537.569 106.41L532.017 108.684C533.557 112.444 535.691 115.715 538.433 118.457L542.676 114.215ZM537.578 106.433C536.361 103.39 535.742 100.109 535.742 96.5605H529.742C529.742 100.825 530.49 104.867 532.008 108.661L537.578 106.433ZM535.742 96.5605C535.742 90.7309 537.97 85.9816 542.581 82.1102L538.723 77.5148C532.788 82.4976 529.742 88.9136 529.742 96.5605H535.742ZM542.59 82.1032C547.224 78.1843 553.234 76.123 560.867 76.123V70.123C552.094 70.123 544.628 72.5215 538.715 77.5218L542.59 82.1032ZM560.867 76.123C567.309 76.123 572.469 76.7449 576.429 77.9061L578.118 72.1486C573.419 70.7708 567.641 70.123 560.867 70.123V76.123ZM576.449 77.9119C580.388 79.0373 583.691 80.8201 586.419 83.2318L590.393 78.7369C586.936 75.6799 582.818 73.4914 578.098 72.1428L576.449 77.9119ZM591.406 80.9844V60.2812H585.406V80.9844H591.406ZM591.406 60.2812C591.406 57.0976 590.967 54.2335 589.955 51.8032L584.416 54.1109C585.031 55.5868 585.406 57.6055 585.406 60.2812H591.406ZM589.977 51.8587C588.997 49.3664 587.439 47.3265 585.261 45.9042L581.981 50.9278C582.993 51.5889 583.812 52.5763 584.394 54.0554L589.977 51.8587ZM585.297 45.9277C583.366 44.6272 581.215 43.7345 578.875 43.2358L577.625 49.104C579.256 49.4517 580.686 50.0563 581.945 50.9043L585.297 45.9277ZM578.875 43.2358C576.625 42.7563 574.028 42.5352 571.121 42.5352V48.5352C573.748 48.5352 575.903 48.7372 577.625 49.104L578.875 43.2358ZM571.121 42.5352C568.467 42.5352 565.977 43.1052 563.716 44.2975L566.514 49.6049C567.834 48.9091 569.349 48.5352 571.121 48.5352V42.5352ZM562.407 48.2426C563.224 49.9552 563.629 51.7438 563.629 53.6406H569.629C569.629 50.8499 569.024 48.1789 567.823 45.6598L562.407 48.2426ZM563.629 53.6406C563.629 57.1748 562.415 60.1063 559.918 62.6033L564.16 66.8459C567.783 63.2231 569.629 58.7653 569.629 53.6406H563.629ZM559.918 62.6033C557.46 65.061 554.548 66.2656 551.004 66.2656V72.2656C556.119 72.2656 560.563 70.4429 564.16 66.8459L559.918 62.6033ZM551.004 66.2656C547.459 66.2656 544.524 65.06 542.03 62.592L537.81 66.8572C541.435 70.4439 545.89 72.2656 551.004 72.2656V66.2656ZM542.053 62.6147C539.585 60.1201 538.379 57.1851 538.379 53.6406H532.379C532.379 58.755 534.201 63.2093 537.787 66.8346L542.053 62.6147ZM538.379 53.6406C538.379 51.8207 538.724 50.145 539.401 48.5834L533.896 46.1978C532.88 48.5425 532.379 51.0335 532.379 53.6406H538.379ZM539.384 48.6217C540.107 47.0161 541.088 45.6258 542.336 44.4306L538.187 40.0967C536.375 41.8312 534.948 43.8589 533.913 46.1595L539.384 48.6217ZM542.434 44.3326C543.637 43.0701 544.873 41.9548 546.141 40.9815L542.488 36.2216C540.957 37.3967 539.491 38.7228 538.089 40.1947L542.434 44.3326ZM546.175 40.9548C547.377 40.0045 548.954 39.0166 550.946 38.0051L548.23 32.6551C545.99 33.792 544.051 34.9851 542.454 36.2483L546.175 40.9548ZM550.962 37.997C552.921 36.9875 555.063 36.1464 557.394 35.4803L555.746 29.7111C553.064 30.4773 550.551 31.4591 548.214 32.6632L550.962 37.997ZM557.394 35.4803C559.708 34.8193 562.54 34.275 565.917 33.8648L565.193 27.9086C561.603 28.3447 558.446 28.9398 555.746 29.7111L557.394 35.4803ZM565.94 33.8618C569.308 33.4252 573.019 33.2031 577.078 33.2031V27.2031C572.804 27.2031 568.832 27.4367 565.169 27.9116L565.94 33.8618ZM577.078 33.2031C582.183 33.2031 586.936 33.9557 591.358 35.4398L593.267 29.7516C588.184 28.0456 582.781 27.2031 577.078 27.2031V33.2031ZM591.358 35.4398C595.807 36.9331 599.578 38.9812 602.714 41.5553L606.52 36.9174C602.756 33.8274 598.323 31.4484 593.267 29.7516L591.358 35.4398ZM602.714 41.5553C605.817 44.102 608.266 47.2335 610.067 50.9844L615.476 48.3867C613.306 43.8693 610.319 40.0347 606.52 36.9174L602.714 41.5553ZM610.067 50.9844C611.847 54.69 612.75 58.735 612.75 63.1621H618.75C618.75 57.8887 617.667 52.9493 615.476 48.3867L610.067 50.9844ZM591.406 100.32V93.582H585.406V100.32H591.406ZM590.474 91.4088C588.243 89.2854 585.728 87.5086 582.939 86.0786L580.201 91.4175C582.491 92.5917 584.533 94.0375 586.338 95.7553L590.474 91.4088ZM582.98 86.1C580.174 84.6059 577.361 83.7461 574.588 83.7461V89.7461C576.112 89.7461 577.953 90.2209 580.16 91.3961L582.98 86.1ZM574.588 83.7461C569.806 83.7461 565.64 84.5186 562.91 86.7787L566.735 91.401C567.78 90.536 570.125 89.7461 574.588 89.7461V83.7461ZM562.934 86.759C560.083 89.0687 558.99 92.6023 558.99 96.5605H564.99C564.99 93.6178 565.785 92.1709 566.711 91.4206L562.934 86.759ZM558.99 96.5605C558.99 100.987 559.844 104.872 562.127 107.612L566.736 103.771C565.764 102.604 564.99 100.402 564.99 96.5605H558.99ZM562.127 107.612C564.632 110.618 568.826 111.621 573.514 111.621V105.621C569.347 105.621 567.486 104.671 566.736 103.771L562.127 107.612ZM573.514 111.621C576.676 111.621 579.803 110.612 582.851 108.812L579.801 103.645C577.446 105.035 575.364 105.621 573.514 105.621V111.621ZM582.861 108.806C585.862 107.02 588.475 104.844 590.682 102.275L586.131 98.3653C584.366 100.419 582.259 102.182 579.792 103.651L582.861 108.806Z" fill="white" mask="url(#path-1-outside-1_145_18)"/>
</svg>
