<svg width="626" height="125" viewBox="0 0 626 125" fill="none" xmlns="http://www.w3.org/2000/svg">
<path d="M67.8984 30.2031C75.5156 30.2031 81.9609 32.14 87.2344 36.0137C92.5404 39.8548 96.4792 45.2585 99.0508 52.2246C101.655 59.1582 102.957 67.459 102.957 77.127C102.957 84.1908 101.98 90.6686 100.027 96.5605C98.0742 102.42 95.3724 107.352 91.9219 111.355C88.5039 115.327 84.4023 118.419 79.6172 120.633C74.8646 122.846 69.6888 123.953 64.0898 123.953C61.4857 123.953 58.9792 123.725 56.5703 123.27C54.1615 122.814 52.0618 122.26 50.2715 121.609C48.4811 120.926 46.7233 120.063 44.998 119.021C43.3053 117.98 41.8893 117.02 40.75 116.141C39.6432 115.262 38.5202 114.22 37.3809 113.016C36.2741 111.811 35.444 110.867 34.8906 110.184C34.3698 109.5 33.7839 108.702 33.1328 107.791L23.6113 122H10.6719V16.5312H0.90625V0.90625H38.0156V46.8047C39.3503 44.4935 40.9128 42.3776 42.7031 40.457C44.4935 38.5365 46.5931 36.7949 49.002 35.2324C51.4434 33.6374 54.2754 32.4004 57.498 31.5215C60.7207 30.6426 64.1875 30.2031 67.8984 30.2031ZM38.0156 92.752C39.7409 96.7559 41.987 99.946 44.7539 102.322C47.5208 104.666 50.7923 105.838 54.5684 105.838C61.0137 105.838 65.7988 103.315 68.9238 98.2695C72.0814 93.224 73.6602 86.0625 73.6602 76.7852C73.6602 72.4232 73.1393 68.403 72.0977 64.7246C71.0885 61.0137 69.7214 57.9375 67.9961 55.4961C66.3034 53.0547 64.3503 51.1667 62.1367 49.832C59.9232 48.4648 57.612 47.7812 55.2031 47.7812C51.6224 47.7812 48.4648 48.888 45.7305 51.1016C43.0286 53.2826 40.457 56.554 38.0156 60.916V92.752ZM195.828 63.1621V106.375H205.594V122H175.174L170.828 111.844C167.508 116.596 163.65 119.852 159.256 121.609C154.894 123.367 148.79 124.246 140.945 124.246C136.876 124.246 133.084 123.53 129.568 122.098C126.085 120.698 123.107 118.777 120.633 116.336C118.191 113.895 116.271 110.965 114.871 107.547C113.504 104.129 112.82 100.467 112.82 96.5605C112.82 89.8223 115.457 84.2396 120.73 79.8125C126.004 75.3529 132.742 73.123 140.945 73.123C147.553 73.123 153.022 73.7578 157.352 75.0273C161.681 76.2643 165.392 78.25 168.484 80.9844V60.2812C168.484 57.3516 168.077 54.9102 167.264 52.957C166.482 50.9714 165.294 49.4577 163.699 48.416C162.104 47.3418 160.314 46.5931 158.328 46.1699C156.342 45.7467 153.966 45.5352 151.199 45.5352C148.986 45.5352 146.984 46.0072 145.193 46.9512C146.202 49.0671 146.707 51.2969 146.707 53.6406C146.707 57.9701 145.177 61.6647 142.117 64.7246C139.09 67.752 135.411 69.2656 131.082 69.2656C126.753 69.2656 123.058 67.752 119.998 64.7246C116.971 61.6647 115.457 57.9701 115.457 53.6406C115.457 51.4271 115.88 49.3438 116.727 47.3906C117.605 45.4375 118.81 43.7285 120.34 42.2637C121.642 40.8965 122.993 39.6758 124.393 38.6016C125.792 37.4948 127.55 36.4043 129.666 35.3301C131.814 34.2233 134.142 33.3118 136.648 32.5957C139.155 31.8796 142.15 31.3099 145.633 30.8867C149.148 30.431 152.99 30.2031 157.156 30.2031C162.56 30.2031 167.638 31.0007 172.391 32.5957C177.143 34.1908 181.245 36.4043 184.695 39.2363C188.146 42.0684 190.864 45.5514 192.85 49.6855C194.835 53.8197 195.828 58.3118 195.828 63.1621ZM168.484 100.32V93.582C166.466 91.6615 164.188 90.0501 161.648 88.748C159.142 87.4134 156.814 86.7461 154.666 86.7461C150.044 86.7461 146.788 87.5273 144.9 89.0898C143.012 90.6198 142.068 93.11 142.068 96.5605C142.068 100.695 142.882 103.738 144.51 105.691C146.137 107.645 149.165 108.621 153.592 108.621C156.098 108.621 158.702 107.824 161.404 106.229C164.139 104.601 166.499 102.632 168.484 100.32ZM278.836 30.2031C283.393 30.2031 287.381 30.8216 290.799 32.0586C294.217 33.2956 297.016 35.0046 299.197 37.1855C301.378 39.334 303.136 42.0846 304.471 45.4375C305.838 48.7578 306.782 52.3385 307.303 56.1797C307.856 59.9883 308.133 64.3503 308.133 69.2656V106.375H317.898V122H271.023V106.375H280.789V67.3125C280.789 62.1693 280.317 58.1654 279.373 55.3008C278.462 52.4362 277.127 50.4668 275.369 49.3926C273.644 48.3184 271.284 47.7812 268.289 47.7812C265.555 47.7812 262.755 48.9368 259.891 51.248C257.026 53.5592 254.308 56.7819 251.736 60.916L251.492 106.375H261.258V122H214.383V106.375H224.148V47.7812H214.383V32.1562H244.705L251.541 45.3887C252.745 43.2077 254.129 41.2546 255.691 39.5293C257.286 37.7715 259.174 36.1764 261.355 34.7441C263.569 33.2793 266.157 32.1562 269.119 31.375C272.081 30.5938 275.32 30.2031 278.836 30.2031ZM405.789 63.1621V106.375H415.555V122H385.135L380.789 111.844C377.469 116.596 373.611 119.852 369.217 121.609C364.855 123.367 358.751 124.246 350.906 124.246C346.837 124.246 343.045 123.53 339.529 122.098C336.046 120.698 333.068 118.777 330.594 116.336C328.152 113.895 326.232 110.965 324.832 107.547C323.465 104.129 322.781 100.467 322.781 96.5605C322.781 89.8223 325.418 84.2396 330.691 79.8125C335.965 75.3529 342.703 73.123 350.906 73.123C357.514 73.123 362.983 73.7578 367.312 75.0273C371.642 76.2643 375.353 78.25 378.445 80.9844V60.2812C378.445 57.3516 378.038 54.9102 377.225 52.957C376.443 50.9714 375.255 49.4577 373.66 48.416C372.065 47.3418 370.275 46.5931 368.289 46.1699C366.303 45.7467 363.927 45.5352 361.16 45.5352C358.947 45.5352 356.945 46.0072 355.154 46.9512C356.163 49.0671 356.668 51.2969 356.668 53.6406C356.668 57.9701 355.138 61.6647 352.078 64.7246C349.051 67.752 345.372 69.2656 341.043 69.2656C336.714 69.2656 333.019 67.752 329.959 64.7246C326.932 61.6647 325.418 57.9701 325.418 53.6406C325.418 51.4271 325.841 49.3438 326.688 47.3906C327.566 45.4375 328.771 43.7285 330.301 42.2637C331.603 40.8965 332.954 39.6758 334.354 38.6016C335.753 37.4948 337.511 36.4043 339.627 35.3301C341.775 34.2233 344.103 33.3118 346.609 32.5957C349.116 31.8796 352.111 31.3099 355.594 30.8867C359.109 30.431 362.951 30.2031 367.117 30.2031C372.521 30.2031 377.599 31.0007 382.352 32.5957C387.104 34.1908 391.206 36.4043 394.656 39.2363C398.107 42.0684 400.825 45.5514 402.811 49.6855C404.796 53.8197 405.789 58.3118 405.789 63.1621ZM378.445 100.32V93.582C376.427 91.6615 374.148 90.0501 371.609 88.748C369.103 87.4134 366.775 86.7461 364.627 86.7461C360.005 86.7461 356.749 87.5273 354.861 89.0898C352.973 90.6198 352.029 93.11 352.029 96.5605C352.029 100.695 352.843 103.738 354.471 105.691C356.098 107.645 359.126 108.621 363.553 108.621C366.059 108.621 368.663 107.824 371.365 106.229C374.1 104.601 376.46 102.632 378.445 100.32ZM488.797 30.2031C493.354 30.2031 497.342 30.8216 500.76 32.0586C504.178 33.2956 506.977 35.0046 509.158 37.1855C511.339 39.334 513.097 42.0846 514.432 45.4375C515.799 48.7578 516.743 52.3385 517.264 56.1797C517.817 59.9883 518.094 64.3503 518.094 69.2656V106.375H527.859V122H480.984V106.375H490.75V67.3125C490.75 62.1693 490.278 58.1654 489.334 55.3008C488.423 52.4362 487.088 50.4668 485.33 49.3926C483.605 48.3184 481.245 47.7812 478.25 47.7812C475.516 47.7812 472.716 48.9368 469.852 51.248C466.987 53.5592 464.269 56.7819 461.697 60.916L461.453 106.375H471.219V122H424.344V106.375H434.109V47.7812H424.344V32.1562H454.666L461.502 45.3887C462.706 43.2077 464.09 41.2546 465.652 39.5293C467.247 37.7715 469.135 36.1764 471.316 34.7441C473.53 33.2793 476.118 32.1562 479.08 31.375C482.042 30.5938 485.281 30.2031 488.797 30.2031ZM615.75 63.1621V106.375H625.516V122H595.096L590.75 111.844C587.43 116.596 583.572 119.852 579.178 121.609C574.816 123.367 568.712 124.246 560.867 124.246C556.798 124.246 553.006 123.53 549.49 122.098C546.007 120.698 543.029 118.777 540.555 116.336C538.113 113.895 536.193 110.965 534.793 107.547C533.426 104.129 532.742 100.467 532.742 96.5605C532.742 89.8223 535.379 84.2396 540.652 79.8125C545.926 75.3529 552.664 73.123 560.867 73.123C567.475 73.123 572.944 73.7578 577.273 75.0273C581.603 76.2643 585.314 78.25 588.406 80.9844V60.2812C588.406 57.3516 587.999 54.9102 587.186 52.957C586.404 50.9714 585.216 49.4577 583.621 48.416C582.026 47.3418 580.236 46.5931 578.25 46.1699C576.264 45.7467 573.888 45.5352 571.121 45.5352C568.908 45.5352 566.906 46.0072 565.115 46.9512C566.124 49.0671 566.629 51.2969 566.629 53.6406C566.629 57.9701 565.099 61.6647 562.039 64.7246C559.012 67.752 555.333 69.2656 551.004 69.2656C546.674 69.2656 542.98 67.752 539.92 64.7246C536.893 61.6647 535.379 57.9701 535.379 53.6406C535.379 51.4271 535.802 49.3438 536.648 47.3906C537.527 45.4375 538.732 43.7285 540.262 42.2637C541.564 40.8965 542.915 39.6758 544.314 38.6016C545.714 37.4948 547.472 36.4043 549.588 35.3301C551.736 34.2233 554.064 33.3118 556.57 32.5957C559.077 31.8796 562.072 31.3099 565.555 30.8867C569.07 30.431 572.911 30.2031 577.078 30.2031C582.482 30.2031 587.56 31.0007 592.312 32.5957C597.065 34.1908 601.167 36.4043 604.617 39.2363C608.068 42.0684 610.786 45.5514 612.771 49.6855C614.757 53.8197 615.75 58.3118 615.75 63.1621ZM588.406 100.32V93.582C586.388 91.6615 584.109 90.0501 581.57 88.748C579.064 87.4134 576.736 86.7461 574.588 86.7461C569.965 86.7461 566.71 87.5273 564.822 89.0898C562.934 90.6198 561.99 93.11 561.99 96.5605C561.99 100.695 562.804 103.738 564.432 105.691C566.059 107.645 569.087 108.621 573.514 108.621C576.02 108.621 578.624 107.824 581.326 106.229C584.061 104.601 586.421 102.632 588.406 100.32Z" fill="white"/>
</svg>
