<svg width="2775" height="1113" viewBox="0 0 2775 1113" fill="none" xmlns="http://www.w3.org/2000/svg">
<g filter="url(#filter0_d_24_174)">
<path d="M4.42899 18C4.42899 8.05883 12.4879 0 22.429 0H2753C2762.94 0 2771 8.05887 2771 18V912.325C2771 922.267 2762.94 930.325 2753 930.325H4.42899V18Z" fill="#70524D"/>
</g>
<path d="M1254.47 675.321C555.179 368.713 89.1148 792.791 4.42899 916.134V1084.51C243.758 990.531 527.36 844.618 1234.21 1025.77C1902.5 1197.04 2558.06 1081.36 2771 971.727C2771 951.206 2769.05 753.817 2769.05 753.817C2769.05 753.817 1895.13 956.227 1254.47 675.321Z" fill="#70524D"/>
<defs>
<filter id="filter0_d_24_174" x="0.428986" y="0" width="2774.57" height="938.325" filterUnits="userSpaceOnUse" color-interpolation-filters="sRGB">
<feFlood flood-opacity="0" result="BackgroundImageFix"/>
<feColorMatrix in="SourceAlpha" type="matrix" values="0 0 0 0 0 0 0 0 0 0 0 0 0 0 0 0 0 0 127 0" result="hardAlpha"/>
<feOffset dy="4"/>
<feGaussianBlur stdDeviation="2"/>
<feComposite in2="hardAlpha" operator="out"/>
<feColorMatrix type="matrix" values="0 0 0 0 0 0 0 0 0 0 0 0 0 0 0 0 0 0 0.25 0"/>
<feBlend mode="normal" in2="BackgroundImageFix" result="effect1_dropShadow_24_174"/>
<feBlend mode="normal" in="SourceGraphic" in2="effect1_dropShadow_24_174" result="shape"/>
</filter>
</defs>
</svg>
