<svg width="826" height="125" viewBox="0 0 826 125" fill="none" xmlns="http://www.w3.org/2000/svg">
<mask id="path-1-outside-1_145_11" maskUnits="userSpaceOnUse" x="-3" y="-3" width="832" height="131" fill="black">
<rect fill="white" x="-3" y="-3" width="832" height="131"/>
<path d="M64.9453 49.2949C61.2344 46.9837 56.5143 45.8281 50.7852 45.8281C48.474 45.8281 46.3255 46.1536 44.3398 46.8047C42.3542 47.4232 40.4499 48.4974 38.627 50.0273C36.8366 51.5573 35.3066 53.4941 34.0371 55.8379C32.7676 58.1816 31.7585 61.1602 31.0098 64.7734C30.2611 68.3867 29.8867 72.4883 29.8867 77.0781C29.8867 81.668 30.2936 85.7533 31.1074 89.334C31.9212 92.9147 32.9954 95.8444 34.3301 98.123C35.6973 100.402 37.3249 102.273 39.2129 103.738C41.1335 105.203 43.1029 106.245 45.1211 106.863C47.1393 107.449 49.3203 107.742 51.6641 107.742C58.5326 107.742 63.8874 106.424 67.7285 103.787C71.6022 101.118 74.6947 97.0163 77.0059 91.4824L89.9941 95.9746C88.8223 99.1322 87.3249 102.111 85.502 104.91C83.7116 107.677 81.5469 110.232 79.0078 112.576C76.4688 114.92 73.6367 116.938 70.5117 118.631C67.4193 120.291 63.9199 121.593 60.0137 122.537C56.1074 123.481 51.9896 123.953 47.6602 123.953C41.2474 123.953 35.1764 122.83 29.4473 120.584C23.7507 118.338 18.7865 115.213 14.5547 111.209C10.3555 107.173 7.01888 102.208 4.54492 96.3164C2.10352 90.4245 0.882812 84.0117 0.882812 77.0781C0.882812 71.5117 1.66406 66.2708 3.22656 61.3555C4.78906 56.4401 6.98633 52.0944 9.81836 48.3184C12.6829 44.5423 16.0358 41.2871 19.877 38.5527C23.7181 35.8184 27.9824 33.7513 32.6699 32.3516C37.3574 30.9193 42.2728 30.2031 47.416 30.2031C51.485 30.2031 55.3099 30.5938 58.8906 31.375C62.4714 32.1237 65.6615 33.1654 68.4609 34.5C71.293 35.8021 73.9297 37.4297 76.3711 39.3828C78.8125 41.3359 80.9447 43.4193 82.7676 45.6328C84.623 47.8138 86.3483 50.2715 87.9434 53.0059C89.6035 55.5775 90.4336 58.3932 90.4336 61.4531C90.4336 65.7826 88.9036 69.4772 85.8438 72.5371C82.8164 75.5645 79.138 77.0781 74.8086 77.0781C70.4792 77.0781 66.7845 75.5645 63.7246 72.5371C60.6973 69.4772 59.1836 65.7826 59.1836 61.4531C59.1836 59.0443 59.6882 56.7819 60.6973 54.666C61.7389 52.5501 63.1549 50.7598 64.9453 49.2949ZM159.867 30.2031C164.424 30.2031 168.412 30.8216 171.83 32.0586C175.248 33.2956 178.048 35.0046 180.229 37.1855C182.41 39.334 184.167 42.0846 185.502 45.4375C186.869 48.7578 187.813 52.3385 188.334 56.1797C188.887 59.9883 189.164 64.3503 189.164 69.2656V106.375H198.93V122H152.055V106.375H161.82V67.3125C161.82 62.1693 161.348 58.1654 160.404 55.3008C159.493 52.4362 158.158 50.4668 156.4 49.3926C154.675 48.3184 152.315 47.7812 149.32 47.7812C146.553 47.7812 143.705 48.9694 140.775 51.3457C137.878 53.722 135.128 57.0423 132.523 61.3066V106.375H142.289V122H95.4141V106.375H105.18V16.5312H95.4141V0.90625H132.523V45.4863C133.695 43.3053 135.079 41.3359 136.674 39.5781C138.269 37.8203 140.157 36.2253 142.338 34.793C144.519 33.3281 147.09 32.2051 150.053 31.4238C153.048 30.61 156.319 30.2031 159.867 30.2031ZM232.377 33.8652C238.106 31.6191 244.177 30.4961 250.59 30.4961C257.003 30.4961 263.057 31.6191 268.754 33.8652C274.483 36.1113 279.464 39.2526 283.695 43.2891C287.927 47.293 291.264 52.2409 293.705 58.1328C296.179 64.0247 297.416 70.4375 297.416 77.3711C297.416 84.3047 296.179 90.7174 293.705 96.6094C291.264 102.501 287.927 107.465 283.695 111.502C279.464 115.506 274.483 118.631 268.754 120.877C263.057 123.123 257.003 124.246 250.59 124.246C244.177 124.246 238.106 123.123 232.377 120.877C226.68 118.631 221.716 115.506 217.484 111.502C213.285 107.465 209.949 102.501 207.475 96.6094C205.033 90.7174 203.812 84.3047 203.812 77.3711C203.812 70.4375 205.033 64.0247 207.475 58.1328C209.949 52.2409 213.285 47.293 217.484 43.2891C221.716 39.2526 226.68 36.1113 232.377 33.8652ZM250.59 46.1211C248.311 46.1211 246.277 46.4466 244.486 47.0977C242.696 47.7487 241.052 48.8229 239.555 50.3203C238.057 51.8177 236.82 53.7546 235.844 56.1309C234.9 58.5072 234.151 61.4694 233.598 65.0176C233.077 68.5658 232.816 72.6836 232.816 77.3711C232.816 82.0586 233.077 86.1764 233.598 89.7246C234.151 93.2728 234.9 96.235 235.844 98.6113C236.82 100.988 238.057 102.924 239.555 104.422C241.052 105.919 242.696 106.993 244.486 107.645C246.277 108.296 248.311 108.621 250.59 108.621C253.454 108.621 255.945 108.084 258.061 107.01C260.176 105.903 262.016 104.145 263.578 101.736C265.173 99.3275 266.361 96.0885 267.143 92.0195C267.956 87.9505 268.363 83.0677 268.363 77.3711C268.363 71.6745 267.956 66.7917 267.143 62.7227C266.361 58.6536 265.173 55.4147 263.578 53.0059C262.016 50.597 260.176 48.8555 258.061 47.7812C255.945 46.6745 253.454 46.1211 250.59 46.1211ZM371.195 49.2949C367.484 46.9837 362.764 45.8281 357.035 45.8281C354.724 45.8281 352.576 46.1536 350.59 46.8047C348.604 47.4232 346.7 48.4974 344.877 50.0273C343.087 51.5573 341.557 53.4941 340.287 55.8379C339.018 58.1816 338.008 61.1602 337.26 64.7734C336.511 68.3867 336.137 72.4883 336.137 77.0781C336.137 81.668 336.544 85.7533 337.357 89.334C338.171 92.9147 339.245 95.8444 340.58 98.123C341.947 100.402 343.575 102.273 345.463 103.738C347.383 105.203 349.353 106.245 351.371 106.863C353.389 107.449 355.57 107.742 357.914 107.742C364.783 107.742 370.137 106.424 373.979 103.787C377.852 101.118 380.945 97.0163 383.256 91.4824L396.244 95.9746C395.072 99.1322 393.575 102.111 391.752 104.91C389.962 107.677 387.797 110.232 385.258 112.576C382.719 114.92 379.887 116.938 376.762 118.631C373.669 120.291 370.17 121.593 366.264 122.537C362.357 123.481 358.24 123.953 353.91 123.953C347.497 123.953 341.426 122.83 335.697 120.584C330.001 118.338 325.036 115.213 320.805 111.209C316.605 107.173 313.269 102.208 310.795 96.3164C308.354 90.4245 307.133 84.0117 307.133 77.0781C307.133 71.5117 307.914 66.2708 309.477 61.3555C311.039 56.4401 313.236 52.0944 316.068 48.3184C318.933 44.5423 322.286 41.2871 326.127 38.5527C329.968 35.8184 334.232 33.7513 338.92 32.3516C343.607 30.9193 348.523 30.2031 353.666 30.2031C357.735 30.2031 361.56 30.5938 365.141 31.375C368.721 32.1237 371.911 33.1654 374.711 34.5C377.543 35.8021 380.18 37.4297 382.621 39.3828C385.062 41.3359 387.195 43.4193 389.018 45.6328C390.873 47.8138 392.598 50.2715 394.193 53.0059C395.854 55.5775 396.684 58.3932 396.684 61.4531C396.684 65.7826 395.154 69.4772 392.094 72.5371C389.066 75.5645 385.388 77.0781 381.059 77.0781C376.729 77.0781 373.035 75.5645 369.975 72.5371C366.947 69.4772 365.434 65.7826 365.434 61.4531C365.434 59.0443 365.938 56.7819 366.947 54.666C367.989 52.5501 369.405 50.7598 371.195 49.2949ZM435.111 33.8652C440.84 31.6191 446.911 30.4961 453.324 30.4961C459.737 30.4961 465.792 31.6191 471.488 33.8652C477.217 36.1113 482.198 39.2526 486.43 43.2891C490.661 47.293 493.998 52.2409 496.439 58.1328C498.913 64.0247 500.15 70.4375 500.15 77.3711C500.15 84.3047 498.913 90.7174 496.439 96.6094C493.998 102.501 490.661 107.465 486.43 111.502C482.198 115.506 477.217 118.631 471.488 120.877C465.792 123.123 459.737 124.246 453.324 124.246C446.911 124.246 440.84 123.123 435.111 120.877C429.415 118.631 424.451 115.506 420.219 111.502C416.02 107.465 412.683 102.501 410.209 96.6094C407.768 90.7174 406.547 84.3047 406.547 77.3711C406.547 70.4375 407.768 64.0247 410.209 58.1328C412.683 52.2409 416.02 47.293 420.219 43.2891C424.451 39.2526 429.415 36.1113 435.111 33.8652ZM453.324 46.1211C451.046 46.1211 449.011 46.4466 447.221 47.0977C445.43 47.7487 443.786 48.8229 442.289 50.3203C440.792 51.8177 439.555 53.7546 438.578 56.1309C437.634 58.5072 436.885 61.4694 436.332 65.0176C435.811 68.5658 435.551 72.6836 435.551 77.3711C435.551 82.0586 435.811 86.1764 436.332 89.7246C436.885 93.2728 437.634 96.235 438.578 98.6113C439.555 100.988 440.792 102.924 442.289 104.422C443.786 105.919 445.43 106.993 447.221 107.645C449.011 108.296 451.046 108.621 453.324 108.621C456.189 108.621 458.679 108.084 460.795 107.01C462.911 105.903 464.75 104.145 466.312 101.736C467.908 99.3275 469.096 96.0885 469.877 92.0195C470.691 87.9505 471.098 83.0677 471.098 77.3711C471.098 71.6745 470.691 66.7917 469.877 62.7227C469.096 58.6536 467.908 55.4147 466.312 53.0059C464.75 50.597 462.911 48.8555 460.795 47.7812C458.679 46.6745 456.189 46.1211 453.324 46.1211ZM504.984 0.90625H542.094V106.375H551.859V122H504.984V106.375H514.75V16.5312H504.984V0.90625ZM641.703 63.1621V106.375H651.469V122H621.049L616.703 111.844C613.383 116.596 609.525 119.852 605.131 121.609C600.769 123.367 594.665 124.246 586.82 124.246C582.751 124.246 578.959 123.53 575.443 122.098C571.96 120.698 568.982 118.777 566.508 116.336C564.066 113.895 562.146 110.965 560.746 107.547C559.379 104.129 558.695 100.467 558.695 96.5605C558.695 89.8223 561.332 84.2396 566.605 79.8125C571.879 75.3529 578.617 73.123 586.82 73.123C593.428 73.123 598.897 73.7578 603.227 75.0273C607.556 76.2643 611.267 78.25 614.359 80.9844V60.2812C614.359 57.3516 613.952 54.9102 613.139 52.957C612.357 50.9714 611.169 49.4577 609.574 48.416C607.979 47.3418 606.189 46.5931 604.203 46.1699C602.217 45.7467 599.841 45.5352 597.074 45.5352C594.861 45.5352 592.859 46.0072 591.068 46.9512C592.077 49.0671 592.582 51.2969 592.582 53.6406C592.582 57.9701 591.052 61.6647 587.992 64.7246C584.965 67.752 581.286 69.2656 576.957 69.2656C572.628 69.2656 568.933 67.752 565.873 64.7246C562.846 61.6647 561.332 57.9701 561.332 53.6406C561.332 51.4271 561.755 49.3438 562.602 47.3906C563.48 45.4375 564.685 43.7285 566.215 42.2637C567.517 40.8965 568.868 39.6758 570.268 38.6016C571.667 37.4948 573.425 36.4043 575.541 35.3301C577.689 34.2233 580.017 33.3118 582.523 32.5957C585.03 31.8796 588.025 31.3099 591.508 30.8867C595.023 30.431 598.865 30.2031 603.031 30.2031C608.435 30.2031 613.513 31.0007 618.266 32.5957C623.018 34.1908 627.12 36.4043 630.57 39.2363C634.021 42.0684 636.739 45.5514 638.725 49.6855C640.71 53.8197 641.703 58.3118 641.703 63.1621ZM614.359 100.32V93.582C612.341 91.6615 610.062 90.0501 607.523 88.748C605.017 87.4134 602.689 86.7461 600.541 86.7461C595.919 86.7461 592.663 87.5273 590.775 89.0898C588.887 90.6198 587.943 93.11 587.943 96.5605C587.943 100.695 588.757 103.738 590.385 105.691C592.012 107.645 595.04 108.621 599.467 108.621C601.973 108.621 604.577 107.824 607.279 106.229C610.014 104.601 612.374 102.632 614.359 100.32ZM681.742 12.625H691.508V32.1562H718.852V47.7812H691.508V98.5625C691.508 100.776 692.126 102.632 693.363 104.129C694.633 105.626 696.618 106.375 699.32 106.375C702.348 106.375 704.919 105.382 707.035 103.396C709.151 101.378 710.486 98.4648 711.039 94.6562L722.758 96.6094C722.27 100.418 721.326 103.95 719.926 107.205C718.559 110.428 716.768 113.309 714.555 115.848C712.341 118.354 709.59 120.34 706.303 121.805C703.048 123.237 699.418 123.953 695.414 123.953C685.681 123.953 678.031 121.691 672.465 117.166C666.931 112.609 664.164 106.408 664.164 98.5625V47.7812H654.398V32.1562H656.352C661.365 32.1562 665.792 30.724 669.633 27.8594C673.474 24.9948 677.51 19.9167 681.742 12.625ZM760.746 82.9375C761.039 86.7135 761.658 90.0827 762.602 93.0449C763.546 96.0072 764.685 98.4323 766.02 100.32C767.387 102.208 768.965 103.771 770.756 105.008C772.546 106.212 774.385 107.075 776.273 107.596C778.161 108.084 780.18 108.328 782.328 108.328C789.197 108.328 794.551 107.01 798.393 104.373C802.266 101.704 805.359 97.6022 807.67 92.0684L820.658 96.5605C819.486 99.7181 817.989 102.697 816.166 105.496C814.376 108.263 812.211 110.818 809.672 113.162C807.133 115.506 804.301 117.524 801.176 119.217C798.083 120.877 794.584 122.179 790.678 123.123C786.771 124.067 782.654 124.539 778.324 124.539C771.911 124.539 765.84 123.416 760.111 121.17C754.415 118.924 749.451 115.799 745.219 111.795C741.02 107.758 737.683 102.794 735.209 96.9023C732.768 91.0104 731.547 84.5977 731.547 77.6641C731.547 70.7305 732.768 64.2852 735.209 58.3281C737.683 52.3711 741.02 47.3581 745.219 43.2891C749.451 39.1875 754.415 35.9811 760.111 33.6699C765.84 31.3587 771.911 30.2031 778.324 30.2031C784.737 30.2031 790.792 31.3587 796.488 33.6699C802.217 35.9811 807.182 39.1875 811.381 43.2891C815.613 47.3581 818.949 52.3711 821.391 58.3281C823.865 64.2852 825.102 70.7305 825.102 77.6641L823.881 82.9375H760.746ZM761.088 67.3125H795.561C794.714 59.8255 792.842 54.373 789.945 50.9551C787.048 47.5371 783.207 45.8281 778.422 45.8281C776.046 45.8281 773.913 46.2188 772.025 47C770.137 47.7487 768.445 48.9694 766.947 50.6621C765.45 52.3223 764.197 54.5521 763.188 57.3516C762.211 60.1185 761.511 63.4388 761.088 67.3125Z"/>
</mask>
<path d="M64.9453 49.2949L66.845 51.6168L70.0879 48.9635L66.5313 46.7484L64.9453 49.2949ZM44.3398 46.8047L45.232 49.669L45.2533 49.6623L45.2745 49.6554L44.3398 46.8047ZM38.627 50.0273L36.6983 47.7294L36.6881 47.738L36.678 47.7466L38.627 50.0273ZM31.1074 89.334L28.182 89.9988L31.1074 89.334ZM34.3301 98.123L31.7414 99.6393L31.7494 99.6529L31.7576 99.6665L34.3301 98.123ZM39.2129 103.738L37.3739 106.109L37.3837 106.116L37.3935 106.124L39.2129 103.738ZM45.1211 106.863L44.2421 109.732L44.2633 109.738L44.2847 109.744L45.1211 106.863ZM67.7285 103.787L69.4263 106.26L69.4307 106.257L67.7285 103.787ZM77.0059 91.4824L77.9865 88.6472L75.3235 87.7262L74.2376 90.3263L77.0059 91.4824ZM89.9941 95.9746L92.8067 97.0184L93.8742 94.1422L90.9747 93.1394L89.9941 95.9746ZM85.502 104.91L82.9879 103.273L82.9832 103.28L85.502 104.91ZM70.5117 118.631L71.9307 121.274L71.9406 121.269L70.5117 118.631ZM29.4473 120.584L28.3469 123.375L28.3523 123.377L29.4473 120.584ZM14.5547 111.209L12.4757 113.372L12.4842 113.38L12.4928 113.388L14.5547 111.209ZM4.54492 96.3164L1.7734 97.4648L1.77887 97.4778L4.54492 96.3164ZM9.81836 48.3184L7.42829 46.5052L7.4233 46.5118L7.41836 46.5184L9.81836 48.3184ZM32.6699 32.3516L33.5283 35.2261L33.5374 35.2234L33.5466 35.2206L32.6699 32.3516ZM58.8906 31.375L58.2511 34.306L58.2639 34.3088L58.2766 34.3115L58.8906 31.375ZM68.4609 34.5L67.1699 37.208L67.1888 37.217L67.2077 37.2257L68.4609 34.5ZM82.7676 45.6328L80.4518 47.5399L80.467 47.5585L80.4826 47.5767L82.7676 45.6328ZM87.9434 53.0059L85.352 54.5175L85.3862 54.576L85.4229 54.633L87.9434 53.0059ZM85.8438 72.5371L83.7224 70.4158L85.8438 72.5371ZM63.7246 72.5371L61.592 74.6471L61.6033 74.6585L61.6147 74.6697L63.7246 72.5371ZM60.6973 54.666L58.0058 53.341L57.9975 53.3577L57.9895 53.3746L60.6973 54.666ZM66.5313 46.7484C62.218 44.0621 56.9045 42.8281 50.7852 42.8281V48.8281C56.1241 48.8281 60.2508 49.9054 63.3593 51.8414L66.5313 46.7484ZM50.7852 42.8281C48.1899 42.8281 45.7227 43.1942 43.4052 43.954L45.2745 49.6554C46.9283 49.1131 48.7581 48.8281 50.7852 48.8281V42.8281ZM43.4477 43.9404C41.0316 44.693 38.7822 45.9805 36.6983 47.7294L40.5556 52.3253C42.1176 51.0143 43.6768 50.1534 45.232 49.669L43.4477 43.9404ZM36.678 47.7466C34.5732 49.5453 32.8212 51.7838 31.3992 54.409L36.675 57.2667C37.7921 55.2045 39.0999 53.5693 40.5759 52.308L36.678 47.7466ZM31.3992 54.409C29.9484 57.0876 28.8592 60.3663 28.0722 64.1647L33.9474 65.3821C34.6577 61.954 35.5868 59.2757 36.675 57.2667L31.3992 54.409ZM28.0722 64.1647C27.2734 68.0197 26.8867 72.331 26.8867 77.0781H32.8867C32.8867 72.6455 33.2488 68.7537 33.9474 65.3821L28.0722 64.1647ZM26.8867 77.0781C26.8867 81.8387 27.3081 86.1538 28.182 89.9988L34.0328 88.6691C33.2791 85.3527 32.8867 81.4972 32.8867 77.0781H26.8867ZM28.182 89.9988C29.0394 93.7713 30.2043 97.0149 31.7414 99.6393L36.9187 96.6068C35.7866 94.6739 34.8031 92.0582 34.0328 88.6691L28.182 89.9988ZM31.7576 99.6665C33.2946 102.228 35.1612 104.392 37.3739 106.109L41.0519 101.368C39.4886 100.155 38.0999 98.5752 36.9026 96.5796L31.7576 99.6665ZM37.3935 106.124C39.5563 107.773 41.8391 108.995 44.2421 109.732L46.0001 103.995C44.3667 103.494 42.7106 102.633 41.0322 101.353L37.3935 106.124ZM44.2847 109.744C46.6039 110.418 49.0694 110.742 51.6641 110.742V104.742C49.5712 104.742 47.6747 104.481 45.9575 103.982L44.2847 109.744ZM51.6641 110.742C58.8663 110.742 64.9001 109.367 69.4263 106.26L66.0307 101.314C62.8746 103.48 58.1988 104.742 51.6641 104.742V110.742ZM69.4307 106.257C73.893 103.183 77.3015 98.5589 79.7741 92.6386L74.2376 90.3263C72.0878 95.4736 69.3114 99.0531 66.0263 101.317L69.4307 106.257ZM76.0253 94.3176L89.0135 98.8098L90.9747 93.1394L77.9865 88.6472L76.0253 94.3176ZM87.1816 94.9308C86.0863 97.8819 84.6887 100.661 82.988 103.273L88.0159 106.547C89.961 103.56 91.5582 100.382 92.8067 97.0184L87.1816 94.9308ZM82.9832 103.28C81.3359 105.826 79.3363 108.19 76.973 110.372L81.0427 114.781C83.7575 112.275 86.0873 109.528 88.0207 106.54L82.9832 103.28ZM76.973 110.372C74.6223 112.542 71.9949 114.416 69.0829 115.993L71.9406 121.269C75.2785 119.461 78.3152 117.298 81.0427 114.781L76.973 110.372ZM69.0927 115.988C66.2556 117.511 63.0016 118.729 59.309 119.621L60.7184 125.453C64.8382 124.458 68.583 123.071 71.9307 121.274L69.0927 115.988ZM59.309 119.621C55.6505 120.505 51.7704 120.953 47.6602 120.953V126.953C52.2088 126.953 56.5643 126.457 60.7184 125.453L59.309 119.621ZM47.6602 120.953C41.6061 120.953 35.9079 119.895 30.5423 117.791L28.3523 123.377C34.4449 125.766 40.8887 126.953 47.6602 126.953V120.953ZM30.5477 117.793C25.1892 115.68 20.5558 112.757 16.6165 109.03L12.4928 113.388C17.0172 117.669 22.3121 120.995 28.3469 123.375L30.5477 117.793ZM16.6337 109.046C12.7569 105.32 9.64206 100.707 7.31098 95.155L1.77887 97.4778C4.3957 103.71 7.95406 109.025 12.4757 113.372L16.6337 109.046ZM7.31641 95.168C5.03857 89.6708 3.88281 83.6522 3.88281 77.0781H-2.11719C-2.11719 84.3712 -0.831537 91.1782 1.77343 97.4648L7.31641 95.168ZM3.88281 77.0781C3.88281 71.7957 4.62362 66.8634 6.08559 62.2643L0.367537 60.4466C-1.2955 65.6783 -2.11719 71.2277 -2.11719 77.0781H3.88281ZM6.08559 62.2643C7.55558 57.64 9.60611 53.6014 12.2184 50.1184L7.41836 46.5184C4.36655 50.5874 2.02255 55.2402 0.367537 60.4466L6.08559 62.2643ZM12.2084 50.1315C14.8904 46.5962 18.0244 43.554 21.6167 40.9967L18.1372 36.1087C14.0473 39.0202 10.4755 42.4885 7.42829 46.5052L12.2084 50.1315ZM21.6167 40.9967C25.1797 38.4604 29.1443 36.5353 33.5283 35.2261L31.8115 29.477C26.8206 30.9673 22.2565 33.1763 18.1372 36.1087L21.6167 40.9967ZM33.5466 35.2206C37.9362 33.8793 42.5552 33.2031 47.416 33.2031V27.2031C41.9904 27.2031 36.7786 27.9592 31.7933 29.4825L33.5466 35.2206ZM47.416 33.2031C51.2933 33.2031 54.902 33.5753 58.2511 34.306L59.5301 28.444C55.7178 27.6122 51.6768 27.2031 47.416 27.2031V33.2031ZM58.2766 34.3115C61.664 35.0198 64.6207 35.9927 67.1699 37.208L69.752 31.792C66.7023 30.3381 63.2788 29.2276 59.5046 28.4385L58.2766 34.3115ZM67.2077 37.2257C69.8173 38.4255 72.2456 39.9243 74.497 41.7254L78.2452 37.0402C75.6138 34.9351 72.7686 33.1787 69.7141 31.7743L67.2077 37.2257ZM74.497 41.7254C76.7909 43.5606 78.7719 45.5001 80.4518 47.5399L85.0834 43.7257C83.1174 41.3385 80.8341 39.1113 78.2452 37.0402L74.497 41.7254ZM80.4826 47.5767C82.2121 49.6097 83.8369 51.9202 85.352 54.5175L90.5347 51.4942C88.8597 48.6228 87.034 46.0179 85.0526 43.6889L80.4826 47.5767ZM85.4229 54.633C86.7701 56.7198 87.4336 58.9706 87.4336 61.4531H93.4336C93.4336 57.8158 92.4369 54.4351 90.4638 51.3788L85.4229 54.633ZM87.4336 61.4531C87.4336 64.9873 86.2194 67.9188 83.7224 70.4158L87.9651 74.6584C91.5879 71.0356 93.4336 66.5778 93.4336 61.4531H87.4336ZM83.7224 70.4158C81.2648 72.8735 78.3524 74.0781 74.8086 74.0781V80.0781C79.9236 80.0781 84.3681 78.2554 87.9651 74.6584L83.7224 70.4158ZM74.8086 74.0781C71.2641 74.0781 68.3291 72.8725 65.8346 70.4045L61.6147 74.6697C65.2399 78.2564 69.6942 80.0781 74.8086 80.0781V74.0781ZM65.8572 70.4272C63.3892 67.9326 62.1836 64.9976 62.1836 61.4531H56.1836C56.1836 66.5675 58.0053 71.0218 61.592 74.6471L65.8572 70.4272ZM62.1836 61.4531C62.1836 59.4784 62.5937 57.6587 63.4051 55.9574L57.9895 53.3746C56.7826 55.9051 56.1836 58.6101 56.1836 61.4531H62.1836ZM63.3888 55.9911C64.2447 54.2525 65.3935 52.8044 66.845 51.6168L63.0456 46.973C60.9164 48.7151 59.2332 50.8477 58.0058 53.341L63.3888 55.9911ZM180.229 37.1855L178.107 39.3069L178.115 39.3148L178.123 39.3228L180.229 37.1855ZM185.502 45.4375L182.715 46.547L182.721 46.5634L182.728 46.5797L185.502 45.4375ZM188.334 56.1797L185.361 56.5828L185.363 56.5969L185.365 56.6111L188.334 56.1797ZM189.164 106.375H186.164V109.375H189.164V106.375ZM198.93 106.375H201.93V103.375H198.93V106.375ZM198.93 122V125H201.93V122H198.93ZM152.055 122H149.055V125H152.055V122ZM152.055 106.375V103.375H149.055V106.375H152.055ZM161.82 106.375V109.375H164.82V106.375H161.82ZM160.404 55.3008L157.546 56.2104L157.55 56.2251L157.555 56.2397L160.404 55.3008ZM156.4 49.3926L154.815 51.9393L154.825 51.9459L154.836 51.9524L156.4 49.3926ZM140.775 51.3457L138.886 49.0158L138.879 49.0209L138.873 49.0262L140.775 51.3457ZM132.523 61.3066L129.963 59.7431L129.523 60.463V61.3066H132.523ZM132.523 106.375H129.523V109.375H132.523V106.375ZM142.289 106.375H145.289V103.375H142.289V106.375ZM142.289 122V125H145.289V122H142.289ZM95.4141 122H92.4141V125H95.4141V122ZM95.4141 106.375V103.375H92.4141V106.375H95.4141ZM105.18 106.375V109.375H108.18V106.375H105.18ZM105.18 16.5312H108.18V13.5312H105.18V16.5312ZM95.4141 16.5312H92.4141V19.5312H95.4141V16.5312ZM95.4141 0.90625V-2.09375H92.4141V0.90625H95.4141ZM132.523 0.90625H135.523V-2.09375H132.523V0.90625ZM132.523 45.4863H129.523L135.166 46.9063L132.523 45.4863ZM142.338 34.793L143.985 37.3006L143.998 37.292L144.011 37.2834L142.338 34.793ZM150.053 31.4238L150.818 34.3246L150.829 34.3218L150.839 34.3188L150.053 31.4238ZM159.867 33.2031C164.161 33.2031 167.79 33.7868 170.809 34.8795L172.851 29.2376C169.035 27.8565 164.688 27.2031 159.867 27.2031V33.2031ZM170.809 34.8795C173.887 35.9933 176.288 37.4876 178.107 39.3069L182.35 35.0642C179.807 32.5215 176.609 30.5979 172.851 29.2376L170.809 34.8795ZM178.123 39.3228C179.96 41.1322 181.507 43.5121 182.715 46.547L188.289 44.328C186.828 40.6571 184.859 37.5358 182.334 35.0483L178.123 39.3228ZM182.728 46.5797C183.99 49.6452 184.872 52.9755 185.361 56.5828L191.307 55.7766C190.754 51.7016 189.748 47.8704 188.276 44.2953L182.728 46.5797ZM185.365 56.6111C185.893 60.244 186.164 64.4572 186.164 69.2656H192.164C192.164 64.2433 191.882 59.7326 191.303 55.7483L185.365 56.6111ZM186.164 69.2656V106.375H192.164V69.2656H186.164ZM189.164 109.375H198.93V103.375H189.164V109.375ZM195.93 106.375V122H201.93V106.375H195.93ZM198.93 119H152.055V125H198.93V119ZM155.055 122V106.375H149.055V122H155.055ZM152.055 109.375H161.82V103.375H152.055V109.375ZM164.82 106.375V67.3125H158.82V106.375H164.82ZM164.82 67.3125C164.82 62.0417 164.344 57.6693 163.254 54.3618L157.555 56.2397C158.353 58.6614 158.82 62.2968 158.82 67.3125H164.82ZM163.263 54.3912C162.231 51.1478 160.568 48.4237 157.965 46.8327L154.836 51.9524C155.748 52.5099 156.755 53.7246 157.546 56.2104L163.263 54.3912ZM157.986 46.8459C155.61 45.3667 152.627 44.7812 149.32 44.7812V50.7812C152.004 50.7812 153.74 51.27 154.815 51.9393L157.986 46.8459ZM149.32 44.7812C145.652 44.7812 142.157 46.3627 138.886 49.0158L142.665 53.6756C145.254 51.5761 147.455 50.7812 149.32 50.7812V44.7812ZM138.873 49.0262C135.645 51.6736 132.688 55.2814 129.963 59.7431L135.084 62.8702C137.567 58.8032 140.111 55.7704 142.678 53.6653L138.873 49.0262ZM129.523 61.3066V106.375H135.523V61.3066H129.523ZM132.523 109.375H142.289V103.375H132.523V109.375ZM139.289 106.375V122H145.289V106.375H139.289ZM142.289 119H95.4141V125H142.289V119ZM98.4141 122V106.375H92.4141V122H98.4141ZM95.4141 109.375H105.18V103.375H95.4141V109.375ZM108.18 106.375V16.5312H102.18V106.375H108.18ZM105.18 13.5312H95.4141V19.5312H105.18V13.5312ZM98.4141 16.5312V0.90625H92.4141V16.5312H98.4141ZM95.4141 3.90625H132.523V-2.09375H95.4141V3.90625ZM129.523 0.90625V45.4863H135.523V0.90625H129.523ZM135.166 46.9063C136.227 44.9311 137.471 43.1635 138.896 41.5941L134.452 37.5622C132.686 39.5084 131.163 41.6796 129.881 44.0664L135.166 46.9063ZM138.896 41.5941C140.305 40.0413 141.995 38.6075 143.985 37.3006L140.691 32.2854C138.319 33.843 136.233 35.5993 134.452 37.5622L138.896 41.5941ZM144.011 37.2834C145.872 36.033 148.126 35.0345 150.818 34.3246L149.288 28.523C146.055 29.3757 143.166 30.6232 140.665 32.3026L144.011 37.2834ZM150.839 34.3188C153.544 33.5838 156.548 33.2031 159.867 33.2031V27.2031C156.091 27.2031 152.551 27.6362 149.266 28.5288L150.839 34.3188ZM232.377 33.8652L231.282 31.0722L231.277 31.0743L232.377 33.8652ZM268.754 33.8652L267.653 36.6561L267.659 36.6583L268.754 33.8652ZM283.695 43.2891L281.625 45.4599L281.633 45.4682L283.695 43.2891ZM293.705 58.1328L290.934 59.2812L290.939 59.2943L293.705 58.1328ZM293.705 96.6094L290.939 95.4479L290.934 95.461L293.705 96.6094ZM283.695 111.502L285.757 113.681L285.766 113.673L283.695 111.502ZM268.754 120.877L267.659 118.084L267.653 118.086L268.754 120.877ZM232.377 120.877L231.277 123.668L231.282 123.67L232.377 120.877ZM217.484 111.502L215.405 113.665L215.414 113.673L215.423 113.681L217.484 111.502ZM207.475 96.6094L204.703 97.7578L204.709 97.7708L207.475 96.6094ZM207.475 58.1328L204.709 56.9714L204.703 56.9844L207.475 58.1328ZM217.484 43.2891L219.555 45.4603L219.555 45.4599L217.484 43.2891ZM235.844 56.1309L233.069 54.9905L233.062 55.0069L233.056 55.0233L235.844 56.1309ZM233.598 65.0176L230.633 64.5553L230.631 64.5686L230.629 64.5819L233.598 65.0176ZM233.598 89.7246L230.629 90.1603L230.631 90.1736L230.633 90.1869L233.598 89.7246ZM235.844 98.6113L233.056 99.7189L233.062 99.7353L233.069 99.7517L235.844 98.6113ZM258.061 107.01L259.419 109.685L259.435 109.677L259.451 109.668L258.061 107.01ZM263.578 101.736L261.077 100.08L261.069 100.092L261.061 100.104L263.578 101.736ZM267.143 92.0195L264.201 91.4312L264.199 91.4425L264.196 91.4539L267.143 92.0195ZM267.143 62.7227L264.196 63.2883L264.199 63.2997L264.201 63.311L267.143 62.7227ZM263.578 53.0059L261.061 54.6384L261.069 54.6503L261.077 54.6622L263.578 53.0059ZM258.061 47.7812L256.67 50.4395L256.686 50.448L256.702 50.4563L258.061 47.7812ZM233.472 36.6583C238.838 34.5547 244.536 33.4961 250.59 33.4961V27.4961C243.818 27.4961 237.375 28.6836 231.282 31.0722L233.472 36.6583ZM250.59 33.4961C256.644 33.4961 262.324 34.5547 267.653 36.6561L269.854 31.0743C263.791 28.6836 257.361 27.4961 250.59 27.4961V33.4961ZM267.659 36.6583C273.045 38.7698 277.689 41.7061 281.625 45.4599L285.766 41.1182C281.238 36.7991 275.921 33.4529 269.849 31.0722L267.659 36.6583ZM281.633 45.4682C285.531 49.1558 288.638 53.7417 290.934 59.2812L296.477 56.9844C293.889 50.7401 290.323 45.4302 285.757 41.1099L281.633 45.4682ZM290.939 59.2943C293.246 64.7882 294.416 70.8021 294.416 77.3711H300.416C300.416 70.0729 299.112 63.2613 296.471 56.9714L290.939 59.2943ZM294.416 77.3711C294.416 83.94 293.246 89.954 290.939 95.4479L296.471 97.7708C299.112 91.4809 300.416 84.6693 300.416 77.3711H294.416ZM290.934 95.461C288.637 101.002 285.528 105.608 281.625 109.331L285.766 113.673C290.326 109.323 293.89 104 296.477 97.7578L290.934 95.461ZM281.633 109.323C277.697 113.047 273.05 115.97 267.659 118.084L269.849 123.67C275.916 121.291 281.23 117.965 285.757 113.681L281.633 109.323ZM267.653 118.086C262.324 120.188 256.644 121.246 250.59 121.246V127.246C257.361 127.246 263.791 126.059 269.854 123.668L267.653 118.086ZM250.59 121.246C244.536 121.246 238.838 120.188 233.472 118.084L231.282 123.67C237.375 126.059 243.818 127.246 250.59 127.246V121.246ZM233.477 118.086C228.119 115.973 223.485 113.05 219.546 109.323L215.423 113.681C219.947 117.962 225.242 121.288 231.277 123.668L233.477 118.086ZM219.563 109.339C215.687 105.613 212.572 101 210.241 95.4479L204.709 97.7708C207.325 104.003 210.884 109.318 215.405 113.665L219.563 109.339ZM210.246 95.461C207.968 89.9638 206.812 83.9452 206.812 77.3711H200.812C200.812 84.6642 202.098 91.4711 204.703 97.7578L210.246 95.461ZM206.812 77.3711C206.812 70.797 207.968 64.7784 210.246 59.2812L204.703 56.9844C202.098 63.2711 200.812 70.078 200.812 77.3711H206.812ZM210.241 59.2943C212.571 53.7444 215.683 49.1514 219.555 45.4603L215.414 41.1178C210.887 45.4346 207.326 50.7374 204.709 56.9714L210.241 59.2943ZM219.555 45.4599C223.493 41.7033 228.124 38.7669 233.477 36.6561L231.277 31.0743C225.237 33.4557 219.939 36.8019 215.414 41.1182L219.555 45.4599ZM250.59 43.1211C248.028 43.1211 245.637 43.4869 243.461 44.2783L245.512 49.917C246.916 49.4063 248.594 49.1211 250.59 49.1211V43.1211ZM243.461 44.2783C241.215 45.0951 239.206 46.4265 237.433 48.199L241.676 52.4416C242.898 51.2194 244.177 50.4023 245.512 49.917L243.461 44.2783ZM237.433 48.199C235.602 50.0299 234.165 52.3236 233.069 54.9905L238.619 57.2712C239.476 55.1856 240.512 53.6055 241.676 52.4416L237.433 48.199ZM233.056 55.0233C232.003 57.6721 231.209 60.8675 230.633 64.5553L236.562 65.4799C237.093 62.0713 237.796 59.3423 238.632 57.2384L233.056 55.0233ZM230.629 64.5819C230.082 68.3103 229.816 72.5793 229.816 77.3711H235.816C235.816 72.7878 236.071 68.8212 236.566 65.4533L230.629 64.5819ZM229.816 77.3711C229.816 82.1628 230.082 86.4319 230.629 90.1603L236.566 89.2889C236.071 85.921 235.816 81.9543 235.816 77.3711H229.816ZM230.633 90.1869C231.209 93.8747 232.003 97.0701 233.056 99.7189L238.632 97.5037C237.796 95.3999 237.093 92.6708 236.562 89.2623L230.633 90.1869ZM233.069 99.7517C234.165 102.419 235.602 104.712 237.433 106.543L241.676 102.301C240.512 101.137 239.476 99.5566 238.619 97.471L233.069 99.7517ZM237.433 106.543C239.206 108.316 241.215 109.647 243.461 110.464L245.512 104.825C244.177 104.34 242.898 103.523 241.676 102.301L237.433 106.543ZM243.461 110.464C245.637 111.255 248.028 111.621 250.59 111.621V105.621C248.594 105.621 246.916 105.336 245.512 104.825L243.461 110.464ZM250.59 111.621C253.83 111.621 256.803 111.012 259.419 109.685L256.702 104.335C255.086 105.155 253.079 105.621 250.59 105.621V111.621ZM259.451 109.668C262.109 108.278 264.308 106.123 266.095 103.369L261.061 100.104C259.723 102.167 258.244 103.528 256.67 104.351L259.451 109.668ZM266.079 103.393C267.967 100.543 269.263 96.8879 270.089 92.5852L264.196 91.4539C263.46 95.2892 262.38 98.1123 261.077 100.08L266.079 103.393ZM270.084 92.6079C270.948 88.2887 271.363 83.1978 271.363 77.3711H265.363C265.363 82.9376 264.965 87.6124 264.201 91.4312L270.084 92.6079ZM271.363 77.3711C271.363 71.5444 270.948 66.4535 270.084 62.1343L264.201 63.311C264.965 67.1298 265.363 71.8046 265.363 77.3711H271.363ZM270.089 62.157C269.263 57.8543 267.967 54.1995 266.079 51.3496L261.077 54.6622C262.38 56.6299 263.46 59.453 264.196 63.2883L270.089 62.157ZM266.095 51.3733C264.305 48.6139 262.096 46.4654 259.419 45.1062L256.702 50.4563C258.257 51.2455 259.726 52.5801 261.061 54.6384L266.095 51.3733ZM259.451 45.123C256.828 43.7511 253.843 43.1211 250.59 43.1211V49.1211C253.066 49.1211 255.061 49.5979 256.67 50.4395L259.451 45.123ZM371.195 49.2949L373.095 51.6168L376.338 48.9635L372.781 46.7484L371.195 49.2949ZM350.59 46.8047L351.482 49.669L351.503 49.6623L351.524 49.6554L350.59 46.8047ZM344.877 50.0273L342.948 47.7294L342.938 47.738L342.928 47.7466L344.877 50.0273ZM337.357 89.334L334.432 89.9988L337.357 89.334ZM340.58 98.123L337.991 99.6393L337.999 99.6529L338.008 99.6665L340.58 98.123ZM345.463 103.738L343.624 106.109L343.634 106.116L343.644 106.124L345.463 103.738ZM351.371 106.863L350.492 109.732L350.513 109.738L350.535 109.744L351.371 106.863ZM373.979 103.787L375.676 106.26L375.681 106.257L373.979 103.787ZM383.256 91.4824L384.236 88.6472L381.574 87.7262L380.488 90.3263L383.256 91.4824ZM396.244 95.9746L399.057 97.0184L400.124 94.1422L397.225 93.1394L396.244 95.9746ZM391.752 104.91L389.238 103.273L389.233 103.28L391.752 104.91ZM376.762 118.631L378.181 121.274L378.191 121.269L376.762 118.631ZM335.697 120.584L334.597 123.375L334.602 123.377L335.697 120.584ZM320.805 111.209L318.726 113.372L318.734 113.38L318.743 113.388L320.805 111.209ZM310.795 96.3164L308.023 97.4648L308.029 97.4778L310.795 96.3164ZM316.068 48.3184L313.678 46.5052L313.673 46.5118L313.668 46.5184L316.068 48.3184ZM338.92 32.3516L339.778 35.2261L339.787 35.2234L339.797 35.2206L338.92 32.3516ZM365.141 31.375L364.501 34.306L364.514 34.3088L364.527 34.3115L365.141 31.375ZM374.711 34.5L373.42 37.208L373.439 37.217L373.458 37.2257L374.711 34.5ZM389.018 45.6328L386.702 47.5399L386.717 47.5585L386.733 47.5767L389.018 45.6328ZM394.193 53.0059L391.602 54.5175L391.636 54.576L391.673 54.633L394.193 53.0059ZM392.094 72.5371L389.972 70.4158L392.094 72.5371ZM369.975 72.5371L367.842 74.6471L367.853 74.6585L367.865 74.6697L369.975 72.5371ZM366.947 54.666L364.256 53.341L364.247 53.3577L364.239 53.3746L366.947 54.666ZM372.781 46.7484C368.468 44.0621 363.155 42.8281 357.035 42.8281V48.8281C362.374 48.8281 366.501 49.9054 369.609 51.8414L372.781 46.7484ZM357.035 42.8281C354.44 42.8281 351.973 43.1942 349.655 43.954L351.524 49.6554C353.178 49.1131 355.008 48.8281 357.035 48.8281V42.8281ZM349.698 43.9404C347.282 44.693 345.032 45.9805 342.948 47.7294L346.806 52.3253C348.368 51.0143 349.927 50.1534 351.482 49.669L349.698 43.9404ZM342.928 47.7466C340.823 49.5453 339.071 51.7838 337.649 54.409L342.925 57.2667C344.042 55.2045 345.35 53.5693 346.826 52.308L342.928 47.7466ZM337.649 54.409C336.198 57.0876 335.109 60.3663 334.322 64.1647L340.197 65.3821C340.908 61.954 341.837 59.2757 342.925 57.2667L337.649 54.409ZM334.322 64.1647C333.523 68.0197 333.137 72.331 333.137 77.0781H339.137C339.137 72.6455 339.499 68.7537 340.197 65.3821L334.322 64.1647ZM333.137 77.0781C333.137 81.8387 333.558 86.1538 334.432 89.9988L340.283 88.6691C339.529 85.3527 339.137 81.4972 339.137 77.0781H333.137ZM334.432 89.9988C335.289 93.7713 336.454 97.0149 337.991 99.6393L343.169 96.6068C342.037 94.6739 341.053 92.0582 340.283 88.6691L334.432 89.9988ZM338.008 99.6665C339.545 102.228 341.411 104.392 343.624 106.109L347.302 101.368C345.739 100.155 344.35 98.5752 343.153 96.5796L338.008 99.6665ZM343.644 106.124C345.806 107.773 348.089 108.995 350.492 109.732L352.25 103.995C350.617 103.494 348.961 102.633 347.282 101.353L343.644 106.124ZM350.535 109.744C352.854 110.418 355.319 110.742 357.914 110.742V104.742C355.821 104.742 353.925 104.481 352.208 103.982L350.535 109.744ZM357.914 110.742C365.116 110.742 371.15 109.367 375.676 106.26L372.281 101.314C369.125 103.48 364.449 104.742 357.914 104.742V110.742ZM375.681 106.257C380.143 103.183 383.552 98.5589 386.024 92.6386L380.488 90.3263C378.338 95.4736 375.561 99.0531 372.276 101.317L375.681 106.257ZM382.275 94.3176L395.264 98.8098L397.225 93.1394L384.236 88.6472L382.275 94.3176ZM393.432 94.9308C392.336 97.8819 390.939 100.661 389.238 103.273L394.266 106.547C396.211 103.56 397.808 100.382 399.057 97.0184L393.432 94.9308ZM389.233 103.28C387.586 105.826 385.586 108.19 383.223 110.372L387.293 114.781C390.007 112.275 392.337 109.528 394.271 106.54L389.233 103.28ZM383.223 110.372C380.872 112.542 378.245 114.416 375.333 115.993L378.191 121.269C381.529 119.461 384.565 117.298 387.293 114.781L383.223 110.372ZM375.343 115.988C372.506 117.511 369.252 118.729 365.559 119.621L366.968 125.453C371.088 124.458 374.833 123.071 378.181 121.274L375.343 115.988ZM365.559 119.621C361.901 120.505 358.02 120.953 353.91 120.953V126.953C358.459 126.953 362.814 126.457 366.968 125.453L365.559 119.621ZM353.91 120.953C347.856 120.953 342.158 119.895 336.792 117.791L334.602 123.377C340.695 125.766 347.139 126.953 353.91 126.953V120.953ZM336.798 117.793C331.439 115.68 326.806 112.757 322.867 109.03L318.743 113.388C323.267 117.669 328.562 120.995 334.597 123.375L336.798 117.793ZM322.884 109.046C319.007 105.32 315.892 100.707 313.561 95.155L308.029 97.4778C310.646 103.71 314.204 109.025 318.726 113.372L322.884 109.046ZM313.566 95.168C311.289 89.6708 310.133 83.6522 310.133 77.0781H304.133C304.133 84.3712 305.418 91.1782 308.023 97.4648L313.566 95.168ZM310.133 77.0781C310.133 71.7957 310.874 66.8634 312.336 62.2643L306.618 60.4466C304.955 65.6783 304.133 71.2277 304.133 77.0781H310.133ZM312.336 62.2643C313.806 57.64 315.856 53.6014 318.468 50.1184L313.668 46.5184C310.617 50.5874 308.273 55.2402 306.618 60.4466L312.336 62.2643ZM318.458 50.1315C321.14 46.5962 324.274 43.554 327.867 40.9967L324.387 36.1087C320.297 39.0202 316.725 42.4885 313.678 46.5052L318.458 50.1315ZM327.867 40.9967C331.43 38.4604 335.394 36.5353 339.778 35.2261L338.062 29.477C333.071 30.9673 328.506 33.1763 324.387 36.1087L327.867 40.9967ZM339.797 35.2206C344.186 33.8793 348.805 33.2031 353.666 33.2031V27.2031C348.24 27.2031 343.029 27.9592 338.043 29.4825L339.797 35.2206ZM353.666 33.2031C357.543 33.2031 361.152 33.5753 364.501 34.306L365.78 28.444C361.968 27.6122 357.927 27.2031 353.666 27.2031V33.2031ZM364.527 34.3115C367.914 35.0198 370.871 35.9927 373.42 37.208L376.002 31.792C372.952 30.3381 369.529 29.2276 365.755 28.4385L364.527 34.3115ZM373.458 37.2257C376.067 38.4255 378.496 39.9243 380.747 41.7254L384.495 37.0402C381.864 34.9351 379.019 33.1787 375.964 31.7743L373.458 37.2257ZM380.747 41.7254C383.041 43.5606 385.022 45.5001 386.702 47.5399L391.333 43.7257C389.367 41.3385 387.084 39.1113 384.495 37.0402L380.747 41.7254ZM386.733 47.5767C388.462 49.6097 390.087 51.9202 391.602 54.5175L396.785 51.4942C395.11 48.6228 393.284 46.0179 391.303 43.6889L386.733 47.5767ZM391.673 54.633C393.02 56.7198 393.684 58.9706 393.684 61.4531H399.684C399.684 57.8158 398.687 54.4351 396.714 51.3788L391.673 54.633ZM393.684 61.4531C393.684 64.9873 392.469 67.9188 389.972 70.4158L394.215 74.6584C397.838 71.0356 399.684 66.5778 399.684 61.4531H393.684ZM389.972 70.4158C387.515 72.8735 384.602 74.0781 381.059 74.0781V80.0781C386.174 80.0781 390.618 78.2554 394.215 74.6584L389.972 70.4158ZM381.059 74.0781C377.514 74.0781 374.579 72.8725 372.085 70.4045L367.865 74.6697C371.49 78.2564 375.944 80.0781 381.059 80.0781V74.0781ZM372.107 70.4272C369.639 67.9326 368.434 64.9976 368.434 61.4531H362.434C362.434 66.5675 364.255 71.0218 367.842 74.6471L372.107 70.4272ZM368.434 61.4531C368.434 59.4784 368.844 57.6587 369.655 55.9574L364.239 53.3746C363.033 55.9051 362.434 58.6101 362.434 61.4531H368.434ZM369.639 55.9911C370.495 54.2525 371.643 52.8044 373.095 51.6168L369.296 46.973C367.166 48.7151 365.483 50.8477 364.256 53.341L369.639 55.9911ZM435.111 33.8652L434.016 31.0722L434.011 31.0743L435.111 33.8652ZM471.488 33.8652L470.388 36.6561L470.393 36.6583L471.488 33.8652ZM486.43 43.2891L484.359 45.4599L484.368 45.4682L486.43 43.2891ZM496.439 58.1328L493.668 59.2812L493.673 59.2943L496.439 58.1328ZM496.439 96.6094L493.673 95.4479L493.668 95.461L496.439 96.6094ZM486.43 111.502L488.492 113.681L488.5 113.673L486.43 111.502ZM471.488 120.877L470.393 118.084L470.388 118.086L471.488 120.877ZM435.111 120.877L434.011 123.668L434.016 123.67L435.111 120.877ZM420.219 111.502L418.14 113.665L418.148 113.673L418.157 113.681L420.219 111.502ZM410.209 96.6094L407.437 97.7578L407.443 97.7708L410.209 96.6094ZM410.209 58.1328L407.443 56.9714L407.437 56.9844L410.209 58.1328ZM420.219 43.2891L422.289 45.4603L422.289 45.4599L420.219 43.2891ZM438.578 56.1309L435.803 54.9905L435.797 55.0069L435.79 55.0233L438.578 56.1309ZM436.332 65.0176L433.368 64.5553L433.366 64.5686L433.364 64.5819L436.332 65.0176ZM436.332 89.7246L433.364 90.1603L433.366 90.1736L433.368 90.1869L436.332 89.7246ZM438.578 98.6113L435.79 99.7189L435.797 99.7353L435.803 99.7517L438.578 98.6113ZM460.795 107.01L462.153 109.685L462.169 109.677L462.185 109.668L460.795 107.01ZM466.312 101.736L463.811 100.08L463.803 100.092L463.796 100.104L466.312 101.736ZM469.877 92.0195L466.935 91.4312L466.933 91.4425L466.931 91.4539L469.877 92.0195ZM469.877 62.7227L466.931 63.2883L466.933 63.2997L466.935 63.311L469.877 62.7227ZM466.312 53.0059L463.796 54.6384L463.803 54.6503L463.811 54.6622L466.312 53.0059ZM460.795 47.7812L459.404 50.4395L459.421 50.448L459.437 50.4563L460.795 47.7812ZM436.206 36.6583C441.572 34.5547 447.27 33.4961 453.324 33.4961V27.4961C446.553 27.4961 440.109 28.6836 434.016 31.0722L436.206 36.6583ZM453.324 33.4961C459.378 33.4961 465.058 34.5547 470.388 36.6561L472.589 31.0743C466.525 28.6836 460.096 27.4961 453.324 27.4961V33.4961ZM470.393 36.6583C475.779 38.7698 480.424 41.7061 484.359 45.4599L488.5 41.1182C483.972 36.7991 478.656 33.4529 472.583 31.0722L470.393 36.6583ZM484.368 45.4682C488.265 49.1558 491.373 53.7417 493.668 59.2812L499.211 56.9844C496.624 50.7401 493.058 45.4302 488.492 41.1099L484.368 45.4682ZM493.673 59.2943C495.98 64.7882 497.15 70.8021 497.15 77.3711H503.15C503.15 70.0729 501.847 63.2613 499.206 56.9714L493.673 59.2943ZM497.15 77.3711C497.15 83.94 495.98 89.954 493.673 95.4479L499.206 97.7708C501.847 91.4809 503.15 84.6693 503.15 77.3711H497.15ZM493.668 95.461C491.372 101.002 488.262 105.608 484.359 109.331L488.5 113.673C493.061 109.323 496.624 104 499.211 97.7578L493.668 95.461ZM484.368 109.323C480.431 113.047 475.784 115.97 470.393 118.084L472.583 123.67C478.651 121.291 483.964 117.965 488.492 113.681L484.368 109.323ZM470.388 118.086C465.058 120.188 459.378 121.246 453.324 121.246V127.246C460.096 127.246 466.525 126.059 472.589 123.668L470.388 118.086ZM453.324 121.246C447.27 121.246 441.572 120.188 436.206 118.084L434.016 123.67C440.109 126.059 446.553 127.246 453.324 127.246V121.246ZM436.212 118.086C430.853 115.973 426.22 113.05 422.281 109.323L418.157 113.681C422.681 117.962 427.976 121.288 434.011 123.668L436.212 118.086ZM422.298 109.339C418.421 105.613 415.306 101 412.975 95.4479L407.443 97.7708C410.06 104.003 413.618 109.318 418.14 113.665L422.298 109.339ZM412.98 95.461C410.703 89.9638 409.547 83.9452 409.547 77.3711H403.547C403.547 84.6642 404.833 91.4711 407.437 97.7578L412.98 95.461ZM409.547 77.3711C409.547 70.797 410.703 64.7784 412.98 59.2812L407.437 56.9844C404.833 63.2711 403.547 70.078 403.547 77.3711H409.547ZM412.975 59.2943C415.305 53.7444 418.418 49.1514 422.289 45.4603L418.149 41.1178C413.621 45.4346 410.061 50.7374 407.443 56.9714L412.975 59.2943ZM422.289 45.4599C426.228 41.7033 430.858 38.7669 436.212 36.6561L434.011 31.0743C427.971 33.4557 422.673 36.8019 418.148 41.1182L422.289 45.4599ZM453.324 43.1211C450.763 43.1211 448.372 43.4869 446.195 44.2783L448.246 49.917C449.65 49.4063 451.328 49.1211 453.324 49.1211V43.1211ZM446.195 44.2783C443.949 45.0951 441.94 46.4265 440.168 48.199L444.41 52.4416C445.633 51.2194 446.911 50.4023 448.246 49.917L446.195 44.2783ZM440.168 48.199C438.337 50.0299 436.899 52.3236 435.803 54.9905L441.353 57.2712C442.21 55.1856 443.247 53.6055 444.41 52.4416L440.168 48.199ZM435.79 55.0233C434.738 57.6721 433.943 60.8675 433.368 64.5553L439.296 65.4799C439.828 62.0713 440.53 59.3423 441.366 57.2384L435.79 55.0233ZM433.364 64.5819C432.817 68.3103 432.551 72.5793 432.551 77.3711H438.551C438.551 72.7878 438.806 68.8212 439.3 65.4533L433.364 64.5819ZM432.551 77.3711C432.551 82.1628 432.817 86.4319 433.364 90.1603L439.3 89.2889C438.806 85.921 438.551 81.9543 438.551 77.3711H432.551ZM433.368 90.1869C433.943 93.8747 434.738 97.0701 435.79 99.7189L441.366 97.5037C440.53 95.3999 439.828 92.6708 439.296 89.2623L433.368 90.1869ZM435.803 99.7517C436.899 102.419 438.337 104.712 440.168 106.543L444.41 102.301C443.247 101.137 442.21 99.5566 441.353 97.471L435.803 99.7517ZM440.168 106.543C441.94 108.316 443.949 109.647 446.195 110.464L448.246 104.825C446.911 104.34 445.633 103.523 444.41 102.301L440.168 106.543ZM446.195 110.464C448.372 111.255 450.763 111.621 453.324 111.621V105.621C451.328 105.621 449.65 105.336 448.246 104.825L446.195 110.464ZM453.324 111.621C456.564 111.621 459.538 111.012 462.153 109.685L459.437 104.335C457.82 105.155 455.814 105.621 453.324 105.621V111.621ZM462.185 109.668C464.843 108.278 467.043 106.123 468.829 103.369L463.796 100.104C462.457 102.167 460.979 103.528 459.404 104.351L462.185 109.668ZM468.814 103.393C470.701 100.543 471.997 96.8879 472.823 92.5852L466.931 91.4539C466.194 95.2892 465.114 98.1123 463.811 100.08L468.814 103.393ZM472.819 92.6079C473.683 88.2887 474.098 83.1978 474.098 77.3711H468.098C468.098 82.9376 467.699 87.6124 466.935 91.4312L472.819 92.6079ZM474.098 77.3711C474.098 71.5444 473.683 66.4535 472.819 62.1343L466.935 63.311C467.699 67.1298 468.098 71.8046 468.098 77.3711H474.098ZM472.823 62.157C471.997 57.8543 470.701 54.1995 468.814 51.3496L463.811 54.6622C465.114 56.6299 466.194 59.453 466.931 63.2883L472.823 62.157ZM468.829 51.3733C467.04 48.6139 464.83 46.4654 462.153 45.1062L459.437 50.4563C460.991 51.2455 462.46 52.5801 463.796 54.6384L468.829 51.3733ZM462.185 45.123C459.563 43.7511 456.577 43.1211 453.324 43.1211V49.1211C455.801 49.1211 457.795 49.5979 459.404 50.4395L462.185 45.123ZM504.984 0.90625V-2.09375H501.984V0.90625H504.984ZM542.094 0.90625H545.094V-2.09375H542.094V0.90625ZM542.094 106.375H539.094V109.375H542.094V106.375ZM551.859 106.375H554.859V103.375H551.859V106.375ZM551.859 122V125H554.859V122H551.859ZM504.984 122H501.984V125H504.984V122ZM504.984 106.375V103.375H501.984V106.375H504.984ZM514.75 106.375V109.375H517.75V106.375H514.75ZM514.75 16.5312H517.75V13.5312H514.75V16.5312ZM504.984 16.5312H501.984V19.5312H504.984V16.5312ZM504.984 3.90625H542.094V-2.09375H504.984V3.90625ZM539.094 0.90625V106.375H545.094V0.90625H539.094ZM542.094 109.375H551.859V103.375H542.094V109.375ZM548.859 106.375V122H554.859V106.375H548.859ZM551.859 119H504.984V125H551.859V119ZM507.984 122V106.375H501.984V122H507.984ZM504.984 109.375H514.75V103.375H504.984V109.375ZM517.75 106.375V16.5312H511.75V106.375H517.75ZM514.75 13.5312H504.984V19.5312H514.75V13.5312ZM507.984 16.5312V0.90625H501.984V16.5312H507.984ZM641.703 106.375H638.703V109.375H641.703V106.375ZM651.469 106.375H654.469V103.375H651.469V106.375ZM651.469 122V125H654.469V122H651.469ZM621.049 122L618.291 123.18L619.069 125H621.049V122ZM616.703 111.844L619.461 110.664L617.337 105.699L614.244 110.126L616.703 111.844ZM605.131 121.609L604.017 118.824L604.01 118.827L605.131 121.609ZM575.443 122.098L576.575 119.319L576.569 119.317L576.562 119.314L575.443 122.098ZM566.508 116.336L564.386 118.457L564.394 118.464L564.401 118.471L566.508 116.336ZM560.746 107.547L557.961 108.661L557.965 108.672L557.97 108.684L560.746 107.547ZM566.605 79.8125L568.534 82.1102L568.543 82.1032L566.605 79.8125ZM603.227 75.0273L602.382 77.9061L602.392 77.9091L602.402 77.9119L603.227 75.0273ZM614.359 80.9844L612.372 83.2318L617.359 87.6416V80.9844H614.359ZM613.139 52.957L610.347 54.0554L610.358 54.0833L610.369 54.1109L613.139 52.957ZM609.574 48.416L607.898 50.9043L607.916 50.9162L607.934 50.9278L609.574 48.416ZM604.203 46.1699L603.578 49.104L604.203 46.1699ZM591.068 46.9512L589.669 44.2975L587.12 45.6415L588.361 48.2426L591.068 46.9512ZM587.992 64.7246L590.114 66.8459L587.992 64.7246ZM565.873 64.7246L563.74 66.8346L563.752 66.846L563.763 66.8572L565.873 64.7246ZM562.602 47.3906L559.866 46.1595L559.857 46.1786L559.849 46.1978L562.602 47.3906ZM566.215 42.2637L568.29 44.4306L568.34 44.3827L568.387 44.3326L566.215 42.2637ZM570.268 38.6016L572.094 40.9815L572.111 40.9683L572.128 40.9548L570.268 38.6016ZM575.541 35.3301L576.899 38.0051L576.907 38.0011L576.915 37.997L575.541 35.3301ZM591.508 30.8867L591.87 33.8648L591.882 33.8634L591.893 33.8618L591.508 30.8867ZM614.359 100.32L616.635 102.275L617.359 101.432V100.32H614.359ZM614.359 93.582H617.359V92.2956L616.427 91.4088L614.359 93.582ZM607.523 88.748L606.113 91.3961L606.134 91.4069L606.154 91.4175L607.523 88.748ZM590.775 89.0898L592.664 91.4206L592.676 91.4109L592.688 91.401L590.775 89.0898ZM607.279 106.229L608.804 108.812L608.814 108.806L607.279 106.229ZM638.703 63.1621V106.375H644.703V63.1621H638.703ZM641.703 109.375H651.469V103.375H641.703V109.375ZM648.469 106.375V122H654.469V106.375H648.469ZM651.469 119H621.049V125H651.469V119ZM623.807 120.82L619.461 110.664L613.945 113.024L618.291 123.18L623.807 120.82ZM614.244 110.126C611.183 114.507 607.757 117.328 604.017 118.824L606.245 124.395C611.293 122.375 615.583 118.685 619.162 113.562L614.244 110.126ZM604.01 118.827C600.164 120.376 594.503 121.246 586.82 121.246V127.246C594.827 127.246 601.373 126.358 606.252 124.392L604.01 118.827ZM586.82 121.246C583.111 121.246 579.706 120.595 576.575 119.319L574.311 124.876C578.212 126.465 582.391 127.246 586.82 127.246V121.246ZM576.562 119.314C573.418 118.051 570.784 116.341 568.615 114.201L564.401 118.471C567.18 121.214 570.502 123.345 574.325 124.881L576.562 119.314ZM568.629 114.215C566.488 112.074 564.782 109.486 563.522 106.41L557.97 108.684C559.51 112.444 561.644 115.715 564.386 118.457L568.629 114.215ZM563.532 106.433C562.315 103.39 561.695 100.109 561.695 96.5605H555.695C555.695 100.825 556.443 104.867 557.961 108.661L563.532 106.433ZM561.695 96.5605C561.695 90.7309 563.923 85.9816 568.534 82.1102L564.677 77.5148C558.741 82.4976 555.695 88.9136 555.695 96.5605H561.695ZM568.543 82.1032C573.177 78.1843 579.187 76.123 586.82 76.123V70.123C578.047 70.123 570.581 72.5215 564.668 77.5218L568.543 82.1032ZM586.82 76.123C593.262 76.123 598.422 76.7449 602.382 77.9061L604.071 72.1486C599.372 70.7708 593.594 70.123 586.82 70.123V76.123ZM602.402 77.9119C606.341 79.0373 609.645 80.8201 612.372 83.2318L616.347 78.7369C612.889 75.6799 608.771 73.4914 604.051 72.1428L602.402 77.9119ZM617.359 80.9844V60.2812H611.359V80.9844H617.359ZM617.359 60.2812C617.359 57.0976 616.921 54.2335 615.908 51.8032L610.369 54.1109C610.984 55.5868 611.359 57.6055 611.359 60.2812H617.359ZM615.93 51.8587C614.95 49.3664 613.392 47.3265 611.215 45.9042L607.934 50.9278C608.946 51.5889 609.765 52.5763 610.347 54.0554L615.93 51.8587ZM611.25 45.9277C609.319 44.6272 607.168 43.7345 604.828 43.2358L603.578 49.104C605.209 49.4517 606.639 50.0563 607.898 50.9043L611.25 45.9277ZM604.828 43.2358C602.578 42.7563 599.981 42.5352 597.074 42.5352V48.5352C599.701 48.5352 601.856 48.7372 603.578 49.104L604.828 43.2358ZM597.074 42.5352C594.42 42.5352 591.93 43.1052 589.669 44.2975L592.468 49.6049C593.787 48.9091 595.302 48.5352 597.074 48.5352V42.5352ZM588.361 48.2426C589.177 49.9552 589.582 51.7438 589.582 53.6406H595.582C595.582 50.8499 594.978 48.1789 593.776 45.6598L588.361 48.2426ZM589.582 53.6406C589.582 57.1748 588.368 60.1063 585.871 62.6033L590.114 66.8459C593.736 63.2231 595.582 58.7653 595.582 53.6406H589.582ZM585.871 62.6033C583.413 65.061 580.501 66.2656 576.957 66.2656V72.2656C582.072 72.2656 586.516 70.4429 590.114 66.8459L585.871 62.6033ZM576.957 66.2656C573.413 66.2656 570.478 65.06 567.983 62.592L563.763 66.8572C567.388 70.4439 571.843 72.2656 576.957 72.2656V66.2656ZM568.006 62.6147C565.538 60.1201 564.332 57.1851 564.332 53.6406H558.332C558.332 58.755 560.154 63.2093 563.74 66.8346L568.006 62.6147ZM564.332 53.6406C564.332 51.8207 564.678 50.145 565.354 48.5834L559.849 46.1978C558.833 48.5425 558.332 51.0335 558.332 53.6406H564.332ZM565.337 48.6217C566.06 47.0161 567.041 45.6258 568.29 44.4306L564.14 40.0967C562.329 41.8312 560.901 43.8589 559.866 46.1595L565.337 48.6217ZM568.387 44.3326C569.59 43.0701 570.826 41.9548 572.094 40.9815L568.441 36.2216C566.91 37.3967 565.444 38.7228 564.042 40.1947L568.387 44.3326ZM572.128 40.9548C573.33 40.0045 574.907 39.0166 576.899 38.0051L574.183 32.6551C571.944 33.792 570.005 34.9851 568.407 36.2483L572.128 40.9548ZM576.915 37.997C578.875 36.9875 581.016 36.1464 583.348 35.4803L581.699 29.7111C579.018 30.4773 576.504 31.4591 574.167 32.6632L576.915 37.997ZM583.348 35.4803C585.661 34.8193 588.493 34.275 591.87 33.8648L591.146 27.9086C587.556 28.3447 584.399 28.9398 581.699 29.7111L583.348 35.4803ZM591.893 33.8618C595.261 33.4252 598.972 33.2031 603.031 33.2031V27.2031C598.757 27.2031 594.786 27.4367 591.122 27.9116L591.893 33.8618ZM603.031 33.2031C608.136 33.2031 612.889 33.9557 617.311 35.4398L619.22 29.7516C614.137 28.0456 608.734 27.2031 603.031 27.2031V33.2031ZM617.311 35.4398C621.76 36.9331 625.531 38.9812 628.667 41.5553L632.474 36.9174C628.709 33.8274 624.276 31.4484 619.22 29.7516L617.311 35.4398ZM628.667 41.5553C631.77 44.102 634.219 47.2335 636.02 50.9844L641.429 48.3867C639.259 43.8693 636.272 40.0347 632.474 36.9174L628.667 41.5553ZM636.02 50.9844C637.8 54.69 638.703 58.735 638.703 63.1621H644.703C644.703 57.8887 643.62 52.9493 641.429 48.3867L636.02 50.9844ZM617.359 100.32V93.582H611.359V100.32H617.359ZM616.427 91.4088C614.196 89.2854 611.681 87.5086 608.892 86.0786L606.154 91.4175C608.444 92.5917 610.486 94.0375 612.291 95.7553L616.427 91.4088ZM608.933 86.1C606.127 84.6059 603.314 83.7461 600.541 83.7461V89.7461C602.065 89.7461 603.906 90.2209 606.113 91.3961L608.933 86.1ZM600.541 83.7461C595.759 83.7461 591.594 84.5186 588.863 86.7787L592.688 91.401C593.733 90.536 596.078 89.7461 600.541 89.7461V83.7461ZM588.887 86.759C586.036 89.0687 584.943 92.6023 584.943 96.5605H590.943C590.943 93.6178 591.738 92.1709 592.664 91.4206L588.887 86.759ZM584.943 96.5605C584.943 100.987 585.797 104.872 588.08 107.612L592.689 103.771C591.717 102.604 590.943 100.402 590.943 96.5605H584.943ZM588.08 107.612C590.585 110.618 594.779 111.621 599.467 111.621V105.621C595.3 105.621 593.44 104.671 592.689 103.771L588.08 107.612ZM599.467 111.621C602.629 111.621 605.756 110.612 608.804 108.812L605.754 103.645C603.399 105.035 601.317 105.621 599.467 105.621V111.621ZM608.814 108.806C611.815 107.02 614.428 104.844 616.635 102.275L612.084 98.3653C610.319 100.419 608.213 102.182 605.745 103.651L608.814 108.806ZM681.742 12.625V9.625H680.015L679.147 11.1192L681.742 12.625ZM691.508 12.625H694.508V9.625H691.508V12.625ZM691.508 32.1562H688.508V35.1562H691.508V32.1562ZM718.852 32.1562H721.852V29.1562H718.852V32.1562ZM718.852 47.7812V50.7812H721.852V47.7812H718.852ZM691.508 47.7812V44.7812H688.508V47.7812H691.508ZM693.363 104.129L691.05 106.04L691.063 106.054L691.075 106.069L693.363 104.129ZM707.035 103.396L709.088 105.584L709.097 105.576L709.106 105.567L707.035 103.396ZM711.039 94.6562L711.532 91.6971L708.511 91.1935L708.07 94.2249L711.039 94.6562ZM722.758 96.6094L725.733 96.9909L726.101 94.1252L723.251 93.6502L722.758 96.6094ZM719.926 107.205L717.17 106.02L717.167 106.027L717.164 106.033L719.926 107.205ZM714.555 115.848L716.803 117.833L716.81 117.826L716.816 117.819L714.555 115.848ZM706.303 121.805L707.511 124.551L707.524 124.545L706.303 121.805ZM672.465 117.166L670.558 119.482L670.565 119.488L670.573 119.494L672.465 117.166ZM664.164 47.7812H667.164V44.7812H664.164V47.7812ZM654.398 47.7812H651.398V50.7812H654.398V47.7812ZM654.398 32.1562V29.1562H651.398V32.1562H654.398ZM669.633 27.8594L667.839 25.4545L669.633 27.8594ZM681.742 15.625H691.508V9.625H681.742V15.625ZM688.508 12.625V32.1562H694.508V12.625H688.508ZM691.508 35.1562H718.852V29.1562H691.508V35.1562ZM715.852 32.1562V47.7812H721.852V32.1562H715.852ZM718.852 44.7812H691.508V50.7812H718.852V44.7812ZM688.508 47.7812V98.5625H694.508V47.7812H688.508ZM688.508 98.5625C688.508 101.37 689.308 103.93 691.05 106.04L695.676 102.218C694.945 101.333 694.508 100.182 694.508 98.5625H688.508ZM691.075 106.069C693.107 108.465 696.085 109.375 699.32 109.375V103.375C697.152 103.375 696.159 102.787 695.652 102.189L691.075 106.069ZM699.32 109.375C703.074 109.375 706.39 108.116 709.088 105.584L704.982 101.209C703.449 102.648 701.621 103.375 699.32 103.375V109.375ZM709.106 105.567C711.841 102.958 713.389 99.3496 714.008 95.0876L708.07 94.2249C707.583 97.5801 706.461 99.7986 704.965 101.226L709.106 105.567ZM710.546 97.6154L722.265 99.5686L723.251 93.6502L711.532 91.6971L710.546 97.6154ZM719.782 96.2279C719.326 99.7827 718.45 103.042 717.17 106.02L722.682 108.39C724.201 104.858 725.213 101.053 725.733 96.9909L719.782 96.2279ZM717.164 106.033C715.916 108.976 714.291 111.585 712.293 113.876L716.816 117.819C719.246 115.032 721.202 111.879 722.688 108.377L717.164 106.033ZM712.306 113.862C710.398 116.022 708.007 117.761 705.082 119.064L707.524 124.545C711.174 122.919 714.284 120.686 716.803 117.833L712.306 113.862ZM705.095 119.059C702.265 120.304 699.054 120.953 695.414 120.953V126.953C699.782 126.953 703.83 126.17 707.511 124.551L705.095 119.059ZM695.414 120.953C686.125 120.953 679.225 118.795 674.357 114.838L670.573 119.494C676.837 124.586 685.237 126.953 695.414 126.953V120.953ZM674.372 114.85C669.601 110.921 667.164 105.607 667.164 98.5625H661.164C661.164 107.208 664.261 114.296 670.558 119.482L674.372 114.85ZM667.164 98.5625V47.7812H661.164V98.5625H667.164ZM664.164 44.7812H654.398V50.7812H664.164V44.7812ZM657.398 47.7812V32.1562H651.398V47.7812H657.398ZM654.398 35.1562H656.352V29.1562H654.398V35.1562ZM656.352 35.1562C661.979 35.1562 667.042 33.5339 671.426 30.2643L667.839 25.4545C664.541 27.914 660.75 29.1562 656.352 29.1562V35.1562ZM671.426 30.2643C675.751 27.0387 680.033 21.5471 684.337 14.1308L679.147 11.1192C674.988 18.2862 671.196 22.9509 667.839 25.4545L671.426 30.2643ZM760.746 82.9375V79.9375H757.504L757.755 83.1696L760.746 82.9375ZM766.02 100.32L763.57 102.052L763.58 102.066L763.59 102.08L766.02 100.32ZM770.756 105.008L769.051 107.476L769.066 107.487L769.081 107.497L770.756 105.008ZM776.273 107.596L775.476 110.488L775.499 110.494L775.522 110.5L776.273 107.596ZM798.393 104.373L800.09 106.846L800.095 106.843L798.393 104.373ZM807.67 92.0684L808.651 89.2331L805.988 88.3121L804.902 90.9122L807.67 92.0684ZM820.658 96.5605L823.471 97.6044L824.538 94.7281L821.639 93.7253L820.658 96.5605ZM816.166 105.496L813.652 103.859L813.647 103.866L816.166 105.496ZM801.176 119.217L802.595 121.86L802.605 121.855L801.176 119.217ZM760.111 121.17L759.011 123.961L759.016 123.963L760.111 121.17ZM745.219 111.795L743.14 113.958L743.148 113.966L743.157 113.974L745.219 111.795ZM735.209 96.9023L732.437 98.0508L732.443 98.0638L735.209 96.9023ZM735.209 58.3281L732.438 57.1775L732.433 57.1905L735.209 58.3281ZM745.219 43.2891L747.306 45.4435L747.307 45.4433L745.219 43.2891ZM760.111 33.6699L758.989 30.8878L758.983 30.89L760.111 33.6699ZM796.488 33.6699L795.36 36.4498L795.366 36.4521L796.488 33.6699ZM811.381 43.2891L809.285 45.4352L809.293 45.4434L809.302 45.4516L811.381 43.2891ZM821.391 58.3281L818.615 59.4658L818.62 59.4787L821.391 58.3281ZM825.102 77.6641L828.024 78.3406L828.102 78.0068V77.6641H825.102ZM823.881 82.9375V85.9375H826.266L826.804 83.6141L823.881 82.9375ZM761.088 67.3125L758.106 66.9867L757.742 70.3125H761.088V67.3125ZM795.561 67.3125V70.3125H798.919L798.542 66.9755L795.561 67.3125ZM789.945 50.9551L792.234 49.0153L789.945 50.9551ZM772.025 47L773.131 49.7887L773.152 49.7805L773.172 49.7721L772.025 47ZM766.947 50.6621L769.175 52.6714L769.185 52.6607L769.194 52.6498L766.947 50.6621ZM763.188 57.3516L760.365 56.3342L760.362 56.3437L760.359 56.3531L763.188 57.3516ZM757.755 83.1696C758.062 87.1282 758.716 90.7315 759.743 93.9558L765.46 92.134C764.599 89.4338 764.016 86.2989 763.737 82.7054L757.755 83.1696ZM759.743 93.9558C760.751 97.1169 762.009 99.8434 763.57 102.052L768.469 98.5886C767.361 97.0212 766.341 94.8974 765.46 92.134L759.743 93.9558ZM763.59 102.08C765.142 104.224 766.961 106.032 769.051 107.476L772.461 102.54C770.97 101.509 769.631 100.193 768.449 98.5608L763.59 102.08ZM769.081 107.497C771.113 108.864 773.245 109.872 775.476 110.488L777.071 104.704C775.525 104.277 773.979 103.561 772.43 102.519L769.081 107.497ZM775.522 110.5C777.679 111.058 779.952 111.328 782.328 111.328V105.328C780.408 105.328 778.644 105.11 777.025 104.691L775.522 110.5ZM782.328 111.328C789.53 111.328 795.564 109.953 800.09 106.846L796.695 101.9C793.539 104.066 788.863 105.328 782.328 105.328V111.328ZM800.095 106.843C804.557 103.769 807.966 99.1449 810.438 93.2245L804.902 90.9122C802.752 96.0596 799.975 99.639 796.69 101.903L800.095 106.843ZM806.689 94.9036L819.678 99.3958L821.639 93.7253L808.651 89.2331L806.689 94.9036ZM817.846 95.5167C816.75 98.4678 815.353 101.247 813.652 103.859L818.68 107.133C820.625 104.146 822.222 100.968 823.471 97.6044L817.846 95.5167ZM813.647 103.866C812 106.412 810 108.776 807.637 110.958L811.707 115.367C814.422 112.861 816.751 110.114 818.685 107.126L813.647 103.866ZM807.637 110.958C805.286 113.128 802.659 115.002 799.747 116.579L802.605 121.855C805.943 120.047 808.979 117.884 811.707 115.367L807.637 110.958ZM799.757 116.574C796.92 118.097 793.666 119.315 789.973 120.207L791.382 126.039C795.502 125.043 799.247 123.657 802.595 121.86L799.757 116.574ZM789.973 120.207C786.315 121.091 782.434 121.539 778.324 121.539V127.539C782.873 127.539 787.228 127.043 791.382 126.039L789.973 120.207ZM778.324 121.539C772.27 121.539 766.572 120.48 761.206 118.377L759.016 123.963C765.109 126.352 771.553 127.539 778.324 127.539V121.539ZM761.212 118.379C755.853 116.266 751.22 113.343 747.281 109.616L743.157 113.974C747.681 118.255 752.976 121.581 759.011 123.961L761.212 118.379ZM747.298 109.632C743.421 105.906 740.306 101.293 737.975 95.7409L732.443 98.0638C735.06 104.296 738.618 109.611 743.14 113.958L747.298 109.632ZM737.98 95.7539C735.703 90.2567 734.547 84.2382 734.547 77.6641H728.547C728.547 84.9572 729.833 91.7641 732.437 98.0508L737.98 95.7539ZM734.547 77.6641C734.547 71.0903 735.703 65.0348 737.985 59.4658L732.433 57.1905C729.833 63.5356 728.547 70.3706 728.547 77.6641H734.547ZM737.98 59.4787C740.313 53.8602 743.43 49.1999 747.306 45.4435L743.131 41.1346C738.609 45.5163 735.053 50.882 732.438 57.1775L737.98 59.4787ZM747.307 45.4433C751.25 41.6216 755.884 38.6225 761.239 36.4498L758.983 30.89C752.945 33.3398 747.651 36.7534 743.131 41.1349L747.307 45.4433ZM761.234 36.4521C766.593 34.2902 772.281 33.2031 778.324 33.2031V27.2031C771.542 27.2031 765.088 28.4272 758.989 30.8878L761.234 36.4521ZM778.324 33.2031C784.367 33.2031 790.037 34.2902 795.36 36.4498L797.616 30.89C791.546 28.4272 785.107 27.2031 778.324 27.2031V33.2031ZM795.366 36.4521C800.751 38.6246 805.38 41.6213 809.285 45.4352L813.477 41.1429C808.983 36.7537 803.683 33.3376 797.611 30.8878L795.366 36.4521ZM809.302 45.4516C813.204 49.2042 816.316 53.8575 818.615 59.4658L824.167 57.1905C821.582 50.8847 818.021 45.5119 813.46 41.1266L809.302 45.4516ZM818.62 59.4787C820.931 65.0444 822.102 71.0955 822.102 77.6641H828.102C828.102 70.3655 826.798 63.5259 824.161 57.1775L818.62 59.4787ZM822.179 76.9875L820.958 82.2609L826.804 83.6141L828.024 78.3406L822.179 76.9875ZM823.881 79.9375H760.746V85.9375H823.881V79.9375ZM761.088 70.3125H795.561V64.3125H761.088V70.3125ZM798.542 66.9755C797.669 59.2583 795.698 53.1017 792.234 49.0153L787.657 52.8949C789.987 55.6444 791.759 60.3927 792.58 67.6495L798.542 66.9755ZM792.234 49.0153C788.724 44.8745 784.02 42.8281 778.422 42.8281V48.8281C782.394 48.8281 785.372 50.1997 787.657 52.8949L792.234 49.0153ZM778.422 42.8281C775.715 42.8281 773.184 43.2737 770.878 44.2279L773.172 49.7721C774.642 49.1638 776.376 48.8281 778.422 48.8281V42.8281ZM770.92 44.2113C768.546 45.1525 766.474 46.6691 764.7 48.6744L769.194 52.6498C770.415 51.2697 771.729 50.3449 773.131 49.7887L770.92 44.2113ZM764.72 48.6528C762.891 50.6803 761.465 53.2832 760.365 56.3342L766.01 58.3689C766.928 55.821 768.009 53.9642 769.175 52.6714L764.72 48.6528ZM760.359 56.3531C759.285 59.3952 758.546 62.9535 758.106 66.9867L764.07 67.6383C764.476 63.9241 765.137 60.8418 766.016 58.35L760.359 56.3531Z" fill="white" mask="url(#path-1-outside-1_145_11)"/>
</svg>
