<svg width="826" height="125" viewBox="0 0 826 125" fill="none" xmlns="http://www.w3.org/2000/svg">
<path d="M64.9453 49.2949C61.2344 46.9837 56.5143 45.8281 50.7852 45.8281C48.474 45.8281 46.3255 46.1536 44.3398 46.8047C42.3542 47.4232 40.4499 48.4974 38.627 50.0273C36.8366 51.5573 35.3066 53.4941 34.0371 55.8379C32.7676 58.1816 31.7585 61.1602 31.0098 64.7734C30.2611 68.3867 29.8867 72.4883 29.8867 77.0781C29.8867 81.668 30.2936 85.7533 31.1074 89.334C31.9212 92.9147 32.9954 95.8444 34.3301 98.123C35.6973 100.402 37.3249 102.273 39.2129 103.738C41.1335 105.203 43.1029 106.245 45.1211 106.863C47.1393 107.449 49.3203 107.742 51.6641 107.742C58.5326 107.742 63.8874 106.424 67.7285 103.787C71.6022 101.118 74.6947 97.0163 77.0059 91.4824L89.9941 95.9746C88.8223 99.1322 87.3249 102.111 85.502 104.91C83.7116 107.677 81.5469 110.232 79.0078 112.576C76.4688 114.92 73.6367 116.938 70.5117 118.631C67.4193 120.291 63.9199 121.593 60.0137 122.537C56.1074 123.481 51.9896 123.953 47.6602 123.953C41.2474 123.953 35.1764 122.83 29.4473 120.584C23.7507 118.338 18.7865 115.213 14.5547 111.209C10.3555 107.173 7.01888 102.208 4.54492 96.3164C2.10352 90.4245 0.882812 84.0117 0.882812 77.0781C0.882812 71.5117 1.66406 66.2708 3.22656 61.3555C4.78906 56.4401 6.98633 52.0944 9.81836 48.3184C12.6829 44.5423 16.0358 41.2871 19.877 38.5527C23.7181 35.8184 27.9824 33.7513 32.6699 32.3516C37.3574 30.9193 42.2728 30.2031 47.416 30.2031C51.485 30.2031 55.3099 30.5938 58.8906 31.375C62.4714 32.1237 65.6615 33.1654 68.4609 34.5C71.293 35.8021 73.9297 37.4297 76.3711 39.3828C78.8125 41.3359 80.9447 43.4193 82.7676 45.6328C84.623 47.8138 86.3483 50.2715 87.9434 53.0059C89.6035 55.5775 90.4336 58.3932 90.4336 61.4531C90.4336 65.7826 88.9036 69.4772 85.8438 72.5371C82.8164 75.5645 79.138 77.0781 74.8086 77.0781C70.4792 77.0781 66.7845 75.5645 63.7246 72.5371C60.6973 69.4772 59.1836 65.7826 59.1836 61.4531C59.1836 59.0443 59.6882 56.7819 60.6973 54.666C61.7389 52.5501 63.1549 50.7598 64.9453 49.2949ZM159.867 30.2031C164.424 30.2031 168.412 30.8216 171.83 32.0586C175.248 33.2956 178.048 35.0046 180.229 37.1855C182.41 39.334 184.167 42.0846 185.502 45.4375C186.869 48.7578 187.813 52.3385 188.334 56.1797C188.887 59.9883 189.164 64.3503 189.164 69.2656V106.375H198.93V122H152.055V106.375H161.82V67.3125C161.82 62.1693 161.348 58.1654 160.404 55.3008C159.493 52.4362 158.158 50.4668 156.4 49.3926C154.675 48.3184 152.315 47.7812 149.32 47.7812C146.553 47.7812 143.705 48.9694 140.775 51.3457C137.878 53.722 135.128 57.0423 132.523 61.3066V106.375H142.289V122H95.4141V106.375H105.18V16.5312H95.4141V0.90625H132.523V45.4863C133.695 43.3053 135.079 41.3359 136.674 39.5781C138.269 37.8203 140.157 36.2253 142.338 34.793C144.519 33.3281 147.09 32.2051 150.053 31.4238C153.048 30.61 156.319 30.2031 159.867 30.2031ZM232.377 33.8652C238.106 31.6191 244.177 30.4961 250.59 30.4961C257.003 30.4961 263.057 31.6191 268.754 33.8652C274.483 36.1113 279.464 39.2526 283.695 43.2891C287.927 47.293 291.264 52.2409 293.705 58.1328C296.179 64.0247 297.416 70.4375 297.416 77.3711C297.416 84.3047 296.179 90.7174 293.705 96.6094C291.264 102.501 287.927 107.465 283.695 111.502C279.464 115.506 274.483 118.631 268.754 120.877C263.057 123.123 257.003 124.246 250.59 124.246C244.177 124.246 238.106 123.123 232.377 120.877C226.68 118.631 221.716 115.506 217.484 111.502C213.285 107.465 209.949 102.501 207.475 96.6094C205.033 90.7174 203.812 84.3047 203.812 77.3711C203.812 70.4375 205.033 64.0247 207.475 58.1328C209.949 52.2409 213.285 47.293 217.484 43.2891C221.716 39.2526 226.68 36.1113 232.377 33.8652ZM250.59 46.1211C248.311 46.1211 246.277 46.4466 244.486 47.0977C242.696 47.7487 241.052 48.8229 239.555 50.3203C238.057 51.8177 236.82 53.7546 235.844 56.1309C234.9 58.5072 234.151 61.4694 233.598 65.0176C233.077 68.5658 232.816 72.6836 232.816 77.3711C232.816 82.0586 233.077 86.1764 233.598 89.7246C234.151 93.2728 234.9 96.235 235.844 98.6113C236.82 100.988 238.057 102.924 239.555 104.422C241.052 105.919 242.696 106.993 244.486 107.645C246.277 108.296 248.311 108.621 250.59 108.621C253.454 108.621 255.945 108.084 258.061 107.01C260.176 105.903 262.016 104.145 263.578 101.736C265.173 99.3275 266.361 96.0885 267.143 92.0195C267.956 87.9505 268.363 83.0677 268.363 77.3711C268.363 71.6745 267.956 66.7917 267.143 62.7227C266.361 58.6536 265.173 55.4147 263.578 53.0059C262.016 50.597 260.176 48.8555 258.061 47.7812C255.945 46.6745 253.454 46.1211 250.59 46.1211ZM371.195 49.2949C367.484 46.9837 362.764 45.8281 357.035 45.8281C354.724 45.8281 352.576 46.1536 350.59 46.8047C348.604 47.4232 346.7 48.4974 344.877 50.0273C343.087 51.5573 341.557 53.4941 340.287 55.8379C339.018 58.1816 338.008 61.1602 337.26 64.7734C336.511 68.3867 336.137 72.4883 336.137 77.0781C336.137 81.668 336.544 85.7533 337.357 89.334C338.171 92.9147 339.245 95.8444 340.58 98.123C341.947 100.402 343.575 102.273 345.463 103.738C347.383 105.203 349.353 106.245 351.371 106.863C353.389 107.449 355.57 107.742 357.914 107.742C364.783 107.742 370.137 106.424 373.979 103.787C377.852 101.118 380.945 97.0163 383.256 91.4824L396.244 95.9746C395.072 99.1322 393.575 102.111 391.752 104.91C389.962 107.677 387.797 110.232 385.258 112.576C382.719 114.92 379.887 116.938 376.762 118.631C373.669 120.291 370.17 121.593 366.264 122.537C362.357 123.481 358.24 123.953 353.91 123.953C347.497 123.953 341.426 122.83 335.697 120.584C330.001 118.338 325.036 115.213 320.805 111.209C316.605 107.173 313.269 102.208 310.795 96.3164C308.354 90.4245 307.133 84.0117 307.133 77.0781C307.133 71.5117 307.914 66.2708 309.477 61.3555C311.039 56.4401 313.236 52.0944 316.068 48.3184C318.933 44.5423 322.286 41.2871 326.127 38.5527C329.968 35.8184 334.232 33.7513 338.92 32.3516C343.607 30.9193 348.523 30.2031 353.666 30.2031C357.735 30.2031 361.56 30.5938 365.141 31.375C368.721 32.1237 371.911 33.1654 374.711 34.5C377.543 35.8021 380.18 37.4297 382.621 39.3828C385.062 41.3359 387.195 43.4193 389.018 45.6328C390.873 47.8138 392.598 50.2715 394.193 53.0059C395.854 55.5775 396.684 58.3932 396.684 61.4531C396.684 65.7826 395.154 69.4772 392.094 72.5371C389.066 75.5645 385.388 77.0781 381.059 77.0781C376.729 77.0781 373.035 75.5645 369.975 72.5371C366.947 69.4772 365.434 65.7826 365.434 61.4531C365.434 59.0443 365.938 56.7819 366.947 54.666C367.989 52.5501 369.405 50.7598 371.195 49.2949ZM435.111 33.8652C440.84 31.6191 446.911 30.4961 453.324 30.4961C459.737 30.4961 465.792 31.6191 471.488 33.8652C477.217 36.1113 482.198 39.2526 486.43 43.2891C490.661 47.293 493.998 52.2409 496.439 58.1328C498.913 64.0247 500.15 70.4375 500.15 77.3711C500.15 84.3047 498.913 90.7174 496.439 96.6094C493.998 102.501 490.661 107.465 486.43 111.502C482.198 115.506 477.217 118.631 471.488 120.877C465.792 123.123 459.737 124.246 453.324 124.246C446.911 124.246 440.84 123.123 435.111 120.877C429.415 118.631 424.451 115.506 420.219 111.502C416.02 107.465 412.683 102.501 410.209 96.6094C407.768 90.7174 406.547 84.3047 406.547 77.3711C406.547 70.4375 407.768 64.0247 410.209 58.1328C412.683 52.2409 416.02 47.293 420.219 43.2891C424.451 39.2526 429.415 36.1113 435.111 33.8652ZM453.324 46.1211C451.046 46.1211 449.011 46.4466 447.221 47.0977C445.43 47.7487 443.786 48.8229 442.289 50.3203C440.792 51.8177 439.555 53.7546 438.578 56.1309C437.634 58.5072 436.885 61.4694 436.332 65.0176C435.811 68.5658 435.551 72.6836 435.551 77.3711C435.551 82.0586 435.811 86.1764 436.332 89.7246C436.885 93.2728 437.634 96.235 438.578 98.6113C439.555 100.988 440.792 102.924 442.289 104.422C443.786 105.919 445.43 106.993 447.221 107.645C449.011 108.296 451.046 108.621 453.324 108.621C456.189 108.621 458.679 108.084 460.795 107.01C462.911 105.903 464.75 104.145 466.312 101.736C467.908 99.3275 469.096 96.0885 469.877 92.0195C470.691 87.9505 471.098 83.0677 471.098 77.3711C471.098 71.6745 470.691 66.7917 469.877 62.7227C469.096 58.6536 467.908 55.4147 466.312 53.0059C464.75 50.597 462.911 48.8555 460.795 47.7812C458.679 46.6745 456.189 46.1211 453.324 46.1211ZM504.984 0.90625H542.094V106.375H551.859V122H504.984V106.375H514.75V16.5312H504.984V0.90625ZM641.703 63.1621V106.375H651.469V122H621.049L616.703 111.844C613.383 116.596 609.525 119.852 605.131 121.609C600.769 123.367 594.665 124.246 586.82 124.246C582.751 124.246 578.959 123.53 575.443 122.098C571.96 120.698 568.982 118.777 566.508 116.336C564.066 113.895 562.146 110.965 560.746 107.547C559.379 104.129 558.695 100.467 558.695 96.5605C558.695 89.8223 561.332 84.2396 566.605 79.8125C571.879 75.3529 578.617 73.123 586.82 73.123C593.428 73.123 598.897 73.7578 603.227 75.0273C607.556 76.2643 611.267 78.25 614.359 80.9844V60.2812C614.359 57.3516 613.952 54.9102 613.139 52.957C612.357 50.9714 611.169 49.4577 609.574 48.416C607.979 47.3418 606.189 46.5931 604.203 46.1699C602.217 45.7467 599.841 45.5352 597.074 45.5352C594.861 45.5352 592.859 46.0072 591.068 46.9512C592.077 49.0671 592.582 51.2969 592.582 53.6406C592.582 57.9701 591.052 61.6647 587.992 64.7246C584.965 67.752 581.286 69.2656 576.957 69.2656C572.628 69.2656 568.933 67.752 565.873 64.7246C562.846 61.6647 561.332 57.9701 561.332 53.6406C561.332 51.4271 561.755 49.3438 562.602 47.3906C563.48 45.4375 564.685 43.7285 566.215 42.2637C567.517 40.8965 568.868 39.6758 570.268 38.6016C571.667 37.4948 573.425 36.4043 575.541 35.3301C577.689 34.2233 580.017 33.3118 582.523 32.5957C585.03 31.8796 588.025 31.3099 591.508 30.8867C595.023 30.431 598.865 30.2031 603.031 30.2031C608.435 30.2031 613.513 31.0007 618.266 32.5957C623.018 34.1908 627.12 36.4043 630.57 39.2363C634.021 42.0684 636.739 45.5514 638.725 49.6855C640.71 53.8197 641.703 58.3118 641.703 63.1621ZM614.359 100.32V93.582C612.341 91.6615 610.062 90.0501 607.523 88.748C605.017 87.4134 602.689 86.7461 600.541 86.7461C595.919 86.7461 592.663 87.5273 590.775 89.0898C588.887 90.6198 587.943 93.11 587.943 96.5605C587.943 100.695 588.757 103.738 590.385 105.691C592.012 107.645 595.04 108.621 599.467 108.621C601.973 108.621 604.577 107.824 607.279 106.229C610.014 104.601 612.374 102.632 614.359 100.32ZM681.742 12.625H691.508V32.1562H718.852V47.7812H691.508V98.5625C691.508 100.776 692.126 102.632 693.363 104.129C694.633 105.626 696.618 106.375 699.32 106.375C702.348 106.375 704.919 105.382 707.035 103.396C709.151 101.378 710.486 98.4648 711.039 94.6562L722.758 96.6094C722.27 100.418 721.326 103.95 719.926 107.205C718.559 110.428 716.768 113.309 714.555 115.848C712.341 118.354 709.59 120.34 706.303 121.805C703.048 123.237 699.418 123.953 695.414 123.953C685.681 123.953 678.031 121.691 672.465 117.166C666.931 112.609 664.164 106.408 664.164 98.5625V47.7812H654.398V32.1562H656.352C661.365 32.1562 665.792 30.724 669.633 27.8594C673.474 24.9948 677.51 19.9167 681.742 12.625ZM760.746 82.9375C761.039 86.7135 761.658 90.0827 762.602 93.0449C763.546 96.0072 764.685 98.4323 766.02 100.32C767.387 102.208 768.965 103.771 770.756 105.008C772.546 106.212 774.385 107.075 776.273 107.596C778.161 108.084 780.18 108.328 782.328 108.328C789.197 108.328 794.551 107.01 798.393 104.373C802.266 101.704 805.359 97.6022 807.67 92.0684L820.658 96.5605C819.486 99.7181 817.989 102.697 816.166 105.496C814.376 108.263 812.211 110.818 809.672 113.162C807.133 115.506 804.301 117.524 801.176 119.217C798.083 120.877 794.584 122.179 790.678 123.123C786.771 124.067 782.654 124.539 778.324 124.539C771.911 124.539 765.84 123.416 760.111 121.17C754.415 118.924 749.451 115.799 745.219 111.795C741.02 107.758 737.683 102.794 735.209 96.9023C732.768 91.0104 731.547 84.5977 731.547 77.6641C731.547 70.7305 732.768 64.2852 735.209 58.3281C737.683 52.3711 741.02 47.3581 745.219 43.2891C749.451 39.1875 754.415 35.9811 760.111 33.6699C765.84 31.3587 771.911 30.2031 778.324 30.2031C784.737 30.2031 790.792 31.3587 796.488 33.6699C802.217 35.9811 807.182 39.1875 811.381 43.2891C815.613 47.3581 818.949 52.3711 821.391 58.3281C823.865 64.2852 825.102 70.7305 825.102 77.6641L823.881 82.9375H760.746ZM761.088 67.3125H795.561C794.714 59.8255 792.842 54.373 789.945 50.9551C787.048 47.5371 783.207 45.8281 778.422 45.8281C776.046 45.8281 773.913 46.2188 772.025 47C770.137 47.7487 768.445 48.9694 766.947 50.6621C765.45 52.3223 764.197 54.5521 763.188 57.3516C762.211 60.1185 761.511 63.4388 761.088 67.3125Z" fill="white"/>
</svg>
