<svg width="543" height="132" viewBox="0 0 543 132" fill="none" xmlns="http://www.w3.org/2000/svg">
<path d="M64.9453 56.2949C61.2344 53.9837 56.5143 52.8281 50.7852 52.8281C48.474 52.8281 46.3255 53.1536 44.3398 53.8047C42.3542 54.4232 40.4499 55.4974 38.627 57.0273C36.8366 58.5573 35.3066 60.4941 34.0371 62.8379C32.7676 65.1816 31.7585 68.1602 31.0098 71.7734C30.2611 75.3867 29.8867 79.4883 29.8867 84.0781C29.8867 88.668 30.2936 92.7533 31.1074 96.334C31.9212 99.9147 32.9954 102.844 34.3301 105.123C35.6973 107.402 37.3249 109.273 39.2129 110.738C41.1335 112.203 43.1029 113.245 45.1211 113.863C47.1393 114.449 49.3203 114.742 51.6641 114.742C58.5326 114.742 63.8874 113.424 67.7285 110.787C71.6022 108.118 74.6947 104.016 77.0059 98.4824L89.9941 102.975C88.8223 106.132 87.3249 109.111 85.502 111.91C83.7116 114.677 81.5469 117.232 79.0078 119.576C76.4688 121.92 73.6367 123.938 70.5117 125.631C67.4193 127.291 63.9199 128.593 60.0137 129.537C56.1074 130.481 51.9896 130.953 47.6602 130.953C41.2474 130.953 35.1764 129.83 29.4473 127.584C23.7507 125.338 18.7865 122.213 14.5547 118.209C10.3555 114.173 7.01888 109.208 4.54492 103.316C2.10352 97.4245 0.882812 91.0117 0.882812 84.0781C0.882812 78.5117 1.66406 73.2708 3.22656 68.3555C4.78906 63.4401 6.98633 59.0944 9.81836 55.3184C12.6829 51.5423 16.0358 48.2871 19.877 45.5527C23.7181 42.8184 27.9824 40.7513 32.6699 39.3516C37.3574 37.9193 42.2728 37.2031 47.416 37.2031C51.485 37.2031 55.3099 37.5938 58.8906 38.375C62.4714 39.1237 65.6615 40.1654 68.4609 41.5C71.293 42.8021 73.9297 44.4297 76.3711 46.3828C78.8125 48.3359 80.9447 50.4193 82.7676 52.6328C84.623 54.8138 86.3483 57.2715 87.9434 60.0059C89.6035 62.5775 90.4336 65.3932 90.4336 68.4531C90.4336 72.7826 88.9036 76.4772 85.8438 79.5371C82.8164 82.5645 79.138 84.0781 74.8086 84.0781C70.4792 84.0781 66.7845 82.5645 63.7246 79.5371C60.6973 76.4772 59.1836 72.7826 59.1836 68.4531C59.1836 66.0443 59.6882 63.7819 60.6973 61.666C61.7389 59.5501 63.1549 57.7598 64.9453 56.2949ZM128.861 40.8652C134.59 38.6191 140.661 37.4961 147.074 37.4961C153.487 37.4961 159.542 38.6191 165.238 40.8652C170.967 43.1113 175.948 46.2526 180.18 50.2891C184.411 54.293 187.748 59.2409 190.189 65.1328C192.663 71.0247 193.9 77.4375 193.9 84.3711C193.9 91.3047 192.663 97.7174 190.189 103.609C187.748 109.501 184.411 114.465 180.18 118.502C175.948 122.506 170.967 125.631 165.238 127.877C159.542 130.123 153.487 131.246 147.074 131.246C140.661 131.246 134.59 130.123 128.861 127.877C123.165 125.631 118.201 122.506 113.969 118.502C109.77 114.465 106.433 109.501 103.959 103.609C101.518 97.7174 100.297 91.3047 100.297 84.3711C100.297 77.4375 101.518 71.0247 103.959 65.1328C106.433 59.2409 109.77 54.293 113.969 50.2891C118.201 46.2526 123.165 43.1113 128.861 40.8652ZM147.074 53.1211C144.796 53.1211 142.761 53.4466 140.971 54.0977C139.18 54.7487 137.536 55.8229 136.039 57.3203C134.542 58.8177 133.305 60.7546 132.328 63.1309C131.384 65.5072 130.635 68.4694 130.082 72.0176C129.561 75.5658 129.301 79.6836 129.301 84.3711C129.301 89.0586 129.561 93.1764 130.082 96.7246C130.635 100.273 131.384 103.235 132.328 105.611C133.305 107.988 134.542 109.924 136.039 111.422C137.536 112.919 139.18 113.993 140.971 114.645C142.761 115.296 144.796 115.621 147.074 115.621C149.939 115.621 152.429 115.084 154.545 114.01C156.661 112.903 158.5 111.145 160.062 108.736C161.658 106.327 162.846 103.089 163.627 99.0195C164.441 94.9505 164.848 90.0677 164.848 84.3711C164.848 78.6745 164.441 73.7917 163.627 69.7227C162.846 65.6536 161.658 62.4147 160.062 60.0059C158.5 57.597 156.661 55.8555 154.545 54.7812C152.429 53.6745 149.939 53.1211 147.074 53.1211ZM202.641 54.7812V39.1562H216.312C216.312 35.25 216.378 31.9948 216.508 29.3906C216.638 26.7865 216.915 23.987 217.338 20.9922C217.794 17.9974 218.428 15.556 219.242 13.668C220.056 11.7474 221.179 9.85938 222.611 8.00391C224.044 6.11589 225.785 4.65104 227.836 3.60938C229.887 2.53516 232.393 1.6888 235.355 1.07031C238.35 0.419271 241.768 0.09375 245.609 0.09375C251.599 0.09375 256.368 0.826172 259.916 2.29102C263.497 3.75586 266.231 5.85547 268.119 8.58984C270.04 11.2917 271 14.319 271 17.6719C271 22.0013 269.47 25.696 266.41 28.7559C263.383 31.7832 259.704 33.2969 255.375 33.2969C251.046 33.2969 247.351 31.7832 244.291 28.7559C241.264 25.696 239.75 22.0013 239.75 17.6719C239.75 16.5 239.88 15.3607 240.141 14.2539C239.913 14.2214 239.701 14.2051 239.506 14.2051C238.106 14.2051 236.918 14.9212 235.941 16.3535C234.997 17.7858 234.525 19.9505 234.525 22.8477C234.525 24.3125 234.9 25.696 235.648 26.998C236.43 28.2676 237.553 29.7161 239.018 31.3438C240.189 32.6458 240.971 33.541 241.361 34.0293C241.785 34.5176 242.273 35.2826 242.826 36.3242C243.38 37.3659 243.656 38.3099 243.656 39.1562H269.047V54.7812H243.656V113.375H261.234V129H206.547V113.375H216.312V54.7812H202.641ZM269.047 54.7812V39.1562H282.719C282.719 26.9167 286.202 17.3464 293.168 10.4453C300.134 3.54427 310.323 0.09375 323.734 0.09375C328.747 0.09375 332.995 0.533203 336.479 1.41211C339.962 2.25846 342.615 3.36523 344.438 4.73242C346.26 6.09961 347.774 7.80859 348.979 9.85938C350.378 12.2031 351.078 14.8073 351.078 17.6719C351.078 22.0013 349.548 25.696 346.488 28.7559C343.461 31.7832 339.783 33.2969 335.453 33.2969C331.124 33.2969 327.429 31.7832 324.369 28.7559C321.342 25.696 319.828 22.0013 319.828 17.6719C319.828 17.0208 319.861 16.3698 319.926 15.7188C319.893 15.7188 319.861 15.7188 319.828 15.7188C316.443 15.7188 313.969 17.6393 312.406 21.4805C310.844 25.3216 310.062 31.2135 310.062 39.1562H339.359V54.7812H310.062V113.375H331.547V129H272.953V113.375H282.719V54.7812H269.047ZM375.395 89.9375C375.688 93.7135 376.306 97.0827 377.25 100.045C378.194 103.007 379.333 105.432 380.668 107.32C382.035 109.208 383.614 110.771 385.404 112.008C387.195 113.212 389.034 114.075 390.922 114.596C392.81 115.084 394.828 115.328 396.977 115.328C403.845 115.328 409.2 114.01 413.041 111.373C416.915 108.704 420.007 104.602 422.318 99.0684L435.307 103.561C434.135 106.718 432.637 109.697 430.814 112.496C429.024 115.263 426.859 117.818 424.32 120.162C421.781 122.506 418.949 124.524 415.824 126.217C412.732 127.877 409.232 129.179 405.326 130.123C401.42 131.067 397.302 131.539 392.973 131.539C386.56 131.539 380.489 130.416 374.76 128.17C369.063 125.924 364.099 122.799 359.867 118.795C355.668 114.758 352.331 109.794 349.857 103.902C347.416 98.0104 346.195 91.5977 346.195 84.6641C346.195 77.7305 347.416 71.2852 349.857 65.3281C352.331 59.3711 355.668 54.3581 359.867 50.2891C364.099 46.1875 369.063 42.9811 374.76 40.6699C380.489 38.3587 386.56 37.2031 392.973 37.2031C399.385 37.2031 405.44 38.3587 411.137 40.6699C416.866 42.9811 421.83 46.1875 426.029 50.2891C430.261 54.3581 433.598 59.3711 436.039 65.3281C438.513 71.2852 439.75 77.7305 439.75 84.6641L438.529 89.9375H375.395ZM375.736 74.3125H410.209C409.363 66.8255 407.491 61.373 404.594 57.9551C401.697 54.5371 397.855 52.8281 393.07 52.8281C390.694 52.8281 388.562 53.2188 386.674 54C384.786 54.7487 383.093 55.9694 381.596 57.6621C380.098 59.3223 378.845 61.5521 377.836 64.3516C376.859 67.1185 376.16 70.4388 375.736 74.3125ZM477.738 89.9375C478.031 93.7135 478.65 97.0827 479.594 100.045C480.538 103.007 481.677 105.432 483.012 107.32C484.379 109.208 485.958 110.771 487.748 112.008C489.538 113.212 491.378 114.075 493.266 114.596C495.154 115.084 497.172 115.328 499.32 115.328C506.189 115.328 511.544 114.01 515.385 111.373C519.258 108.704 522.351 104.602 524.662 99.0684L537.65 103.561C536.479 106.718 534.981 109.697 533.158 112.496C531.368 115.263 529.203 117.818 526.664 120.162C524.125 122.506 521.293 124.524 518.168 126.217C515.076 127.877 511.576 129.179 507.67 130.123C503.764 131.067 499.646 131.539 495.316 131.539C488.904 131.539 482.833 130.416 477.104 128.17C471.407 125.924 466.443 122.799 462.211 118.795C458.012 114.758 454.675 109.794 452.201 103.902C449.76 98.0104 448.539 91.5977 448.539 84.6641C448.539 77.7305 449.76 71.2852 452.201 65.3281C454.675 59.3711 458.012 54.3581 462.211 50.2891C466.443 46.1875 471.407 42.9811 477.104 40.6699C482.833 38.3587 488.904 37.2031 495.316 37.2031C501.729 37.2031 507.784 38.3587 513.48 40.6699C519.21 42.9811 524.174 46.1875 528.373 50.2891C532.605 54.3581 535.941 59.3711 538.383 65.3281C540.857 71.2852 542.094 77.7305 542.094 84.6641L540.873 89.9375H477.738ZM478.08 74.3125H512.553C511.706 66.8255 509.835 61.373 506.938 57.9551C504.04 54.5371 500.199 52.8281 495.414 52.8281C493.038 52.8281 490.906 53.2188 489.018 54C487.13 54.7487 485.437 55.9694 483.939 57.6621C482.442 59.3223 481.189 61.5521 480.18 64.3516C479.203 67.1185 478.503 70.4388 478.08 74.3125Z" fill="white"/>
</svg>
