<svg width="543" height="132" viewBox="0 0 543 132" fill="none" xmlns="http://www.w3.org/2000/svg">
<mask id="path-1-outside-1_145_16" maskUnits="userSpaceOnUse" x="-3" y="-3" width="549" height="138" fill="black">
<rect fill="white" x="-3" y="-3" width="549" height="138"/>
<path d="M64.9453 56.2949C61.2344 53.9837 56.5143 52.8281 50.7852 52.8281C48.474 52.8281 46.3255 53.1536 44.3398 53.8047C42.3542 54.4232 40.4499 55.4974 38.627 57.0273C36.8366 58.5573 35.3066 60.4941 34.0371 62.8379C32.7676 65.1816 31.7585 68.1602 31.0098 71.7734C30.2611 75.3867 29.8867 79.4883 29.8867 84.0781C29.8867 88.668 30.2936 92.7533 31.1074 96.334C31.9212 99.9147 32.9954 102.844 34.3301 105.123C35.6973 107.402 37.3249 109.273 39.2129 110.738C41.1335 112.203 43.1029 113.245 45.1211 113.863C47.1393 114.449 49.3203 114.742 51.6641 114.742C58.5326 114.742 63.8874 113.424 67.7285 110.787C71.6022 108.118 74.6947 104.016 77.0059 98.4824L89.9941 102.975C88.8223 106.132 87.3249 109.111 85.502 111.91C83.7116 114.677 81.5469 117.232 79.0078 119.576C76.4688 121.92 73.6367 123.938 70.5117 125.631C67.4193 127.291 63.9199 128.593 60.0137 129.537C56.1074 130.481 51.9896 130.953 47.6602 130.953C41.2474 130.953 35.1764 129.83 29.4473 127.584C23.7507 125.338 18.7865 122.213 14.5547 118.209C10.3555 114.173 7.01888 109.208 4.54492 103.316C2.10352 97.4245 0.882812 91.0117 0.882812 84.0781C0.882812 78.5117 1.66406 73.2708 3.22656 68.3555C4.78906 63.4401 6.98633 59.0944 9.81836 55.3184C12.6829 51.5423 16.0358 48.2871 19.877 45.5527C23.7181 42.8184 27.9824 40.7513 32.6699 39.3516C37.3574 37.9193 42.2728 37.2031 47.416 37.2031C51.485 37.2031 55.3099 37.5938 58.8906 38.375C62.4714 39.1237 65.6615 40.1654 68.4609 41.5C71.293 42.8021 73.9297 44.4297 76.3711 46.3828C78.8125 48.3359 80.9447 50.4193 82.7676 52.6328C84.623 54.8138 86.3483 57.2715 87.9434 60.0059C89.6035 62.5775 90.4336 65.3932 90.4336 68.4531C90.4336 72.7826 88.9036 76.4772 85.8438 79.5371C82.8164 82.5645 79.138 84.0781 74.8086 84.0781C70.4792 84.0781 66.7845 82.5645 63.7246 79.5371C60.6973 76.4772 59.1836 72.7826 59.1836 68.4531C59.1836 66.0443 59.6882 63.7819 60.6973 61.666C61.7389 59.5501 63.1549 57.7598 64.9453 56.2949ZM128.861 40.8652C134.59 38.6191 140.661 37.4961 147.074 37.4961C153.487 37.4961 159.542 38.6191 165.238 40.8652C170.967 43.1113 175.948 46.2526 180.18 50.2891C184.411 54.293 187.748 59.2409 190.189 65.1328C192.663 71.0247 193.9 77.4375 193.9 84.3711C193.9 91.3047 192.663 97.7174 190.189 103.609C187.748 109.501 184.411 114.465 180.18 118.502C175.948 122.506 170.967 125.631 165.238 127.877C159.542 130.123 153.487 131.246 147.074 131.246C140.661 131.246 134.59 130.123 128.861 127.877C123.165 125.631 118.201 122.506 113.969 118.502C109.77 114.465 106.433 109.501 103.959 103.609C101.518 97.7174 100.297 91.3047 100.297 84.3711C100.297 77.4375 101.518 71.0247 103.959 65.1328C106.433 59.2409 109.77 54.293 113.969 50.2891C118.201 46.2526 123.165 43.1113 128.861 40.8652ZM147.074 53.1211C144.796 53.1211 142.761 53.4466 140.971 54.0977C139.18 54.7487 137.536 55.8229 136.039 57.3203C134.542 58.8177 133.305 60.7546 132.328 63.1309C131.384 65.5072 130.635 68.4694 130.082 72.0176C129.561 75.5658 129.301 79.6836 129.301 84.3711C129.301 89.0586 129.561 93.1764 130.082 96.7246C130.635 100.273 131.384 103.235 132.328 105.611C133.305 107.988 134.542 109.924 136.039 111.422C137.536 112.919 139.18 113.993 140.971 114.645C142.761 115.296 144.796 115.621 147.074 115.621C149.939 115.621 152.429 115.084 154.545 114.01C156.661 112.903 158.5 111.145 160.062 108.736C161.658 106.327 162.846 103.089 163.627 99.0195C164.441 94.9505 164.848 90.0677 164.848 84.3711C164.848 78.6745 164.441 73.7917 163.627 69.7227C162.846 65.6536 161.658 62.4147 160.062 60.0059C158.5 57.597 156.661 55.8555 154.545 54.7812C152.429 53.6745 149.939 53.1211 147.074 53.1211ZM202.641 54.7812V39.1562H216.312C216.312 35.25 216.378 31.9948 216.508 29.3906C216.638 26.7865 216.915 23.987 217.338 20.9922C217.794 17.9974 218.428 15.556 219.242 13.668C220.056 11.7474 221.179 9.85938 222.611 8.00391C224.044 6.11589 225.785 4.65104 227.836 3.60938C229.887 2.53516 232.393 1.6888 235.355 1.07031C238.35 0.419271 241.768 0.09375 245.609 0.09375C251.599 0.09375 256.368 0.826172 259.916 2.29102C263.497 3.75586 266.231 5.85547 268.119 8.58984C270.04 11.2917 271 14.319 271 17.6719C271 22.0013 269.47 25.696 266.41 28.7559C263.383 31.7832 259.704 33.2969 255.375 33.2969C251.046 33.2969 247.351 31.7832 244.291 28.7559C241.264 25.696 239.75 22.0013 239.75 17.6719C239.75 16.5 239.88 15.3607 240.141 14.2539C239.913 14.2214 239.701 14.2051 239.506 14.2051C238.106 14.2051 236.918 14.9212 235.941 16.3535C234.997 17.7858 234.525 19.9505 234.525 22.8477C234.525 24.3125 234.9 25.696 235.648 26.998C236.43 28.2676 237.553 29.7161 239.018 31.3438C240.189 32.6458 240.971 33.541 241.361 34.0293C241.785 34.5176 242.273 35.2826 242.826 36.3242C243.38 37.3659 243.656 38.3099 243.656 39.1562H269.047V54.7812H243.656V113.375H261.234V129H206.547V113.375H216.312V54.7812H202.641ZM269.047 54.7812V39.1562H282.719C282.719 26.9167 286.202 17.3464 293.168 10.4453C300.134 3.54427 310.323 0.09375 323.734 0.09375C328.747 0.09375 332.995 0.533203 336.479 1.41211C339.962 2.25846 342.615 3.36523 344.438 4.73242C346.26 6.09961 347.774 7.80859 348.979 9.85938C350.378 12.2031 351.078 14.8073 351.078 17.6719C351.078 22.0013 349.548 25.696 346.488 28.7559C343.461 31.7832 339.783 33.2969 335.453 33.2969C331.124 33.2969 327.429 31.7832 324.369 28.7559C321.342 25.696 319.828 22.0013 319.828 17.6719C319.828 17.0208 319.861 16.3698 319.926 15.7188C319.893 15.7188 319.861 15.7188 319.828 15.7188C316.443 15.7188 313.969 17.6393 312.406 21.4805C310.844 25.3216 310.062 31.2135 310.062 39.1562H339.359V54.7812H310.062V113.375H331.547V129H272.953V113.375H282.719V54.7812H269.047ZM375.395 89.9375C375.688 93.7135 376.306 97.0827 377.25 100.045C378.194 103.007 379.333 105.432 380.668 107.32C382.035 109.208 383.614 110.771 385.404 112.008C387.195 113.212 389.034 114.075 390.922 114.596C392.81 115.084 394.828 115.328 396.977 115.328C403.845 115.328 409.2 114.01 413.041 111.373C416.915 108.704 420.007 104.602 422.318 99.0684L435.307 103.561C434.135 106.718 432.637 109.697 430.814 112.496C429.024 115.263 426.859 117.818 424.32 120.162C421.781 122.506 418.949 124.524 415.824 126.217C412.732 127.877 409.232 129.179 405.326 130.123C401.42 131.067 397.302 131.539 392.973 131.539C386.56 131.539 380.489 130.416 374.76 128.17C369.063 125.924 364.099 122.799 359.867 118.795C355.668 114.758 352.331 109.794 349.857 103.902C347.416 98.0104 346.195 91.5977 346.195 84.6641C346.195 77.7305 347.416 71.2852 349.857 65.3281C352.331 59.3711 355.668 54.3581 359.867 50.2891C364.099 46.1875 369.063 42.9811 374.76 40.6699C380.489 38.3587 386.56 37.2031 392.973 37.2031C399.385 37.2031 405.44 38.3587 411.137 40.6699C416.866 42.9811 421.83 46.1875 426.029 50.2891C430.261 54.3581 433.598 59.3711 436.039 65.3281C438.513 71.2852 439.75 77.7305 439.75 84.6641L438.529 89.9375H375.395ZM375.736 74.3125H410.209C409.363 66.8255 407.491 61.373 404.594 57.9551C401.697 54.5371 397.855 52.8281 393.07 52.8281C390.694 52.8281 388.562 53.2188 386.674 54C384.786 54.7487 383.093 55.9694 381.596 57.6621C380.098 59.3223 378.845 61.5521 377.836 64.3516C376.859 67.1185 376.16 70.4388 375.736 74.3125ZM477.738 89.9375C478.031 93.7135 478.65 97.0827 479.594 100.045C480.538 103.007 481.677 105.432 483.012 107.32C484.379 109.208 485.958 110.771 487.748 112.008C489.538 113.212 491.378 114.075 493.266 114.596C495.154 115.084 497.172 115.328 499.32 115.328C506.189 115.328 511.544 114.01 515.385 111.373C519.258 108.704 522.351 104.602 524.662 99.0684L537.65 103.561C536.479 106.718 534.981 109.697 533.158 112.496C531.368 115.263 529.203 117.818 526.664 120.162C524.125 122.506 521.293 124.524 518.168 126.217C515.076 127.877 511.576 129.179 507.67 130.123C503.764 131.067 499.646 131.539 495.316 131.539C488.904 131.539 482.833 130.416 477.104 128.17C471.407 125.924 466.443 122.799 462.211 118.795C458.012 114.758 454.675 109.794 452.201 103.902C449.76 98.0104 448.539 91.5977 448.539 84.6641C448.539 77.7305 449.76 71.2852 452.201 65.3281C454.675 59.3711 458.012 54.3581 462.211 50.2891C466.443 46.1875 471.407 42.9811 477.104 40.6699C482.833 38.3587 488.904 37.2031 495.316 37.2031C501.729 37.2031 507.784 38.3587 513.48 40.6699C519.21 42.9811 524.174 46.1875 528.373 50.2891C532.605 54.3581 535.941 59.3711 538.383 65.3281C540.857 71.2852 542.094 77.7305 542.094 84.6641L540.873 89.9375H477.738ZM478.08 74.3125H512.553C511.706 66.8255 509.835 61.373 506.938 57.9551C504.04 54.5371 500.199 52.8281 495.414 52.8281C493.038 52.8281 490.906 53.2188 489.018 54C487.13 54.7487 485.437 55.9694 483.939 57.6621C482.442 59.3223 481.189 61.5521 480.18 64.3516C479.203 67.1185 478.503 70.4388 478.08 74.3125Z"/>
</mask>
<path d="M64.9453 56.2949L66.845 58.6168L70.0879 55.9635L66.5313 53.7484L64.9453 56.2949ZM44.3398 53.8047L45.232 56.669L45.2533 56.6623L45.2745 56.6554L44.3398 53.8047ZM38.627 57.0273L36.6983 54.7294L36.6881 54.738L36.678 54.7466L38.627 57.0273ZM31.1074 96.334L28.182 96.9988L31.1074 96.334ZM34.3301 105.123L31.7414 106.639L31.7494 106.653L31.7576 106.667L34.3301 105.123ZM39.2129 110.738L37.3739 113.109L37.3837 113.116L37.3935 113.124L39.2129 110.738ZM45.1211 113.863L44.2421 116.732L44.2633 116.738L44.2847 116.744L45.1211 113.863ZM67.7285 110.787L69.4263 113.26L69.4307 113.257L67.7285 110.787ZM77.0059 98.4824L77.9865 95.6472L75.3235 94.7262L74.2376 97.3263L77.0059 98.4824ZM89.9941 102.975L92.8067 104.018L93.8742 101.142L90.9747 100.139L89.9941 102.975ZM85.502 111.91L82.9879 110.273L82.9832 110.28L85.502 111.91ZM70.5117 125.631L71.9307 128.274L71.9406 128.269L70.5117 125.631ZM29.4473 127.584L28.3469 130.375L28.3523 130.377L29.4473 127.584ZM14.5547 118.209L12.4757 120.372L12.4842 120.38L12.4928 120.388L14.5547 118.209ZM4.54492 103.316L1.7734 104.465L1.77887 104.478L4.54492 103.316ZM9.81836 55.3184L7.42829 53.5052L7.4233 53.5118L7.41836 53.5184L9.81836 55.3184ZM32.6699 39.3516L33.5283 42.2261L33.5374 42.2234L33.5466 42.2206L32.6699 39.3516ZM58.8906 38.375L58.2511 41.306L58.2639 41.3088L58.2766 41.3115L58.8906 38.375ZM68.4609 41.5L67.1699 44.208L67.1888 44.217L67.2077 44.2257L68.4609 41.5ZM82.7676 52.6328L80.4518 54.5399L80.467 54.5585L80.4826 54.5767L82.7676 52.6328ZM87.9434 60.0059L85.352 61.5175L85.3862 61.576L85.4229 61.633L87.9434 60.0059ZM85.8438 79.5371L83.7224 77.4158L85.8438 79.5371ZM63.7246 79.5371L61.592 81.6471L61.6033 81.6585L61.6147 81.6697L63.7246 79.5371ZM60.6973 61.666L58.0058 60.341L57.9975 60.3577L57.9895 60.3746L60.6973 61.666ZM66.5313 53.7484C62.218 51.0621 56.9045 49.8281 50.7852 49.8281V55.8281C56.1241 55.8281 60.2508 56.9054 63.3593 58.8414L66.5313 53.7484ZM50.7852 49.8281C48.1899 49.8281 45.7227 50.1942 43.4052 50.954L45.2745 56.6554C46.9283 56.1131 48.7581 55.8281 50.7852 55.8281V49.8281ZM43.4477 50.9404C41.0316 51.693 38.7822 52.9805 36.6983 54.7294L40.5556 59.3253C42.1176 58.0143 43.6768 57.1534 45.232 56.669L43.4477 50.9404ZM36.678 54.7466C34.5732 56.5453 32.8212 58.7838 31.3992 61.409L36.675 64.2667C37.7921 62.2045 39.0999 60.5693 40.5759 59.308L36.678 54.7466ZM31.3992 61.409C29.9484 64.0876 28.8592 67.3663 28.0722 71.1647L33.9474 72.3821C34.6577 68.954 35.5868 66.2757 36.675 64.2667L31.3992 61.409ZM28.0722 71.1647C27.2734 75.0197 26.8867 79.331 26.8867 84.0781H32.8867C32.8867 79.6455 33.2488 75.7537 33.9474 72.3821L28.0722 71.1647ZM26.8867 84.0781C26.8867 88.8387 27.3081 93.1538 28.182 96.9988L34.0328 95.6691C33.2791 92.3527 32.8867 88.4972 32.8867 84.0781H26.8867ZM28.182 96.9988C29.0394 100.771 30.2043 104.015 31.7414 106.639L36.9187 103.607C35.7866 101.674 34.8031 99.0582 34.0328 95.6691L28.182 96.9988ZM31.7576 106.667C33.2946 109.228 35.1612 111.392 37.3739 113.109L41.0519 108.368C39.4886 107.155 38.0999 105.575 36.9026 103.58L31.7576 106.667ZM37.3935 113.124C39.5563 114.773 41.8391 115.995 44.2421 116.732L46.0001 110.995C44.3667 110.494 42.7106 109.633 41.0322 108.353L37.3935 113.124ZM44.2847 116.744C46.6039 117.418 49.0694 117.742 51.6641 117.742V111.742C49.5712 111.742 47.6747 111.481 45.9575 110.982L44.2847 116.744ZM51.6641 117.742C58.8663 117.742 64.9001 116.367 69.4263 113.26L66.0307 108.314C62.8746 110.48 58.1988 111.742 51.6641 111.742V117.742ZM69.4307 113.257C73.893 110.183 77.3015 105.559 79.7741 99.6386L74.2376 97.3263C72.0878 102.474 69.3114 106.053 66.0263 108.317L69.4307 113.257ZM76.0253 101.318L89.0135 105.81L90.9747 100.139L77.9865 95.6472L76.0253 101.318ZM87.1816 101.931C86.0863 104.882 84.6887 107.661 82.988 110.273L88.0159 113.547C89.961 110.56 91.5582 107.382 92.8067 104.018L87.1816 101.931ZM82.9832 110.28C81.3359 112.826 79.3363 115.19 76.973 117.372L81.0427 121.781C83.7575 119.275 86.0873 116.528 88.0207 113.54L82.9832 110.28ZM76.973 117.372C74.6223 119.542 71.9949 121.416 69.0829 122.993L71.9406 128.269C75.2785 126.461 78.3152 124.298 81.0427 121.781L76.973 117.372ZM69.0927 122.988C66.2556 124.511 63.0016 125.729 59.309 126.621L60.7184 132.453C64.8382 131.458 68.583 130.071 71.9307 128.274L69.0927 122.988ZM59.309 126.621C55.6505 127.505 51.7704 127.953 47.6602 127.953V133.953C52.2088 133.953 56.5643 133.457 60.7184 132.453L59.309 126.621ZM47.6602 127.953C41.6061 127.953 35.9079 126.895 30.5423 124.791L28.3523 130.377C34.4449 132.766 40.8887 133.953 47.6602 133.953V127.953ZM30.5477 124.793C25.1892 122.68 20.5558 119.757 16.6165 116.03L12.4928 120.388C17.0172 124.669 22.3121 127.995 28.3469 130.375L30.5477 124.793ZM16.6337 116.046C12.7569 112.32 9.64206 107.707 7.31098 102.155L1.77887 104.478C4.3957 110.71 7.95406 116.025 12.4757 120.372L16.6337 116.046ZM7.31641 102.168C5.03857 96.6708 3.88281 90.6522 3.88281 84.0781H-2.11719C-2.11719 91.3712 -0.831537 98.1782 1.77343 104.465L7.31641 102.168ZM3.88281 84.0781C3.88281 78.7957 4.62362 73.8634 6.08559 69.2643L0.367537 67.4466C-1.2955 72.6783 -2.11719 78.2277 -2.11719 84.0781H3.88281ZM6.08559 69.2643C7.55558 64.64 9.60611 60.6014 12.2184 57.1184L7.41836 53.5184C4.36655 57.5874 2.02255 62.2402 0.367537 67.4466L6.08559 69.2643ZM12.2084 57.1315C14.8904 53.5962 18.0244 50.554 21.6167 47.9967L18.1372 43.1087C14.0473 46.0202 10.4755 49.4885 7.42829 53.5052L12.2084 57.1315ZM21.6167 47.9967C25.1797 45.4604 29.1443 43.5353 33.5283 42.2261L31.8115 36.477C26.8206 37.9673 22.2565 40.1763 18.1372 43.1087L21.6167 47.9967ZM33.5466 42.2206C37.9362 40.8793 42.5552 40.2031 47.416 40.2031V34.2031C41.9904 34.2031 36.7786 34.9592 31.7933 36.4825L33.5466 42.2206ZM47.416 40.2031C51.2933 40.2031 54.902 40.5753 58.2511 41.306L59.5301 35.444C55.7178 34.6122 51.6768 34.2031 47.416 34.2031V40.2031ZM58.2766 41.3115C61.664 42.0198 64.6207 42.9927 67.1699 44.208L69.752 38.792C66.7023 37.3381 63.2788 36.2276 59.5046 35.4385L58.2766 41.3115ZM67.2077 44.2257C69.8173 45.4255 72.2456 46.9243 74.497 48.7254L78.2452 44.0402C75.6138 41.9351 72.7686 40.1787 69.7141 38.7743L67.2077 44.2257ZM74.497 48.7254C76.7909 50.5606 78.7719 52.5001 80.4518 54.5399L85.0834 50.7257C83.1174 48.3385 80.8341 46.1113 78.2452 44.0402L74.497 48.7254ZM80.4826 54.5767C82.2121 56.6097 83.8369 58.9202 85.352 61.5175L90.5347 58.4942C88.8597 55.6228 87.034 53.0179 85.0526 50.6889L80.4826 54.5767ZM85.4229 61.633C86.7701 63.7198 87.4336 65.9706 87.4336 68.4531H93.4336C93.4336 64.8158 92.4369 61.4351 90.4638 58.3788L85.4229 61.633ZM87.4336 68.4531C87.4336 71.9873 86.2194 74.9188 83.7224 77.4158L87.9651 81.6584C91.5879 78.0356 93.4336 73.5778 93.4336 68.4531H87.4336ZM83.7224 77.4158C81.2648 79.8735 78.3524 81.0781 74.8086 81.0781V87.0781C79.9236 87.0781 84.3681 85.2554 87.9651 81.6584L83.7224 77.4158ZM74.8086 81.0781C71.2641 81.0781 68.3291 79.8725 65.8346 77.4045L61.6147 81.6697C65.2399 85.2564 69.6942 87.0781 74.8086 87.0781V81.0781ZM65.8572 77.4272C63.3892 74.9326 62.1836 71.9976 62.1836 68.4531H56.1836C56.1836 73.5675 58.0053 78.0218 61.592 81.6471L65.8572 77.4272ZM62.1836 68.4531C62.1836 66.4784 62.5937 64.6587 63.4051 62.9574L57.9895 60.3746C56.7826 62.9051 56.1836 65.6101 56.1836 68.4531H62.1836ZM63.3888 62.9911C64.2447 61.2525 65.3935 59.8044 66.845 58.6168L63.0456 53.973C60.9164 55.7151 59.2332 57.8477 58.0058 60.341L63.3888 62.9911ZM128.861 40.8652L127.766 38.0722L127.761 38.0743L128.861 40.8652ZM165.238 40.8652L164.138 43.6561L164.143 43.6583L165.238 40.8652ZM180.18 50.2891L178.109 52.4599L178.118 52.4682L180.18 50.2891ZM190.189 65.1328L187.418 66.2812L187.423 66.2943L190.189 65.1328ZM190.189 103.609L187.423 102.448L187.418 102.461L190.189 103.609ZM180.18 118.502L182.242 120.681L182.25 120.673L180.18 118.502ZM165.238 127.877L164.143 125.084L164.138 125.086L165.238 127.877ZM128.861 127.877L127.761 130.668L127.766 130.67L128.861 127.877ZM113.969 118.502L111.89 120.665L111.898 120.673L111.907 120.681L113.969 118.502ZM103.959 103.609L101.187 104.758L101.193 104.771L103.959 103.609ZM103.959 65.1328L101.193 63.9714L101.187 63.9844L103.959 65.1328ZM113.969 50.2891L116.039 52.4603L116.039 52.4599L113.969 50.2891ZM132.328 63.1309L129.553 61.9905L129.547 62.0069L129.54 62.0233L132.328 63.1309ZM130.082 72.0176L127.118 71.5553L127.116 71.5686L127.114 71.5819L130.082 72.0176ZM130.082 96.7246L127.114 97.1603L127.116 97.1736L127.118 97.1869L130.082 96.7246ZM132.328 105.611L129.54 106.719L129.547 106.735L129.553 106.752L132.328 105.611ZM154.545 114.01L155.903 116.685L155.919 116.677L155.935 116.668L154.545 114.01ZM160.062 108.736L157.561 107.08L157.553 107.092L157.546 107.104L160.062 108.736ZM163.627 99.0195L160.685 98.4312L160.683 98.4425L160.681 98.4539L163.627 99.0195ZM163.627 69.7227L160.681 70.2883L160.683 70.2997L160.685 70.311L163.627 69.7227ZM160.062 60.0059L157.546 61.6384L157.553 61.6503L157.561 61.6622L160.062 60.0059ZM154.545 54.7812L153.154 57.4395L153.171 57.448L153.187 57.4563L154.545 54.7812ZM129.956 43.6583C135.322 41.5547 141.02 40.4961 147.074 40.4961V34.4961C140.303 34.4961 133.859 35.6836 127.766 38.0722L129.956 43.6583ZM147.074 40.4961C153.128 40.4961 158.808 41.5547 164.138 43.6561L166.339 38.0743C160.275 35.6836 153.846 34.4961 147.074 34.4961V40.4961ZM164.143 43.6583C169.529 45.7698 174.174 48.7061 178.109 52.4599L182.25 48.1182C177.722 43.7991 172.406 40.4529 166.333 38.0722L164.143 43.6583ZM178.118 52.4682C182.015 56.1558 185.123 60.7417 187.418 66.2812L192.961 63.9844C190.374 57.7401 186.808 52.4302 182.242 48.1099L178.118 52.4682ZM187.423 66.2943C189.73 71.7882 190.9 77.8021 190.9 84.3711H196.9C196.9 77.0729 195.597 70.2613 192.956 63.9714L187.423 66.2943ZM190.9 84.3711C190.9 90.94 189.73 96.954 187.423 102.448L192.956 104.771C195.597 98.4809 196.9 91.6693 196.9 84.3711H190.9ZM187.418 102.461C185.122 108.002 182.012 112.608 178.109 116.331L182.25 120.673C186.811 116.323 190.374 111 192.961 104.758L187.418 102.461ZM178.118 116.323C174.181 120.047 169.534 122.97 164.143 125.084L166.333 130.67C172.401 128.291 177.714 124.965 182.242 120.681L178.118 116.323ZM164.138 125.086C158.808 127.188 153.128 128.246 147.074 128.246V134.246C153.846 134.246 160.275 133.059 166.339 130.668L164.138 125.086ZM147.074 128.246C141.02 128.246 135.322 127.188 129.956 125.084L127.766 130.67C133.859 133.059 140.303 134.246 147.074 134.246V128.246ZM129.962 125.086C124.603 122.973 119.97 120.05 116.031 116.323L111.907 120.681C116.431 124.962 121.726 128.288 127.761 130.668L129.962 125.086ZM116.048 116.339C112.171 112.613 109.056 108 106.725 102.448L101.193 104.771C103.81 111.003 107.368 116.318 111.89 120.665L116.048 116.339ZM106.73 102.461C104.453 96.9638 103.297 90.9452 103.297 84.3711H97.2969C97.2969 91.6642 98.5825 98.4711 101.187 104.758L106.73 102.461ZM103.297 84.3711C103.297 77.797 104.453 71.7784 106.73 66.2812L101.187 63.9844C98.5825 70.2711 97.2969 77.078 97.2969 84.3711H103.297ZM106.725 66.2943C109.055 60.7444 112.168 56.1514 116.039 52.4603L111.899 48.1178C107.371 52.4346 103.811 57.7374 101.193 63.9714L106.725 66.2943ZM116.039 52.4599C119.978 48.7033 124.608 45.7669 129.962 43.6561L127.761 38.0743C121.721 40.4557 116.423 43.8019 111.898 48.1182L116.039 52.4599ZM147.074 50.1211C144.513 50.1211 142.122 50.4869 139.945 51.2783L141.996 56.917C143.4 56.4063 145.078 56.1211 147.074 56.1211V50.1211ZM139.945 51.2783C137.699 52.0951 135.69 53.4265 133.918 55.199L138.16 59.4416C139.383 58.2194 140.661 57.4023 141.996 56.917L139.945 51.2783ZM133.918 55.199C132.087 57.0299 130.649 59.3236 129.553 61.9905L135.103 64.2712C135.96 62.1856 136.997 60.6055 138.16 59.4416L133.918 55.199ZM129.54 62.0233C128.488 64.6721 127.693 67.8675 127.118 71.5553L133.046 72.4799C133.578 69.0713 134.28 66.3423 135.116 64.2384L129.54 62.0233ZM127.114 71.5819C126.567 75.3103 126.301 79.5793 126.301 84.3711H132.301C132.301 79.7878 132.556 75.8212 133.05 72.4533L127.114 71.5819ZM126.301 84.3711C126.301 89.1628 126.567 93.4319 127.114 97.1603L133.05 96.2889C132.556 92.921 132.301 88.9543 132.301 84.3711H126.301ZM127.118 97.1869C127.693 100.875 128.488 104.07 129.54 106.719L135.116 104.504C134.28 102.4 133.578 99.6708 133.046 96.2623L127.118 97.1869ZM129.553 106.752C130.649 109.419 132.087 111.712 133.918 113.543L138.16 109.301C136.997 108.137 135.96 106.557 135.103 104.471L129.553 106.752ZM133.918 113.543C135.69 115.316 137.699 116.647 139.945 117.464L141.996 111.825C140.661 111.34 139.383 110.523 138.16 109.301L133.918 113.543ZM139.945 117.464C142.122 118.255 144.513 118.621 147.074 118.621V112.621C145.078 112.621 143.4 112.336 141.996 111.825L139.945 117.464ZM147.074 118.621C150.314 118.621 153.288 118.012 155.903 116.685L153.187 111.335C151.57 112.155 149.564 112.621 147.074 112.621V118.621ZM155.935 116.668C158.593 115.278 160.793 113.123 162.579 110.369L157.546 107.104C156.207 109.167 154.729 110.528 153.154 111.351L155.935 116.668ZM162.564 110.393C164.451 107.543 165.747 103.888 166.573 99.5852L160.681 98.4539C159.944 102.289 158.864 105.112 157.561 107.08L162.564 110.393ZM166.569 99.6079C167.433 95.2887 167.848 90.1978 167.848 84.3711H161.848C161.848 89.9376 161.449 94.6124 160.685 98.4312L166.569 99.6079ZM167.848 84.3711C167.848 78.5444 167.433 73.4535 166.569 69.1343L160.685 70.311C161.449 74.1298 161.848 78.8046 161.848 84.3711H167.848ZM166.573 69.157C165.747 64.8543 164.451 61.1995 162.564 58.3496L157.561 61.6622C158.864 63.6299 159.944 66.453 160.681 70.2883L166.573 69.157ZM162.579 58.3733C160.79 55.6139 158.58 53.4654 155.903 52.1062L153.187 57.4563C154.741 58.2455 156.21 59.5801 157.546 61.6384L162.579 58.3733ZM155.935 52.123C153.313 50.7511 150.327 50.1211 147.074 50.1211V56.1211C149.551 56.1211 151.545 56.5979 153.154 57.4395L155.935 52.123ZM202.641 54.7812H199.641V57.7812H202.641V54.7812ZM202.641 39.1562V36.1562H199.641V39.1562H202.641ZM216.312 39.1562V42.1562H219.312V39.1562H216.312ZM217.338 20.9922L214.372 20.5409L214.37 20.5566L214.367 20.5724L217.338 20.9922ZM219.242 13.668L221.997 14.8555L222.001 14.8469L222.004 14.8384L219.242 13.668ZM222.611 8.00391L224.986 9.83706L224.994 9.8271L225.001 9.81707L222.611 8.00391ZM227.836 3.60938L229.195 6.28411L229.211 6.2756L229.228 6.26687L227.836 3.60938ZM235.355 1.07031L235.969 4.00698L235.981 4.00446L235.993 4.00184L235.355 1.07031ZM259.916 2.29102L258.771 5.06401L258.78 5.06766L259.916 2.29102ZM268.119 8.58984L265.65 10.2944L265.662 10.3113L265.674 10.328L268.119 8.58984ZM266.41 28.7559L264.289 26.6345L266.41 28.7559ZM244.291 28.7559L242.158 30.8658L242.17 30.8772L242.181 30.8885L244.291 28.7559ZM240.141 14.2539L243.061 14.941L243.812 11.748L240.565 11.2841L240.141 14.2539ZM235.941 16.3535L233.463 14.6635L233.449 14.6829L233.437 14.7026L235.941 16.3535ZM235.648 26.998L233.048 28.4935L233.07 28.5322L233.093 28.5703L235.648 26.998ZM239.018 31.3438L241.247 29.3369L239.018 31.3438ZM241.361 34.0293L239.019 35.9034L239.056 35.9495L239.094 35.9941L241.361 34.0293ZM243.656 39.1562H240.656V42.1562H243.656V39.1562ZM269.047 39.1562H272.047V36.1562H269.047V39.1562ZM269.047 54.7812V57.7812H272.047V54.7812H269.047ZM243.656 54.7812V51.7812H240.656V54.7812H243.656ZM243.656 113.375H240.656V116.375H243.656V113.375ZM261.234 113.375H264.234V110.375H261.234V113.375ZM261.234 129V132H264.234V129H261.234ZM206.547 129H203.547V132H206.547V129ZM206.547 113.375V110.375H203.547V113.375H206.547ZM216.312 113.375V116.375H219.312V113.375H216.312ZM216.312 54.7812H219.312V51.7812H216.312V54.7812ZM205.641 54.7812V39.1562H199.641V54.7812H205.641ZM202.641 42.1562H216.312V36.1562H202.641V42.1562ZM219.312 39.1562C219.312 35.278 219.377 32.0768 219.504 29.5404L213.512 29.2408C213.378 31.9128 213.312 35.222 213.312 39.1562H219.312ZM219.504 29.5404C219.629 27.0395 219.896 24.331 220.308 21.4119L214.367 20.5724C213.934 23.643 213.647 26.5334 213.512 29.2408L219.504 29.5404ZM220.304 21.4435C220.737 18.5945 221.32 16.4256 221.997 14.8555L216.487 12.4805C215.536 14.6863 214.85 17.4002 214.372 20.5409L220.304 21.4435ZM222.004 14.8384C222.707 13.1815 223.692 11.5138 224.986 9.83706L220.237 6.17075C218.666 8.20492 217.405 10.3133 216.48 12.4975L222.004 14.8384ZM225.001 9.81707C226.168 8.27925 227.561 7.11396 229.195 6.28411L226.477 0.934638C224.01 2.18812 221.919 3.95252 220.221 6.19075L225.001 9.81707ZM229.228 6.26687C230.971 5.35365 233.2 4.58515 235.969 4.00698L234.742 -1.86636C231.587 -1.20755 228.802 -0.283339 226.444 0.95188L229.228 6.26687ZM235.993 4.00184C238.733 3.40606 241.931 3.09375 245.609 3.09375V-2.90625C241.605 -2.90625 237.967 -2.56752 234.718 -1.86122L235.993 4.00184ZM245.609 3.09375C251.402 3.09375 255.732 3.80913 258.771 5.064L261.061 -0.481964C257.004 -2.15679 251.796 -2.90625 245.609 -2.90625V3.09375ZM258.78 5.06766C261.912 6.34907 264.145 8.11373 265.65 10.2944L270.588 6.88527C268.318 3.59721 265.081 1.16265 261.052 -0.485625L258.78 5.06766ZM265.674 10.328C267.229 12.5159 268 14.9343 268 17.6719H274C274 13.7037 272.85 10.0675 270.564 6.85171L265.674 10.328ZM268 17.6719C268 21.2061 266.786 24.1376 264.289 26.6345L268.531 30.8772C272.154 27.2544 274 22.7965 274 17.6719H268ZM264.289 26.6345C261.831 29.0922 258.919 30.2969 255.375 30.2969V36.2969C260.49 36.2969 264.934 34.4742 268.531 30.8772L264.289 26.6345ZM255.375 30.2969C251.831 30.2969 248.896 29.0913 246.401 26.6232L242.181 30.8885C245.806 34.4751 250.261 36.2969 255.375 36.2969V30.2969ZM246.424 26.6459C243.956 24.1513 242.75 21.2164 242.75 17.6719H236.75C236.75 22.7862 238.572 27.2406 242.158 30.8658L246.424 26.6459ZM242.75 17.6719C242.75 16.7242 242.855 15.8158 243.061 14.941L237.22 13.5668C236.905 14.9056 236.75 16.2758 236.75 17.6719H242.75ZM240.565 11.2841C240.221 11.2349 239.866 11.2051 239.506 11.2051V17.2051C239.537 17.2051 239.605 17.2078 239.716 17.2238L240.565 11.2841ZM239.506 11.2051C236.873 11.2051 234.847 12.6329 233.463 14.6635L238.42 18.0435C238.989 17.2095 239.339 17.2051 239.506 17.2051V11.2051ZM233.437 14.7026C232.016 16.8579 231.525 19.7245 231.525 22.8477H237.525C237.525 20.1766 237.979 18.7138 238.446 18.0045L233.437 14.7026ZM231.525 22.8477C231.525 24.8511 232.044 26.7485 233.048 28.4935L238.249 25.5026C237.755 24.6434 237.525 23.7739 237.525 22.8477H231.525ZM233.093 28.5703C234.003 30.0477 235.252 31.6447 236.788 33.3506L241.247 29.3369C239.853 27.7876 238.857 26.4875 238.203 25.4258L233.093 28.5703ZM236.788 33.3506C237.966 34.6602 238.691 35.4933 239.019 35.9034L243.704 32.1552C243.251 31.5888 242.413 30.6315 241.247 29.3369L236.788 33.3506ZM239.094 35.9941C239.295 36.2256 239.658 36.7547 240.177 37.7317L245.476 34.9168C244.888 33.8104 244.274 32.8096 243.628 32.0645L239.094 35.9941ZM240.177 37.7317C240.586 38.5012 240.656 38.9556 240.656 39.1562H246.656C246.656 37.6642 246.173 36.2305 245.476 34.9168L240.177 37.7317ZM243.656 42.1562H269.047V36.1562H243.656V42.1562ZM266.047 39.1562V54.7812H272.047V39.1562H266.047ZM269.047 51.7812H243.656V57.7812H269.047V51.7812ZM240.656 54.7812V113.375H246.656V54.7812H240.656ZM243.656 116.375H261.234V110.375H243.656V116.375ZM258.234 113.375V129H264.234V113.375H258.234ZM261.234 126H206.547V132H261.234V126ZM209.547 129V113.375H203.547V129H209.547ZM206.547 116.375H216.312V110.375H206.547V116.375ZM219.312 113.375V54.7812H213.312V113.375H219.312ZM216.312 51.7812H202.641V57.7812H216.312V51.7812ZM269.047 54.7812H266.047V57.7812H269.047V54.7812ZM269.047 39.1562V36.1562H266.047V39.1562H269.047ZM282.719 39.1562V42.1562H285.719V39.1562H282.719ZM336.479 1.41211L335.745 4.32093L335.757 4.32416L335.77 4.32728L336.479 1.41211ZM348.979 9.85938L346.392 11.3786L346.397 11.3881L346.403 11.3976L348.979 9.85938ZM346.488 28.7559L344.367 26.6345L346.488 28.7559ZM324.369 28.7559L322.237 30.8658L322.248 30.8772L322.259 30.8885L324.369 28.7559ZM319.926 15.7188L322.911 16.0173L323.241 12.7188H319.926V15.7188ZM310.062 39.1562H307.062V42.1562H310.062V39.1562ZM339.359 39.1562H342.359V36.1562H339.359V39.1562ZM339.359 54.7812V57.7812H342.359V54.7812H339.359ZM310.062 54.7812V51.7812H307.062V54.7812H310.062ZM310.062 113.375H307.062V116.375H310.062V113.375ZM331.547 113.375H334.547V110.375H331.547V113.375ZM331.547 129V132H334.547V129H331.547ZM272.953 129H269.953V132H272.953V129ZM272.953 113.375V110.375H269.953V113.375H272.953ZM282.719 113.375V116.375H285.719V113.375H282.719ZM282.719 54.7812H285.719V51.7812H282.719V54.7812ZM272.047 54.7812V39.1562H266.047V54.7812H272.047ZM269.047 42.1562H282.719V36.1562H269.047V42.1562ZM285.719 39.1562C285.719 27.5069 289.016 18.7817 295.279 12.5766L291.057 8.31406C283.388 15.911 279.719 26.3264 279.719 39.1562H285.719ZM295.279 12.5766C301.503 6.41113 310.816 3.09375 323.734 3.09375V-2.90625C309.829 -2.90625 298.765 0.677414 291.057 8.31406L295.279 12.5766ZM323.734 3.09375C328.589 3.09375 332.575 3.52113 335.745 4.32093L337.213 -1.49671C333.416 -2.45472 328.905 -2.90625 323.734 -2.90625V3.09375ZM335.77 4.32728C339.06 5.12661 341.272 6.10864 342.637 7.13242L346.238 2.33242C343.957 0.621829 340.863 -0.609681 337.187 -1.50306L335.77 4.32728ZM342.637 7.13242C344.128 8.25066 345.38 9.6554 346.392 11.3786L351.565 8.34011C350.169 5.96179 348.392 3.94855 346.238 2.33242L342.637 7.13242ZM346.403 11.3976C347.511 13.2529 348.078 15.3211 348.078 17.6719H354.078C354.078 14.2935 353.246 11.1533 351.554 8.32115L346.403 11.3976ZM348.078 17.6719C348.078 21.2061 346.864 24.1376 344.367 26.6345L348.61 30.8772C352.232 27.2544 354.078 22.7965 354.078 17.6719H348.078ZM344.367 26.6345C341.909 29.0922 338.997 30.2969 335.453 30.2969V36.2969C340.568 36.2969 345.013 34.4742 348.61 30.8772L344.367 26.6345ZM335.453 30.2969C331.909 30.2969 328.974 29.0913 326.479 26.6232L322.259 30.8885C325.884 34.4751 330.339 36.2969 335.453 36.2969V30.2969ZM326.502 26.6459C324.034 24.1513 322.828 21.2164 322.828 17.6719H316.828C316.828 22.7862 318.65 27.2406 322.237 30.8658L326.502 26.6459ZM322.828 17.6719C322.828 17.121 322.856 16.5696 322.911 16.0173L316.941 15.4202C316.866 16.17 316.828 16.9206 316.828 17.6719H322.828ZM319.926 12.7188C319.926 12.7188 319.926 12.7188 319.926 12.7188C319.926 12.7188 319.925 12.7188 319.925 12.7188C319.925 12.7188 319.925 12.7188 319.925 12.7188C319.925 12.7188 319.925 12.7188 319.925 12.7188C319.925 12.7188 319.925 12.7188 319.925 12.7188C319.925 12.7188 319.925 12.7188 319.925 12.7188C319.925 12.7188 319.925 12.7188 319.924 12.7188C319.924 12.7188 319.924 12.7188 319.924 12.7188C319.924 12.7188 319.924 12.7188 319.924 12.7188C319.924 12.7188 319.924 12.7188 319.924 12.7188C319.924 12.7188 319.924 12.7188 319.924 12.7188C319.924 12.7188 319.924 12.7188 319.923 12.7188C319.923 12.7188 319.923 12.7188 319.923 12.7188C319.923 12.7188 319.923 12.7188 319.923 12.7188C319.923 12.7188 319.923 12.7188 319.923 12.7188C319.923 12.7188 319.923 12.7188 319.923 12.7188C319.923 12.7188 319.923 12.7188 319.923 12.7188C319.922 12.7188 319.922 12.7188 319.922 12.7188C319.922 12.7188 319.922 12.7188 319.922 12.7188C319.922 12.7188 319.922 12.7188 319.922 12.7188C319.922 12.7188 319.922 12.7188 319.922 12.7188C319.922 12.7188 319.922 12.7188 319.922 12.7188C319.922 12.7188 319.921 12.7188 319.921 12.7188C319.921 12.7188 319.921 12.7188 319.921 12.7188C319.921 12.7188 319.921 12.7188 319.921 12.7188C319.921 12.7188 319.921 12.7188 319.921 12.7188C319.921 12.7188 319.921 12.7188 319.921 12.7188C319.921 12.7188 319.921 12.7188 319.92 12.7188C319.92 12.7188 319.92 12.7188 319.92 12.7188C319.92 12.7188 319.92 12.7188 319.92 12.7188C319.92 12.7188 319.92 12.7188 319.92 12.7188C319.92 12.7188 319.92 12.7188 319.92 12.7188C319.92 12.7188 319.92 12.7188 319.919 12.7188C319.919 12.7188 319.919 12.7188 319.919 12.7188C319.919 12.7188 319.919 12.7188 319.919 12.7188C319.919 12.7188 319.919 12.7188 319.919 12.7188C319.919 12.7188 319.919 12.7188 319.919 12.7188C319.919 12.7188 319.919 12.7188 319.919 12.7188C319.918 12.7188 319.918 12.7188 319.918 12.7188C319.918 12.7188 319.918 12.7188 319.918 12.7188C319.918 12.7188 319.918 12.7188 319.918 12.7188C319.918 12.7188 319.918 12.7188 319.918 12.7188C319.918 12.7188 319.918 12.7188 319.918 12.7188C319.918 12.7188 319.917 12.7188 319.917 12.7188C319.917 12.7188 319.917 12.7188 319.917 12.7188C319.917 12.7188 319.917 12.7188 319.917 12.7188C319.917 12.7188 319.917 12.7188 319.917 12.7188C319.917 12.7188 319.917 12.7188 319.917 12.7188C319.917 12.7188 319.916 12.7188 319.916 12.7188C319.916 12.7188 319.916 12.7188 319.916 12.7188C319.916 12.7188 319.916 12.7188 319.916 12.7188C319.916 12.7188 319.916 12.7188 319.916 12.7188C319.916 12.7188 319.916 12.7188 319.916 12.7188C319.916 12.7188 319.916 12.7188 319.915 12.7188C319.915 12.7188 319.915 12.7188 319.915 12.7188C319.915 12.7188 319.915 12.7188 319.915 12.7188C319.915 12.7188 319.915 12.7188 319.915 12.7188C319.915 12.7188 319.915 12.7188 319.915 12.7188C319.915 12.7188 319.915 12.7188 319.915 12.7188C319.914 12.7188 319.914 12.7188 319.914 12.7188C319.914 12.7188 319.914 12.7188 319.914 12.7188C319.914 12.7188 319.914 12.7188 319.914 12.7188C319.914 12.7188 319.914 12.7188 319.914 12.7188C319.914 12.7188 319.914 12.7188 319.914 12.7188C319.914 12.7188 319.913 12.7188 319.913 12.7188C319.913 12.7188 319.913 12.7188 319.913 12.7188C319.913 12.7188 319.913 12.7188 319.913 12.7188C319.913 12.7188 319.913 12.7188 319.913 12.7188C319.913 12.7188 319.913 12.7188 319.913 12.7188C319.913 12.7188 319.912 12.7188 319.912 12.7188C319.912 12.7188 319.912 12.7188 319.912 12.7188C319.912 12.7188 319.912 12.7188 319.912 12.7188C319.912 12.7188 319.912 12.7188 319.912 12.7188C319.912 12.7188 319.912 12.7188 319.912 12.7188C319.912 12.7188 319.912 12.7188 319.911 12.7188C319.911 12.7188 319.911 12.7188 319.911 12.7188C319.911 12.7188 319.911 12.7188 319.911 12.7188C319.911 12.7188 319.911 12.7188 319.911 12.7188C319.911 12.7188 319.911 12.7188 319.911 12.7188C319.911 12.7188 319.911 12.7188 319.911 12.7188C319.91 12.7188 319.91 12.7188 319.91 12.7188C319.91 12.7188 319.91 12.7188 319.91 12.7188C319.91 12.7188 319.91 12.7188 319.91 12.7188C319.91 12.7188 319.91 12.7188 319.91 12.7188C319.91 12.7188 319.91 12.7188 319.91 12.7188C319.91 12.7188 319.909 12.7188 319.909 12.7188C319.909 12.7188 319.909 12.7188 319.909 12.7188C319.909 12.7188 319.909 12.7188 319.909 12.7188C319.909 12.7188 319.909 12.7188 319.909 12.7188C319.909 12.7188 319.909 12.7188 319.909 12.7188C319.909 12.7188 319.908 12.7188 319.908 12.7188C319.908 12.7188 319.908 12.7188 319.908 12.7188C319.908 12.7188 319.908 12.7188 319.908 12.7188C319.908 12.7188 319.908 12.7188 319.908 12.7188C319.908 12.7188 319.908 12.7188 319.908 12.7188C319.908 12.7188 319.908 12.7188 319.907 12.7188C319.907 12.7188 319.907 12.7188 319.907 12.7188C319.907 12.7188 319.907 12.7188 319.907 12.7188C319.907 12.7188 319.907 12.7188 319.907 12.7188C319.907 12.7188 319.907 12.7188 319.907 12.7188C319.907 12.7188 319.907 12.7188 319.907 12.7188C319.906 12.7188 319.906 12.7188 319.906 12.7188C319.906 12.7188 319.906 12.7188 319.906 12.7188C319.906 12.7188 319.906 12.7188 319.906 12.7188C319.906 12.7188 319.906 12.7188 319.906 12.7188C319.906 12.7188 319.906 12.7188 319.906 12.7188C319.905 12.7188 319.905 12.7188 319.905 12.7188C319.905 12.7188 319.905 12.7188 319.905 12.7188C319.905 12.7188 319.905 12.7188 319.905 12.7188C319.905 12.7188 319.905 12.7188 319.905 12.7188C319.905 12.7188 319.905 12.7188 319.905 12.7188C319.905 12.7188 319.904 12.7188 319.904 12.7188C319.904 12.7188 319.904 12.7188 319.904 12.7188C319.904 12.7188 319.904 12.7188 319.904 12.7188C319.904 12.7188 319.904 12.7188 319.904 12.7188C319.904 12.7188 319.904 12.7188 319.904 12.7188C319.904 12.7188 319.904 12.7188 319.903 12.7188C319.903 12.7188 319.903 12.7188 319.903 12.7188C319.903 12.7188 319.903 12.7188 319.903 12.7188C319.903 12.7188 319.903 12.7188 319.903 12.7188C319.903 12.7188 319.903 12.7188 319.903 12.7188C319.903 12.7188 319.903 12.7188 319.903 12.7188C319.902 12.7188 319.902 12.7188 319.902 12.7188C319.902 12.7188 319.902 12.7188 319.902 12.7188C319.902 12.7188 319.902 12.7188 319.902 12.7188C319.902 12.7188 319.902 12.7188 319.902 12.7188C319.902 12.7188 319.902 12.7188 319.902 12.7188C319.901 12.7188 319.901 12.7188 319.901 12.7188C319.901 12.7188 319.901 12.7188 319.901 12.7188C319.901 12.7188 319.901 12.7188 319.901 12.7188C319.901 12.7188 319.901 12.7188 319.901 12.7188C319.901 12.7188 319.901 12.7188 319.901 12.7188C319.901 12.7188 319.9 12.7188 319.9 12.7188C319.9 12.7188 319.9 12.7188 319.9 12.7188C319.9 12.7188 319.9 12.7188 319.9 12.7188C319.9 12.7188 319.9 12.7188 319.9 12.7188C319.9 12.7188 319.9 12.7188 319.9 12.7188C319.9 12.7188 319.9 12.7188 319.899 12.7188C319.899 12.7188 319.899 12.7188 319.899 12.7188C319.899 12.7188 319.899 12.7188 319.899 12.7188C319.899 12.7188 319.899 12.7188 319.899 12.7188C319.899 12.7188 319.899 12.7188 319.899 12.7188C319.899 12.7188 319.899 12.7188 319.899 12.7188C319.898 12.7188 319.898 12.7188 319.898 12.7188C319.898 12.7188 319.898 12.7188 319.898 12.7188C319.898 12.7188 319.898 12.7188 319.898 12.7188C319.898 12.7188 319.898 12.7188 319.898 12.7188C319.898 12.7188 319.898 12.7188 319.898 12.7188C319.897 12.7188 319.897 12.7188 319.897 12.7188C319.897 12.7188 319.897 12.7188 319.897 12.7188C319.897 12.7188 319.897 12.7188 319.897 12.7188C319.897 12.7188 319.897 12.7188 319.897 12.7188C319.897 12.7188 319.897 12.7188 319.897 12.7188C319.897 12.7188 319.896 12.7188 319.896 12.7188C319.896 12.7188 319.896 12.7188 319.896 12.7188C319.896 12.7188 319.896 12.7188 319.896 12.7188C319.896 12.7188 319.896 12.7188 319.896 12.7188C319.896 12.7188 319.896 12.7188 319.896 12.7188C319.896 12.7188 319.896 12.7188 319.895 12.7188C319.895 12.7188 319.895 12.7188 319.895 12.7188C319.895 12.7188 319.895 12.7188 319.895 12.7188C319.895 12.7188 319.895 12.7188 319.895 12.7188C319.895 12.7188 319.895 12.7188 319.895 12.7188C319.895 12.7188 319.895 12.7188 319.895 12.7188C319.894 12.7188 319.894 12.7188 319.894 12.7188C319.894 12.7188 319.894 12.7188 319.894 12.7188C319.894 12.7188 319.894 12.7188 319.894 12.7188C319.894 12.7188 319.894 12.7188 319.894 12.7188C319.894 12.7188 319.894 12.7188 319.894 12.7188C319.893 12.7188 319.893 12.7188 319.893 12.7188C319.893 12.7188 319.893 12.7188 319.893 12.7188C319.893 12.7188 319.893 12.7188 319.893 12.7188C319.893 12.7188 319.893 12.7188 319.893 12.7188C319.893 12.7188 319.893 12.7188 319.893 12.7188C319.893 12.7188 319.892 12.7188 319.892 12.7188C319.892 12.7188 319.892 12.7188 319.892 12.7188C319.892 12.7188 319.892 12.7188 319.892 12.7188C319.892 12.7188 319.892 12.7188 319.892 12.7188C319.892 12.7188 319.892 12.7188 319.892 12.7188C319.892 12.7188 319.892 12.7188 319.891 12.7188C319.891 12.7188 319.891 12.7188 319.891 12.7188C319.891 12.7188 319.891 12.7188 319.891 12.7188C319.891 12.7188 319.891 12.7188 319.891 12.7188C319.891 12.7188 319.891 12.7188 319.891 12.7188C319.891 12.7188 319.891 12.7188 319.89 12.7188C319.89 12.7188 319.89 12.7188 319.89 12.7188C319.89 12.7188 319.89 12.7188 319.89 12.7188C319.89 12.7188 319.89 12.7188 319.89 12.7188C319.89 12.7188 319.89 12.7188 319.89 12.7188C319.89 12.7188 319.89 12.7188 319.89 12.7188C319.889 12.7188 319.889 12.7188 319.889 12.7188C319.889 12.7188 319.889 12.7188 319.889 12.7188C319.889 12.7188 319.889 12.7188 319.889 12.7188C319.889 12.7188 319.889 12.7188 319.889 12.7188C319.889 12.7188 319.889 12.7188 319.889 12.7188C319.889 12.7188 319.888 12.7188 319.888 12.7188C319.888 12.7188 319.888 12.7188 319.888 12.7188C319.888 12.7188 319.888 12.7188 319.888 12.7188C319.888 12.7188 319.888 12.7188 319.888 12.7188C319.888 12.7188 319.888 12.7188 319.888 12.7188C319.888 12.7188 319.888 12.7188 319.887 12.7188C319.887 12.7188 319.887 12.7188 319.887 12.7188C319.887 12.7188 319.887 12.7188 319.887 12.7188C319.887 12.7188 319.887 12.7188 319.887 12.7188C319.887 12.7188 319.887 12.7188 319.887 12.7188C319.887 12.7188 319.887 12.7188 319.886 12.7188C319.886 12.7188 319.886 12.7188 319.886 12.7188C319.886 12.7188 319.886 12.7188 319.886 12.7188C319.886 12.7188 319.886 12.7188 319.886 12.7188C319.886 12.7188 319.886 12.7188 319.886 12.7188C319.886 12.7188 319.886 12.7188 319.886 12.7188C319.885 12.7188 319.885 12.7188 319.885 12.7188C319.885 12.7188 319.885 12.7188 319.885 12.7188C319.885 12.7188 319.885 12.7188 319.885 12.7188C319.885 12.7188 319.885 12.7188 319.885 12.7188C319.885 12.7188 319.885 12.7188 319.885 12.7188C319.885 12.7188 319.884 12.7188 319.884 12.7188C319.884 12.7188 319.884 12.7188 319.884 12.7188C319.884 12.7188 319.884 12.7188 319.884 12.7188C319.884 12.7188 319.884 12.7188 319.884 12.7188C319.884 12.7188 319.884 12.7188 319.884 12.7188C319.884 12.7188 319.884 12.7188 319.883 12.7188C319.883 12.7188 319.883 12.7188 319.883 12.7188C319.883 12.7188 319.883 12.7188 319.883 12.7188C319.883 12.7188 319.883 12.7188 319.883 12.7188C319.883 12.7188 319.883 12.7188 319.883 12.7188C319.883 12.7188 319.883 12.7188 319.882 12.7188C319.882 12.7188 319.882 12.7188 319.882 12.7188C319.882 12.7188 319.882 12.7188 319.882 12.7188C319.882 12.7188 319.882 12.7188 319.882 12.7188C319.882 12.7188 319.882 12.7188 319.882 12.7188C319.882 12.7188 319.882 12.7188 319.882 12.7188C319.881 12.7188 319.881 12.7188 319.881 12.7188C319.881 12.7188 319.881 12.7188 319.881 12.7188C319.881 12.7188 319.881 12.7188 319.881 12.7188C319.881 12.7188 319.881 12.7188 319.881 12.7188C319.881 12.7188 319.881 12.7188 319.881 12.7188C319.881 12.7188 319.88 12.7188 319.88 12.7188C319.88 12.7188 319.88 12.7188 319.88 12.7188C319.88 12.7188 319.88 12.7188 319.88 12.7188C319.88 12.7188 319.88 12.7188 319.88 12.7188C319.88 12.7188 319.88 12.7188 319.88 12.7188C319.88 12.7188 319.879 12.7188 319.879 12.7188C319.879 12.7188 319.879 12.7188 319.879 12.7188C319.879 12.7188 319.879 12.7188 319.879 12.7188C319.879 12.7188 319.879 12.7188 319.879 12.7188C319.879 12.7188 319.879 12.7188 319.879 12.7188C319.879 12.7188 319.879 12.7188 319.878 12.7188C319.878 12.7188 319.878 12.7188 319.878 12.7188C319.878 12.7188 319.878 12.7188 319.878 12.7188C319.878 12.7188 319.878 12.7188 319.878 12.7188C319.878 12.7188 319.878 12.7188 319.878 12.7188C319.878 12.7188 319.878 12.7188 319.878 12.7188C319.877 12.7188 319.877 12.7188 319.877 12.7188C319.877 12.7188 319.877 12.7188 319.877 12.7188C319.877 12.7188 319.877 12.7188 319.877 12.7188C319.877 12.7188 319.877 12.7188 319.877 12.7188C319.877 12.7188 319.877 12.7188 319.877 12.7188C319.877 12.7188 319.876 12.7188 319.876 12.7188C319.876 12.7188 319.876 12.7188 319.876 12.7188C319.876 12.7188 319.876 12.7188 319.876 12.7188C319.876 12.7188 319.876 12.7188 319.876 12.7188C319.876 12.7188 319.876 12.7188 319.876 12.7188C319.876 12.7188 319.875 12.7188 319.875 12.7188C319.875 12.7188 319.875 12.7188 319.875 12.7188C319.875 12.7188 319.875 12.7188 319.875 12.7188C319.875 12.7188 319.875 12.7188 319.875 12.7188C319.875 12.7188 319.875 12.7188 319.875 12.7188C319.875 12.7188 319.875 12.7188 319.874 12.7188C319.874 12.7188 319.874 12.7188 319.874 12.7188C319.874 12.7188 319.874 12.7188 319.874 12.7188C319.874 12.7188 319.874 12.7188 319.874 12.7188C319.874 12.7188 319.874 12.7188 319.874 12.7188C319.874 12.7188 319.874 12.7188 319.874 12.7188C319.873 12.7188 319.873 12.7188 319.873 12.7188C319.873 12.7188 319.873 12.7188 319.873 12.7188C319.873 12.7188 319.873 12.7188 319.873 12.7188C319.873 12.7188 319.873 12.7188 319.873 12.7188C319.873 12.7188 319.873 12.7188 319.873 12.7188C319.873 12.7188 319.872 12.7188 319.872 12.7188C319.872 12.7188 319.872 12.7188 319.872 12.7188C319.872 12.7188 319.872 12.7188 319.872 12.7188C319.872 12.7188 319.872 12.7188 319.872 12.7188C319.872 12.7188 319.872 12.7188 319.872 12.7188C319.872 12.7188 319.871 12.7188 319.871 12.7188C319.871 12.7188 319.871 12.7188 319.871 12.7188C319.871 12.7188 319.871 12.7188 319.871 12.7188C319.871 12.7188 319.871 12.7188 319.871 12.7188C319.871 12.7188 319.871 12.7188 319.871 12.7188C319.871 12.7188 319.871 12.7188 319.87 12.7188C319.87 12.7188 319.87 12.7188 319.87 12.7188C319.87 12.7188 319.87 12.7188 319.87 12.7188C319.87 12.7188 319.87 12.7188 319.87 12.7188C319.87 12.7188 319.87 12.7188 319.87 12.7188C319.87 12.7188 319.87 12.7188 319.87 12.7188C319.869 12.7188 319.869 12.7188 319.869 12.7188C319.869 12.7188 319.869 12.7188 319.869 12.7188C319.869 12.7188 319.869 12.7188 319.869 12.7188C319.869 12.7188 319.869 12.7188 319.869 12.7188C319.869 12.7188 319.869 12.7188 319.869 12.7188C319.868 12.7188 319.868 12.7188 319.868 12.7188C319.868 12.7188 319.868 12.7188 319.868 12.7188C319.868 12.7188 319.868 12.7188 319.868 12.7188C319.868 12.7188 319.868 12.7188 319.868 12.7188C319.868 12.7188 319.868 12.7188 319.868 12.7188C319.868 12.7188 319.867 12.7188 319.867 12.7188C319.867 12.7188 319.867 12.7188 319.867 12.7188C319.867 12.7188 319.867 12.7188 319.867 12.7188C319.867 12.7188 319.867 12.7188 319.867 12.7188C319.867 12.7188 319.867 12.7188 319.867 12.7188C319.867 12.7188 319.867 12.7188 319.866 12.7188C319.866 12.7188 319.866 12.7188 319.866 12.7188C319.866 12.7188 319.866 12.7188 319.866 12.7188C319.866 12.7188 319.866 12.7188 319.866 12.7188C319.866 12.7188 319.866 12.7188 319.866 12.7188C319.866 12.7188 319.866 12.7188 319.866 12.7188C319.865 12.7188 319.865 12.7188 319.865 12.7188C319.865 12.7188 319.865 12.7188 319.865 12.7188C319.865 12.7188 319.865 12.7188 319.865 12.7188C319.865 12.7188 319.865 12.7188 319.865 12.7188C319.865 12.7188 319.865 12.7188 319.865 12.7188C319.864 12.7188 319.864 12.7188 319.864 12.7188C319.864 12.7188 319.864 12.7188 319.864 12.7188C319.864 12.7188 319.864 12.7188 319.864 12.7188C319.864 12.7188 319.864 12.7188 319.864 12.7188C319.864 12.7188 319.864 12.7188 319.864 12.7188C319.864 12.7188 319.863 12.7188 319.863 12.7188C319.863 12.7188 319.863 12.7188 319.863 12.7188C319.863 12.7188 319.863 12.7188 319.863 12.7188C319.863 12.7188 319.863 12.7188 319.863 12.7188C319.863 12.7188 319.863 12.7188 319.863 12.7188C319.863 12.7188 319.863 12.7188 319.862 12.7188C319.862 12.7188 319.862 12.7188 319.862 12.7188C319.862 12.7188 319.862 12.7188 319.862 12.7188C319.862 12.7188 319.862 12.7188 319.862 12.7188C319.862 12.7188 319.862 12.7188 319.862 12.7188C319.862 12.7188 319.862 12.7188 319.862 12.7188C319.861 12.7188 319.861 12.7188 319.861 12.7188C319.861 12.7188 319.861 12.7188 319.861 12.7188C319.861 12.7188 319.861 12.7188 319.861 12.7188C319.861 12.7188 319.861 12.7188 319.861 12.7188C319.861 12.7188 319.861 12.7188 319.861 12.7188C319.86 12.7188 319.86 12.7188 319.86 12.7188C319.86 12.7188 319.86 12.7188 319.86 12.7188C319.86 12.7188 319.86 12.7188 319.86 12.7188C319.86 12.7188 319.86 12.7188 319.86 12.7188C319.86 12.7188 319.86 12.7188 319.86 12.7188C319.86 12.7188 319.859 12.7188 319.859 12.7188C319.859 12.7188 319.859 12.7188 319.859 12.7188C319.859 12.7188 319.859 12.7188 319.859 12.7188C319.859 12.7188 319.859 12.7188 319.859 12.7188C319.859 12.7188 319.859 12.7188 319.859 12.7188C319.859 12.7188 319.859 12.7188 319.858 12.7188C319.858 12.7188 319.858 12.7188 319.858 12.7188C319.858 12.7188 319.858 12.7188 319.858 12.7188C319.858 12.7188 319.858 12.7188 319.858 12.7188C319.858 12.7188 319.858 12.7188 319.858 12.7188C319.858 12.7188 319.858 12.7188 319.857 12.7188C319.857 12.7188 319.857 12.7188 319.857 12.7188C319.857 12.7188 319.857 12.7188 319.857 12.7188C319.857 12.7188 319.857 12.7188 319.857 12.7188C319.857 12.7188 319.857 12.7188 319.857 12.7188C319.857 12.7188 319.857 12.7188 319.857 12.7188C319.856 12.7188 319.856 12.7188 319.856 12.7188C319.856 12.7188 319.856 12.7188 319.856 12.7188C319.856 12.7188 319.856 12.7188 319.856 12.7188C319.856 12.7188 319.856 12.7188 319.856 12.7188C319.856 12.7188 319.856 12.7188 319.856 12.7188C319.856 12.7188 319.855 12.7188 319.855 12.7188C319.855 12.7188 319.855 12.7188 319.855 12.7188C319.855 12.7188 319.855 12.7188 319.855 12.7188C319.855 12.7188 319.855 12.7188 319.855 12.7188C319.855 12.7188 319.855 12.7188 319.855 12.7188C319.855 12.7188 319.855 12.7188 319.854 12.7188C319.854 12.7188 319.854 12.7188 319.854 12.7188C319.854 12.7188 319.854 12.7188 319.854 12.7188C319.854 12.7188 319.854 12.7188 319.854 12.7188C319.854 12.7188 319.854 12.7188 319.854 12.7188C319.854 12.7188 319.854 12.7188 319.853 12.7188C319.853 12.7188 319.853 12.7188 319.853 12.7188C319.853 12.7188 319.853 12.7188 319.853 12.7188C319.853 12.7188 319.853 12.7188 319.853 12.7188C319.853 12.7188 319.853 12.7188 319.853 12.7188C319.853 12.7188 319.853 12.7188 319.853 12.7188C319.852 12.7188 319.852 12.7188 319.852 12.7188C319.852 12.7188 319.852 12.7188 319.852 12.7188C319.852 12.7188 319.852 12.7188 319.852 12.7188C319.852 12.7188 319.852 12.7188 319.852 12.7188C319.852 12.7188 319.852 12.7188 319.852 12.7188C319.852 12.7188 319.851 12.7188 319.851 12.7188C319.851 12.7188 319.851 12.7188 319.851 12.7188C319.851 12.7188 319.851 12.7188 319.851 12.7188C319.851 12.7188 319.851 12.7188 319.851 12.7188C319.851 12.7188 319.851 12.7188 319.851 12.7188C319.851 12.7188 319.851 12.7188 319.85 12.7188C319.85 12.7188 319.85 12.7188 319.85 12.7188C319.85 12.7188 319.85 12.7188 319.85 12.7188C319.85 12.7188 319.85 12.7188 319.85 12.7188C319.85 12.7188 319.85 12.7188 319.85 12.7188C319.85 12.7188 319.85 12.7188 319.849 12.7188C319.849 12.7188 319.849 12.7188 319.849 12.7188C319.849 12.7188 319.849 12.7188 319.849 12.7188C319.849 12.7188 319.849 12.7188 319.849 12.7188C319.849 12.7188 319.849 12.7188 319.849 12.7188C319.849 12.7188 319.849 12.7188 319.849 12.7188C319.848 12.7188 319.848 12.7188 319.848 12.7188C319.848 12.7188 319.848 12.7188 319.848 12.7188C319.848 12.7188 319.848 12.7188 319.848 12.7188C319.848 12.7188 319.848 12.7188 319.848 12.7188C319.848 12.7188 319.848 12.7188 319.848 12.7188C319.848 12.7188 319.847 12.7188 319.847 12.7188C319.847 12.7188 319.847 12.7188 319.847 12.7188C319.847 12.7188 319.847 12.7188 319.847 12.7188C319.847 12.7188 319.847 12.7188 319.847 12.7188C319.847 12.7188 319.847 12.7188 319.847 12.7188C319.847 12.7188 319.846 12.7188 319.846 12.7188C319.846 12.7188 319.846 12.7188 319.846 12.7188C319.846 12.7188 319.846 12.7188 319.846 12.7188C319.846 12.7188 319.846 12.7188 319.846 12.7188C319.846 12.7188 319.846 12.7188 319.846 12.7188C319.846 12.7188 319.846 12.7188 319.845 12.7188C319.845 12.7188 319.845 12.7188 319.845 12.7188C319.845 12.7188 319.845 12.7188 319.845 12.7188C319.845 12.7188 319.845 12.7188 319.845 12.7188C319.845 12.7188 319.845 12.7188 319.845 12.7188C319.845 12.7188 319.845 12.7188 319.845 12.7188C319.844 12.7188 319.844 12.7188 319.844 12.7188C319.844 12.7188 319.844 12.7188 319.844 12.7188C319.844 12.7188 319.844 12.7188 319.844 12.7188C319.844 12.7188 319.844 12.7188 319.844 12.7188C319.844 12.7188 319.844 12.7188 319.844 12.7188C319.844 12.7188 319.843 12.7188 319.843 12.7188C319.843 12.7188 319.843 12.7188 319.843 12.7188C319.843 12.7188 319.843 12.7188 319.843 12.7188C319.843 12.7188 319.843 12.7188 319.843 12.7188C319.843 12.7188 319.843 12.7188 319.843 12.7188C319.843 12.7188 319.842 12.7188 319.842 12.7188C319.842 12.7188 319.842 12.7188 319.842 12.7188C319.842 12.7188 319.842 12.7188 319.842 12.7188C319.842 12.7188 319.842 12.7188 319.842 12.7188C319.842 12.7188 319.842 12.7188 319.842 12.7188C319.842 12.7188 319.842 12.7188 319.841 12.7188C319.841 12.7188 319.841 12.7188 319.841 12.7188C319.841 12.7188 319.841 12.7188 319.841 12.7188C319.841 12.7188 319.841 12.7188 319.841 12.7188C319.841 12.7188 319.841 12.7188 319.841 12.7188C319.841 12.7188 319.841 12.7188 319.841 12.7188C319.84 12.7188 319.84 12.7188 319.84 12.7188C319.84 12.7188 319.84 12.7188 319.84 12.7188C319.84 12.7188 319.84 12.7188 319.84 12.7188C319.84 12.7188 319.84 12.7188 319.84 12.7188C319.84 12.7188 319.84 12.7188 319.84 12.7188C319.84 12.7188 319.839 12.7188 319.839 12.7188C319.839 12.7188 319.839 12.7188 319.839 12.7188C319.839 12.7188 319.839 12.7188 319.839 12.7188C319.839 12.7188 319.839 12.7188 319.839 12.7188C319.839 12.7188 319.839 12.7188 319.839 12.7188C319.839 12.7188 319.838 12.7188 319.838 12.7188C319.838 12.7188 319.838 12.7188 319.838 12.7188C319.838 12.7188 319.838 12.7188 319.838 12.7188C319.838 12.7188 319.838 12.7188 319.838 12.7188C319.838 12.7188 319.838 12.7188 319.838 12.7188C319.838 12.7188 319.838 12.7188 319.837 12.7188C319.837 12.7188 319.837 12.7188 319.837 12.7188C319.837 12.7188 319.837 12.7188 319.837 12.7188C319.837 12.7188 319.837 12.7188 319.837 12.7188C319.837 12.7188 319.837 12.7188 319.837 12.7188C319.837 12.7188 319.837 12.7188 319.837 12.7188C319.836 12.7188 319.836 12.7188 319.836 12.7188C319.836 12.7188 319.836 12.7188 319.836 12.7188C319.836 12.7188 319.836 12.7188 319.836 12.7188C319.836 12.7188 319.836 12.7188 319.836 12.7188C319.836 12.7188 319.836 12.7188 319.836 12.7188C319.836 12.7188 319.835 12.7188 319.835 12.7188C319.835 12.7188 319.835 12.7188 319.835 12.7188C319.835 12.7188 319.835 12.7188 319.835 12.7188C319.835 12.7188 319.835 12.7188 319.835 12.7188C319.835 12.7188 319.835 12.7188 319.835 12.7188C319.835 12.7188 319.834 12.7188 319.834 12.7188C319.834 12.7188 319.834 12.7188 319.834 12.7188C319.834 12.7188 319.834 12.7188 319.834 12.7188C319.834 12.7188 319.834 12.7188 319.834 12.7188C319.834 12.7188 319.834 12.7188 319.834 12.7188C319.834 12.7188 319.834 12.7188 319.833 12.7188C319.833 12.7188 319.833 12.7188 319.833 12.7188C319.833 12.7188 319.833 12.7188 319.833 12.7188C319.833 12.7188 319.833 12.7188 319.833 12.7188C319.833 12.7188 319.833 12.7188 319.833 12.7188C319.833 12.7188 319.833 12.7188 319.833 12.7188C319.832 12.7188 319.832 12.7188 319.832 12.7188C319.832 12.7188 319.832 12.7188 319.832 12.7188C319.832 12.7188 319.832 12.7188 319.832 12.7188C319.832 12.7188 319.832 12.7188 319.832 12.7188C319.832 12.7188 319.832 12.7188 319.832 12.7188C319.831 12.7188 319.831 12.7188 319.831 12.7188C319.831 12.7188 319.831 12.7188 319.831 12.7188C319.831 12.7188 319.831 12.7188 319.831 12.7188C319.831 12.7188 319.831 12.7188 319.831 12.7188C319.831 12.7188 319.831 12.7188 319.831 12.7188C319.831 12.7188 319.83 12.7188 319.83 12.7188C319.83 12.7188 319.83 12.7188 319.83 12.7188C319.83 12.7188 319.83 12.7188 319.83 12.7188C319.83 12.7188 319.83 12.7188 319.83 12.7188C319.83 12.7188 319.83 12.7188 319.83 12.7188C319.83 12.7188 319.83 12.7188 319.829 12.7188C319.829 12.7188 319.829 12.7188 319.829 12.7188C319.829 12.7188 319.829 12.7188 319.829 12.7188C319.829 12.7188 319.829 12.7188 319.829 12.7188C319.829 12.7188 319.829 12.7188 319.829 12.7188C319.829 12.7188 319.829 12.7188 319.829 12.7188C319.828 12.7188 319.828 12.7188 319.828 12.7188C319.828 12.7188 319.828 12.7188 319.828 12.7188V18.7188C319.828 18.7188 319.828 18.7188 319.828 18.7188C319.828 18.7188 319.828 18.7188 319.829 18.7188C319.829 18.7188 319.829 18.7188 319.829 18.7188C319.829 18.7188 319.829 18.7188 319.829 18.7188C319.829 18.7188 319.829 18.7188 319.829 18.7188C319.829 18.7188 319.829 18.7188 319.829 18.7188C319.829 18.7188 319.829 18.7188 319.829 18.7188C319.83 18.7188 319.83 18.7188 319.83 18.7188C319.83 18.7188 319.83 18.7188 319.83 18.7188C319.83 18.7188 319.83 18.7188 319.83 18.7188C319.83 18.7188 319.83 18.7188 319.83 18.7188C319.83 18.7188 319.83 18.7188 319.83 18.7188C319.83 18.7188 319.831 18.7188 319.831 18.7188C319.831 18.7188 319.831 18.7188 319.831 18.7188C319.831 18.7188 319.831 18.7188 319.831 18.7188C319.831 18.7188 319.831 18.7188 319.831 18.7188C319.831 18.7188 319.831 18.7188 319.831 18.7188C319.831 18.7188 319.831 18.7188 319.832 18.7188C319.832 18.7188 319.832 18.7188 319.832 18.7188C319.832 18.7188 319.832 18.7188 319.832 18.7188C319.832 18.7188 319.832 18.7188 319.832 18.7188C319.832 18.7188 319.832 18.7188 319.832 18.7188C319.832 18.7188 319.832 18.7188 319.833 18.7188C319.833 18.7188 319.833 18.7188 319.833 18.7188C319.833 18.7188 319.833 18.7188 319.833 18.7188C319.833 18.7188 319.833 18.7188 319.833 18.7188C319.833 18.7188 319.833 18.7188 319.833 18.7188C319.833 18.7188 319.833 18.7188 319.833 18.7188C319.834 18.7188 319.834 18.7188 319.834 18.7188C319.834 18.7188 319.834 18.7188 319.834 18.7188C319.834 18.7188 319.834 18.7188 319.834 18.7188C319.834 18.7188 319.834 18.7188 319.834 18.7188C319.834 18.7188 319.834 18.7188 319.834 18.7188C319.834 18.7188 319.835 18.7188 319.835 18.7188C319.835 18.7188 319.835 18.7188 319.835 18.7188C319.835 18.7188 319.835 18.7188 319.835 18.7188C319.835 18.7188 319.835 18.7188 319.835 18.7188C319.835 18.7188 319.835 18.7188 319.835 18.7188C319.835 18.7188 319.836 18.7188 319.836 18.7188C319.836 18.7188 319.836 18.7188 319.836 18.7188C319.836 18.7188 319.836 18.7188 319.836 18.7188C319.836 18.7188 319.836 18.7188 319.836 18.7188C319.836 18.7188 319.836 18.7188 319.836 18.7188C319.836 18.7188 319.836 18.7188 319.837 18.7188C319.837 18.7188 319.837 18.7188 319.837 18.7188C319.837 18.7188 319.837 18.7188 319.837 18.7188C319.837 18.7188 319.837 18.7188 319.837 18.7188C319.837 18.7188 319.837 18.7188 319.837 18.7188C319.837 18.7188 319.837 18.7188 319.837 18.7188C319.838 18.7188 319.838 18.7188 319.838 18.7188C319.838 18.7188 319.838 18.7188 319.838 18.7188C319.838 18.7188 319.838 18.7188 319.838 18.7188C319.838 18.7188 319.838 18.7188 319.838 18.7188C319.838 18.7188 319.838 18.7188 319.838 18.7188C319.838 18.7188 319.839 18.7188 319.839 18.7188C319.839 18.7188 319.839 18.7188 319.839 18.7188C319.839 18.7188 319.839 18.7188 319.839 18.7188C319.839 18.7188 319.839 18.7188 319.839 18.7188C319.839 18.7188 319.839 18.7188 319.839 18.7188C319.839 18.7188 319.84 18.7188 319.84 18.7188C319.84 18.7188 319.84 18.7188 319.84 18.7188C319.84 18.7188 319.84 18.7188 319.84 18.7188C319.84 18.7188 319.84 18.7188 319.84 18.7188C319.84 18.7188 319.84 18.7188 319.84 18.7188C319.84 18.7188 319.84 18.7188 319.841 18.7188C319.841 18.7188 319.841 18.7188 319.841 18.7188C319.841 18.7188 319.841 18.7188 319.841 18.7188C319.841 18.7188 319.841 18.7188 319.841 18.7188C319.841 18.7188 319.841 18.7188 319.841 18.7188C319.841 18.7188 319.841 18.7188 319.841 18.7188C319.842 18.7188 319.842 18.7188 319.842 18.7188C319.842 18.7188 319.842 18.7188 319.842 18.7188C319.842 18.7188 319.842 18.7188 319.842 18.7188C319.842 18.7188 319.842 18.7188 319.842 18.7188C319.842 18.7188 319.842 18.7188 319.842 18.7188C319.842 18.7188 319.843 18.7188 319.843 18.7188C319.843 18.7188 319.843 18.7188 319.843 18.7188C319.843 18.7188 319.843 18.7188 319.843 18.7188C319.843 18.7188 319.843 18.7188 319.843 18.7188C319.843 18.7188 319.843 18.7188 319.843 18.7188C319.843 18.7188 319.844 18.7188 319.844 18.7188C319.844 18.7188 319.844 18.7188 319.844 18.7188C319.844 18.7188 319.844 18.7188 319.844 18.7188C319.844 18.7188 319.844 18.7188 319.844 18.7188C319.844 18.7188 319.844 18.7188 319.844 18.7188C319.844 18.7188 319.844 18.7188 319.845 18.7188C319.845 18.7188 319.845 18.7188 319.845 18.7188C319.845 18.7188 319.845 18.7188 319.845 18.7188C319.845 18.7188 319.845 18.7188 319.845 18.7188C319.845 18.7188 319.845 18.7188 319.845 18.7188C319.845 18.7188 319.845 18.7188 319.845 18.7188C319.846 18.7188 319.846 18.7188 319.846 18.7188C319.846 18.7188 319.846 18.7188 319.846 18.7188C319.846 18.7188 319.846 18.7188 319.846 18.7188C319.846 18.7188 319.846 18.7188 319.846 18.7188C319.846 18.7188 319.846 18.7188 319.846 18.7188C319.846 18.7188 319.847 18.7188 319.847 18.7188C319.847 18.7188 319.847 18.7188 319.847 18.7188C319.847 18.7188 319.847 18.7188 319.847 18.7188C319.847 18.7188 319.847 18.7188 319.847 18.7188C319.847 18.7188 319.847 18.7188 319.847 18.7188C319.847 18.7188 319.848 18.7188 319.848 18.7188C319.848 18.7188 319.848 18.7188 319.848 18.7188C319.848 18.7188 319.848 18.7188 319.848 18.7188C319.848 18.7188 319.848 18.7188 319.848 18.7188C319.848 18.7188 319.848 18.7188 319.848 18.7188C319.848 18.7188 319.848 18.7188 319.849 18.7188C319.849 18.7188 319.849 18.7188 319.849 18.7188C319.849 18.7188 319.849 18.7188 319.849 18.7188C319.849 18.7188 319.849 18.7188 319.849 18.7188C319.849 18.7188 319.849 18.7188 319.849 18.7188C319.849 18.7188 319.849 18.7188 319.849 18.7188C319.85 18.7188 319.85 18.7188 319.85 18.7188C319.85 18.7188 319.85 18.7188 319.85 18.7188C319.85 18.7188 319.85 18.7188 319.85 18.7188C319.85 18.7188 319.85 18.7188 319.85 18.7188C319.85 18.7188 319.85 18.7188 319.85 18.7188C319.851 18.7188 319.851 18.7188 319.851 18.7188C319.851 18.7188 319.851 18.7188 319.851 18.7188C319.851 18.7188 319.851 18.7188 319.851 18.7188C319.851 18.7188 319.851 18.7188 319.851 18.7188C319.851 18.7188 319.851 18.7188 319.851 18.7188C319.851 18.7188 319.852 18.7188 319.852 18.7188C319.852 18.7188 319.852 18.7188 319.852 18.7188C319.852 18.7188 319.852 18.7188 319.852 18.7188C319.852 18.7188 319.852 18.7188 319.852 18.7188C319.852 18.7188 319.852 18.7188 319.852 18.7188C319.852 18.7188 319.852 18.7188 319.853 18.7188C319.853 18.7188 319.853 18.7188 319.853 18.7188C319.853 18.7188 319.853 18.7188 319.853 18.7188C319.853 18.7188 319.853 18.7188 319.853 18.7188C319.853 18.7188 319.853 18.7188 319.853 18.7188C319.853 18.7188 319.853 18.7188 319.853 18.7188C319.854 18.7188 319.854 18.7188 319.854 18.7188C319.854 18.7188 319.854 18.7188 319.854 18.7188C319.854 18.7188 319.854 18.7188 319.854 18.7188C319.854 18.7188 319.854 18.7188 319.854 18.7188C319.854 18.7188 319.854 18.7188 319.854 18.7188C319.855 18.7188 319.855 18.7188 319.855 18.7188C319.855 18.7188 319.855 18.7188 319.855 18.7188C319.855 18.7188 319.855 18.7188 319.855 18.7188C319.855 18.7188 319.855 18.7188 319.855 18.7188C319.855 18.7188 319.855 18.7188 319.855 18.7188C319.855 18.7188 319.856 18.7188 319.856 18.7188C319.856 18.7188 319.856 18.7188 319.856 18.7188C319.856 18.7188 319.856 18.7188 319.856 18.7188C319.856 18.7188 319.856 18.7188 319.856 18.7188C319.856 18.7188 319.856 18.7188 319.856 18.7188C319.856 18.7188 319.856 18.7188 319.857 18.7188C319.857 18.7188 319.857 18.7188 319.857 18.7188C319.857 18.7188 319.857 18.7188 319.857 18.7188C319.857 18.7188 319.857 18.7188 319.857 18.7188C319.857 18.7188 319.857 18.7188 319.857 18.7188C319.857 18.7188 319.857 18.7188 319.857 18.7188C319.858 18.7188 319.858 18.7188 319.858 18.7188C319.858 18.7188 319.858 18.7188 319.858 18.7188C319.858 18.7188 319.858 18.7188 319.858 18.7188C319.858 18.7188 319.858 18.7188 319.858 18.7188C319.858 18.7188 319.858 18.7188 319.858 18.7188C319.859 18.7188 319.859 18.7188 319.859 18.7188C319.859 18.7188 319.859 18.7188 319.859 18.7188C319.859 18.7188 319.859 18.7188 319.859 18.7188C319.859 18.7188 319.859 18.7188 319.859 18.7188C319.859 18.7188 319.859 18.7188 319.859 18.7188C319.859 18.7188 319.86 18.7188 319.86 18.7188C319.86 18.7188 319.86 18.7188 319.86 18.7188C319.86 18.7188 319.86 18.7188 319.86 18.7188C319.86 18.7188 319.86 18.7188 319.86 18.7188C319.86 18.7188 319.86 18.7188 319.86 18.7188C319.86 18.7188 319.86 18.7188 319.861 18.7188C319.861 18.7188 319.861 18.7188 319.861 18.7188C319.861 18.7188 319.861 18.7188 319.861 18.7188C319.861 18.7188 319.861 18.7188 319.861 18.7188C319.861 18.7188 319.861 18.7188 319.861 18.7188C319.861 18.7188 319.861 18.7188 319.862 18.7188C319.862 18.7188 319.862 18.7188 319.862 18.7188C319.862 18.7188 319.862 18.7188 319.862 18.7188C319.862 18.7188 319.862 18.7188 319.862 18.7188C319.862 18.7188 319.862 18.7188 319.862 18.7188C319.862 18.7188 319.862 18.7188 319.862 18.7188C319.863 18.7188 319.863 18.7188 319.863 18.7188C319.863 18.7188 319.863 18.7188 319.863 18.7188C319.863 18.7188 319.863 18.7188 319.863 18.7188C319.863 18.7188 319.863 18.7188 319.863 18.7188C319.863 18.7188 319.863 18.7188 319.863 18.7188C319.863 18.7188 319.864 18.7188 319.864 18.7188C319.864 18.7188 319.864 18.7188 319.864 18.7188C319.864 18.7188 319.864 18.7188 319.864 18.7188C319.864 18.7188 319.864 18.7188 319.864 18.7188C319.864 18.7188 319.864 18.7188 319.864 18.7188C319.864 18.7188 319.864 18.7188 319.865 18.7188C319.865 18.7188 319.865 18.7188 319.865 18.7188C319.865 18.7188 319.865 18.7188 319.865 18.7188C319.865 18.7188 319.865 18.7188 319.865 18.7188C319.865 18.7188 319.865 18.7188 319.865 18.7188C319.865 18.7188 319.865 18.7188 319.866 18.7188C319.866 18.7188 319.866 18.7188 319.866 18.7188C319.866 18.7188 319.866 18.7188 319.866 18.7188C319.866 18.7188 319.866 18.7188 319.866 18.7188C319.866 18.7188 319.866 18.7188 319.866 18.7188C319.866 18.7188 319.866 18.7188 319.866 18.7188C319.867 18.7188 319.867 18.7188 319.867 18.7188C319.867 18.7188 319.867 18.7188 319.867 18.7188C319.867 18.7188 319.867 18.7188 319.867 18.7188C319.867 18.7188 319.867 18.7188 319.867 18.7188C319.867 18.7188 319.867 18.7188 319.867 18.7188C319.867 18.7188 319.868 18.7188 319.868 18.7188C319.868 18.7188 319.868 18.7188 319.868 18.7188C319.868 18.7188 319.868 18.7188 319.868 18.7188C319.868 18.7188 319.868 18.7188 319.868 18.7188C319.868 18.7188 319.868 18.7188 319.868 18.7188C319.868 18.7188 319.868 18.7188 319.869 18.7188C319.869 18.7188 319.869 18.7188 319.869 18.7188C319.869 18.7188 319.869 18.7188 319.869 18.7188C319.869 18.7188 319.869 18.7188 319.869 18.7188C319.869 18.7188 319.869 18.7188 319.869 18.7188C319.869 18.7188 319.869 18.7188 319.87 18.7188C319.87 18.7188 319.87 18.7188 319.87 18.7188C319.87 18.7188 319.87 18.7188 319.87 18.7188C319.87 18.7188 319.87 18.7188 319.87 18.7188C319.87 18.7188 319.87 18.7188 319.87 18.7188C319.87 18.7188 319.87 18.7188 319.87 18.7188C319.871 18.7188 319.871 18.7188 319.871 18.7188C319.871 18.7188 319.871 18.7188 319.871 18.7188C319.871 18.7188 319.871 18.7188 319.871 18.7188C319.871 18.7188 319.871 18.7188 319.871 18.7188C319.871 18.7188 319.871 18.7188 319.871 18.7188C319.871 18.7188 319.872 18.7188 319.872 18.7188C319.872 18.7188 319.872 18.7188 319.872 18.7188C319.872 18.7188 319.872 18.7188 319.872 18.7188C319.872 18.7188 319.872 18.7188 319.872 18.7188C319.872 18.7188 319.872 18.7188 319.872 18.7188C319.872 18.7188 319.873 18.7188 319.873 18.7188C319.873 18.7188 319.873 18.7188 319.873 18.7188C319.873 18.7188 319.873 18.7188 319.873 18.7188C319.873 18.7188 319.873 18.7188 319.873 18.7188C319.873 18.7188 319.873 18.7188 319.873 18.7188C319.873 18.7188 319.873 18.7188 319.874 18.7188C319.874 18.7188 319.874 18.7188 319.874 18.7188C319.874 18.7188 319.874 18.7188 319.874 18.7188C319.874 18.7188 319.874 18.7188 319.874 18.7188C319.874 18.7188 319.874 18.7188 319.874 18.7188C319.874 18.7188 319.874 18.7188 319.874 18.7188C319.875 18.7188 319.875 18.7188 319.875 18.7188C319.875 18.7188 319.875 18.7188 319.875 18.7188C319.875 18.7188 319.875 18.7188 319.875 18.7188C319.875 18.7188 319.875 18.7188 319.875 18.7188C319.875 18.7188 319.875 18.7188 319.875 18.7188C319.875 18.7188 319.876 18.7188 319.876 18.7188C319.876 18.7188 319.876 18.7188 319.876 18.7188C319.876 18.7188 319.876 18.7188 319.876 18.7188C319.876 18.7188 319.876 18.7188 319.876 18.7188C319.876 18.7188 319.876 18.7188 319.876 18.7188C319.876 18.7188 319.877 18.7188 319.877 18.7188C319.877 18.7188 319.877 18.7188 319.877 18.7188C319.877 18.7188 319.877 18.7188 319.877 18.7188C319.877 18.7188 319.877 18.7188 319.877 18.7188C319.877 18.7188 319.877 18.7188 319.877 18.7188C319.877 18.7188 319.877 18.7188 319.878 18.7188C319.878 18.7188 319.878 18.7188 319.878 18.7188C319.878 18.7188 319.878 18.7188 319.878 18.7188C319.878 18.7188 319.878 18.7188 319.878 18.7188C319.878 18.7188 319.878 18.7188 319.878 18.7188C319.878 18.7188 319.878 18.7188 319.878 18.7188C319.879 18.7188 319.879 18.7188 319.879 18.7188C319.879 18.7188 319.879 18.7188 319.879 18.7188C319.879 18.7188 319.879 18.7188 319.879 18.7188C319.879 18.7188 319.879 18.7188 319.879 18.7188C319.879 18.7188 319.879 18.7188 319.879 18.7188C319.879 18.7188 319.88 18.7188 319.88 18.7188C319.88 18.7188 319.88 18.7188 319.88 18.7188C319.88 18.7188 319.88 18.7188 319.88 18.7188C319.88 18.7188 319.88 18.7188 319.88 18.7188C319.88 18.7188 319.88 18.7188 319.88 18.7188C319.88 18.7188 319.881 18.7188 319.881 18.7188C319.881 18.7188 319.881 18.7188 319.881 18.7188C319.881 18.7188 319.881 18.7188 319.881 18.7188C319.881 18.7188 319.881 18.7188 319.881 18.7188C319.881 18.7188 319.881 18.7188 319.881 18.7188C319.881 18.7188 319.881 18.7188 319.882 18.7188C319.882 18.7188 319.882 18.7188 319.882 18.7188C319.882 18.7188 319.882 18.7188 319.882 18.7188C319.882 18.7188 319.882 18.7188 319.882 18.7188C319.882 18.7188 319.882 18.7188 319.882 18.7188C319.882 18.7188 319.882 18.7188 319.882 18.7188C319.883 18.7188 319.883 18.7188 319.883 18.7188C319.883 18.7188 319.883 18.7188 319.883 18.7188C319.883 18.7188 319.883 18.7188 319.883 18.7188C319.883 18.7188 319.883 18.7188 319.883 18.7188C319.883 18.7188 319.883 18.7188 319.883 18.7188C319.884 18.7188 319.884 18.7188 319.884 18.7188C319.884 18.7188 319.884 18.7188 319.884 18.7188C319.884 18.7188 319.884 18.7188 319.884 18.7188C319.884 18.7188 319.884 18.7188 319.884 18.7188C319.884 18.7188 319.884 18.7188 319.884 18.7188C319.884 18.7188 319.885 18.7188 319.885 18.7188C319.885 18.7188 319.885 18.7188 319.885 18.7188C319.885 18.7188 319.885 18.7188 319.885 18.7188C319.885 18.7188 319.885 18.7188 319.885 18.7188C319.885 18.7188 319.885 18.7188 319.885 18.7188C319.885 18.7188 319.885 18.7188 319.886 18.7188C319.886 18.7188 319.886 18.7188 319.886 18.7188C319.886 18.7188 319.886 18.7188 319.886 18.7188C319.886 18.7188 319.886 18.7188 319.886 18.7188C319.886 18.7188 319.886 18.7188 319.886 18.7188C319.886 18.7188 319.886 18.7188 319.886 18.7188C319.887 18.7188 319.887 18.7188 319.887 18.7188C319.887 18.7188 319.887 18.7188 319.887 18.7188C319.887 18.7188 319.887 18.7188 319.887 18.7188C319.887 18.7188 319.887 18.7188 319.887 18.7188C319.887 18.7188 319.887 18.7188 319.887 18.7188C319.888 18.7188 319.888 18.7188 319.888 18.7188C319.888 18.7188 319.888 18.7188 319.888 18.7188C319.888 18.7188 319.888 18.7188 319.888 18.7188C319.888 18.7188 319.888 18.7188 319.888 18.7188C319.888 18.7188 319.888 18.7188 319.888 18.7188C319.888 18.7188 319.889 18.7188 319.889 18.7188C319.889 18.7188 319.889 18.7188 319.889 18.7188C319.889 18.7188 319.889 18.7188 319.889 18.7188C319.889 18.7188 319.889 18.7188 319.889 18.7188C319.889 18.7188 319.889 18.7188 319.889 18.7188C319.889 18.7188 319.889 18.7188 319.89 18.7188C319.89 18.7188 319.89 18.7188 319.89 18.7188C319.89 18.7188 319.89 18.7188 319.89 18.7188C319.89 18.7188 319.89 18.7188 319.89 18.7188C319.89 18.7188 319.89 18.7188 319.89 18.7188C319.89 18.7188 319.89 18.7188 319.89 18.7188C319.891 18.7188 319.891 18.7188 319.891 18.7188C319.891 18.7188 319.891 18.7188 319.891 18.7188C319.891 18.7188 319.891 18.7188 319.891 18.7188C319.891 18.7188 319.891 18.7188 319.891 18.7188C319.891 18.7188 319.891 18.7188 319.891 18.7188C319.892 18.7188 319.892 18.7188 319.892 18.7188C319.892 18.7188 319.892 18.7188 319.892 18.7188C319.892 18.7188 319.892 18.7188 319.892 18.7188C319.892 18.7188 319.892 18.7188 319.892 18.7188C319.892 18.7188 319.892 18.7188 319.892 18.7188C319.892 18.7188 319.893 18.7188 319.893 18.7188C319.893 18.7188 319.893 18.7188 319.893 18.7188C319.893 18.7188 319.893 18.7188 319.893 18.7188C319.893 18.7188 319.893 18.7188 319.893 18.7188C319.893 18.7188 319.893 18.7188 319.893 18.7188C319.893 18.7188 319.893 18.7188 319.894 18.7188C319.894 18.7188 319.894 18.7188 319.894 18.7188C319.894 18.7188 319.894 18.7188 319.894 18.7188C319.894 18.7188 319.894 18.7188 319.894 18.7188C319.894 18.7188 319.894 18.7188 319.894 18.7188C319.894 18.7188 319.894 18.7188 319.895 18.7188C319.895 18.7188 319.895 18.7188 319.895 18.7188C319.895 18.7188 319.895 18.7188 319.895 18.7188C319.895 18.7188 319.895 18.7188 319.895 18.7188C319.895 18.7188 319.895 18.7188 319.895 18.7188C319.895 18.7188 319.895 18.7188 319.895 18.7188C319.896 18.7188 319.896 18.7188 319.896 18.7188C319.896 18.7188 319.896 18.7188 319.896 18.7188C319.896 18.7188 319.896 18.7188 319.896 18.7188C319.896 18.7188 319.896 18.7188 319.896 18.7188C319.896 18.7188 319.896 18.7188 319.896 18.7188C319.896 18.7188 319.897 18.7188 319.897 18.7188C319.897 18.7188 319.897 18.7188 319.897 18.7188C319.897 18.7188 319.897 18.7188 319.897 18.7188C319.897 18.7188 319.897 18.7188 319.897 18.7188C319.897 18.7188 319.897 18.7188 319.897 18.7188C319.897 18.7188 319.897 18.7188 319.898 18.7188C319.898 18.7188 319.898 18.7188 319.898 18.7188C319.898 18.7188 319.898 18.7188 319.898 18.7188C319.898 18.7188 319.898 18.7188 319.898 18.7188C319.898 18.7188 319.898 18.7188 319.898 18.7188C319.898 18.7188 319.898 18.7188 319.899 18.7188C319.899 18.7188 319.899 18.7188 319.899 18.7188C319.899 18.7188 319.899 18.7188 319.899 18.7188C319.899 18.7188 319.899 18.7188 319.899 18.7188C319.899 18.7188 319.899 18.7188 319.899 18.7188C319.899 18.7188 319.899 18.7188 319.899 18.7188C319.9 18.7188 319.9 18.7188 319.9 18.7188C319.9 18.7188 319.9 18.7188 319.9 18.7188C319.9 18.7188 319.9 18.7188 319.9 18.7188C319.9 18.7188 319.9 18.7188 319.9 18.7188C319.9 18.7188 319.9 18.7188 319.9 18.7188C319.9 18.7188 319.901 18.7188 319.901 18.7188C319.901 18.7188 319.901 18.7188 319.901 18.7188C319.901 18.7188 319.901 18.7188 319.901 18.7188C319.901 18.7188 319.901 18.7188 319.901 18.7188C319.901 18.7188 319.901 18.7188 319.901 18.7188C319.901 18.7188 319.901 18.7188 319.902 18.7188C319.902 18.7188 319.902 18.7188 319.902 18.7188C319.902 18.7188 319.902 18.7188 319.902 18.7188C319.902 18.7188 319.902 18.7188 319.902 18.7188C319.902 18.7188 319.902 18.7188 319.902 18.7188C319.902 18.7188 319.902 18.7188 319.903 18.7188C319.903 18.7188 319.903 18.7188 319.903 18.7188C319.903 18.7188 319.903 18.7188 319.903 18.7188C319.903 18.7188 319.903 18.7188 319.903 18.7188C319.903 18.7188 319.903 18.7188 319.903 18.7188C319.903 18.7188 319.903 18.7188 319.903 18.7188C319.904 18.7188 319.904 18.7188 319.904 18.7188C319.904 18.7188 319.904 18.7188 319.904 18.7188C319.904 18.7188 319.904 18.7188 319.904 18.7188C319.904 18.7188 319.904 18.7188 319.904 18.7188C319.904 18.7188 319.904 18.7188 319.904 18.7188C319.904 18.7188 319.905 18.7188 319.905 18.7188C319.905 18.7188 319.905 18.7188 319.905 18.7188C319.905 18.7188 319.905 18.7188 319.905 18.7188C319.905 18.7188 319.905 18.7188 319.905 18.7188C319.905 18.7188 319.905 18.7188 319.905 18.7188C319.905 18.7188 319.905 18.7188 319.906 18.7188C319.906 18.7188 319.906 18.7188 319.906 18.7188C319.906 18.7188 319.906 18.7188 319.906 18.7188C319.906 18.7188 319.906 18.7188 319.906 18.7188C319.906 18.7188 319.906 18.7188 319.906 18.7188C319.906 18.7188 319.906 18.7188 319.907 18.7188C319.907 18.7188 319.907 18.7188 319.907 18.7188C319.907 18.7188 319.907 18.7188 319.907 18.7188C319.907 18.7188 319.907 18.7188 319.907 18.7188C319.907 18.7188 319.907 18.7188 319.907 18.7188C319.907 18.7188 319.907 18.7188 319.907 18.7188C319.908 18.7188 319.908 18.7188 319.908 18.7188C319.908 18.7188 319.908 18.7188 319.908 18.7188C319.908 18.7188 319.908 18.7188 319.908 18.7188C319.908 18.7188 319.908 18.7188 319.908 18.7188C319.908 18.7188 319.908 18.7188 319.908 18.7188C319.908 18.7188 319.909 18.7188 319.909 18.7188C319.909 18.7188 319.909 18.7188 319.909 18.7188C319.909 18.7188 319.909 18.7188 319.909 18.7188C319.909 18.7188 319.909 18.7188 319.909 18.7188C319.909 18.7188 319.909 18.7188 319.909 18.7188C319.909 18.7188 319.91 18.7188 319.91 18.7188C319.91 18.7188 319.91 18.7188 319.91 18.7188C319.91 18.7188 319.91 18.7188 319.91 18.7188C319.91 18.7188 319.91 18.7188 319.91 18.7188C319.91 18.7188 319.91 18.7188 319.91 18.7188C319.91 18.7188 319.91 18.7188 319.911 18.7188C319.911 18.7188 319.911 18.7188 319.911 18.7188C319.911 18.7188 319.911 18.7188 319.911 18.7188C319.911 18.7188 319.911 18.7188 319.911 18.7188C319.911 18.7188 319.911 18.7188 319.911 18.7188C319.911 18.7188 319.911 18.7188 319.911 18.7188C319.912 18.7188 319.912 18.7188 319.912 18.7188C319.912 18.7188 319.912 18.7188 319.912 18.7188C319.912 18.7188 319.912 18.7188 319.912 18.7188C319.912 18.7188 319.912 18.7188 319.912 18.7188C319.912 18.7188 319.912 18.7188 319.912 18.7188C319.912 18.7188 319.913 18.7188 319.913 18.7188C319.913 18.7188 319.913 18.7188 319.913 18.7188C319.913 18.7188 319.913 18.7188 319.913 18.7188C319.913 18.7188 319.913 18.7188 319.913 18.7188C319.913 18.7188 319.913 18.7188 319.913 18.7188C319.913 18.7188 319.914 18.7188 319.914 18.7188C319.914 18.7188 319.914 18.7188 319.914 18.7188C319.914 18.7188 319.914 18.7188 319.914 18.7188C319.914 18.7188 319.914 18.7188 319.914 18.7188C319.914 18.7188 319.914 18.7188 319.914 18.7188C319.914 18.7188 319.914 18.7188 319.915 18.7188C319.915 18.7188 319.915 18.7188 319.915 18.7188C319.915 18.7188 319.915 18.7188 319.915 18.7188C319.915 18.7188 319.915 18.7188 319.915 18.7188C319.915 18.7188 319.915 18.7188 319.915 18.7188C319.915 18.7188 319.915 18.7188 319.915 18.7188C319.916 18.7188 319.916 18.7188 319.916 18.7188C319.916 18.7188 319.916 18.7188 319.916 18.7188C319.916 18.7188 319.916 18.7188 319.916 18.7188C319.916 18.7188 319.916 18.7188 319.916 18.7188C319.916 18.7188 319.916 18.7188 319.916 18.7188C319.916 18.7188 319.917 18.7188 319.917 18.7188C319.917 18.7188 319.917 18.7188 319.917 18.7188C319.917 18.7188 319.917 18.7188 319.917 18.7188C319.917 18.7188 319.917 18.7188 319.917 18.7188C319.917 18.7188 319.917 18.7188 319.917 18.7188C319.917 18.7188 319.918 18.7188 319.918 18.7188C319.918 18.7188 319.918 18.7188 319.918 18.7188C319.918 18.7188 319.918 18.7188 319.918 18.7188C319.918 18.7188 319.918 18.7188 319.918 18.7188C319.918 18.7188 319.918 18.7188 319.918 18.7188C319.918 18.7188 319.918 18.7188 319.919 18.7188C319.919 18.7188 319.919 18.7188 319.919 18.7188C319.919 18.7188 319.919 18.7188 319.919 18.7188C319.919 18.7188 319.919 18.7188 319.919 18.7188C319.919 18.7188 319.919 18.7188 319.919 18.7188C319.919 18.7188 319.919 18.7188 319.919 18.7188C319.92 18.7188 319.92 18.7188 319.92 18.7188C319.92 18.7188 319.92 18.7188 319.92 18.7188C319.92 18.7188 319.92 18.7188 319.92 18.7188C319.92 18.7188 319.92 18.7188 319.92 18.7188C319.92 18.7188 319.92 18.7188 319.92 18.7188C319.921 18.7188 319.921 18.7188 319.921 18.7188C319.921 18.7188 319.921 18.7188 319.921 18.7188C319.921 18.7188 319.921 18.7188 319.921 18.7188C319.921 18.7188 319.921 18.7188 319.921 18.7188C319.921 18.7188 319.921 18.7188 319.921 18.7188C319.921 18.7188 319.922 18.7188 319.922 18.7188C319.922 18.7188 319.922 18.7188 319.922 18.7188C319.922 18.7188 319.922 18.7188 319.922 18.7188C319.922 18.7188 319.922 18.7188 319.922 18.7188C319.922 18.7188 319.922 18.7188 319.922 18.7188C319.922 18.7188 319.922 18.7188 319.923 18.7188C319.923 18.7188 319.923 18.7188 319.923 18.7188C319.923 18.7188 319.923 18.7188 319.923 18.7188C319.923 18.7188 319.923 18.7188 319.923 18.7188C319.923 18.7188 319.923 18.7188 319.923 18.7188C319.923 18.7188 319.923 18.7188 319.923 18.7188C319.924 18.7188 319.924 18.7188 319.924 18.7188C319.924 18.7188 319.924 18.7188 319.924 18.7188C319.924 18.7188 319.924 18.7188 319.924 18.7188C319.924 18.7188 319.924 18.7188 319.924 18.7188C319.924 18.7188 319.924 18.7188 319.924 18.7188C319.925 18.7188 319.925 18.7188 319.925 18.7188C319.925 18.7188 319.925 18.7188 319.925 18.7188C319.925 18.7188 319.925 18.7188 319.925 18.7188C319.925 18.7188 319.925 18.7188 319.925 18.7188C319.925 18.7188 319.925 18.7188 319.925 18.7188C319.925 18.7188 319.926 18.7188 319.926 18.7188C319.926 18.7188 319.926 18.7188 319.926 18.7188V12.7188ZM319.828 12.7188C317.527 12.7188 315.401 13.3868 313.594 14.7894C311.827 16.1614 310.545 18.0944 309.627 20.3501L315.185 22.6109C315.83 21.0254 316.567 20.0775 317.273 19.5289C317.94 19.011 318.744 18.7188 319.828 18.7188V12.7188ZM309.627 20.3501C307.839 24.7453 307.062 31.115 307.062 39.1562H313.062C313.062 31.312 313.848 25.8979 315.185 22.6109L309.627 20.3501ZM310.062 42.1562H339.359V36.1562H310.062V42.1562ZM336.359 39.1562V54.7812H342.359V39.1562H336.359ZM339.359 51.7812H310.062V57.7812H339.359V51.7812ZM307.062 54.7812V113.375H313.062V54.7812H307.062ZM310.062 116.375H331.547V110.375H310.062V116.375ZM328.547 113.375V129H334.547V113.375H328.547ZM331.547 126H272.953V132H331.547V126ZM275.953 129V113.375H269.953V129H275.953ZM272.953 116.375H282.719V110.375H272.953V116.375ZM285.719 113.375V54.7812H279.719V113.375H285.719ZM282.719 51.7812H269.047V57.7812H282.719V51.7812ZM375.395 89.9375V86.9375H372.153L372.404 90.1696L375.395 89.9375ZM380.668 107.32L378.218 109.052L378.228 109.066L378.238 109.08L380.668 107.32ZM385.404 112.008L383.699 114.476L383.714 114.487L383.73 114.497L385.404 112.008ZM390.922 114.596L390.124 117.488L390.147 117.494L390.171 117.5L390.922 114.596ZM413.041 111.373L414.739 113.846L414.743 113.843L413.041 111.373ZM422.318 99.0684L423.299 96.2331L420.636 95.3121L419.55 97.9122L422.318 99.0684ZM435.307 103.561L438.119 104.604L439.187 101.728L436.287 100.725L435.307 103.561ZM430.814 112.496L428.3 110.859L428.296 110.866L430.814 112.496ZM415.824 126.217L417.243 128.86L417.253 128.855L415.824 126.217ZM374.76 128.17L373.659 130.961L373.665 130.963L374.76 128.17ZM359.867 118.795L357.788 120.958L357.797 120.966L357.805 120.974L359.867 118.795ZM349.857 103.902L347.086 105.051L347.091 105.064L349.857 103.902ZM349.857 65.3281L347.087 64.1775L347.082 64.1905L349.857 65.3281ZM359.867 50.2891L361.955 52.4435L361.955 52.4433L359.867 50.2891ZM374.76 40.6699L373.637 37.8878L373.632 37.89L374.76 40.6699ZM411.137 40.6699L410.009 43.4498L410.014 43.4521L411.137 40.6699ZM426.029 50.2891L423.933 52.4352L423.941 52.4434L423.95 52.4516L426.029 50.2891ZM436.039 65.3281L433.263 66.4658L433.268 66.4787L436.039 65.3281ZM439.75 84.6641L442.673 85.3406L442.75 85.0068V84.6641H439.75ZM438.529 89.9375V92.9375H440.914L441.452 90.6141L438.529 89.9375ZM375.736 74.3125L372.754 73.9867L372.391 77.3125H375.736V74.3125ZM410.209 74.3125V77.3125H413.567L413.19 73.9755L410.209 74.3125ZM404.594 57.9551L406.882 56.0153L404.594 57.9551ZM386.674 54L387.78 56.7887L387.8 56.7805L387.821 56.7721L386.674 54ZM381.596 57.6621L383.823 59.6714L383.833 59.6607L383.843 59.6498L381.596 57.6621ZM377.836 64.3516L375.014 63.3342L375.01 63.3437L375.007 63.3531L377.836 64.3516ZM372.404 90.1696C372.711 94.1282 373.364 97.7315 374.392 100.956L380.108 99.134C379.248 96.4338 378.664 93.2989 378.386 89.7054L372.404 90.1696ZM374.392 100.956C375.399 104.117 376.657 106.843 378.218 109.052L383.118 105.589C382.01 104.021 380.989 101.897 380.108 99.134L374.392 100.956ZM378.238 109.08C379.791 111.224 381.609 113.032 383.699 114.476L387.11 109.54C385.619 108.509 384.28 107.193 383.098 105.561L378.238 109.08ZM383.73 114.497C385.762 115.864 387.894 116.872 390.124 117.488L391.72 111.704C390.174 111.277 388.628 110.561 387.079 109.519L383.73 114.497ZM390.171 117.5C392.328 118.058 394.6 118.328 396.977 118.328V112.328C395.056 112.328 393.292 112.11 391.673 111.691L390.171 117.5ZM396.977 118.328C404.179 118.328 410.213 116.953 414.739 113.846L411.343 108.9C408.187 111.066 403.511 112.328 396.977 112.328V118.328ZM414.743 113.843C419.206 110.769 422.614 106.145 425.087 100.225L419.55 97.9122C417.4 103.06 414.624 106.639 411.339 108.903L414.743 113.843ZM421.338 101.904L434.326 106.396L436.287 100.725L423.299 96.2331L421.338 101.904ZM432.494 102.517C431.399 105.468 430.001 108.247 428.3 110.859L433.328 114.133C435.274 111.146 436.871 107.968 438.119 104.604L432.494 102.517ZM428.296 110.866C426.648 113.412 424.649 115.776 422.285 117.958L426.355 122.367C429.07 119.861 431.4 117.114 433.333 114.126L428.296 110.866ZM422.285 117.958C419.935 120.128 417.307 122.002 414.395 123.579L417.253 128.855C420.591 127.047 423.628 124.884 426.355 122.367L422.285 117.958ZM414.405 123.574C411.568 125.097 408.314 126.315 404.621 127.207L406.031 133.039C410.151 132.043 413.895 130.657 417.243 128.86L414.405 123.574ZM404.621 127.207C400.963 128.091 397.083 128.539 392.973 128.539V134.539C397.521 134.539 401.877 134.043 406.031 133.039L404.621 127.207ZM392.973 128.539C386.919 128.539 381.22 127.48 375.855 125.377L373.665 130.963C379.757 133.352 386.201 134.539 392.973 134.539V128.539ZM375.86 125.379C370.502 123.266 365.868 120.343 361.929 116.616L357.805 120.974C362.33 125.255 367.625 128.581 373.659 130.961L375.86 125.379ZM361.946 116.632C358.069 112.906 354.955 108.293 352.623 102.741L347.091 105.064C349.708 111.296 353.267 116.611 357.788 120.958L361.946 116.632ZM352.629 102.754C350.351 97.2567 349.195 91.2382 349.195 84.6641H343.195C343.195 91.9572 344.481 98.7641 347.086 105.051L352.629 102.754ZM349.195 84.6641C349.195 78.0903 350.351 72.0348 352.633 66.4658L347.082 64.1905C344.481 70.5356 343.195 77.3706 343.195 84.6641H349.195ZM352.628 66.4787C354.961 60.8602 358.078 56.1999 361.955 52.4435L357.78 48.1346C353.258 52.5163 349.701 57.882 347.087 64.1775L352.628 66.4787ZM361.955 52.4433C365.898 48.6216 370.533 45.6225 375.888 43.4498L373.632 37.89C367.594 40.3398 362.3 43.7534 357.779 48.1349L361.955 52.4433ZM375.882 43.4521C381.241 41.2902 386.93 40.2031 392.973 40.2031V34.2031C386.19 34.2031 379.737 35.4272 373.637 37.8878L375.882 43.4521ZM392.973 40.2031C399.016 40.2031 404.686 41.2902 410.009 43.4498L412.265 37.89C406.194 35.4272 399.755 34.2031 392.973 34.2031V40.2031ZM410.014 43.4521C415.4 45.6246 420.028 48.6213 423.933 52.4352L428.126 48.1429C423.632 43.7537 418.332 40.3376 412.259 37.8878L410.014 43.4521ZM423.95 52.4516C427.853 56.2042 430.965 60.8575 433.263 66.4658L438.815 64.1905C436.231 57.8847 432.669 52.5119 428.109 48.1266L423.95 52.4516ZM433.268 66.4787C435.58 72.0444 436.75 78.0955 436.75 84.6641H442.75C442.75 77.3655 441.446 70.5259 438.81 64.1775L433.268 66.4787ZM436.827 83.9875L435.607 89.2609L441.452 90.6141L442.673 85.3406L436.827 83.9875ZM438.529 86.9375H375.395V92.9375H438.529V86.9375ZM375.736 77.3125H410.209V71.3125H375.736V77.3125ZM413.19 73.9755C412.318 66.2583 410.346 60.1017 406.882 56.0153L402.305 59.8949C404.636 62.6444 406.408 67.3927 407.228 74.6495L413.19 73.9755ZM406.882 56.0153C403.372 51.8745 398.669 49.8281 393.07 49.8281V55.8281C397.042 55.8281 400.021 57.1997 402.305 59.8949L406.882 56.0153ZM393.07 49.8281C390.364 49.8281 387.833 50.2737 385.527 51.2279L387.821 56.7721C389.291 56.1638 391.024 55.8281 393.07 55.8281V49.8281ZM385.568 51.2113C383.195 52.1525 381.123 53.6691 379.349 55.6744L383.843 59.6498C385.064 58.2697 386.377 57.3449 387.78 56.7887L385.568 51.2113ZM379.368 55.6528C377.539 57.6803 376.113 60.2832 375.014 63.3342L380.658 65.3689C381.577 62.821 382.657 60.9642 383.823 59.6714L379.368 55.6528ZM375.007 63.3531C373.933 66.3952 373.195 69.9535 372.754 73.9867L378.719 74.6383C379.124 70.9241 379.785 67.8418 380.665 65.35L375.007 63.3531ZM477.738 89.9375V86.9375H474.497L474.747 90.1696L477.738 89.9375ZM483.012 107.32L480.562 109.052L480.572 109.066L480.582 109.08L483.012 107.32ZM487.748 112.008L486.043 114.476L486.058 114.487L486.074 114.497L487.748 112.008ZM493.266 114.596L492.468 117.488L492.491 117.494L492.514 117.5L493.266 114.596ZM515.385 111.373L517.083 113.846L517.087 113.843L515.385 111.373ZM524.662 99.0684L525.643 96.2331L522.98 95.3121L521.894 97.9122L524.662 99.0684ZM537.65 103.561L540.463 104.604L541.53 101.728L538.631 100.725L537.65 103.561ZM533.158 112.496L530.644 110.859L530.639 110.866L533.158 112.496ZM518.168 126.217L519.587 128.86L519.597 128.855L518.168 126.217ZM477.104 128.17L476.003 130.961L476.009 130.963L477.104 128.17ZM462.211 118.795L460.132 120.958L460.14 120.966L460.149 120.974L462.211 118.795ZM452.201 103.902L449.43 105.051L449.435 105.064L452.201 103.902ZM452.201 65.3281L449.431 64.1775L449.425 64.1905L452.201 65.3281ZM462.211 50.2891L464.299 52.4435L464.299 52.4433L462.211 50.2891ZM477.104 40.6699L475.981 37.8878L475.976 37.89L477.104 40.6699ZM513.48 40.6699L512.353 43.4498L512.358 43.4521L513.48 40.6699ZM528.373 50.2891L526.277 52.4352L526.285 52.4434L526.294 52.4516L528.373 50.2891ZM538.383 65.3281L535.607 66.4658L535.612 66.4787L538.383 65.3281ZM542.094 84.6641L545.016 85.3406L545.094 85.0068V84.6641H542.094ZM540.873 89.9375V92.9375H543.258L543.796 90.6141L540.873 89.9375ZM478.08 74.3125L475.098 73.9867L474.734 77.3125H478.08V74.3125ZM512.553 74.3125V77.3125H515.911L515.534 73.9755L512.553 74.3125ZM506.938 57.9551L509.226 56.0153L506.938 57.9551ZM489.018 54L490.123 56.7887L490.144 56.7805L490.165 56.7721L489.018 54ZM483.939 57.6621L486.167 59.6714L486.177 59.6607L486.186 59.6498L483.939 57.6621ZM480.18 64.3516L477.357 63.3342L477.354 63.3437L477.351 63.3531L480.18 64.3516ZM474.747 90.1696C475.054 94.1282 475.708 97.7315 476.735 100.956L482.452 99.134C481.592 96.4338 481.008 93.2989 480.729 89.7054L474.747 90.1696ZM476.735 100.956C477.743 104.117 479.001 106.843 480.562 109.052L485.461 105.589C484.353 104.021 483.333 101.897 482.452 99.134L476.735 100.956ZM480.582 109.08C482.134 111.224 483.953 113.032 486.043 114.476L489.453 109.54C487.962 108.509 486.623 107.193 485.442 105.561L480.582 109.08ZM486.074 114.497C488.105 115.864 490.238 116.872 492.468 117.488L494.063 111.704C492.518 111.277 490.972 110.561 489.423 109.519L486.074 114.497ZM492.514 117.5C494.671 118.058 496.944 118.328 499.32 118.328V112.328C497.4 112.328 495.636 112.11 494.017 111.691L492.514 117.5ZM499.32 118.328C506.523 118.328 512.556 116.953 517.083 113.846L513.687 108.9C510.531 111.066 505.855 112.328 499.32 112.328V118.328ZM517.087 113.843C521.549 110.769 524.958 106.145 527.43 100.225L521.894 97.9122C519.744 103.06 516.968 106.639 513.683 108.903L517.087 113.843ZM523.682 101.904L536.67 106.396L538.631 100.725L525.643 96.2331L523.682 101.904ZM534.838 102.517C533.743 105.468 532.345 108.247 530.644 110.859L535.672 114.133C537.617 111.146 539.214 107.968 540.463 104.604L534.838 102.517ZM530.639 110.866C528.992 113.412 526.993 115.776 524.629 117.958L528.699 122.367C531.414 119.861 533.744 117.114 535.677 114.126L530.639 110.866ZM524.629 117.958C522.279 120.128 519.651 122.002 516.739 123.579L519.597 128.855C522.935 127.047 525.971 124.884 528.699 122.367L524.629 117.958ZM516.749 123.574C513.912 125.097 510.658 126.315 506.965 127.207L508.375 133.039C512.494 132.043 516.239 130.657 519.587 128.86L516.749 123.574ZM506.965 127.207C503.307 128.091 499.427 128.539 495.316 128.539V134.539C499.865 134.539 504.221 134.043 508.375 133.039L506.965 127.207ZM495.316 128.539C489.262 128.539 483.564 127.48 478.199 125.377L476.009 130.963C482.101 133.352 488.545 134.539 495.316 134.539V128.539ZM478.204 125.379C472.845 123.266 468.212 120.343 464.273 116.616L460.149 120.974C464.673 125.255 469.968 128.581 476.003 130.961L478.204 125.379ZM464.29 116.632C460.413 112.906 457.298 108.293 454.967 102.741L449.435 105.064C452.052 111.296 455.61 116.611 460.132 120.958L464.29 116.632ZM454.973 102.754C452.695 97.2567 451.539 91.2382 451.539 84.6641H445.539C445.539 91.9572 446.825 98.7641 449.43 105.051L454.973 102.754ZM451.539 84.6641C451.539 78.0903 452.695 72.0348 454.977 66.4658L449.425 64.1905C446.825 70.5356 445.539 77.3706 445.539 84.6641H451.539ZM454.972 66.4787C457.305 60.8602 460.422 56.1999 464.299 52.4435L460.123 48.1346C455.601 52.5163 452.045 57.882 449.431 64.1775L454.972 66.4787ZM464.299 52.4433C468.242 48.6216 472.876 45.6225 478.231 43.4498L475.976 37.89C469.937 40.3398 464.644 43.7534 460.123 48.1349L464.299 52.4433ZM478.226 43.4521C483.585 41.2902 489.273 40.2031 495.316 40.2031V34.2031C488.534 34.2031 482.081 35.4272 475.981 37.8878L478.226 43.4521ZM495.316 40.2031C501.36 40.2031 507.03 41.2902 512.353 43.4498L514.608 37.89C508.538 35.4272 502.099 34.2031 495.316 34.2031V40.2031ZM512.358 43.4521C517.744 45.6246 522.372 48.6213 526.277 52.4352L530.469 48.1429C525.975 43.7537 520.676 40.3376 514.603 37.8878L512.358 43.4521ZM526.294 52.4516C530.197 56.2042 533.308 60.8575 535.607 66.4658L541.159 64.1905C538.574 57.8847 535.013 52.5119 530.452 48.1266L526.294 52.4516ZM535.612 66.4787C537.924 72.0444 539.094 78.0955 539.094 84.6641H545.094C545.094 77.3655 543.79 70.5259 541.153 64.1775L535.612 66.4787ZM539.171 83.9875L537.95 89.2609L543.796 90.6141L545.016 85.3406L539.171 83.9875ZM540.873 86.9375H477.738V92.9375H540.873V86.9375ZM478.08 77.3125H512.553V71.3125H478.08V77.3125ZM515.534 73.9755C514.661 66.2583 512.69 60.1017 509.226 56.0153L504.649 59.8949C506.98 62.6444 508.751 67.3927 509.572 74.6495L515.534 73.9755ZM509.226 56.0153C505.716 51.8745 501.013 49.8281 495.414 49.8281V55.8281C499.386 55.8281 502.365 57.1997 504.649 59.8949L509.226 56.0153ZM495.414 49.8281C492.708 49.8281 490.177 50.2737 487.871 51.2279L490.165 56.7721C491.635 56.1638 493.368 55.8281 495.414 55.8281V49.8281ZM487.912 51.2113C485.538 52.1525 483.466 53.6691 481.692 55.6744L486.186 59.6498C487.407 58.2697 488.721 57.3449 490.123 56.7887L487.912 51.2113ZM481.712 55.6528C479.883 57.6803 478.457 60.2832 477.357 63.3342L483.002 65.3689C483.92 62.821 485.001 60.9642 486.167 59.6714L481.712 55.6528ZM477.351 63.3531C476.277 66.3952 475.538 69.9535 475.098 73.9867L481.062 74.6383C481.468 70.9241 482.129 67.8418 483.009 65.35L477.351 63.3531Z" fill="white" mask="url(#path-1-outside-1_145_16)"/>
</svg>
