<svg width="27" height="27" viewBox="0 0 37 37" fill="none" xmlns="http://www.w3.org/2000/svg">
<path fill-rule="evenodd" clip-rule="evenodd" d="M18.5 0C8.28688 0 0 8.28688 0 18.5C0 28.7132 8.28688 37 18.5 37C28.693 37 37 28.7132 37 18.5C37 8.28688 28.693 0 18.5 0ZM30.7196 8.52766C32.9268 11.2164 34.2511 14.6475 34.2913 18.3595C33.7696 18.2593 28.5526 17.1957 23.2955 17.8579C23.1752 17.5971 23.0748 17.3161 22.9545 17.0353C22.6334 16.2728 22.2723 15.4903 21.9111 14.7479C27.7299 12.3802 30.3785 8.96909 30.7196 8.52766ZM18.5 2.72885C22.513 2.72885 26.1849 4.23374 28.974 6.70174C28.693 7.10304 26.3053 10.2934 20.687 12.4002C18.0987 7.64479 15.2294 3.75217 14.788 3.15021C15.9717 2.8693 17.2159 2.72885 18.5 2.72885ZM11.7783 4.21366C12.1996 4.77549 15.0087 8.68818 17.6372 13.3432C10.2533 15.3097 3.73211 15.2696 3.02983 15.2696C4.05314 10.3736 7.36388 6.30043 11.7783 4.21366ZM2.68872 18.5201C2.68872 18.3595 2.68872 18.199 2.68872 18.0385C3.37093 18.0585 11.0358 18.1589 18.9213 15.7913C19.3829 16.674 19.8042 17.577 20.2056 18.4799C20.0049 18.5401 19.7841 18.6004 19.5835 18.6605C11.4371 21.289 7.10304 28.4723 6.74186 29.0743C4.23373 26.2853 2.68872 22.5732 2.68872 18.5201ZM18.5 34.3113C14.8481 34.3113 11.4772 33.0672 8.80857 30.9804C9.08948 30.3986 12.2998 24.2186 21.2087 21.1085C21.2489 21.0884 21.269 21.0884 21.3091 21.0684C23.5363 26.827 24.4393 31.6626 24.68 33.0471C22.7738 33.8698 20.687 34.3113 18.5 34.3113ZM27.3085 31.6025C27.1481 30.6394 26.3053 26.0244 24.2386 20.346C29.1947 19.5634 33.5287 20.8476 34.0705 21.0283C33.3883 25.4225 30.8601 29.2147 27.3085 31.6025Z" fill="url(#paint0_linear_32_357)"/>
<defs>
<linearGradient id="paint0_linear_32_357" x1="18.5" y1="0" x2="18.5" y2="37" gradientUnits="userSpaceOnUse">
<stop stop-color="#8E8E9C"/>
<stop offset="1" stop-color="#ffffff"/>
</linearGradient>
</defs>
</svg>
