<svg width="75" height="75" viewBox="0 0 75 75" fill="none" xmlns="http://www.w3.org/2000/svg">
<path d="M24.3334 60.5417V67.125" stroke="white" stroke-width="2" stroke-linecap="round" stroke-linejoin="round"/>
<path d="M24.3334 40.7917V47.375" stroke="white" stroke-width="2" stroke-linecap="round" stroke-linejoin="round"/>
<path d="M50.6666 60.5417V67.125" stroke="white" stroke-width="2" stroke-linecap="round" stroke-linejoin="round"/>
<path d="M50.6666 40.7917V47.375" stroke="white" stroke-width="2" stroke-linecap="round" stroke-linejoin="round"/>
<path d="M37.5 67.125V73.7083" stroke="white" stroke-width="2" stroke-linecap="round" stroke-linejoin="round"/>
<path d="M37.5 47.375V53.9583" stroke="white" stroke-width="2" stroke-linecap="round" stroke-linejoin="round"/>
<path d="M63.8333 52.5758C67.2936 51.0603 70.1273 48.4005 71.8586 45.043C73.59 41.6854 74.1136 37.8345 73.3416 34.1365C72.5696 30.4386 70.5489 27.1188 67.6188 24.7344C64.6888 22.35 61.0276 21.0461 57.25 21.0417H53.1024C52.059 17.0012 50.0703 13.2666 47.3003 10.1456C44.5302 7.0246 41.058 4.60662 37.17 3.09095C33.282 1.57529 29.0894 1.00534 24.9379 1.42808C20.7864 1.85082 16.7947 3.25414 13.292 5.52238C9.78931 7.79062 6.87581 10.8588 4.79166 14.4741C2.70751 18.0894 1.51239 22.1482 1.30482 26.3161C1.09724 30.4839 1.88315 34.6414 3.59777 38.4459C5.31238 42.2503 7.90661 45.5929 11.1666 48.1979" stroke="white" stroke-width="2" stroke-linecap="round" stroke-linejoin="round"/>
</svg>
