<svg width="28" height="28" viewBox="0 0 36 35" fill="none" xmlns="http://www.w3.org/2000/svg">
<path d="M36 18.11C36 8.10812 27.9411 0 18 0C8.05887 0 0 8.10812 0 18.11C0 24.7345 3.53539 30.5283 8.81145 33.6857C11.886 35.5256 15.1875 32.7591 15.1875 29.176V25.6301C15.1875 24.368 14.1644 23.3449 12.9023 23.3449C11.6403 23.3449 10.6172 22.3218 10.6172 21.0598V20.3952C10.6172 19.1331 11.6403 18.11 12.9023 18.11C14.1644 18.11 15.1875 17.0869 15.1875 15.8248V14.1201C15.1875 9.58132 17.8748 7.07422 21.9864 7.07422C22.675 7.07422 23.3748 7.11749 23.9938 7.17377C25.1666 7.2804 26.0156 8.28874 26.0156 9.46643V9.615C26.0156 10.8685 24.9995 11.8847 23.7459 11.8847C21.51 11.8847 20.8125 13.2808 20.8125 14.7144V15.8031C20.8125 17.0772 21.8453 18.11 23.1194 18.11C24.532 18.11 25.6129 19.3681 25.4 20.7646L25.2987 21.4289C25.1307 22.5309 24.1832 23.3449 23.0685 23.3449C21.8225 23.3449 20.8125 24.355 20.8125 25.6009V29.176C20.8125 32.7591 24.114 35.5256 27.1885 33.6857C32.4646 30.5283 36 24.7345 36 18.11Z" fill="url(#paint0_linear_32_192)" fill-opacity="0.7"/>
<defs>
<linearGradient id="paint0_linear_32_192" x1="18" y1="-27.931" x2="18" y2="53.069" gradientUnits="userSpaceOnUse">
<stop offset="0.214559" stop-color="#8E8E9C"/>
<stop offset="0.762452" stop-color="#ffffff"/>
</linearGradient>
</defs>
</svg>
