<svg width="422" height="95" viewBox="0 0 422 95" fill="none" xmlns="http://www.w3.org/2000/svg">
<path d="M120.795 91.2045C120.242 91.2045 119.741 91.1004 119.29 90.892C118.839 90.6799 118.481 90.375 118.216 89.9773C117.951 89.5758 117.818 89.0909 117.818 88.5227C117.818 88.0227 117.917 87.6174 118.114 87.3068C118.311 86.9924 118.574 86.7462 118.903 86.5682C119.233 86.3902 119.597 86.2576 119.994 86.1705C120.396 86.0795 120.799 86.0076 121.205 85.9545C121.735 85.8864 122.165 85.8352 122.494 85.8011C122.828 85.7633 123.07 85.7008 123.222 85.6136C123.377 85.5265 123.455 85.375 123.455 85.1591V85.1136C123.455 84.553 123.301 84.1174 122.994 83.8068C122.691 83.4962 122.231 83.3409 121.614 83.3409C120.973 83.3409 120.472 83.4811 120.108 83.7614C119.744 84.0417 119.489 84.3409 119.341 84.6591L118.068 84.2045C118.295 83.6742 118.598 83.2614 118.977 82.9659C119.36 82.6667 119.777 82.4583 120.227 82.3409C120.682 82.2197 121.129 82.1591 121.568 82.1591C121.848 82.1591 122.17 82.1932 122.534 82.2614C122.902 82.3258 123.256 82.4602 123.597 82.6648C123.941 82.8693 124.227 83.178 124.455 83.5909C124.682 84.0038 124.795 84.5568 124.795 85.25V91H123.455V89.8182H123.386C123.295 90.0076 123.144 90.2102 122.932 90.4261C122.72 90.642 122.438 90.8258 122.085 90.9773C121.733 91.1288 121.303 91.2045 120.795 91.2045ZM121 90C121.53 90 121.977 89.8958 122.341 89.6875C122.708 89.4792 122.985 89.2102 123.17 88.8807C123.36 88.5511 123.455 88.2045 123.455 87.8409V86.6136C123.398 86.6818 123.273 86.7443 123.08 86.8011C122.89 86.8542 122.67 86.9015 122.42 86.9432C122.174 86.9811 121.934 87.0152 121.699 87.0455C121.468 87.072 121.28 87.0947 121.136 87.1136C120.788 87.1591 120.462 87.233 120.159 87.3352C119.86 87.4337 119.617 87.5833 119.432 87.7841C119.25 87.9811 119.159 88.25 119.159 88.5909C119.159 89.0568 119.331 89.4091 119.676 89.6477C120.025 89.8826 120.466 90 121 90ZM135.288 91.1818C134.47 91.1818 133.766 90.9886 133.175 90.6023C132.584 90.2159 132.129 89.6837 131.811 89.0057C131.493 88.3277 131.334 87.553 131.334 86.6818C131.334 85.7955 131.497 85.0133 131.822 84.3352C132.152 83.6534 132.61 83.1212 133.197 82.7386C133.788 82.3523 134.478 82.1591 135.266 82.1591C135.879 82.1591 136.432 82.2727 136.925 82.5C137.417 82.7273 137.821 83.0455 138.135 83.4545C138.449 83.8636 138.644 84.3409 138.72 84.8864H137.379C137.277 84.4886 137.05 84.1364 136.697 83.8295C136.349 83.5189 135.879 83.3636 135.288 83.3636C134.766 83.3636 134.307 83.5 133.913 83.7727C133.523 84.0417 133.218 84.4223 132.999 84.9148C132.783 85.4034 132.675 85.9773 132.675 86.6364C132.675 87.3106 132.781 87.8977 132.993 88.3977C133.209 88.8977 133.512 89.286 133.902 89.5625C134.296 89.839 134.758 89.9773 135.288 89.9773C135.637 89.9773 135.953 89.9167 136.237 89.7955C136.521 89.6742 136.762 89.5 136.959 89.2727C137.156 89.0455 137.296 88.7727 137.379 88.4545H138.72C138.644 88.9697 138.457 89.4337 138.158 89.8466C137.862 90.2557 137.47 90.5814 136.982 90.8239C136.497 91.0625 135.932 91.1818 135.288 91.1818ZM140.68 91V82.2727H141.976V83.5909H142.067C142.226 83.1591 142.514 82.8087 142.93 82.5398C143.347 82.2708 143.817 82.1364 144.339 82.1364C144.438 82.1364 144.561 82.1383 144.709 82.142C144.857 82.1458 144.968 82.1515 145.044 82.1591V83.5227C144.999 83.5114 144.894 83.4943 144.732 83.4716C144.572 83.4451 144.404 83.4318 144.226 83.4318C143.802 83.4318 143.423 83.5208 143.089 83.6989C142.76 83.8731 142.499 84.1155 142.305 84.4261C142.116 84.733 142.021 85.0833 142.021 85.4773V91H140.68ZM150.027 91.1818C149.186 91.1818 148.461 90.9962 147.851 90.625C147.245 90.25 146.777 89.7273 146.447 89.0568C146.122 88.3826 145.959 87.5985 145.959 86.7045C145.959 85.8106 146.122 85.0227 146.447 84.3409C146.777 83.6553 147.235 83.1212 147.822 82.7386C148.413 82.3523 149.103 82.1591 149.891 82.1591C150.345 82.1591 150.794 82.2348 151.237 82.3864C151.68 82.5379 152.084 82.7841 152.447 83.125C152.811 83.4621 153.101 83.9091 153.317 84.4659C153.533 85.0227 153.641 85.7083 153.641 86.5227V87.0909H146.913V85.9318H152.277C152.277 85.4394 152.179 85 151.982 84.6136C151.788 84.2273 151.512 83.9223 151.152 83.6989C150.796 83.4754 150.375 83.3636 149.891 83.3636C149.357 83.3636 148.894 83.4962 148.504 83.7614C148.118 84.0227 147.821 84.3636 147.612 84.7841C147.404 85.2045 147.3 85.6553 147.3 86.1364V86.9091C147.3 87.5682 147.413 88.1269 147.641 88.5852C147.872 89.0398 148.192 89.3864 148.601 89.625C149.01 89.8598 149.485 89.9773 150.027 89.9773C150.379 89.9773 150.697 89.928 150.982 89.8295C151.269 89.7273 151.518 89.5758 151.726 89.375C151.934 89.1705 152.095 88.9167 152.209 88.6136L153.504 88.9773C153.368 89.4167 153.139 89.803 152.817 90.1364C152.495 90.4659 152.097 90.7235 151.624 90.9091C151.15 91.0909 150.618 91.1818 150.027 91.1818ZM158.249 91.2045C157.696 91.2045 157.194 91.1004 156.743 90.892C156.292 90.6799 155.934 90.375 155.669 89.9773C155.404 89.5758 155.271 89.0909 155.271 88.5227C155.271 88.0227 155.37 87.6174 155.567 87.3068C155.764 86.9924 156.027 86.7462 156.357 86.5682C156.686 86.3902 157.05 86.2576 157.447 86.1705C157.849 86.0795 158.252 86.0076 158.658 85.9545C159.188 85.8864 159.618 85.8352 159.947 85.8011C160.281 85.7633 160.523 85.7008 160.675 85.6136C160.83 85.5265 160.908 85.375 160.908 85.1591V85.1136C160.908 84.553 160.754 84.1174 160.447 83.8068C160.144 83.4962 159.684 83.3409 159.067 83.3409C158.427 83.3409 157.925 83.4811 157.561 83.7614C157.197 84.0417 156.942 84.3409 156.794 84.6591L155.521 84.2045C155.749 83.6742 156.052 83.2614 156.43 82.9659C156.813 82.6667 157.23 82.4583 157.68 82.3409C158.135 82.2197 158.582 82.1591 159.021 82.1591C159.302 82.1591 159.624 82.1932 159.987 82.2614C160.355 82.3258 160.709 82.4602 161.05 82.6648C161.394 82.8693 161.68 83.178 161.908 83.5909C162.135 84.0038 162.249 84.5568 162.249 85.25V91H160.908V89.8182H160.839C160.749 90.0076 160.597 90.2102 160.385 90.4261C160.173 90.642 159.891 90.8258 159.538 90.9773C159.186 91.1288 158.756 91.2045 158.249 91.2045ZM158.453 90C158.983 90 159.43 89.8958 159.794 89.6875C160.161 89.4792 160.438 89.2102 160.624 88.8807C160.813 88.5511 160.908 88.2045 160.908 87.8409V86.6136C160.851 86.6818 160.726 86.7443 160.533 86.8011C160.343 86.8542 160.124 86.9015 159.874 86.9432C159.627 86.9811 159.387 87.0152 159.152 87.0455C158.921 87.072 158.733 87.0947 158.589 87.1136C158.241 87.1591 157.915 87.233 157.612 87.3352C157.313 87.4337 157.071 87.5833 156.885 87.7841C156.703 87.9811 156.612 88.25 156.612 88.5909C156.612 89.0568 156.785 89.4091 157.129 89.6477C157.478 89.8826 157.919 90 158.453 90ZM168.491 82.2727V83.4091H163.969V82.2727H168.491ZM165.287 80.1818H166.628V88.5C166.628 88.8788 166.683 89.1629 166.793 89.3523C166.906 89.5379 167.05 89.6629 167.224 89.7273C167.402 89.7879 167.59 89.8182 167.787 89.8182C167.935 89.8182 168.056 89.8106 168.151 89.7955C168.245 89.7765 168.321 89.7614 168.378 89.75L168.651 90.9545C168.56 90.9886 168.433 91.0227 168.27 91.0568C168.107 91.0947 167.901 91.1136 167.651 91.1136C167.272 91.1136 166.901 91.0322 166.537 90.8693C166.177 90.7064 165.878 90.4583 165.639 90.125C165.404 89.7917 165.287 89.3712 165.287 88.8636V80.1818ZM170.509 91V82.2727H171.849V91H170.509ZM171.19 80.8182C170.929 80.8182 170.704 80.7292 170.514 80.5511C170.329 80.3731 170.236 80.1591 170.236 79.9091C170.236 79.6591 170.329 79.4451 170.514 79.267C170.704 79.089 170.929 79 171.19 79C171.452 79 171.675 79.089 171.861 79.267C172.05 79.4451 172.145 79.6591 172.145 79.9091C172.145 80.1591 172.05 80.3731 171.861 80.5511C171.675 80.7292 171.452 80.8182 171.19 80.8182ZM181.442 82.2727L178.214 91H176.851L173.624 82.2727H175.078L177.487 89.2273H177.578L179.987 82.2727H181.442ZM186.558 91.1818C185.717 91.1818 184.992 90.9962 184.382 90.625C183.776 90.25 183.308 89.7273 182.979 89.0568C182.653 88.3826 182.49 87.5985 182.49 86.7045C182.49 85.8106 182.653 85.0227 182.979 84.3409C183.308 83.6553 183.767 83.1212 184.354 82.7386C184.945 82.3523 185.634 82.1591 186.422 82.1591C186.876 82.1591 187.325 82.2348 187.768 82.3864C188.212 82.5379 188.615 82.7841 188.979 83.125C189.342 83.4621 189.632 83.9091 189.848 84.4659C190.064 85.0227 190.172 85.7083 190.172 86.5227V87.0909H183.445V85.9318H188.808C188.808 85.4394 188.71 85 188.513 84.6136C188.32 84.2273 188.043 83.9223 187.683 83.6989C187.327 83.4754 186.907 83.3636 186.422 83.3636C185.888 83.3636 185.426 83.4962 185.036 83.7614C184.649 84.0227 184.352 84.3636 184.143 84.7841C183.935 85.2045 183.831 85.6553 183.831 86.1364V86.9091C183.831 87.5682 183.945 88.1269 184.172 88.5852C184.403 89.0398 184.723 89.3864 185.132 89.625C185.541 89.8598 186.017 89.9773 186.558 89.9773C186.911 89.9773 187.229 89.928 187.513 89.8295C187.801 89.7273 188.049 89.5758 188.257 89.375C188.465 89.1705 188.626 88.9167 188.74 88.6136L190.036 88.9773C189.899 89.4167 189.67 89.803 189.348 90.1364C189.026 90.4659 188.628 90.7235 188.155 90.9091C187.681 91.0909 187.149 91.1818 186.558 91.1818ZM200.007 91.1818C199.28 91.1818 198.638 90.9981 198.081 90.6307C197.524 90.2595 197.089 89.7367 196.774 89.0625C196.46 88.3845 196.303 87.5833 196.303 86.6591C196.303 85.7424 196.46 84.947 196.774 84.2727C197.089 83.5985 197.526 83.0777 198.087 82.7102C198.647 82.3428 199.295 82.1591 200.03 82.1591C200.598 82.1591 201.047 82.2538 201.376 82.4432C201.71 82.6288 201.964 82.8409 202.138 83.0795C202.316 83.3144 202.454 83.5076 202.553 83.6591H202.666V79.3636H204.007V91H202.712V89.6591H202.553C202.454 89.8182 202.314 90.0189 202.132 90.2614C201.95 90.5 201.691 90.714 201.354 90.9034C201.017 91.089 200.568 91.1818 200.007 91.1818ZM200.189 89.9773C200.727 89.9773 201.181 89.8371 201.553 89.5568C201.924 89.2727 202.206 88.8807 202.399 88.3807C202.592 87.8769 202.689 87.2955 202.689 86.6364C202.689 85.9848 202.594 85.4148 202.405 84.9261C202.215 84.4337 201.935 84.0511 201.564 83.7784C201.193 83.5019 200.734 83.3636 200.189 83.3636C199.621 83.3636 199.147 83.5095 198.768 83.8011C198.393 84.089 198.111 84.4811 197.922 84.9773C197.736 85.4697 197.643 86.0227 197.643 86.6364C197.643 87.2576 197.738 87.822 197.928 88.3295C198.121 88.8333 198.405 89.2348 198.78 89.5341C199.159 89.8295 199.628 89.9773 200.189 89.9773ZM206.649 91V82.2727H207.99V91H206.649ZM207.331 80.8182C207.07 80.8182 206.844 80.7292 206.655 80.5511C206.469 80.3731 206.376 80.1591 206.376 79.9091C206.376 79.6591 206.469 79.4451 206.655 79.267C206.844 79.089 207.07 79 207.331 79C207.592 79 207.816 79.089 208.001 79.267C208.191 79.4451 208.286 79.6591 208.286 79.9091C208.286 80.1591 208.191 80.3731 208.001 80.5511C207.816 80.7292 207.592 80.8182 207.331 80.8182ZM213.969 94.4545C213.321 94.4545 212.764 94.3712 212.298 94.2045C211.832 94.0417 211.444 93.8258 211.134 93.5568C210.827 93.2917 210.582 93.0076 210.401 92.7045L211.469 91.9545C211.59 92.1136 211.743 92.2955 211.929 92.5C212.115 92.7083 212.368 92.8883 212.69 93.0398C213.016 93.1951 213.442 93.2727 213.969 93.2727C214.673 93.2727 215.255 93.1023 215.713 92.7614C216.171 92.4205 216.401 91.8864 216.401 91.1591V89.3864H216.287C216.188 89.5455 216.048 89.7424 215.866 89.9773C215.688 90.2083 215.431 90.4148 215.094 90.5966C214.76 90.7746 214.31 90.8636 213.741 90.8636C213.037 90.8636 212.404 90.697 211.844 90.3636C211.287 90.0303 210.846 89.5455 210.52 88.9091C210.198 88.2727 210.037 87.5 210.037 86.5909C210.037 85.697 210.194 84.9186 210.509 84.2557C210.823 83.589 211.26 83.0739 211.821 82.7102C212.382 82.3428 213.029 82.1591 213.764 82.1591C214.332 82.1591 214.783 82.2538 215.116 82.4432C215.454 82.6288 215.711 82.8409 215.889 83.0795C216.071 83.3144 216.211 83.5076 216.31 83.6591H216.446V82.2727H217.741V91.25C217.741 92 217.571 92.6098 217.23 93.0795C216.893 93.553 216.438 93.8996 215.866 94.1193C215.298 94.3428 214.666 94.4545 213.969 94.4545ZM213.923 89.6591C214.461 89.6591 214.916 89.536 215.287 89.2898C215.658 89.0436 215.94 88.6894 216.134 88.2273C216.327 87.7652 216.423 87.2121 216.423 86.5682C216.423 85.9394 216.329 85.3845 216.139 84.9034C215.95 84.4223 215.67 84.0455 215.298 83.7727C214.927 83.5 214.469 83.3636 213.923 83.3636C213.355 83.3636 212.882 83.5076 212.503 83.7955C212.128 84.0833 211.846 84.4697 211.656 84.9545C211.471 85.4394 211.378 85.9773 211.378 86.5682C211.378 87.1742 211.473 87.7102 211.662 88.1761C211.855 88.6383 212.139 89.0019 212.514 89.267C212.893 89.5284 213.363 89.6591 213.923 89.6591ZM220.196 91V82.2727H221.537V91H220.196ZM220.878 80.8182C220.616 80.8182 220.391 80.7292 220.202 80.5511C220.016 80.3731 219.923 80.1591 219.923 79.9091C219.923 79.6591 220.016 79.4451 220.202 79.267C220.391 79.089 220.616 79 220.878 79C221.139 79 221.363 79.089 221.548 79.267C221.738 79.4451 221.832 79.6591 221.832 79.9091C221.832 80.1591 221.738 80.3731 221.548 80.5511C221.363 80.7292 221.139 80.8182 220.878 80.8182ZM227.788 82.2727V83.4091H223.266V82.2727H227.788ZM224.584 80.1818H225.925V88.5C225.925 88.8788 225.98 89.1629 226.089 89.3523C226.203 89.5379 226.347 89.6629 226.521 89.7273C226.699 89.7879 226.887 89.8182 227.084 89.8182C227.232 89.8182 227.353 89.8106 227.447 89.7955C227.542 89.7765 227.618 89.7614 227.675 89.75L227.947 90.9545C227.857 90.9886 227.73 91.0227 227.567 91.0568C227.404 91.0947 227.197 91.1136 226.947 91.1136C226.569 91.1136 226.197 91.0322 225.834 90.8693C225.474 90.7064 225.175 90.4583 224.936 90.125C224.701 89.7917 224.584 89.3712 224.584 88.8636V80.1818ZM232.374 91.2045C231.821 91.2045 231.319 91.1004 230.868 90.892C230.417 90.6799 230.059 90.375 229.794 89.9773C229.529 89.5758 229.396 89.0909 229.396 88.5227C229.396 88.0227 229.495 87.6174 229.692 87.3068C229.889 86.9924 230.152 86.7462 230.482 86.5682C230.811 86.3902 231.175 86.2576 231.572 86.1705C231.974 86.0795 232.377 86.0076 232.783 85.9545C233.313 85.8864 233.743 85.8352 234.072 85.8011C234.406 85.7633 234.648 85.7008 234.8 85.6136C234.955 85.5265 235.033 85.375 235.033 85.1591V85.1136C235.033 84.553 234.879 84.1174 234.572 83.8068C234.269 83.4962 233.809 83.3409 233.192 83.3409C232.552 83.3409 232.05 83.4811 231.686 83.7614C231.322 84.0417 231.067 84.3409 230.919 84.6591L229.646 84.2045C229.874 83.6742 230.177 83.2614 230.555 82.9659C230.938 82.6667 231.355 82.4583 231.805 82.3409C232.26 82.2197 232.707 82.1591 233.146 82.1591C233.427 82.1591 233.749 82.1932 234.112 82.2614C234.48 82.3258 234.834 82.4602 235.175 82.6648C235.519 82.8693 235.805 83.178 236.033 83.5909C236.26 84.0038 236.374 84.5568 236.374 85.25V91H235.033V89.8182H234.964C234.874 90.0076 234.722 90.2102 234.51 90.4261C234.298 90.642 234.016 90.8258 233.663 90.9773C233.311 91.1288 232.881 91.2045 232.374 91.2045ZM232.578 90C233.108 90 233.555 89.8958 233.919 89.6875C234.286 89.4792 234.563 89.2102 234.749 88.8807C234.938 88.5511 235.033 88.2045 235.033 87.8409V86.6136C234.976 86.6818 234.851 86.7443 234.658 86.8011C234.468 86.8542 234.249 86.9015 233.999 86.9432C233.752 86.9811 233.512 87.0152 233.277 87.0455C233.046 87.072 232.858 87.0947 232.714 87.1136C232.366 87.1591 232.04 87.233 231.737 87.3352C231.438 87.4337 231.196 87.5833 231.01 87.7841C230.828 87.9811 230.737 88.25 230.737 88.5909C230.737 89.0568 230.91 89.4091 231.254 89.6477C231.603 89.8826 232.044 90 232.578 90ZM240.162 79.3636V91H238.821V79.3636H240.162ZM250.777 91.1818C249.936 91.1818 249.211 90.9962 248.601 90.625C247.995 90.25 247.527 89.7273 247.197 89.0568C246.872 88.3826 246.709 87.5985 246.709 86.7045C246.709 85.8106 246.872 85.0227 247.197 84.3409C247.527 83.6553 247.985 83.1212 248.572 82.7386C249.163 82.3523 249.853 82.1591 250.641 82.1591C251.095 82.1591 251.544 82.2348 251.987 82.3864C252.43 82.5379 252.834 82.7841 253.197 83.125C253.561 83.4621 253.851 83.9091 254.067 84.4659C254.283 85.0227 254.391 85.7083 254.391 86.5227V87.0909H247.663V85.9318H253.027C253.027 85.4394 252.929 85 252.732 84.6136C252.538 84.2273 252.262 83.9223 251.902 83.6989C251.546 83.4754 251.125 83.3636 250.641 83.3636C250.107 83.3636 249.644 83.4962 249.254 83.7614C248.868 84.0227 248.571 84.3636 248.362 84.7841C248.154 85.2045 248.05 85.6553 248.05 86.1364V86.9091C248.05 87.5682 248.163 88.1269 248.391 88.5852C248.622 89.0398 248.942 89.3864 249.351 89.625C249.76 89.8598 250.235 89.9773 250.777 89.9773C251.129 89.9773 251.447 89.928 251.732 89.8295C252.019 89.7273 252.268 89.5758 252.476 89.375C252.684 89.1705 252.845 88.9167 252.959 88.6136L254.254 88.9773C254.118 89.4167 253.889 89.803 253.567 90.1364C253.245 90.4659 252.847 90.7235 252.374 90.9091C251.9 91.0909 251.368 91.1818 250.777 91.1818ZM257.196 82.2727L259.287 85.8409L261.378 82.2727H262.923L260.105 86.6364L262.923 91H261.378L259.287 87.6136L257.196 91H255.651L258.423 86.6364L255.651 82.2727H257.196ZM264.837 94.2727V82.2727H266.132V83.6591H266.291C266.39 83.5076 266.526 83.3144 266.7 83.0795C266.878 82.8409 267.132 82.6288 267.462 82.4432C267.795 82.2538 268.246 82.1591 268.814 82.1591C269.549 82.1591 270.196 82.3428 270.757 82.7102C271.318 83.0777 271.755 83.5985 272.07 84.2727C272.384 84.947 272.541 85.7424 272.541 86.6591C272.541 87.5833 272.384 88.3845 272.07 89.0625C271.755 89.7367 271.32 90.2595 270.763 90.6307C270.206 90.9981 269.564 91.1818 268.837 91.1818C268.276 91.1818 267.827 91.089 267.49 90.9034C267.153 90.714 266.893 90.5 266.712 90.2614C266.53 90.0189 266.39 89.8182 266.291 89.6591H266.178V94.2727H264.837ZM266.155 86.6364C266.155 87.2955 266.251 87.8769 266.445 88.3807C266.638 88.8807 266.92 89.2727 267.291 89.5568C267.662 89.8371 268.117 89.9773 268.655 89.9773C269.215 89.9773 269.683 89.8295 270.058 89.5341C270.437 89.2348 270.721 88.8333 270.911 88.3295C271.104 87.822 271.2 87.2576 271.2 86.6364C271.2 86.0227 271.106 85.4697 270.916 84.9773C270.731 84.4811 270.448 84.089 270.07 83.8011C269.695 83.5095 269.223 83.3636 268.655 83.3636C268.109 83.3636 267.651 83.5019 267.28 83.7784C266.909 84.0511 266.628 84.4337 266.439 84.9261C266.25 85.4148 266.155 85.9848 266.155 86.6364ZM278.246 91.1818C277.405 91.1818 276.679 90.9962 276.07 90.625C275.464 90.25 274.996 89.7273 274.666 89.0568C274.34 88.3826 274.178 87.5985 274.178 86.7045C274.178 85.8106 274.34 85.0227 274.666 84.3409C274.996 83.6553 275.454 83.1212 276.041 82.7386C276.632 82.3523 277.321 82.1591 278.109 82.1591C278.564 82.1591 279.013 82.2348 279.456 82.3864C279.899 82.5379 280.303 82.7841 280.666 83.125C281.03 83.4621 281.32 83.9091 281.536 84.4659C281.751 85.0227 281.859 85.7083 281.859 86.5227V87.0909H275.132V85.9318H280.496C280.496 85.4394 280.397 85 280.2 84.6136C280.007 84.2273 279.731 83.9223 279.371 83.6989C279.015 83.4754 278.594 83.3636 278.109 83.3636C277.575 83.3636 277.113 83.4962 276.723 83.7614C276.337 84.0227 276.039 84.3636 275.831 84.7841C275.623 85.2045 275.518 85.6553 275.518 86.1364V86.9091C275.518 87.5682 275.632 88.1269 275.859 88.5852C276.09 89.0398 276.411 89.3864 276.82 89.625C277.229 89.8598 277.704 89.9773 278.246 89.9773C278.598 89.9773 278.916 89.928 279.2 89.8295C279.488 89.7273 279.736 89.5758 279.945 89.375C280.153 89.1705 280.314 88.9167 280.428 88.6136L281.723 88.9773C281.587 89.4167 281.357 89.803 281.036 90.1364C280.714 90.4659 280.316 90.7235 279.842 90.9091C279.369 91.0909 278.837 91.1818 278.246 91.1818ZM283.899 91V82.2727H285.195V83.5909H285.286C285.445 83.1591 285.732 82.8087 286.149 82.5398C286.566 82.2708 287.036 82.1364 287.558 82.1364C287.657 82.1364 287.78 82.1383 287.928 82.142C288.075 82.1458 288.187 82.1515 288.263 82.1591V83.5227C288.217 83.5114 288.113 83.4943 287.95 83.4716C287.791 83.4451 287.623 83.4318 287.445 83.4318C287.02 83.4318 286.642 83.5208 286.308 83.6989C285.979 83.8731 285.717 84.1155 285.524 84.4261C285.335 84.733 285.24 85.0833 285.24 85.4773V91H283.899ZM289.852 91V82.2727H291.193V91H289.852ZM290.534 80.8182C290.273 80.8182 290.047 80.7292 289.858 80.5511C289.672 80.3731 289.58 80.1591 289.58 79.9091C289.58 79.6591 289.672 79.4451 289.858 79.267C290.047 79.089 290.273 79 290.534 79C290.795 79 291.019 79.089 291.205 79.267C291.394 79.4451 291.489 79.6591 291.489 79.9091C291.489 80.1591 291.394 80.3731 291.205 80.5511C291.019 80.7292 290.795 80.8182 290.534 80.8182ZM297.308 91.1818C296.467 91.1818 295.742 90.9962 295.132 90.625C294.526 90.25 294.058 89.7273 293.729 89.0568C293.403 88.3826 293.24 87.5985 293.24 86.7045C293.24 85.8106 293.403 85.0227 293.729 84.3409C294.058 83.6553 294.517 83.1212 295.104 82.7386C295.695 82.3523 296.384 82.1591 297.172 82.1591C297.626 82.1591 298.075 82.2348 298.518 82.3864C298.962 82.5379 299.365 82.7841 299.729 83.125C300.092 83.4621 300.382 83.9091 300.598 84.4659C300.814 85.0227 300.922 85.7083 300.922 86.5227V87.0909H294.195V85.9318H299.558C299.558 85.4394 299.46 85 299.263 84.6136C299.07 84.2273 298.793 83.9223 298.433 83.6989C298.077 83.4754 297.657 83.3636 297.172 83.3636C296.638 83.3636 296.176 83.4962 295.786 83.7614C295.399 84.0227 295.102 84.3636 294.893 84.7841C294.685 85.2045 294.581 85.6553 294.581 86.1364V86.9091C294.581 87.5682 294.695 88.1269 294.922 88.5852C295.153 89.0398 295.473 89.3864 295.882 89.625C296.291 89.8598 296.767 89.9773 297.308 89.9773C297.661 89.9773 297.979 89.928 298.263 89.8295C298.551 89.7273 298.799 89.5758 299.007 89.375C299.215 89.1705 299.376 88.9167 299.49 88.6136L300.786 88.9773C300.649 89.4167 300.42 89.803 300.098 90.1364C299.776 90.4659 299.378 90.7235 298.905 90.9091C298.431 91.0909 297.899 91.1818 297.308 91.1818ZM304.303 85.75V91H302.962V82.2727H304.257V83.6364H304.371C304.575 83.1932 304.886 82.8371 305.303 82.5682C305.719 82.2955 306.257 82.1591 306.916 82.1591C307.507 82.1591 308.024 82.2803 308.467 82.5227C308.911 82.7614 309.255 83.125 309.501 83.6136C309.748 84.0985 309.871 84.7121 309.871 85.4545V91H308.53V85.5455C308.53 84.8598 308.352 84.3258 307.996 83.9432C307.64 83.5568 307.151 83.3636 306.53 83.3636C306.102 83.3636 305.719 83.4564 305.382 83.642C305.049 83.8277 304.786 84.0985 304.592 84.4545C304.399 84.8106 304.303 85.2424 304.303 85.75ZM315.866 91.1818C315.048 91.1818 314.344 90.9886 313.753 90.6023C313.162 90.2159 312.707 89.6837 312.389 89.0057C312.071 88.3277 311.912 87.553 311.912 86.6818C311.912 85.7955 312.075 85.0133 312.401 84.3352C312.73 83.6534 313.188 83.1212 313.776 82.7386C314.366 82.3523 315.056 82.1591 315.844 82.1591C316.457 82.1591 317.01 82.2727 317.503 82.5C317.995 82.7273 318.399 83.0455 318.713 83.4545C319.027 83.8636 319.223 84.3409 319.298 84.8864H317.957C317.855 84.4886 317.628 84.1364 317.276 83.8295C316.927 83.5189 316.457 83.3636 315.866 83.3636C315.344 83.3636 314.885 83.5 314.491 83.7727C314.101 84.0417 313.796 84.4223 313.577 84.9148C313.361 85.4034 313.253 85.9773 313.253 86.6364C313.253 87.3106 313.359 87.8977 313.571 88.3977C313.787 88.8977 314.09 89.286 314.48 89.5625C314.874 89.839 315.336 89.9773 315.866 89.9773C316.215 89.9773 316.531 89.9167 316.815 89.7955C317.099 89.6742 317.34 89.5 317.537 89.2727C317.734 89.0455 317.874 88.7727 317.957 88.4545H319.298C319.223 88.9697 319.035 89.4337 318.736 89.8466C318.44 90.2557 318.048 90.5814 317.56 90.8239C317.075 91.0625 316.51 91.1818 315.866 91.1818ZM324.918 91.1818C324.077 91.1818 323.351 90.9962 322.741 90.625C322.135 90.25 321.668 89.7273 321.338 89.0568C321.012 88.3826 320.849 87.5985 320.849 86.7045C320.849 85.8106 321.012 85.0227 321.338 84.3409C321.668 83.6553 322.126 83.1212 322.713 82.7386C323.304 82.3523 323.993 82.1591 324.781 82.1591C325.236 82.1591 325.685 82.2348 326.128 82.3864C326.571 82.5379 326.974 82.7841 327.338 83.125C327.702 83.4621 327.991 83.9091 328.207 84.4659C328.423 85.0227 328.531 85.7083 328.531 86.5227V87.0909H321.804V85.9318H327.168C327.168 85.4394 327.069 85 326.872 84.6136C326.679 84.2273 326.402 83.9223 326.043 83.6989C325.687 83.4754 325.266 83.3636 324.781 83.3636C324.247 83.3636 323.785 83.4962 323.395 83.7614C323.009 84.0227 322.711 84.3636 322.503 84.7841C322.295 85.2045 322.19 85.6553 322.19 86.1364V86.9091C322.19 87.5682 322.304 88.1269 322.531 88.5852C322.762 89.0398 323.082 89.3864 323.491 89.625C323.901 89.8598 324.376 89.9773 324.918 89.9773C325.27 89.9773 325.588 89.928 325.872 89.8295C326.16 89.7273 326.408 89.5758 326.616 89.375C326.825 89.1705 326.986 88.9167 327.099 88.6136L328.395 88.9773C328.259 89.4167 328.029 89.803 327.707 90.1364C327.385 90.4659 326.988 90.7235 326.514 90.9091C326.041 91.0909 325.509 91.1818 324.918 91.1818Z" fill="#C8C8C8"/>
<path d="M97.56 24.88V23.88H96.56V24.88H97.56ZM97.56 33.04H96.56V34.04H97.56V33.04ZM107.16 33.04H108.16V32.04H107.16V33.04ZM107.16 36.76V37.76H108.16V36.76H107.16ZM97.56 36.76V35.76H96.56V36.76H97.56ZM97.56 45.28H96.56V46.28H97.56V45.28ZM108.36 45.28H109.36V44.28H108.36V45.28ZM108.36 49V50H109.36V49H108.36ZM93 49H92V50H93V49ZM93 21.16V20.16H92V21.16H93ZM108.36 21.16H109.36V20.16H108.36V21.16ZM108.36 24.88V25.88H109.36V24.88H108.36ZM96.56 24.88V33.04H98.56V24.88H96.56ZM97.56 34.04H107.16V32.04H97.56V34.04ZM106.16 33.04V36.76H108.16V33.04H106.16ZM107.16 35.76H97.56V37.76H107.16V35.76ZM96.56 36.76V45.28H98.56V36.76H96.56ZM97.56 46.28H108.36V44.28H97.56V46.28ZM107.36 45.28V49H109.36V45.28H107.36ZM108.36 48H93V50H108.36V48ZM94 49V21.16H92V49H94ZM93 22.16H108.36V20.16H93V22.16ZM107.36 21.16V24.88H109.36V21.16H107.36ZM108.36 23.88H97.56V25.88H108.36V23.88ZM122.537 30.16H121.537V33.7951L123.396 30.6715L122.537 30.16ZM125.177 27.56L125.666 28.4322L125.673 28.4282L125.177 27.56ZM129.137 26.6H130.137V25.6H129.137V26.6ZM129.137 31.32V32.32H130.137V31.32H129.137ZM123.897 32.68L123.2 31.9627L123.195 31.9678L123.189 31.9729L123.897 32.68ZM122.537 49V50H123.537V49H122.537ZM117.977 49H116.977V50H117.977V49ZM117.977 26.96V25.96H116.977V26.96H117.977ZM122.537 26.96H123.537V25.96H122.537V26.96ZM123.396 30.6715C123.977 29.6958 124.732 28.9563 125.666 28.4321L124.687 26.6879C123.435 27.3904 122.43 28.3842 121.677 29.6485L123.396 30.6715ZM125.673 28.4282C126.617 27.8889 127.759 27.6 129.137 27.6V25.6C127.474 25.6 125.976 25.9511 124.68 26.6918L125.673 28.4282ZM128.137 26.6V31.32H130.137V26.6H128.137ZM129.137 30.32H127.977V32.32H129.137V30.32ZM127.977 30.32C126.028 30.32 124.38 30.8159 123.2 31.9627L124.593 33.3973C125.28 32.7307 126.351 32.32 127.977 32.32V30.32ZM123.189 31.9729C121.997 33.1658 121.537 35.0782 121.537 37.4H123.537C123.537 35.2418 123.983 34.0075 124.604 33.3871L123.189 31.9729ZM121.537 37.4V49H123.537V37.4H121.537ZM122.537 48H117.977V50H122.537V48ZM118.977 49V26.96H116.977V49H118.977ZM117.977 27.96H122.537V25.96H117.977V27.96ZM121.537 26.96V30.16H123.537V26.96H121.537ZM141.888 30.16H140.888V33.7951L142.747 30.6715L141.888 30.16ZM144.528 27.56L145.017 28.4322L145.024 28.4282L144.528 27.56ZM148.488 26.6H149.488V25.6H148.488V26.6ZM148.488 31.32V32.32H149.488V31.32H148.488ZM143.248 32.68L142.551 31.9627L142.546 31.9678L142.541 31.9729L143.248 32.68ZM141.888 49V50H142.888V49H141.888ZM137.328 49H136.328V50H137.328V49ZM137.328 26.96V25.96H136.328V26.96H137.328ZM141.888 26.96H142.888V25.96H141.888V26.96ZM142.747 30.6715C143.328 29.6958 144.083 28.9563 145.017 28.4321L144.039 26.6879C142.787 27.3904 141.781 28.3842 141.029 29.6485L142.747 30.6715ZM145.024 28.4282C145.968 27.8889 147.111 27.6 148.488 27.6V25.6C146.825 25.6 145.328 25.9511 144.032 26.6918L145.024 28.4282ZM147.488 26.6V31.32H149.488V26.6H147.488ZM148.488 30.32H147.328V32.32H148.488V30.32ZM147.328 30.32C145.38 30.32 143.732 30.8159 142.551 31.9627L143.945 33.3973C144.631 32.7307 145.703 32.32 147.328 32.32V30.32ZM142.541 31.9729C141.348 33.1658 140.888 35.0782 140.888 37.4H142.888C142.888 35.2418 143.335 34.0075 143.955 33.3871L142.541 31.9729ZM140.888 37.4V49H142.888V37.4H140.888ZM141.888 48H137.328V50H141.888V48ZM138.328 49V26.96H136.328V49H138.328ZM137.328 27.96H141.888V25.96H137.328V27.96ZM140.888 26.96V30.16H142.888V26.96H140.888ZM160.6 47.96L160.104 48.8283L160.114 48.8342L160.6 47.96ZM156.64 43.96L155.765 44.4445L155.768 44.4503L156.64 43.96ZM160.72 28L160.24 27.1226L160.24 27.1226L160.72 28ZM172.16 28L172.64 27.1226L172.64 27.1226L172.16 28ZM176.16 43.92L175.296 43.4153L176.16 43.92ZM172 47.96L172.474 48.8405L172.479 48.8379L172 47.96ZM169.52 44.56L169.046 43.6795L169.036 43.6848L169.52 44.56ZM172.04 42.04L171.171 41.5439L171.171 41.5439L172.04 42.04ZM172.08 33.92L171.203 34.4003L171.208 34.4093L172.08 33.92ZM163.08 31.4L162.596 30.5247L162.586 30.5303L163.08 31.4ZM160.72 33.92L161.601 34.3928L161.606 34.384L160.72 33.92ZM161.64 43.48L160.903 44.1564L160.91 44.1642L160.918 44.1719L161.64 43.48ZM166.24 48.36C164.315 48.36 162.605 47.9299 161.085 47.0858L160.114 48.8342C161.955 49.8567 164.004 50.36 166.24 50.36V48.36ZM161.096 47.0918C159.575 46.2226 158.384 45.0208 157.511 43.4697L155.768 44.4503C156.816 46.3126 158.265 47.7774 160.104 48.8282L161.096 47.0918ZM157.514 43.4755C156.648 41.9106 156.2 40.0819 156.2 37.96H154.2C154.2 40.3715 154.712 42.5427 155.765 44.4445L157.514 43.4755ZM156.2 37.96C156.2 35.8717 156.658 34.0594 157.549 32.4947L155.811 31.5053C154.728 33.4072 154.2 35.5683 154.2 37.96H156.2ZM157.549 32.4947C158.446 30.9183 159.66 29.7194 161.2 28.8774L160.24 27.1226C158.366 28.1473 156.887 29.6151 155.811 31.5053L157.549 32.4947ZM161.2 28.8774C162.747 28.0311 164.486 27.6 166.44 27.6V25.6C164.18 25.6 162.106 26.1022 160.24 27.1226L161.2 28.8774ZM166.44 27.6C168.393 27.6 170.132 28.0311 171.68 28.8774L172.64 27.1226C170.774 26.1022 168.7 25.6 166.44 25.6V27.6ZM171.68 28.8774C173.22 29.7194 174.433 30.9183 175.331 32.4947L177.069 31.5053C175.993 29.6151 174.513 28.1473 172.64 27.1226L171.68 28.8774ZM175.331 32.4947C176.221 34.0594 176.68 35.8717 176.68 37.96H178.68C178.68 35.5683 178.151 33.4072 177.069 31.5053L175.331 32.4947ZM176.68 37.96C176.68 40.0436 176.21 41.8523 175.296 43.4153L177.023 44.4247C178.136 42.5211 178.68 40.3564 178.68 37.96H176.68ZM175.296 43.4153C174.375 44.9918 173.121 46.2094 171.521 47.0821L172.479 48.8379C174.399 47.7906 175.918 46.3148 177.023 44.4247L175.296 43.4153ZM171.526 47.0795C169.948 47.9289 168.193 48.36 166.24 48.36V50.36C168.5 50.36 170.585 49.8577 172.474 48.8405L171.526 47.0795ZM166.24 46.4C167.58 46.4 168.84 46.0782 170.003 45.4352L169.036 43.6848C168.173 44.1618 167.246 44.4 166.24 44.4V46.4ZM169.994 45.4405C171.214 44.7837 172.184 43.8031 172.908 42.5361L171.171 41.5439C170.615 42.5169 169.906 43.2163 169.046 43.6795L169.994 45.4405ZM172.908 42.5361C173.653 41.2328 174 39.6926 174 37.96H172C172 39.4274 171.707 40.6072 171.171 41.5439L172.908 42.5361ZM174 37.96C174 36.235 173.669 34.7093 172.952 33.4307L171.208 34.4093C171.717 35.3174 172 36.485 172 37.96H174ZM172.957 33.4397C172.262 32.1711 171.319 31.1858 170.123 30.5248L169.156 32.2752C169.987 32.7342 170.671 33.4289 171.203 34.4003L172.957 33.4397ZM170.123 30.5248C168.96 29.8818 167.7 29.56 166.36 29.56V31.56C167.366 31.56 168.293 31.7982 169.156 32.2752L170.123 30.5248ZM166.36 29.56C165.02 29.56 163.759 29.8818 162.596 30.5248L163.563 32.2752C164.427 31.7982 165.353 31.56 166.36 31.56V29.56ZM162.586 30.5303C161.414 31.1957 160.499 32.186 159.834 33.456L161.606 34.384C162.114 33.414 162.772 32.7243 163.573 32.2697L162.586 30.5303ZM159.839 33.4472C159.155 34.722 158.84 36.2414 158.84 37.96H160.84C160.84 36.4786 161.112 35.3047 161.601 34.3928L159.839 33.4472ZM158.84 37.96C158.84 40.4976 159.483 42.6103 160.903 44.1564L162.376 42.8036C161.396 41.7364 160.84 40.169 160.84 37.96H158.84ZM160.918 44.1719C162.341 45.6569 164.139 46.4 166.24 46.4V44.4C164.661 44.4 163.392 43.8631 162.362 42.7881L160.918 44.1719ZM190.748 30.16H189.748V33.7951L191.607 30.6715L190.748 30.16ZM193.388 27.56L193.877 28.4322L193.884 28.4282L193.388 27.56ZM197.348 26.6H198.348V25.6H197.348V26.6ZM197.348 31.32V32.32H198.348V31.32H197.348ZM192.108 32.68L191.411 31.9627L191.406 31.9678L191.4 31.9729L192.108 32.68ZM190.748 49V50H191.748V49H190.748ZM186.188 49H185.188V50H186.188V49ZM186.188 26.96V25.96H185.188V26.96H186.188ZM190.748 26.96H191.748V25.96H190.748V26.96ZM191.607 30.6715C192.188 29.6958 192.942 28.9563 193.877 28.4321L192.898 26.6879C191.646 27.3904 190.641 28.3842 189.888 29.6485L191.607 30.6715ZM193.884 28.4282C194.828 27.8889 195.97 27.6 197.348 27.6V25.6C195.685 25.6 194.187 25.9511 192.891 26.6918L193.884 28.4282ZM196.348 26.6V31.32H198.348V26.6H196.348ZM197.348 30.32H196.188V32.32H197.348V30.32ZM196.188 30.32C194.239 30.32 192.591 30.8159 191.411 31.9627L192.804 33.3973C193.49 32.7307 194.562 32.32 196.188 32.32V30.32ZM191.4 31.9729C190.207 33.1658 189.748 35.0782 189.748 37.4H191.748C191.748 35.2418 192.194 34.0075 192.815 33.3871L191.4 31.9729ZM189.748 37.4V49H191.748V37.4H189.748ZM190.748 48H186.188V50H190.748V48ZM187.188 49V26.96H185.188V49H187.188ZM186.188 27.96H190.748V25.96H186.188V27.96ZM189.748 26.96V30.16H191.748V26.96H189.748ZM220.419 34.72L220.087 33.7767L216.505 35.0369L220.243 35.7044L220.419 34.72ZM224.219 37.08L225.001 36.4573L225.001 36.4573L224.219 37.08ZM224.659 45.36L223.821 44.8143L223.818 44.8192L224.659 45.36ZM221.499 48.04L221.918 48.948L221.925 48.9447L221.932 48.9413L221.499 48.04ZM205.539 49H204.539V50H205.539V49ZM205.539 21.2V20.2H204.539V21.2H205.539ZM221.019 22.16L220.593 23.0648L220.593 23.0648L221.019 22.16ZM224.099 24.76L223.255 25.2956L223.261 25.305L224.099 24.76ZM223.859 32.36L224.64 32.9847L224.64 32.9847L223.859 32.36ZM210.099 32.88H209.099V33.88H210.099V32.88ZM219.219 31.88L219.847 32.6584L219.85 32.6561L219.219 31.88ZM219.219 26L218.562 26.7541L218.575 26.7653L218.588 26.7761L219.219 26ZM210.099 24.92V23.92H209.099V24.92H210.099ZM219.899 44.16L219.252 43.3975L219.252 43.3975L219.899 44.16ZM210.099 36.6V35.6H209.099V36.6H210.099ZM210.099 45.28H209.099V46.28H210.099V45.28ZM220.243 35.7044C221.472 35.9239 222.532 36.5657 223.437 37.7027L225.001 36.4573C223.826 34.981 222.352 34.0494 220.595 33.7356L220.243 35.7044ZM223.437 37.7027C224.337 38.8344 224.779 40.0954 224.779 41.52H226.779C226.779 39.638 226.181 37.939 225.001 36.4573L223.437 37.7027ZM224.779 41.52C224.779 42.7463 224.458 43.8356 223.821 44.8143L225.497 45.9057C226.353 44.5911 226.779 43.1203 226.779 41.52H224.779ZM223.818 44.8192C223.213 45.7607 222.312 46.5395 221.066 47.1387L221.932 48.9413C223.459 48.2071 224.665 47.1993 225.5 45.9008L223.818 44.8192ZM221.08 47.132C219.849 47.7003 218.384 48 216.659 48V50C218.615 50 220.376 49.6597 221.918 48.948L221.08 47.132ZM216.659 48H205.539V50H216.659V48ZM206.539 49V21.2H204.539V49H206.539ZM205.539 22.2H216.139V20.2H205.539V22.2ZM216.139 22.2C217.922 22.2 219.396 22.5016 220.593 23.0648L221.445 21.2552C219.922 20.5384 218.143 20.2 216.139 20.2V22.2ZM220.593 23.0648C221.81 23.6373 222.678 24.387 223.255 25.2955L224.944 24.2245C224.133 22.9463 222.948 21.9627 221.445 21.2552L220.593 23.0648ZM223.261 25.305C223.843 26.2014 224.139 27.2103 224.139 28.36H226.139C226.139 26.843 225.741 25.4519 224.938 24.215L223.261 25.305ZM224.139 28.36C224.139 29.7736 223.766 30.8753 223.078 31.7353L224.64 32.9847C225.659 31.7114 226.139 30.1464 226.139 28.36H224.139ZM223.078 31.7353C222.355 32.6391 221.372 33.3246 220.087 33.7767L220.751 35.6633C222.346 35.1021 223.656 34.2142 224.64 32.9847L223.078 31.7353ZM210.099 33.88H215.739V31.88H210.099V33.88ZM215.739 33.88C217.37 33.88 218.782 33.5168 219.847 32.6584L218.591 31.1016C218.002 31.5765 217.095 31.88 215.739 31.88V33.88ZM219.85 32.6561C220.976 31.7406 221.499 30.4458 221.499 28.92H219.499C219.499 29.9542 219.168 30.6328 218.588 31.1039L219.85 32.6561ZM221.499 28.92C221.499 27.413 220.971 26.1351 219.85 25.2239L218.588 26.7761C219.174 27.2515 219.499 27.9204 219.499 28.92H221.499ZM219.876 25.2459C218.81 24.3179 217.386 23.92 215.739 23.92V25.92C217.079 25.92 217.975 26.2421 218.562 26.7541L219.876 25.2459ZM215.739 23.92H210.099V25.92H215.739V23.92ZM209.099 24.92V32.88H211.099V24.92H209.099ZM216.259 46.28C217.962 46.28 219.432 45.8679 220.546 44.9225L219.252 43.3975C218.606 43.9454 217.65 44.28 216.259 44.28V46.28ZM220.546 44.9225C221.686 43.9553 222.219 42.6163 222.219 41.04H220.219C220.219 42.1304 219.872 42.8714 219.252 43.3975L220.546 44.9225ZM222.219 41.04C222.219 39.423 221.65 38.0523 220.47 37.0407L219.168 38.5593C219.855 39.1477 220.219 39.937 220.219 41.04H222.219ZM220.47 37.0407C219.312 36.0485 217.821 35.6 216.099 35.6V37.6C217.471 37.6 218.459 37.9515 219.168 38.5593L220.47 37.0407ZM216.099 35.6H210.099V37.6H216.099V35.6ZM209.099 36.6V45.28H211.099V36.6H209.099ZM210.099 46.28H216.259V44.28H210.099V46.28ZM254.694 26.96H255.694V25.96H254.694V26.96ZM254.694 49V50H255.694V49H254.694ZM250.134 49H249.134V50H250.134V49ZM250.134 46.4H251.134V43.5327L249.351 45.7781L250.134 46.4ZM247.294 48.56L247.699 49.4747L247.708 49.4704L247.294 48.56ZM238.934 48.24L238.466 49.1238L238.474 49.1275L238.934 48.24ZM235.694 45.04L234.817 45.52L234.821 45.5263L234.824 45.5326L235.694 45.04ZM234.534 26.96V25.96H233.534V26.96H234.534ZM239.054 26.96H240.054V25.96H239.054V26.96ZM240.534 43.8L239.8 44.4791L239.809 44.4883L240.534 43.8ZM248.614 43.8L247.889 43.1113L247.889 43.1117L248.614 43.8ZM250.134 26.96V25.96H249.134V26.96H250.134ZM253.694 26.96V49H255.694V26.96H253.694ZM254.694 48H250.134V50H254.694V48ZM251.134 49V46.4H249.134V49H251.134ZM249.351 45.7781C248.74 46.5472 247.926 47.1743 246.881 47.6496L247.708 49.4704C249.009 48.879 250.088 48.0661 250.917 47.0219L249.351 45.7781ZM246.89 47.6453C245.876 48.0933 244.788 48.32 243.614 48.32V50.32C245.054 50.32 246.419 50.04 247.699 49.4747L246.89 47.6453ZM243.614 48.32C242.024 48.32 240.624 47.9908 239.395 47.3525L238.474 49.1275C240.018 49.9292 241.738 50.32 243.614 50.32V48.32ZM239.402 47.3562C238.221 46.7306 237.276 45.8043 236.565 44.5474L234.824 45.5326C235.713 47.1024 236.928 48.3094 238.466 49.1238L239.402 47.3562ZM236.572 44.56C235.896 43.3253 235.534 41.7922 235.534 39.92H233.534C233.534 42.0478 233.946 43.9281 234.817 45.52L236.572 44.56ZM235.534 39.92V26.96H233.534V39.92H235.534ZM234.534 27.96H239.054V25.96H234.534V27.96ZM238.054 26.96V39.24H240.054V26.96H238.054ZM238.054 39.24C238.054 41.3736 238.589 43.1699 239.8 44.479L241.268 43.121C240.506 42.2968 240.054 41.053 240.054 39.24H238.054ZM239.809 44.4883C241.02 45.7649 242.65 46.36 244.574 46.36V44.36C243.086 44.36 242.022 43.9151 241.26 43.1117L239.809 44.4883ZM244.574 46.36C246.499 46.36 248.129 45.7649 249.34 44.4883L247.889 43.1117C247.127 43.9151 246.063 44.36 244.574 44.36V46.36ZM249.339 44.4887C250.583 43.1802 251.134 41.3802 251.134 39.24H249.134C249.134 41.0465 248.673 42.2865 247.889 43.1113L249.339 44.4887ZM251.134 39.24V26.96H249.134V39.24H251.134ZM250.134 27.96H254.694V25.96H250.134V27.96ZM269.271 30.16H268.271V33.7951L270.13 30.6715L269.271 30.16ZM271.911 27.56L272.4 28.4322L272.407 28.4282L271.911 27.56ZM275.871 26.6H276.871V25.6H275.871V26.6ZM275.871 31.32V32.32H276.871V31.32H275.871ZM270.631 32.68L269.934 31.9627L269.929 31.9678L269.924 31.9729L270.631 32.68ZM269.271 49V50H270.271V49H269.271ZM264.711 49H263.711V50H264.711V49ZM264.711 26.96V25.96H263.711V26.96H264.711ZM269.271 26.96H270.271V25.96H269.271V26.96ZM270.13 30.6715C270.711 29.6958 271.466 28.9563 272.4 28.4321L271.422 26.6879C270.169 27.3904 269.164 28.3842 268.412 29.6485L270.13 30.6715ZM272.407 28.4282C273.351 27.8889 274.494 27.6 275.871 27.6V25.6C274.208 25.6 272.711 25.9511 271.415 26.6918L272.407 28.4282ZM274.871 26.6V31.32H276.871V26.6H274.871ZM275.871 30.32H274.711V32.32H275.871V30.32ZM274.711 30.32C272.763 30.32 271.115 30.8159 269.934 31.9627L271.328 33.3973C272.014 32.7307 273.086 32.32 274.711 32.32V30.32ZM269.924 31.9729C268.731 33.1658 268.271 35.0782 268.271 37.4H270.271C270.271 35.2418 270.718 34.0075 271.338 33.3871L269.924 31.9729ZM268.271 37.4V49H270.271V37.4H268.271ZM269.271 48H264.711V50H269.271V48ZM265.711 49V26.96H263.711V49H265.711ZM264.711 27.96H269.271V25.96H264.711V27.96ZM268.271 26.96V30.16H270.271V26.96H268.271ZM299.823 27.68L299.355 28.5638L299.362 28.5675L299.823 27.68ZM303.063 30.88L302.185 31.36L302.185 31.36L303.063 30.88ZM304.223 49V50H305.223V49H304.223ZM299.703 49H298.703V50H299.703V49ZM298.223 32.16L297.488 32.8391L297.497 32.8483L298.223 32.16ZM290.103 32.16L289.378 31.4712L289.377 31.4717L290.103 32.16ZM288.623 49V50H289.623V49H288.623ZM284.063 49H283.063V50H284.063V49ZM284.063 26.96V25.96H283.063V26.96H284.063ZM288.623 26.96H289.623V25.96H288.623V26.96ZM288.623 29.48H287.623V32.2673L289.394 30.1157L288.623 29.48ZM291.463 27.36L291.066 26.4419L291.058 26.4453L291.463 27.36ZM295.183 27.6C296.774 27.6 298.156 27.9293 299.355 28.5638L300.29 26.7962C298.769 25.9907 297.058 25.6 295.183 25.6V27.6ZM299.362 28.5675C300.566 29.193 301.504 30.1151 302.185 31.36L303.94 30.4C303.074 28.8182 301.852 27.607 300.283 26.7925L299.362 28.5675ZM302.185 31.36C302.861 32.5947 303.223 34.1278 303.223 36H305.223C305.223 33.8722 304.811 31.9919 303.94 30.4L302.185 31.36ZM303.223 36V49H305.223V36H303.223ZM304.223 48H299.703V50H304.223V48ZM300.703 49V36.68H298.703V49H300.703ZM300.703 36.68C300.703 34.5483 300.168 32.758 298.948 31.4717L297.497 32.8483C298.25 33.642 298.703 34.8651 298.703 36.68H300.703ZM298.957 31.481C297.747 30.1737 296.115 29.56 294.183 29.56V31.56C295.664 31.56 296.724 32.013 297.488 32.839L298.957 31.481ZM294.183 29.56C292.25 29.56 290.61 30.1737 289.378 31.4712L290.827 32.8487C291.621 32.013 292.702 31.56 294.183 31.56V29.56ZM289.377 31.4717C288.157 32.758 287.623 34.5483 287.623 36.68H289.623C289.623 34.8651 290.075 33.642 290.828 32.8483L289.377 31.4717ZM287.623 36.68V49H289.623V36.68H287.623ZM288.623 48H284.063V50H288.623V48ZM285.063 49V26.96H283.063V49H285.063ZM284.063 27.96H288.623V25.96H284.063V27.96ZM287.623 26.96V29.48H289.623V26.96H287.623ZM289.394 30.1157C290.035 29.3375 290.853 28.7227 291.867 28.2747L291.058 26.4453C289.779 27.0107 288.703 27.8092 287.851 28.8443L289.394 30.1157ZM291.859 28.2781C292.904 27.8267 294.009 27.6 295.183 27.6V25.6C293.743 25.6 292.367 25.88 291.066 26.4419L291.859 28.2781ZM334.079 39.68V40.68H334.932L335.067 39.838L334.079 39.68ZM317.239 39.68V38.68H316.16L316.242 39.7555L317.239 39.68ZM319.199 43.92L318.526 44.6599L318.526 44.6599L319.199 43.92ZM328.719 42.44V41.44H328.097L327.822 41.9975L328.719 42.44ZM333.639 42.44L334.589 42.7525L335.021 41.44H333.639V42.44ZM329.999 47.44L330.593 48.2444L330.595 48.2429L329.999 47.44ZM317.839 47.96L317.337 48.8248L317.345 48.8296L317.353 48.8342L317.839 47.96ZM313.919 43.96L313.039 44.4341L313.043 44.4422L313.047 44.4503L313.919 43.96ZM313.879 32L312.999 31.5259L312.996 31.5308L313.879 32ZM317.759 28L317.273 27.1258L317.267 27.1292L317.759 28ZM329.079 27.96L329.566 27.0865L329.566 27.0865L329.079 27.96ZM332.879 31.8L332.002 32.2808L332.006 32.2869L332.879 31.8ZM329.479 36V37H330.495L330.479 35.9841L329.479 36ZM327.679 31.96L328.333 31.2032L328.333 31.2032L327.679 31.96ZM319.279 31.96L319.94 32.7104L319.95 32.7015L319.279 31.96ZM317.279 36L316.287 35.876L316.146 37H317.279V36ZM333.239 37.44C333.239 38.225 333.188 38.9176 333.092 39.522L335.067 39.838C335.183 39.109 335.239 38.3083 335.239 37.44H333.239ZM334.079 38.68H317.239V40.68H334.079V38.68ZM316.242 39.7555C316.392 41.739 317.142 43.4014 318.526 44.6599L319.872 43.1801C318.909 42.3053 318.353 41.141 318.236 39.6045L316.242 39.7555ZM318.526 44.6599C319.899 45.9073 321.584 46.52 323.519 46.52V44.52C322.04 44.52 320.846 44.066 319.872 43.1801L318.526 44.6599ZM323.519 46.52C324.886 46.52 326.117 46.2331 327.169 45.6104C328.224 44.9852 329.035 44.0586 329.616 42.8825L327.822 41.9975C327.389 42.8747 326.827 43.4881 326.149 43.8896C325.467 44.2935 324.605 44.52 323.519 44.52V46.52ZM328.719 43.44H333.639V41.44H328.719V43.44ZM332.689 42.1275C332.089 43.9524 331.002 45.4499 329.403 46.6371L330.595 48.2429C332.516 46.8168 333.856 44.9809 334.589 42.7525L332.689 42.1275ZM329.405 46.6356C327.876 47.7647 325.936 48.36 323.519 48.36V50.36C326.276 50.36 328.655 49.6753 330.593 48.2444L329.405 46.6356ZM323.519 48.36C321.566 48.36 319.842 47.9289 318.325 47.0858L317.353 48.8342C319.196 49.8578 321.259 50.36 323.519 50.36V48.36ZM318.341 47.0952C316.846 46.2271 315.665 45.0248 314.791 43.4697L313.047 44.4503C314.093 46.3086 315.525 47.7729 317.337 48.8248L318.341 47.0952ZM314.8 43.4859C313.956 41.919 313.519 40.0864 313.519 37.96H311.519C311.519 40.3669 312.016 42.5343 313.039 44.4341L314.8 43.4859ZM313.519 37.96C313.519 35.8286 313.945 34.0083 314.762 32.4692L312.996 31.5308C312 33.4051 311.519 35.5581 311.519 37.96H313.519ZM314.76 32.4741C315.607 30.9006 316.768 29.7078 318.251 28.8708L317.267 27.1292C315.443 28.1589 314.018 29.6327 312.999 31.5259L314.76 32.4741ZM318.245 28.8742C319.758 28.0332 321.508 27.6 323.519 27.6V25.6C321.211 25.6 319.12 26.1002 317.273 27.1258L318.245 28.8742ZM323.519 27.6C325.449 27.6 327.131 28.0191 328.592 28.8335L329.566 27.0865C327.774 26.0875 325.749 25.6 323.519 25.6V27.6ZM328.592 28.8335C330.052 29.6473 331.185 30.7903 332.002 32.2808L333.756 31.3192C332.76 29.5031 331.359 28.086 329.566 27.0865L328.592 28.8335ZM332.006 32.2869C332.818 33.7442 333.239 35.452 333.239 37.44H335.239C335.239 35.1614 334.754 33.1092 333.753 31.3131L332.006 32.2869ZM330.479 35.9841C330.448 34.0459 329.741 32.4197 328.333 31.2032L327.025 32.7168C327.964 33.527 328.457 34.5941 328.479 36.0159L330.479 35.9841ZM328.333 31.2032C326.956 30.0142 325.262 29.44 323.319 29.44V31.44C324.843 31.44 326.055 31.8791 327.025 32.7168L328.333 31.2032ZM323.319 29.44C321.509 29.44 319.92 30.0313 318.608 31.2185L319.95 32.7015C320.878 31.862 321.982 31.44 323.319 31.44V29.44ZM318.618 31.2096C317.287 32.382 316.525 33.9663 316.287 35.876L318.271 36.124C318.459 34.6203 319.031 33.5113 319.94 32.7104L318.618 31.2096ZM317.279 37H329.479V35H317.279V37ZM347.287 30.16H346.287V33.7951L348.146 30.6715L347.287 30.16ZM349.927 27.56L350.416 28.4322L350.423 28.4282L349.927 27.56ZM353.887 26.6H354.887V25.6H353.887V26.6ZM353.887 31.32V32.32H354.887V31.32H353.887ZM348.647 32.68L347.95 31.9627L347.945 31.9678L347.939 31.9729L348.647 32.68ZM347.287 49V50H348.287V49H347.287ZM342.727 49H341.727V50H342.727V49ZM342.727 26.96V25.96H341.727V26.96H342.727ZM347.287 26.96H348.287V25.96H347.287V26.96ZM348.146 30.6715C348.727 29.6958 349.482 28.9563 350.416 28.4321L349.437 26.6879C348.185 27.3904 347.18 28.3842 346.427 29.6485L348.146 30.6715ZM350.423 28.4282C351.367 27.8889 352.509 27.6 353.887 27.6V25.6C352.224 25.6 350.726 25.9511 349.43 26.6918L350.423 28.4282ZM352.887 26.6V31.32H354.887V26.6H352.887ZM353.887 30.32H352.727V32.32H353.887V30.32ZM352.727 30.32C350.778 30.32 349.13 30.8159 347.95 31.9627L349.343 33.3973C350.03 32.7307 351.101 32.32 352.727 32.32V30.32ZM347.939 31.9729C346.747 33.1658 346.287 35.0782 346.287 37.4H348.287C348.287 35.2418 348.733 34.0075 349.354 33.3871L347.939 31.9729ZM346.287 37.4V49H348.287V37.4H346.287ZM347.287 48H342.727V50H347.287V48ZM343.727 49V26.96H341.727V49H343.727ZM342.727 27.96H347.287V25.96H342.727V27.96ZM346.287 26.96V30.16H348.287V26.96H346.287Z" fill="#E2E2E2"/>
<path d="M3.4375 39.5867V33.6776L24.0057 25.0412V31.5043L10.4261 36.5753L10.6392 36.2628V37.0156L10.4261 36.6889L24.0057 41.7742V48.223L3.4375 39.5867ZM43.1286 17.9105L33.7536 52.7401H27.8303L37.2053 17.9105H43.1286ZM67.5213 39.5867L46.9531 48.223V41.7742L60.5327 36.6889L60.3338 37.0156V36.2628L60.5327 36.5753L46.9531 31.5043V25.0412L67.5213 33.6776V39.5867Z" fill="#E2E2E2"/>
<mask id="path-4-inside-1_38_24" fill="white">
<path d="M90 0H351V18H90V0Z"/>
</mask>
<path d="M90 1H351V-1H90V1Z" fill="#DBDBDB" fill-opacity="0.5" mask="url(#path-4-inside-1_38_24)"/>
<mask id="path-6-inside-2_38_24" fill="white">
<path d="M90 55H351V73H90V55Z"/>
</mask>
<path d="M351 72H90V74H351V72Z" fill="#DBDBDB" fill-opacity="0.5" mask="url(#path-6-inside-2_38_24)"/>
</svg>
