<svg width="27" height="27" viewBox="0 0 39 38" fill="none" xmlns="http://www.w3.org/2000/svg">
<path fill-rule="evenodd" clip-rule="evenodd" d="M19.4936 0C14.8642 0.00241318 10.3866 1.64974 6.86148 4.64741C3.33635 7.64508 0.993527 11.7976 0.251926 16.3625C-0.489674 20.9274 0.418301 25.607 2.81352 29.5645C5.20873 33.522 8.93498 36.4994 13.326 37.9642C14.2947 38.1449 14.6596 37.5416 14.6596 37.0287V37.0287C14.6596 35.1617 12.8539 33.9122 11.0372 33.4812C9.07967 33.0167 8.32876 31.7039 8.12482 31.2554C8.07923 31.1551 8.04266 31.0508 8.00058 30.949C7.51484 29.7743 6.92611 29.075 6.4955 28.6839C6.13148 28.3533 5.65901 28.147 5.32813 27.7832C4.85608 27.2642 5.40701 27.1214 5.76759 27.0822C5.94291 27.0632 6.12059 27.0702 6.29487 27.0971C7.82827 27.3342 8.73642 28.6198 8.96451 28.9821C9.00431 29.0453 9.04108 29.1112 9.07994 29.175C10.5846 31.6464 12.8608 31.3497 14.1606 30.9024C14.4997 30.7857 14.7413 30.343 14.8334 29.9965V29.9965C15.0667 29.1187 14.4818 27.8974 13.6007 27.677C10.1096 26.8037 7.04864 24.5783 7.04864 18.4579C7.03595 17.5435 7.1897 16.6433 7.49421 15.7982C8.1202 14.0608 8.67997 12.9117 8.66489 11.065V11.065C8.65324 9.6374 10.1096 7.90628 11.454 8.38675C11.659 8.46002 11.8791 8.5473 12.1145 8.65103C13.7822 9.38586 15.6171 9.72819 17.4281 9.52504C18.7999 9.37116 20.1848 9.37107 21.5566 9.52477C23.3691 9.72785 25.2053 9.3846 26.8743 8.64918C27.1066 8.54685 27.3238 8.46058 27.5264 8.388C28.871 7.90619 30.3293 9.63225 30.3184 11.0606V11.0606C30.3042 12.9082 30.8649 14.0585 31.4923 15.7964C31.7983 16.6439 31.9523 17.547 31.9384 18.4644C31.9384 23.6941 29.7085 26.0733 26.8836 27.1958C25.4789 27.7541 24.3566 30.1721 24.3566 31.6836V31.6836C24.3566 34.2901 24.334 36.3868 24.334 37.0287C24.334 37.5481 24.6859 38.1545 25.674 37.9642C30.0655 36.4992 33.7922 33.5213 36.1873 29.5631C38.5825 25.605 39.49 20.9247 38.7476 16.3593C38.0051 11.794 35.6611 7.64143 32.1348 4.64428C28.6085 1.64712 24.1299 0.000883587 19.5 0H19.4936Z" fill="url(#paint0_linear_32_356)" fill-opacity="0.7"/>
<defs>
<linearGradient id="paint0_linear_32_356" x1="19.5" y1="-29.4828" x2="19.5" y2="56.0172" gradientUnits="userSpaceOnUse">
<stop offset="0.214559" stop-color="#8E8E9C"/>
<stop offset="0.762452" stop-color="#ffffff"/>
</linearGradient>
</defs>
</svg>
