<svg width="27" height="27" viewBox="0 0 39 39" fill="none" xmlns="http://www.w3.org/2000/svg">
<path d="M19.5 0C8.7293 0 0 8.7293 0 19.5C0 25.7593 2.94916 31.3239 7.5305 34.89C9.54689 36.4596 11.8765 34.5557 12.4617 32.0684V32.0684C12.6788 31.1447 13.4726 27.7796 14.064 25.273C14.5053 23.4027 14.1604 21.4064 14.1604 19.4848V19.4848C14.1604 16.773 15.7295 14.7469 17.6871 14.7469C19.3477 14.7469 20.1551 15.9961 20.1551 17.4967C20.1551 19.1725 19.0887 21.6709 18.5402 23.9865C18.0832 25.9289 19.5152 27.5133 21.4271 27.5133C24.893 27.5133 27.559 23.857 27.559 18.5859C27.559 13.9166 24.2074 10.6488 19.4162 10.6488C13.8709 10.6488 10.6107 14.8078 10.6107 19.1115C10.6107 20.7873 11.2582 22.585 12.0656 23.56C12.2256 23.7504 12.2484 23.9256 12.2027 24.116C12.058 24.733 11.7229 26.0584 11.6619 26.325C11.5781 26.683 11.3801 26.7592 11.0068 26.584C8.56934 25.449 7.0459 21.8918 7.0459 19.0277C7.0459 12.873 11.5172 7.22871 19.9266 7.22871C26.6906 7.22871 31.9465 12.0504 31.9465 18.4945C31.9465 25.2129 27.7113 30.6211 21.8309 30.6211C21.6886 30.6211 21.547 30.6157 21.4064 30.6054C19.71 30.4803 16.5739 31.3736 16.1484 33.0205V33.0205V33.0205C15.4214 35.8033 16.4368 38.9721 19.3129 38.9991C19.3752 38.9997 19.4376 39 19.5 39C30.2707 39 39 30.2707 39 19.5C39 8.7293 30.2707 0 19.5 0Z" fill="url(#paint0_linear_32_354)" fill-opacity="0.7"/>
<defs>
<linearGradient id="paint0_linear_32_354" x1="19.5" y1="-30.2586" x2="19.5" y2="57.4914" gradientUnits="userSpaceOnUse">
<stop offset="0.214559" stop-color="#8E8E9C"/>
<stop offset="0.762452" stop-color="#ffffff"/>
</linearGradient>
</defs>
</svg>
