<svg width="95" height="95" viewBox="0 0 95 95" fill="none" xmlns="http://www.w3.org/2000/svg">
<path d="M59.0625 38.25C55.2238 38.25 52.125 35.1512 52.125 31.3125V8.1875C52.125 4.34875 55.2238 1.25 59.0625 1.25C62.9012 1.25 66 4.34875 66 8.1875V31.3125C66 35.1512 62.9012 38.25 59.0625 38.25Z" stroke="white" stroke-width="2" stroke-linecap="round" stroke-linejoin="round"/>
<path d="M86.8125 38.25H79.875V31.3125C79.875 27.4738 82.9738 24.375 86.8125 24.375C90.6512 24.375 93.75 27.4738 93.75 31.3125C93.75 35.1512 90.6512 38.25 86.8125 38.25Z" stroke="white" stroke-width="2" stroke-linecap="round" stroke-linejoin="round"/>
<path d="M35.9375 56.75C39.7762 56.75 42.875 59.8488 42.875 63.6875V86.8125C42.875 90.6512 39.7762 93.75 35.9375 93.75C32.0988 93.75 29 90.6512 29 86.8125V63.6875C29 59.8488 32.0988 56.75 35.9375 56.75Z" stroke="white" stroke-width="2" stroke-linecap="round" stroke-linejoin="round"/>
<path d="M8.1875 56.75H15.125V63.6875C15.125 67.5262 12.0262 70.625 8.1875 70.625C4.34875 70.625 1.25 67.5262 1.25 63.6875C1.25 59.8488 4.34875 56.75 8.1875 56.75Z" stroke="white" stroke-width="2" stroke-linecap="round" stroke-linejoin="round"/>
<path d="M56.75 59.0625C56.75 55.2238 59.8488 52.125 63.6875 52.125H86.8125C90.6512 52.125 93.75 55.2238 93.75 59.0625C93.75 62.9012 90.6512 66 86.8125 66H63.6875C59.8488 66 56.75 62.9012 56.75 59.0625Z" stroke="white" stroke-width="2" stroke-linecap="round" stroke-linejoin="round"/>
<path d="M63.6875 79.875H56.75V86.8125C56.75 90.6512 59.8488 93.75 63.6875 93.75C67.5262 93.75 70.625 90.6512 70.625 86.8125C70.625 82.9738 67.5262 79.875 63.6875 79.875Z" stroke="white" stroke-width="2" stroke-linecap="round" stroke-linejoin="round"/>
<path d="M38.25 35.9375C38.25 32.0988 35.1512 29 31.3125 29H8.1875C4.34875 29 1.25 32.0988 1.25 35.9375C1.25 39.7762 4.34875 42.875 8.1875 42.875H31.3125C35.1512 42.875 38.25 39.7762 38.25 35.9375Z" stroke="white" stroke-width="2" stroke-linecap="round" stroke-linejoin="round"/>
<path d="M31.3125 15.125H38.25V8.1875C38.25 4.34875 35.1512 1.25 31.3125 1.25C27.4738 1.25 24.375 4.34875 24.375 8.1875C24.375 12.0262 27.4738 15.125 31.3125 15.125Z" stroke="white" stroke-width="2" stroke-linecap="round" stroke-linejoin="round"/>
</svg>
