<svg width="423" height="139" viewBox="0 0 423 139" fill="none" xmlns="http://www.w3.org/2000/svg">
<path d="M10.584 99.296C7.93867 99.296 5.72 98.528 3.928 96.992C2.22133 95.5413 1.368 93.4507 1.368 90.72C1.368 90.0373 1.53867 89.0133 1.88 87.648C2.30667 86.1973 2.81867 84.8747 3.416 83.68C4.09867 82.4 4.824 81.76 5.592 81.76C6.104 81.76 6.36 82.1013 6.36 82.784C6.36 83.552 5.93333 84.5333 5.08 85.728C4.22667 86.8373 3.8 88.288 3.8 90.08C3.8 91.7013 4.26933 92.9387 5.208 93.792C6.14667 94.6453 7.384 95.072 8.92 95.072C12.8453 95.072 17.1547 94.2187 21.848 92.512C26.6267 90.8053 31.32 88.544 35.928 85.728C40.536 82.912 44.632 79.7973 48.216 76.384C51.8853 72.8853 54.5307 69.344 56.152 65.76C56.7493 64.5653 57.048 63.456 57.048 62.432C57.048 60.5547 56.2373 59.4027 54.616 58.976C52.9947 58.464 51.5013 58.208 50.136 58.208C44.9307 58.208 39.4693 58.5067 33.752 59.104C28.0347 59.7013 22.3173 60 16.6 60C13.9547 60 11.3947 59.616 8.92 58.848C6.53067 58.08 4.52533 56.8 2.904 55.008C1.368 53.216 0.6 50.784 0.6 47.712C0.6 43.9573 1.79467 40.2027 4.184 36.448C6.57333 32.6933 9.56 29.152 13.144 25.824C16.8133 22.496 20.6107 19.5947 24.536 17.12C28.5467 14.56 32.088 12.64 35.16 11.36C38.1467 10.1653 41.0907 9.18399 43.992 8.41599C46.9787 7.64799 50.0507 7.26399 53.208 7.26399H55C58.1573 7.26399 61.272 7.73333 64.344 8.672C67.416 9.61066 69.976 11.1893 72.024 13.408C74.072 15.5413 75.096 18.4427 75.096 22.112C75.096 22.7947 74.968 23.9467 74.712 25.568C74.5413 27.104 74.2 28.5547 73.688 29.92C73.176 31.2 72.4507 31.84 71.512 31.84C71.0853 31.84 70.872 31.584 70.872 31.072C70.872 29.9627 71.0853 28.8533 71.512 27.744C71.9387 26.6347 72.152 25.5253 72.152 24.416C72.152 21.344 71.256 18.8267 69.464 16.864C67.672 14.9013 65.4533 13.4507 62.808 12.512C60.1627 11.5733 57.4747 11.104 54.744 11.104C51.3307 11.104 47.4907 11.744 43.224 13.024C38.9573 14.304 34.6907 16.096 30.424 18.4C26.1573 20.704 22.1893 23.4347 18.52 26.592C14.936 29.664 12.0347 32.992 9.816 36.576C7.59733 40.16 6.488 43.872 6.488 47.712C6.488 49.5893 7.04267 51.2107 8.152 52.576C9.34667 53.856 10.7973 54.8373 12.504 55.52C14.296 56.2027 16.0027 56.544 17.624 56.544C23.3413 56.544 28.9733 56.1173 34.52 55.264C40.152 54.3253 45.7413 53.856 51.288 53.856C52.9093 53.856 54.5307 54.0693 56.152 54.496C57.7733 54.8373 59.096 55.5627 60.12 56.672C61.2293 57.696 61.784 59.1893 61.784 61.152C61.784 64.736 60.5467 68.3627 58.072 72.032C55.5973 75.616 52.3973 79.072 48.472 82.4C44.5467 85.6427 40.2373 88.544 35.544 91.104C30.936 93.664 26.4133 95.6693 21.976 97.12C17.624 98.5707 13.8267 99.296 10.584 99.296ZM76.085 95.584C74.6343 95.584 73.5677 94.8587 72.885 93.408C72.2023 92.0427 71.7757 90.464 71.605 88.672C71.4343 86.88 71.349 85.5147 71.349 84.576C71.349 81.3333 71.6477 77.92 72.245 74.336C72.8423 70.6667 73.6103 67.2533 74.549 64.096C74.9757 62.6453 75.7437 60.5547 76.853 57.824C77.9623 55.008 79.285 52.1493 80.821 49.248C82.4423 46.3467 84.149 43.9147 85.941 41.952C87.8183 39.904 89.6957 38.88 91.573 38.88C93.0237 38.88 94.6023 39.52 96.309 40.8C98.0157 42.08 98.869 43.488 98.869 45.024C98.869 45.6213 98.6557 46.1333 98.229 46.56C98.3143 46.4747 98.5277 46.432 98.869 46.432C100.49 46.432 101.301 47.2853 101.301 48.992C101.301 50.9547 101.002 53.3013 100.405 56.032C99.893 58.7627 99.3383 61.664 98.741 64.736C98.1437 67.7227 97.845 70.624 97.845 73.44C97.845 74.464 97.9303 75.7013 98.101 77.152C98.2717 78.5173 98.6557 79.7547 99.253 80.864C99.9357 81.9733 101.002 82.528 102.453 82.528C103.818 82.528 105.269 81.8027 106.805 80.352C108.341 78.9013 109.834 77.1093 111.285 74.976C112.736 72.8427 114.101 70.7093 115.381 68.576C116.661 66.4427 117.728 64.6507 118.581 63.2C119.52 61.7493 120.16 61.024 120.501 61.024C121.098 61.024 121.397 61.408 121.397 62.176C121.397 63.2 120.928 64.6933 119.989 66.656C119.136 68.5333 117.984 70.624 116.533 72.928C115.082 75.1467 113.461 77.3227 111.669 79.456C109.962 81.504 108.213 83.2107 106.421 84.576C104.714 85.856 103.178 86.496 101.813 86.496C99.5943 86.496 97.8877 85.6 96.693 83.808C95.5837 81.9307 94.8157 79.712 94.389 77.152C94.0477 74.592 93.877 72.2027 93.877 69.984C93.877 69.216 93.877 68.4907 93.877 67.808C93.877 67.1253 93.9197 66.528 94.005 66.016C93.493 67.2107 92.7677 69.0027 91.829 71.392C90.8903 73.696 89.781 76.256 88.501 79.072C87.3063 81.8027 85.9837 84.448 84.533 87.008C83.1677 89.4827 81.7597 91.5307 80.309 93.152C78.8583 94.7733 77.4503 95.584 76.085 95.584ZM77.109 90.208C78.2183 90.208 79.4557 89.184 80.821 87.136C82.1863 85.088 83.5943 82.4853 85.045 79.328C86.581 76.0853 88.0317 72.6293 89.397 68.96C90.7623 65.2907 91.9997 61.8347 93.109 58.592C94.3037 55.264 95.285 52.5333 96.053 50.4C96.821 48.1813 97.333 46.9867 97.589 46.816L96.821 46.944C96.2237 46.944 95.7543 46.6453 95.413 46.048C95.0717 45.3653 94.645 44.7253 94.133 44.128C93.621 43.5307 92.7677 43.232 91.573 43.232C90.037 43.232 88.5437 44.128 87.093 45.92C85.6423 47.712 84.2343 49.888 82.869 52.448C81.589 54.9227 80.4797 57.3547 79.541 59.744C78.6877 62.1333 78.0903 63.9253 77.749 65.12C76.0423 71.008 75.189 77.0667 75.189 83.296C75.189 83.6373 75.189 84.4053 75.189 85.6C75.2743 86.7093 75.445 87.776 75.701 88.8C76.0423 89.7387 76.5117 90.208 77.109 90.208ZM112.938 138.72C110.89 138.72 109.397 137.995 108.458 136.544C107.519 135.179 106.922 133.515 106.666 131.552C106.325 129.589 106.154 127.883 106.154 126.432C106.154 122.933 106.623 118.923 107.562 114.4C108.415 109.963 109.781 105.568 111.658 101.216C113.535 96.9493 115.925 93.2373 118.826 90.08C121.727 86.8373 125.141 84.7467 129.066 83.808C129.322 83.7227 129.706 83.68 130.218 83.68C131.925 83.68 133.034 84.4053 133.546 85.856C134.143 87.3067 134.442 88.7147 134.442 90.08C134.442 90.592 134.357 91.5307 134.186 92.896C134.015 94.3467 133.674 95.6693 133.162 96.864C132.735 98.0587 132.138 98.656 131.37 98.656C131.029 98.656 130.73 98.4853 130.474 98.144C130.303 97.888 130.218 97.5893 130.218 97.248C130.218 96.0533 130.431 94.8587 130.858 93.664C131.285 92.4693 131.498 91.2747 131.498 90.08C131.498 89.1413 131.37 88.416 131.114 87.904C130.943 87.392 130.346 87.136 129.322 87.136C128.639 87.136 127.658 87.5627 126.378 88.416C125.098 89.184 124.202 89.7813 123.69 90.208C120.618 92.768 118.015 95.9253 115.882 99.68C113.834 103.52 112.255 107.531 111.146 111.712C110.122 115.979 109.61 120.117 109.61 124.128C109.61 124.896 109.653 126.133 109.738 127.84C109.823 129.547 110.079 131.125 110.506 132.576C111.018 134.112 111.829 134.88 112.938 134.88C114.474 134.88 116.138 134.027 117.93 132.32C119.722 130.613 121.471 128.523 123.178 126.048C124.885 123.659 126.378 121.269 127.658 118.88C128.938 116.576 129.834 114.741 130.346 113.376C133.162 105.611 135.466 97.888 137.258 90.208C139.05 82.528 139.946 74.5493 139.946 66.272C139.946 63.1147 139.818 59.9573 139.562 56.8C139.05 58.1653 138.239 59.9573 137.13 62.176C136.106 64.3093 134.869 66.6133 133.418 69.088C132.053 71.5627 130.559 73.9093 128.938 76.128C127.402 78.3467 125.781 80.1813 124.074 81.632C122.453 82.9973 120.831 83.68 119.21 83.68C118.186 83.68 117.418 83.296 116.906 82.528C116.479 81.6747 116.181 80.736 116.01 79.712C115.925 78.6027 115.882 77.7067 115.882 77.024C115.882 76.0853 116.01 74.5067 116.266 72.288C116.522 70.0693 116.863 67.552 117.29 64.736C117.717 61.92 118.186 59.104 118.698 56.288C119.21 53.472 119.679 50.9547 120.106 48.736C120.618 46.432 121.045 44.8107 121.386 43.872C121.813 42.848 122.453 42.336 123.306 42.336C123.903 42.336 124.458 42.5493 124.97 42.976C125.482 43.4027 125.738 43.9573 125.738 44.64C125.738 47.5413 125.226 50.6987 124.202 54.112C123.263 57.5253 122.325 60.9813 121.386 64.48C120.447 67.8933 119.978 71.264 119.978 74.592C119.978 74.848 120.021 75.5733 120.106 76.768C120.191 77.9627 120.405 78.56 120.746 78.56C120.917 78.56 121.045 78.6027 121.13 78.688C121.215 78.688 121.301 78.6453 121.386 78.56C123.69 77.7067 125.823 75.9573 127.786 73.312C129.749 70.5813 131.498 67.4667 133.034 63.968C134.655 60.4693 135.978 57.0133 137.002 53.6C138.111 50.1867 138.922 47.4133 139.434 45.28C139.519 44.9387 139.647 44.5973 139.818 44.256C139.989 43.9147 140.287 43.744 140.714 43.744C141.482 43.744 142.079 44.6827 142.506 46.56C143.018 48.352 143.359 50.528 143.53 53.088C143.786 55.5627 143.957 57.8667 144.042 60C144.127 62.048 144.17 63.2853 144.17 63.712C144.17 72.7573 143.103 81.7173 140.97 90.592C138.922 99.4667 136.063 108.043 132.394 116.32C131.711 117.856 130.645 119.861 129.194 122.336C127.829 124.811 126.207 127.285 124.33 129.76C122.538 132.32 120.618 134.453 118.57 136.16C116.607 137.867 114.73 138.72 112.938 138.72ZM206.047 107.744C205.706 107.744 205.322 107.616 204.895 107.36C204.554 107.189 204.383 106.933 204.383 106.592C204.383 106.08 204.554 105.696 204.895 105.44C205.322 105.184 205.706 105.013 206.047 104.928C212.191 102.539 217.354 99.4667 221.535 95.712C225.716 91.9573 229.343 87.648 232.415 82.784C235.572 77.92 238.474 72.672 241.119 67.04C240.778 67.2107 239.967 67.5947 238.687 68.192C237.407 68.704 235.999 69.3013 234.463 69.984C233.012 70.6667 231.732 71.264 230.623 71.776C229.514 72.288 228.874 72.544 228.703 72.544C228.106 72.544 227.636 72.2453 227.295 71.648C226.954 71.0507 226.783 70.4533 226.783 69.856C226.783 69.088 227.466 68.2773 228.831 67.424C230.282 66.5707 231.988 65.76 233.951 64.992C235.999 64.224 237.876 63.5413 239.583 62.944C241.375 62.3467 242.655 61.92 243.423 61.664C248.543 48.864 251.103 35.4667 251.103 21.472C251.103 17.9733 250.25 15.1147 248.543 12.896C246.922 10.6773 244.234 9.56799 240.479 9.56799C236.554 9.56799 232.33 10.464 227.807 12.256C223.37 14.048 218.932 16.48 214.495 19.552C210.143 22.624 206.132 26.1227 202.463 30.048C198.879 33.9733 195.978 38.0693 193.759 42.336C191.626 46.5173 190.559 50.6133 190.559 54.624C190.559 57.7813 191.455 60.0853 193.247 61.536C195.124 62.9867 197.556 63.712 200.543 63.712C204.298 63.712 207.839 63.2427 211.167 62.304C214.495 61.28 217.482 60.1707 220.127 58.976C222.858 57.696 225.076 56.5867 226.783 55.648C228.49 54.624 229.599 54.112 230.111 54.112C230.623 54.112 230.879 54.2827 230.879 54.624C230.794 54.7947 230.666 54.9653 230.495 55.136C230.41 55.2213 230.282 55.3493 230.111 55.52C226.186 58.6773 221.663 61.3653 216.543 63.584C211.423 65.8027 206.303 66.912 201.183 66.912C198.452 66.912 195.892 66.528 193.503 65.76C191.114 64.992 189.194 63.712 187.743 61.92C186.292 60.128 185.567 57.696 185.567 54.624C185.567 50.272 186.804 45.8347 189.279 41.312C191.754 36.704 195.039 32.2667 199.135 28C203.316 23.7333 207.839 19.8933 212.703 16.48C217.652 13.0667 222.644 10.3787 227.679 8.41599C232.714 6.36799 237.322 5.34399 241.503 5.34399C246.538 5.34399 250.079 6.87999 252.127 9.952C254.26 13.024 255.327 16.864 255.327 21.472C255.327 28.128 254.644 34.7413 253.279 41.312C251.999 47.7973 250.122 54.112 247.647 60.256C259.252 57.0987 271.114 54.9227 283.231 53.728C283.572 52.5333 284.212 50.4427 285.151 47.456C286.09 44.4693 287.242 41.1413 288.607 37.472C289.972 33.8027 291.466 30.2613 293.087 26.848C294.708 23.3493 296.33 20.4907 297.951 18.272C299.658 16.0533 301.236 14.944 302.687 14.944C303.284 14.944 303.924 15.072 304.607 15.328C305.375 15.584 305.802 16.096 305.887 16.864L305.503 17.888C304.735 19.168 303.839 20.448 302.815 21.728C301.876 23.008 300.98 24.288 300.127 25.568C297.482 29.92 295.092 34.4427 292.959 39.136C290.826 43.8293 288.991 48.608 287.455 53.472H289.887C290.655 53.472 291.38 53.5147 292.063 53.6C292.746 53.6853 293.13 53.8987 293.215 54.24C292.788 54.8373 291.764 55.2213 290.143 55.392C288.607 55.5627 287.455 55.6907 286.687 55.776C285.407 60.0427 284.383 64.3947 283.615 68.832C282.932 73.2693 282.591 77.7493 282.591 82.272C282.591 84.064 282.719 85.8987 282.975 87.776C283.231 89.6533 283.828 91.2747 284.767 92.64C285.706 94.0907 287.156 95.1573 289.119 95.84C289.546 95.9253 290.058 96.096 290.655 96.352C291.252 96.608 291.594 97.0347 291.679 97.632C291.508 97.9733 291.252 98.144 290.911 98.144C290.57 98.2293 290.228 98.272 289.887 98.272C287.156 98.272 285.023 97.4187 283.487 95.712C281.951 94.0907 280.884 92.0853 280.287 89.696C279.775 87.3067 279.519 85.0453 279.519 82.912C279.519 78.3893 279.818 73.9093 280.415 69.472C281.012 65.0347 281.738 60.5973 282.591 56.16C276.276 56.7573 270.004 57.8667 263.775 59.488C257.631 61.024 251.572 62.944 245.599 65.248C242.954 71.0507 239.882 76.8107 236.383 82.528C232.884 88.2453 228.746 93.3227 223.967 97.76C219.188 102.197 213.514 105.483 206.943 107.616C206.772 107.701 206.474 107.744 206.047 107.744ZM309.598 92C307.294 92 305.502 90.976 304.222 88.928C303.027 86.88 302.217 84.4053 301.79 81.504C301.363 78.5173 301.15 75.744 301.15 73.184C301.15 71.9893 301.15 70.9227 301.15 69.984C301.235 68.96 301.321 68.1067 301.406 67.424H301.022C299.998 67.424 299.486 67.04 299.486 66.272C299.657 65.8453 299.955 65.504 300.382 65.248C300.894 64.9067 301.363 64.6933 301.79 64.608C302.217 60.8533 303.027 57.0133 304.222 53.088C305.417 49.1627 307.038 45.6213 309.086 42.464V41.696C309.086 40.8427 309.598 40.3307 310.622 40.16C311.049 39.7333 311.475 39.264 311.902 38.752C312.414 38.1547 312.969 37.856 313.566 37.856C314.249 37.856 314.761 38.1547 315.102 38.752C315.529 39.264 315.571 39.8187 315.23 40.416C316.851 40.7573 318.302 41.44 319.582 42.464C320.947 43.4027 321.63 44.8107 321.63 46.688C321.63 49.1627 320.691 51.7227 318.814 54.368C317.022 56.928 314.846 59.2747 312.286 61.408C309.811 63.456 307.55 64.992 305.502 66.016C305.246 68.064 305.075 70.1547 304.99 72.288C304.99 74.336 304.99 76.384 304.99 78.432C304.99 79.456 305.033 80.736 305.118 82.272C305.289 83.808 305.673 85.1733 306.27 86.368C306.953 87.5627 308.062 88.16 309.598 88.16C311.219 88.16 312.798 87.4347 314.334 85.984C315.955 84.5333 317.491 82.6987 318.942 80.48C320.478 78.176 321.886 75.7867 323.166 73.312C324.446 70.8373 325.555 68.4907 326.494 66.272C327.433 64.0533 328.115 62.3467 328.542 61.152C328.713 60.7253 328.926 60.3413 329.182 60C329.438 59.5733 329.822 59.36 330.334 59.36C331.017 59.36 331.358 59.7867 331.358 60.64C331.358 62.0053 330.889 63.968 329.95 66.528C329.011 69.0027 327.731 71.6907 326.11 74.592C324.574 77.4933 322.825 80.2667 320.862 82.912C318.985 85.5573 317.065 87.7333 315.102 89.44C313.139 91.1467 311.305 92 309.598 92ZM306.142 62.048C307.763 61.024 309.385 59.744 311.006 58.208C312.627 56.672 313.993 54.9227 315.102 52.96C316.211 50.9973 316.766 49.0347 316.766 47.072C316.766 46.048 316.254 45.3227 315.23 44.896C314.206 44.384 313.31 44.0853 312.542 44C310.921 46.6453 309.555 49.5467 308.446 52.704C307.422 55.8613 306.654 58.976 306.142 62.048ZM338.89 93.664C336.586 93.664 334.751 92.768 333.386 90.976C332.021 89.0987 331.039 86.8373 330.442 84.192C329.845 81.4613 329.461 78.7733 329.29 76.128C329.119 73.4827 329.034 71.392 329.034 69.856C329.034 61.2373 330.015 52.5333 331.978 43.744C332.917 39.648 333.813 36.064 334.666 32.992C335.605 29.92 336.586 27.0613 337.61 24.416C338.634 21.7707 339.786 19.04 341.066 16.224C342.431 13.408 343.967 10.208 345.674 6.62399H345.29C344.778 6.62399 344.351 6.41066 344.01 5.98399C343.754 5.472 343.626 5.00266 343.626 4.576C343.626 3.55199 344.266 2.69866 345.546 2.016C346.826 1.33333 347.893 0.991997 348.746 0.991997C350.538 0.991997 351.903 1.80266 352.842 3.424C353.781 4.96 354.421 6.752 354.762 8.8C355.103 10.7627 355.274 12.4267 355.274 13.792C355.274 15.4987 355.146 17.248 354.89 19.04C354.293 23.3067 353.226 27.872 351.69 32.736C350.239 37.6 348.362 42.2507 346.058 46.688C343.839 51.04 341.109 54.7947 337.866 57.952C337.269 58.464 336.501 59.104 335.562 59.872C334.709 60.5547 333.813 60.896 332.874 60.896C332.618 63.7973 332.49 66.784 332.49 69.856C332.49 70.9653 332.533 72.6293 332.618 74.848C332.789 76.9813 333.087 79.2427 333.514 81.632C334.026 83.936 334.751 85.9413 335.69 87.648C336.714 89.2693 338.037 90.08 339.658 90.08C341.45 90.08 343.157 89.1413 344.778 87.264C346.485 85.3013 348.063 82.912 349.514 80.096C350.965 77.1947 352.287 74.336 353.482 71.52C354.677 68.6187 355.658 66.2293 356.426 64.352C357.279 62.3893 357.877 61.3653 358.218 61.28C358.474 61.6213 358.602 62.1333 358.602 62.816C358.602 64.2667 358.218 66.2293 357.45 68.704C356.682 71.1787 355.615 73.8667 354.25 76.768C352.97 79.584 351.477 82.3147 349.77 84.96C348.063 87.52 346.271 89.6107 344.394 91.232C342.602 92.8533 340.767 93.664 338.89 93.664ZM333.13 58.336C335.093 57.824 336.97 56.2027 338.762 53.472C340.639 50.7413 342.346 47.4133 343.882 43.488C345.418 39.5627 346.741 35.552 347.85 31.456C349.045 27.2747 349.941 23.4773 350.538 20.064C351.221 16.5653 351.562 13.9627 351.562 12.256C351.562 11.4027 351.477 10.336 351.306 9.056C351.135 7.69066 350.495 6.83733 349.386 6.49599C349.301 6.83733 349.087 7.09333 348.746 7.26399C348.49 7.43466 348.277 7.60533 348.106 7.77599C347.082 8.88533 345.93 11.0187 344.65 14.176C343.37 17.3333 342.09 21.0453 340.81 25.312C339.615 29.5787 338.463 33.888 337.354 38.24C336.245 42.592 335.306 46.6027 334.538 50.272C333.77 53.856 333.301 56.544 333.13 58.336ZM366.015 93.664C363.711 93.664 361.876 92.768 360.511 90.976C359.146 89.0987 358.164 86.8373 357.567 84.192C356.97 81.4613 356.586 78.7733 356.415 76.128C356.244 73.4827 356.159 71.392 356.159 69.856C356.159 61.2373 357.14 52.5333 359.103 43.744C360.042 39.648 360.938 36.064 361.791 32.992C362.73 29.92 363.711 27.0613 364.735 24.416C365.759 21.7707 366.911 19.04 368.191 16.224C369.556 13.408 371.092 10.208 372.799 6.62399H372.415C371.903 6.62399 371.476 6.41066 371.135 5.98399C370.879 5.472 370.751 5.00266 370.751 4.576C370.751 3.55199 371.391 2.69866 372.671 2.016C373.951 1.33333 375.018 0.991997 375.871 0.991997C377.663 0.991997 379.028 1.80266 379.967 3.424C380.906 4.96 381.546 6.752 381.887 8.8C382.228 10.7627 382.399 12.4267 382.399 13.792C382.399 15.4987 382.271 17.248 382.015 19.04C381.418 23.3067 380.351 27.872 378.815 32.736C377.364 37.6 375.487 42.2507 373.183 46.688C370.964 51.04 368.234 54.7947 364.991 57.952C364.394 58.464 363.626 59.104 362.687 59.872C361.834 60.5547 360.938 60.896 359.999 60.896C359.743 63.7973 359.615 66.784 359.615 69.856C359.615 70.9653 359.658 72.6293 359.743 74.848C359.914 76.9813 360.212 79.2427 360.639 81.632C361.151 83.936 361.876 85.9413 362.815 87.648C363.839 89.2693 365.162 90.08 366.783 90.08C368.575 90.08 370.282 89.1413 371.903 87.264C373.61 85.3013 375.188 82.912 376.639 80.096C378.09 77.1947 379.412 74.336 380.607 71.52C381.802 68.6187 382.783 66.2293 383.551 64.352C384.404 62.3893 385.002 61.3653 385.343 61.28C385.599 61.6213 385.727 62.1333 385.727 62.816C385.727 64.2667 385.343 66.2293 384.575 68.704C383.807 71.1787 382.74 73.8667 381.375 76.768C380.095 79.584 378.602 82.3147 376.895 84.96C375.188 87.52 373.396 89.6107 371.519 91.232C369.727 92.8533 367.892 93.664 366.015 93.664ZM360.255 58.336C362.218 57.824 364.095 56.2027 365.887 53.472C367.764 50.7413 369.471 47.4133 371.007 43.488C372.543 39.5627 373.866 35.552 374.975 31.456C376.17 27.2747 377.066 23.4773 377.663 20.064C378.346 16.5653 378.687 13.9627 378.687 12.256C378.687 11.4027 378.602 10.336 378.431 9.056C378.26 7.69066 377.62 6.83733 376.511 6.49599C376.426 6.83733 376.212 7.09333 375.871 7.26399C375.615 7.43466 375.402 7.60533 375.231 7.77599C374.207 8.88533 373.055 11.0187 371.775 14.176C370.495 17.3333 369.215 21.0453 367.935 25.312C366.74 29.5787 365.588 33.888 364.479 38.24C363.37 42.592 362.431 46.6027 361.663 50.272C360.895 53.856 360.426 56.544 360.255 58.336ZM391.988 94.048C390.367 94.048 389.001 93.4507 387.892 92.256C386.868 91.0613 386.057 89.6107 385.46 87.904C384.863 86.112 384.436 84.32 384.18 82.528C384.009 80.736 383.924 79.2427 383.924 78.048C383.924 76.768 384.052 74.72 384.308 71.904C384.649 69.0027 385.161 65.8027 385.844 62.304C386.527 58.8053 387.38 55.4347 388.404 52.192C389.428 48.864 390.623 46.0907 391.988 43.872C393.439 41.6533 395.103 40.4587 396.98 40.288C397.236 39.52 397.62 38.88 398.132 38.368C398.644 37.7707 399.327 37.472 400.18 37.472C401.887 37.472 403.38 38.1973 404.66 39.648C405.94 41.0987 407.007 42.8907 407.86 45.024C408.713 47.1573 409.353 49.248 409.78 51.296C410.292 53.344 410.548 55.008 410.548 56.288C410.548 60.2133 410.164 64.096 409.396 67.936L410.42 68.064C412.895 68.064 414.815 67.68 416.18 66.912C417.545 66.144 418.612 65.4187 419.38 64.736C420.148 63.968 420.788 63.584 421.3 63.584C421.812 63.584 422.068 63.8827 422.068 64.48C422.068 65.504 421.513 66.4427 420.404 67.296C419.38 68.064 418.1 68.7893 416.564 69.472C415.028 70.0693 413.535 70.496 412.084 70.752C410.633 71.008 409.524 71.0507 408.756 70.88C408.329 72.672 407.604 74.8907 406.58 77.536C405.641 80.096 404.447 82.656 402.996 85.216C401.631 87.6907 400.009 89.7813 398.132 91.488C396.255 93.1947 394.207 94.048 391.988 94.048ZM405.94 65.376C406.452 62.3893 406.708 59.36 406.708 56.288C406.708 55.6053 406.537 54.4533 406.196 52.832C405.94 51.1253 405.513 49.3333 404.916 47.456C404.404 45.5787 403.764 43.9573 402.996 42.592C402.228 41.2267 401.417 40.544 400.564 40.544C400.137 40.544 399.796 40.8853 399.54 41.568C399.369 42.1653 399.241 42.848 399.156 43.616C399.156 44.384 399.156 44.896 399.156 45.152C399.156 48.5653 399.668 52.1493 400.692 55.904C401.801 59.5733 403.551 62.7307 405.94 65.376ZM392.372 90.72C393.652 90.72 394.975 89.8667 396.34 88.16C397.705 86.368 398.985 84.2347 400.18 81.76C401.46 79.2 402.527 76.768 403.38 74.464C404.233 72.16 404.788 70.4533 405.044 69.344C401.801 67.1253 399.369 64.1387 397.748 60.384C396.212 56.6293 395.444 52.7893 395.444 48.864C395.444 47.1573 395.572 45.536 395.828 44C394.036 47.072 392.543 50.6987 391.348 54.88C390.153 59.0613 389.257 63.328 388.66 67.68C388.148 72.032 387.892 76 387.892 79.584C387.892 80.4373 387.977 81.76 388.148 83.552C388.404 85.344 388.873 87.008 389.556 88.544C390.239 89.9947 391.177 90.72 392.372 90.72Z" fill="white"/>
</svg>
