<svg width="26" height="26" viewBox="0 0 37 37" fill="none" xmlns="http://www.w3.org/2000/svg">
<path d="M18.5752 29.6353C12.395 29.6353 9.57126 26.5043 9.57126 24.2078C9.57043 23.6599 9.79651 23.1359 10.1963 22.759C10.5961 22.3822 11.1344 22.1857 11.6844 22.2158C14.3305 22.2158 13.6384 26.1632 18.5752 26.1632C21.0988 26.1632 22.5811 24.6525 22.5811 23.2331C22.5811 22.3803 22.0911 21.4057 20.425 21.0158L14.9124 19.633C10.4839 18.5122 9.71214 16.0634 9.71214 13.7913C9.71214 9.07641 14.0487 7.37078 18.1771 7.37078C21.9808 7.37078 26.5012 9.46017 26.5012 12.2866C26.5012 13.5049 25.4783 14.1567 24.29 14.1567C22.0298 14.1567 22.4096 11.0013 17.8647 11.0013C15.6045 11.0013 14.4163 12.0552 14.4163 13.5293C14.4163 15.0035 16.1742 15.503 17.7177 15.838L21.7848 16.7517C26.2439 17.7507 27.4322 20.3518 27.4322 22.8433C27.4322 26.6748 24.4493 29.6353 18.5691 29.6353H18.5752ZM36.7459 24.3699C36.3093 22.4405 35.9058 20.4599 35.9033 18.4817C35.9249 13.3533 33.6591 8.47936 29.7167 5.1736C26.6101 2.56871 22.7144 1.14884 18.7171 1.09828C16.617 1.07171 14.5119 0.637821 12.455 0.212883C11.7651 0.0703655 11.0595 -0.0015535 10.3492 2.54438e-05C6.65177 0.022488 3.24366 1.99322 1.39497 5.17776C0.106686 7.39696 -0.289644 9.97364 0.207492 12.4133C0.631672 14.495 1.06159 16.6272 1.08264 18.7516C1.12699 23.2276 2.91645 27.5632 6.15068 30.7973C9.39781 34.0442 13.7694 35.8489 18.2889 35.9038C20.3913 35.9294 22.4989 36.3635 24.5581 36.7881C25.2449 36.9297 25.9472 37.0013 26.6543 37C30.3498 36.9763 33.7558 35.0064 35.6041 31.8238C36.9313 29.5385 37.3125 26.8738 36.7459 24.3699Z" fill="url(#paint0_linear_32_353)" fill-opacity="0.7"/>
<defs>
<linearGradient id="paint0_linear_32_353" x1="18.5" y1="-28.7069" x2="18.5" y2="54.5431" gradientUnits="userSpaceOnUse">
<stop offset="0.214559" stop-color="#8E8E9C"/>
<stop offset="0.762452" stop-color="#ffffff"/>
</linearGradient>
</defs>
</svg>
