<svg width="58" height="61" viewBox="0 0 58 61" fill="none" xmlns="http://www.w3.org/2000/svg">
<path d="M56.4214 0.258392H18.7559V20.3911H37.2891C37.9494 20.3911 38.485 20.9621 38.485 21.666V41.1508H57.6173V1.53562C57.6179 1.1971 57.4921 0.872221 57.2678 0.632626C57.0435 0.393031 56.739 0.258392 56.4214 0.258392Z" fill="#8E75FF"/>
<path opacity="0.405" d="M18.7537 0.258392V20.3911H1.08405C0.84125 20.3907 0.622719 20.234 0.530729 19.9944C0.438739 19.7549 0.491486 19.4798 0.664286 19.298L18.7537 0.258392ZM39.5039 60.2114C39.3318 60.3915 39.0753 60.4441 38.8528 60.3449C38.6304 60.2457 38.4855 60.0139 38.485 59.7569V41.1508H57.6173L39.5039 60.2091V60.2114Z" fill="#8E75FF"/>
<path opacity="0.405" d="M18.7537 20.3911H37.8882C38.2161 20.3911 38.485 20.6755 38.485 21.0274V41.1508H19.9518C19.2913 41.1508 18.7559 40.58 18.7559 39.8759V20.3911H18.7537Z" fill="#8E75FF"/>
</svg>
