<svg width="1005" height="162" viewBox="0 0 1005 162" fill="none" xmlns="http://www.w3.org/2000/svg">
<mask id="path-1-outside-1_145_13" maskUnits="userSpaceOnUse" x="-3" y="-3" width="1011" height="168" fill="black">
<rect fill="white" x="-3" y="-3" width="1011" height="168"/>
<path d="M27.6172 106.424C29.4727 107.693 32.2721 108.328 36.0156 108.328C39.3685 108.328 42.0866 108.133 44.1699 107.742C46.2858 107.352 47.8809 106.717 48.9551 105.838C50.0293 104.926 50.7454 103.934 51.1035 102.859C51.4616 101.753 51.6406 100.32 51.6406 98.5625C51.6406 96.4792 51.0872 94.6888 49.9805 93.1914C48.8737 91.694 47.3763 90.4896 45.4883 89.5781C43.6003 88.6667 41.4355 87.8691 38.9941 87.1855C36.5527 86.4694 33.9811 85.8021 31.2793 85.1836C28.5775 84.5326 25.8757 83.8327 23.1738 83.084C20.472 82.3027 17.9004 81.2936 15.459 80.0566C13.0176 78.7871 10.8529 77.306 8.96484 75.6133C7.07682 73.888 5.57943 71.6582 4.47266 68.9238C3.36589 66.1895 2.8125 63.0482 2.8125 59.5C2.8125 56.2448 3.20312 53.2826 3.98438 50.6133C4.76562 47.944 5.80729 45.6816 7.10938 43.8262C8.41146 41.9382 10.0553 40.2943 12.041 38.8945C14.0267 37.4948 16.0938 36.3717 18.2422 35.5254C20.4232 34.679 22.8646 33.9954 25.5664 33.4746C28.3008 32.9538 30.9375 32.612 33.4766 32.4492C36.0156 32.2539 38.7826 32.1562 41.7773 32.1562C48.2878 32.1562 53.9681 32.9863 58.8184 34.6465C63.7012 36.3066 67.5423 38.5365 70.3418 41.3359C71.8392 42.6055 72.9948 44.1517 73.8086 45.9746C74.6549 47.765 75.0781 49.6693 75.0781 51.6875C75.0781 55.4635 73.7435 58.6862 71.0742 61.3555C68.4049 64.0247 65.1823 65.3594 61.4062 65.3594C57.6302 65.3594 54.4076 64.0247 51.7383 61.3555C49.069 58.6862 47.7344 55.4635 47.7344 51.6875C47.7344 50.3203 47.9297 49.002 48.3203 47.7324C46.4648 46.4629 43.6654 45.8281 39.9219 45.8281C35.332 45.8281 31.8978 46.3815 29.6191 47.4883C27.373 48.5951 26.25 50.6458 26.25 53.6406C26.25 55.5286 26.722 57.2051 27.666 58.6699C28.61 60.1022 29.8958 61.2904 31.5234 62.2344C33.151 63.1458 35.0391 64.0247 37.1875 64.8711C39.3685 65.6849 41.6797 66.3848 44.1211 66.9707C46.5625 67.5241 49.069 68.2077 51.6406 69.0215C54.2122 69.8353 56.7188 70.6654 59.1602 71.5117C61.6016 72.3581 63.8965 73.4811 66.0449 74.8809C68.2259 76.248 70.1302 77.7943 71.7578 79.5195C73.3854 81.2448 74.6712 83.4095 75.6152 86.0137C76.5592 88.5853 77.0312 91.4661 77.0312 94.6562C77.0312 99.2135 76.2663 103.234 74.7363 106.717C73.2389 110.167 71.2207 112.967 68.6816 115.115C66.1751 117.264 63.0501 119.021 59.3066 120.389C55.5632 121.723 51.6732 122.651 47.6367 123.172C43.6003 123.693 39.1081 123.953 34.1602 123.953C24.1667 123.953 16.11 122.049 9.99023 118.24C3.90299 114.432 0.859375 109.174 0.859375 102.469C0.859375 98.6927 2.19401 95.4701 4.86328 92.8008C7.53255 90.1315 10.7552 88.7969 14.5312 88.7969C18.3073 88.7969 21.5299 90.1315 24.1992 92.8008C26.8685 95.4701 28.2031 98.6927 28.2031 102.469C28.2031 103.836 28.0078 105.154 27.6172 106.424ZM114.141 12.625H123.906V32.1562H151.25V47.7812H123.906V98.5625C123.906 100.776 124.525 102.632 125.762 104.129C127.031 105.626 129.017 106.375 131.719 106.375C134.746 106.375 137.318 105.382 139.434 103.396C141.549 101.378 142.884 98.4648 143.438 94.6562L155.156 96.6094C154.668 100.418 153.724 103.95 152.324 107.205C150.957 110.428 149.167 113.309 146.953 115.848C144.74 118.354 141.989 120.34 138.701 121.805C135.446 123.237 131.816 123.953 127.812 123.953C118.079 123.953 110.43 121.691 104.863 117.166C99.3294 112.609 96.5625 106.408 96.5625 98.5625V47.7812H86.7969V32.1562H88.75C93.763 32.1562 98.1901 30.724 102.031 27.8594C105.872 24.9948 109.909 19.9167 114.141 12.625ZM162.969 32.1562H193.291L199.443 44.0215C205.205 34.8092 213.359 30.2031 223.906 30.2031C230.97 30.2031 236.569 32.3841 240.703 36.7461C244.87 41.0755 246.953 46.707 246.953 53.6406C246.953 57.9701 245.423 61.6647 242.363 64.7246C239.336 67.752 235.658 69.2656 231.328 69.2656C226.999 69.2656 223.304 67.752 220.244 64.7246C217.217 61.6647 215.703 57.9701 215.703 53.6406C215.703 51.8828 215.98 50.1901 216.533 48.5625C215.654 48.0417 214.727 47.7812 213.75 47.7812C211.569 47.7812 209.307 49.2135 206.963 52.0781C204.652 54.9102 202.422 59.1582 200.273 64.8223L200.078 106.375H221.562V122H162.969V106.375H172.734V47.7812H162.969V32.1562ZM334.844 63.1621V106.375H344.609V122H314.189L309.844 111.844C306.523 116.596 302.666 119.852 298.271 121.609C293.91 123.367 287.806 124.246 279.961 124.246C275.892 124.246 272.1 123.53 268.584 122.098C265.101 120.698 262.122 118.777 259.648 116.336C257.207 113.895 255.286 110.965 253.887 107.547C252.52 104.129 251.836 100.467 251.836 96.5605C251.836 89.8223 254.473 84.2396 259.746 79.8125C265.02 75.3529 271.758 73.123 279.961 73.123C286.569 73.123 292.038 73.7578 296.367 75.0273C300.697 76.2643 304.408 78.25 307.5 80.9844V60.2812C307.5 57.3516 307.093 54.9102 306.279 52.957C305.498 50.9714 304.31 49.4577 302.715 48.416C301.12 47.3418 299.329 46.5931 297.344 46.1699C295.358 45.7467 292.982 45.5352 290.215 45.5352C288.001 45.5352 285.999 46.0072 284.209 46.9512C285.218 49.0671 285.723 51.2969 285.723 53.6406C285.723 57.9701 284.193 61.6647 281.133 64.7246C278.105 67.752 274.427 69.2656 270.098 69.2656C265.768 69.2656 262.074 67.752 259.014 64.7246C255.986 61.6647 254.473 57.9701 254.473 53.6406C254.473 51.4271 254.896 49.3438 255.742 47.3906C256.621 45.4375 257.826 43.7285 259.355 42.2637C260.658 40.8965 262.008 39.6758 263.408 38.6016C264.808 37.4948 266.566 36.4043 268.682 35.3301C270.83 34.2233 273.158 33.3118 275.664 32.5957C278.171 31.8796 281.165 31.3099 284.648 30.8867C288.164 30.431 292.005 30.2031 296.172 30.2031C301.576 30.2031 306.654 31.0007 311.406 32.5957C316.159 34.1908 320.26 36.4043 323.711 39.2363C327.161 42.0684 329.88 45.5514 331.865 49.6855C333.851 53.8197 334.844 58.3118 334.844 63.1621ZM307.5 100.32V93.582C305.482 91.6615 303.203 90.0501 300.664 88.748C298.158 87.4134 295.83 86.7461 293.682 86.7461C289.059 86.7461 285.804 87.5273 283.916 89.0898C282.028 90.6198 281.084 93.11 281.084 96.5605C281.084 100.695 281.898 103.738 283.525 105.691C285.153 107.645 288.18 108.621 292.607 108.621C295.114 108.621 297.718 107.824 300.42 106.229C303.154 104.601 305.514 102.632 307.5 100.32ZM343.633 32.1562H398.32V47.7812H382.988L396.123 82.9375C397.197 85.8021 398.418 89.8711 399.785 95.1445C401.12 89.8711 402.292 85.8021 403.301 82.9375L415.898 47.7812H408.086V32.1562H443.242V47.7812H433.672L446.855 82.9375C447.93 85.8021 449.15 89.8711 450.518 95.1445C451.917 89.5781 453.073 85.5091 453.984 82.9375L466.582 47.7812H453.008V32.1562H494.023V47.7812H483.672L456.914 122H435.43L424.883 92.7031C423.613 89.1875 422.262 84.6302 420.83 79.0312C419.398 84.6628 418.047 89.2201 416.777 92.7031L406.23 122H379.57L352.812 47.7812H343.633V32.1562ZM568.828 30.2031C576.445 30.2031 582.891 32.14 588.164 36.0137C593.47 39.8548 597.409 45.2585 599.98 52.2246C602.585 59.1582 603.887 67.459 603.887 77.127C603.887 84.1908 602.91 90.6686 600.957 96.5605C599.004 102.42 596.302 107.352 592.852 111.355C589.434 115.327 585.332 118.419 580.547 120.633C575.794 122.846 570.618 123.953 565.02 123.953C562.415 123.953 559.909 123.725 557.5 123.27C555.091 122.814 552.992 122.26 551.201 121.609C549.411 120.926 547.653 120.063 545.928 119.021C544.235 117.98 542.819 117.02 541.68 116.141C540.573 115.262 539.45 114.22 538.311 113.016C537.204 111.811 536.374 110.867 535.82 110.184C535.299 109.5 534.714 108.702 534.062 107.791L524.541 122H511.602V16.5312H501.836V0.90625H538.945V46.8047C540.28 44.4935 541.842 42.3776 543.633 40.457C545.423 38.5365 547.523 36.7949 549.932 35.2324C552.373 33.6374 555.205 32.4004 558.428 31.5215C561.65 30.6426 565.117 30.2031 568.828 30.2031ZM538.945 92.752C540.671 96.7559 542.917 99.946 545.684 102.322C548.451 104.666 551.722 105.838 555.498 105.838C561.943 105.838 566.729 103.315 569.854 98.2695C573.011 93.224 574.59 86.0625 574.59 76.7852C574.59 72.4232 574.069 68.403 573.027 64.7246C572.018 61.0137 570.651 57.9375 568.926 55.4961C567.233 53.0547 565.28 51.1667 563.066 49.832C560.853 48.4648 558.542 47.7812 556.133 47.7812C552.552 47.7812 549.395 48.888 546.66 51.1016C543.958 53.2826 541.387 56.554 538.945 60.916V92.752ZM642.949 82.9375C643.242 86.7135 643.861 90.0827 644.805 93.0449C645.749 96.0072 646.888 98.4323 648.223 100.32C649.59 102.208 651.169 103.771 652.959 105.008C654.749 106.212 656.589 107.075 658.477 107.596C660.365 108.084 662.383 108.328 664.531 108.328C671.4 108.328 676.755 107.01 680.596 104.373C684.469 101.704 687.562 97.6022 689.873 92.0684L702.861 96.5605C701.689 99.7181 700.192 102.697 698.369 105.496C696.579 108.263 694.414 110.818 691.875 113.162C689.336 115.506 686.504 117.524 683.379 119.217C680.286 120.877 676.787 122.179 672.881 123.123C668.975 124.067 664.857 124.539 660.527 124.539C654.115 124.539 648.044 123.416 642.314 121.17C636.618 118.924 631.654 115.799 627.422 111.795C623.223 107.758 619.886 102.794 617.412 96.9023C614.971 91.0104 613.75 84.5977 613.75 77.6641C613.75 70.7305 614.971 64.2852 617.412 58.3281C619.886 52.3711 623.223 47.3581 627.422 43.2891C631.654 39.1875 636.618 35.9811 642.314 33.6699C648.044 31.3587 654.115 30.2031 660.527 30.2031C666.94 30.2031 672.995 31.3587 678.691 33.6699C684.421 35.9811 689.385 39.1875 693.584 43.2891C697.816 47.3581 701.152 52.3711 703.594 58.3281C706.068 64.2852 707.305 70.7305 707.305 77.6641L706.084 82.9375H642.949ZM643.291 67.3125H677.764C676.917 59.8255 675.046 54.373 672.148 50.9551C669.251 47.5371 665.41 45.8281 660.625 45.8281C658.249 45.8281 656.117 46.2188 654.229 47C652.34 47.7487 650.648 48.9694 649.15 50.6621C647.653 52.3223 646.4 54.5521 645.391 57.3516C644.414 60.1185 643.714 63.4388 643.291 67.3125ZM715.117 32.1562H745.439L751.592 44.0215C757.354 34.8092 765.508 30.2031 776.055 30.2031C783.118 30.2031 788.717 32.3841 792.852 36.7461C797.018 41.0755 799.102 46.707 799.102 53.6406C799.102 57.9701 797.572 61.6647 794.512 64.7246C791.484 67.752 787.806 69.2656 783.477 69.2656C779.147 69.2656 775.452 67.752 772.393 64.7246C769.365 61.6647 767.852 57.9701 767.852 53.6406C767.852 51.8828 768.128 50.1901 768.682 48.5625C767.803 48.0417 766.875 47.7812 765.898 47.7812C763.717 47.7812 761.455 49.2135 759.111 52.0781C756.8 54.9102 754.57 59.1582 752.422 64.8223L752.227 106.375H773.711V122H715.117V106.375H724.883V47.7812H715.117V32.1562ZM806.914 32.1562H837.236L843.389 44.0215C849.15 34.8092 857.305 30.2031 867.852 30.2031C874.915 30.2031 880.514 32.3841 884.648 36.7461C888.815 41.0755 890.898 46.707 890.898 53.6406C890.898 57.9701 889.368 61.6647 886.309 64.7246C883.281 67.752 879.603 69.2656 875.273 69.2656C870.944 69.2656 867.249 67.752 864.189 64.7246C861.162 61.6647 859.648 57.9701 859.648 53.6406C859.648 51.8828 859.925 50.1901 860.479 48.5625C859.6 48.0417 858.672 47.7812 857.695 47.7812C855.514 47.7812 853.252 49.2135 850.908 52.0781C848.597 54.9102 846.367 59.1582 844.219 64.8223L844.023 106.375H865.508V122H806.914V106.375H816.68V47.7812H806.914V32.1562ZM901.299 152.127C899.574 149.523 898.711 146.642 898.711 143.484C898.711 139.155 900.225 135.46 903.252 132.4C906.312 129.373 910.007 127.859 914.336 127.859C918.665 127.859 922.344 129.373 925.371 132.4C928.431 135.46 929.961 139.155 929.961 143.484C929.961 144.396 929.88 145.275 929.717 146.121C929.847 146.154 929.961 146.17 930.059 146.17C932.402 146.17 935.267 142.296 938.652 134.549L942.314 126.15L907.891 47.7812H898.711V32.1562H953.398V47.7812H937.334L952.812 82.9375C954.798 87.5599 956.23 91.4661 957.109 94.6562C957.988 91.4661 959.421 87.5599 961.406 82.9375L976.836 47.7812H963.164V32.1562H1004.18V47.7812H993.828L961.211 122C959.518 125.841 957.988 129.145 956.621 131.912C955.286 134.712 953.773 137.544 952.08 140.408C950.42 143.305 948.809 145.747 947.246 147.732C945.684 149.718 943.91 151.606 941.924 153.396C939.971 155.187 937.936 156.603 935.82 157.645C933.704 158.719 931.361 159.549 928.789 160.135C926.217 160.753 923.451 161.062 920.488 161.062C917.721 161.062 915.28 160.835 913.164 160.379C911.048 159.956 909.242 159.305 907.744 158.426C906.279 157.579 905.059 156.652 904.082 155.643C903.105 154.666 902.178 153.494 901.299 152.127Z"/>
</mask>
<path d="M27.6172 106.424L24.7499 105.542L24.1003 107.653L25.9231 108.9L27.6172 106.424ZM44.1699 107.742L43.6253 104.792L43.6171 104.794L44.1699 107.742ZM48.9551 105.838L50.8548 108.16L50.8756 108.143L50.896 108.125L48.9551 105.838ZM51.1035 102.859L53.9496 103.808L53.9538 103.795L53.9578 103.783L51.1035 102.859ZM38.9941 87.1855L38.1497 90.0643L38.1675 90.0695L38.1853 90.0744L38.9941 87.1855ZM31.2793 85.1836L30.5765 88.1001L30.5932 88.1041L30.6099 88.108L31.2793 85.1836ZM23.1738 83.084L22.3405 85.9659L22.3566 85.9706L22.3727 85.975L23.1738 83.084ZM15.459 80.0566L14.0749 82.7183L14.089 82.7256L14.1031 82.7327L15.459 80.0566ZM8.96484 75.6133L6.94113 77.8279L6.95162 77.8375L6.96221 77.847L8.96484 75.6133ZM7.10938 43.8262L9.56505 45.5494L9.57207 45.5394L9.57901 45.5294L7.10938 43.8262ZM12.041 38.8945L10.3125 36.4425L12.041 38.8945ZM18.2422 35.5254L17.1569 32.7286L17.1497 32.7314L17.1426 32.7342L18.2422 35.5254ZM25.5664 33.4746L25.0051 30.5276L24.9985 30.5288L25.5664 33.4746ZM33.4766 32.4492L33.6685 35.4431L33.6876 35.4418L33.7067 35.4404L33.4766 32.4492ZM58.8184 34.6465L57.8468 37.4848L57.8527 37.4868L58.8184 34.6465ZM70.3418 41.3359L68.2205 43.4573L68.3077 43.5445L68.4017 43.6242L70.3418 41.3359ZM73.8086 45.9746L71.0692 47.1976L71.0825 47.2273L71.0964 47.2567L73.8086 45.9746ZM48.3203 47.7324L51.1876 48.6147L51.8372 46.5037L50.0144 45.2565L48.3203 47.7324ZM29.6191 47.4883L28.3084 44.7898L28.3008 44.7935L28.2931 44.7972L29.6191 47.4883ZM27.666 58.6699L25.1443 60.295L25.1527 60.308L25.1611 60.3209L27.666 58.6699ZM31.5234 62.2344L30.0183 64.8295L30.0379 64.8408L30.0576 64.8519L31.5234 62.2344ZM37.1875 64.8711L36.0879 67.6623L36.1132 67.6723L36.1387 67.6818L37.1875 64.8711ZM44.1211 66.9707L43.421 69.8879L43.4394 69.8923L43.4579 69.8965L44.1211 66.9707ZM59.1602 71.5117L60.1428 68.6772L59.1602 71.5117ZM66.0449 74.8809L64.4073 77.3944L64.4293 77.4088L64.4515 77.4227L66.0449 74.8809ZM75.6152 86.0137L72.7948 87.0361L72.799 87.0475L75.6152 86.0137ZM74.7363 106.717L71.9896 105.51L71.9843 105.523L74.7363 106.717ZM68.6816 115.115L66.7438 112.825L66.7365 112.831L66.7293 112.837L68.6816 115.115ZM59.3066 120.389L60.3141 123.214L60.325 123.211L60.3358 123.207L59.3066 120.389ZM47.6367 123.172L47.2528 120.197L47.6367 123.172ZM9.99023 118.24L8.39901 120.783L8.40511 120.787L9.99023 118.24ZM4.86328 92.8008L2.74196 90.6795L4.86328 92.8008ZM25.9231 108.9C28.5104 110.67 32.03 111.328 36.0156 111.328V105.328C32.5143 105.328 30.4349 104.717 29.3112 103.948L25.9231 108.9ZM36.0156 111.328C39.4604 111.328 42.3838 111.129 44.7228 110.691L43.6171 104.794C41.7894 105.136 39.2766 105.328 36.0156 105.328V111.328ZM44.7146 110.692C47.0788 110.256 49.2312 109.488 50.8548 108.16L47.0554 103.516C46.5306 103.945 45.4929 104.447 43.6253 104.792L44.7146 110.692ZM50.896 108.125C52.2872 106.945 53.3802 105.516 53.9496 103.808L48.2575 101.911C48.1107 102.351 47.7714 102.908 47.0141 103.55L50.896 108.125ZM53.9578 103.783C54.4484 102.267 54.6406 100.491 54.6406 98.5625H48.6406C48.6406 100.15 48.4748 101.239 48.2492 101.936L53.9578 103.783ZM54.6406 98.5625C54.6406 95.9172 53.9263 93.4827 52.393 91.4082L47.5679 94.9746C48.2482 95.8949 48.6406 97.0411 48.6406 98.5625H54.6406ZM52.393 91.4082C50.962 89.4722 49.0631 87.9726 46.7925 86.8765L44.184 92.2798C45.6895 93.0065 46.7854 93.9158 47.5679 94.9746L52.393 91.4082ZM46.7925 86.8765C44.7163 85.8742 42.3808 85.0184 39.803 84.2967L38.1853 90.0744C40.4903 90.7199 42.4842 91.4592 44.184 92.2798L46.7925 86.8765ZM39.8386 84.3068C37.3344 83.5723 34.7042 82.89 31.9487 82.2592L30.6099 88.108C33.2581 88.7142 35.771 89.3665 38.1497 90.0643L39.8386 84.3068ZM31.9821 82.2671C29.3135 81.624 26.6444 80.9327 23.975 80.1929L22.3727 85.975C25.1069 86.7327 27.8415 87.4411 30.5765 88.1001L31.9821 82.2671ZM24.0072 80.202C21.4806 79.4715 19.0844 78.5304 16.8149 77.3805L14.1031 82.7327C16.7164 84.0568 19.4634 85.134 22.3405 85.9659L24.0072 80.202ZM16.843 77.395C14.6061 76.2318 12.6529 74.8906 10.9675 73.3796L6.96221 77.847C9.05283 79.7213 11.429 81.3424 14.0749 82.7183L16.843 77.395ZM10.9886 73.3987C9.47815 72.0184 8.21804 70.1812 7.2535 67.7982L1.69182 70.0494C2.94082 73.1352 4.6755 75.7576 6.94113 77.8279L10.9886 73.3987ZM7.2535 67.7982C6.31762 65.4861 5.8125 62.7388 5.8125 59.5H-0.1875C-0.1875 63.3576 0.414153 66.8928 1.69182 70.0494L7.2535 67.7982ZM5.8125 59.5C5.8125 56.4827 6.17472 53.8096 6.86359 51.456L1.10516 49.7706C0.231525 52.7555 -0.1875 56.0068 -0.1875 59.5H5.8125ZM6.86359 51.456C7.57286 49.0326 8.48849 47.0835 9.56505 45.5494L4.6537 42.1029C3.12609 44.2797 1.95839 46.8554 1.10516 49.7706L6.86359 51.456ZM9.57901 45.5294C10.6685 43.9497 12.0558 42.5546 13.7695 41.3465L10.3125 36.4425C8.05487 38.034 6.15444 39.9267 4.63974 42.123L9.57901 45.5294ZM13.7695 41.3465C15.5699 40.0774 17.427 39.0709 19.3418 38.3166L17.1426 32.7342C14.7605 33.6726 12.4834 34.9122 10.3125 36.4425L13.7695 41.3465ZM19.3275 38.3222C21.3146 37.5511 23.5791 36.9129 26.1343 36.4204L24.9985 30.5288C22.15 31.078 19.5317 31.807 17.1569 32.7286L19.3275 38.3222ZM26.1277 36.4216C28.7513 35.9219 31.2643 35.5972 33.6685 35.4431L33.2846 29.4554C30.6107 29.6268 27.8503 29.9857 25.0051 30.5276L26.1277 36.4216ZM33.7067 35.4404C36.1573 35.2519 38.8464 35.1562 41.7773 35.1562V29.1562C38.7187 29.1562 35.874 29.2559 33.2465 29.4581L33.7067 35.4404ZM41.7773 35.1562C48.0422 35.1562 53.3807 35.9561 57.8468 37.4848L59.7899 31.8081C54.5555 30.0165 48.5333 29.1562 41.7773 29.1562V35.1562ZM57.8527 37.4868C62.4271 39.0421 65.8291 41.0658 68.2205 43.4573L72.4631 39.2146C69.2556 36.0071 64.9753 33.5712 59.7841 31.8062L57.8527 37.4868ZM68.4017 43.6242C69.5503 44.598 70.4354 45.778 71.0692 47.1976L76.548 44.7517C75.5541 42.5254 74.1281 40.613 72.2819 39.0477L68.4017 43.6242ZM71.0964 47.2567C71.7495 48.6384 72.0781 50.1039 72.0781 51.6875H78.0781C78.0781 49.2346 77.5604 46.8915 76.5208 44.6925L71.0964 47.2567ZM72.0781 51.6875C72.0781 54.6682 71.0594 57.1277 68.9529 59.2341L73.1955 63.4768C76.4276 60.2447 78.0781 56.2589 78.0781 51.6875H72.0781ZM68.9529 59.2341C66.8464 61.3406 64.3869 62.3594 61.4062 62.3594V68.3594C65.9777 68.3594 69.9635 66.7089 73.1955 63.4768L68.9529 59.2341ZM61.4062 62.3594C58.4256 62.3594 55.9661 61.3406 53.8596 59.2341L49.617 63.4768C52.849 66.7089 56.8348 68.3594 61.4062 68.3594V62.3594ZM53.8596 59.2341C51.7531 57.1277 50.7344 54.6682 50.7344 51.6875H44.7344C44.7344 56.2589 46.3849 60.2447 49.617 63.4768L53.8596 59.2341ZM50.7344 51.6875C50.7344 50.6105 50.8875 49.59 51.1876 48.6147L45.453 46.8502C44.9718 48.4139 44.7344 50.0301 44.7344 51.6875H50.7344ZM50.0144 45.2565C47.4271 43.4862 43.9075 42.8281 39.9219 42.8281V48.8281C43.4232 48.8281 45.5026 49.4395 46.6263 50.2083L50.0144 45.2565ZM39.9219 42.8281C35.1891 42.8281 31.2049 43.3829 28.3084 44.7898L30.9299 50.1868C32.5907 49.3801 35.4749 48.8281 39.9219 48.8281V42.8281ZM28.2931 44.7972C26.6582 45.6028 25.3402 46.81 24.461 48.4155C23.599 49.9897 23.25 51.7776 23.25 53.6406H29.25C29.25 52.5089 29.4626 51.774 29.7236 51.2974C29.9674 50.8521 30.334 50.4805 30.9452 50.1793L28.2931 44.7972ZM23.25 53.6406C23.25 56.0549 23.862 58.3052 25.1443 60.295L30.1877 57.0448C29.582 56.1049 29.25 55.0024 29.25 53.6406H23.25ZM25.1611 60.3209C26.3848 62.1775 28.0284 63.6753 30.0183 64.8295L33.0286 59.6393C31.7633 58.9054 30.8352 58.0269 30.1709 57.019L25.1611 60.3209ZM30.0576 64.8519C31.8271 65.8428 33.8419 66.7775 36.0879 67.6623L38.2871 62.0799C36.2362 61.272 34.475 60.4489 32.9892 59.6169L30.0576 64.8519ZM36.1387 67.6818C38.4421 68.5413 40.8704 69.2757 43.421 69.8879L44.8212 64.0535C42.4889 63.4938 40.2948 62.8285 38.2363 62.0604L36.1387 67.6818ZM43.4579 69.8965C45.8118 70.43 48.2375 71.0912 50.7355 71.8817L52.5458 66.1613C49.9005 65.3242 47.3132 64.6181 44.7843 64.0449L43.4579 69.8965ZM50.7355 71.8817C53.2823 72.6876 55.7629 73.5092 58.1775 74.3462L60.1428 68.6772C57.6746 67.8216 55.1422 66.9829 52.5458 66.1613L50.7355 71.8817ZM58.1775 74.3462C60.3901 75.1133 62.4649 76.129 64.4073 77.3944L67.6826 72.3673C65.3281 70.8333 62.813 69.6029 60.1428 68.6772L58.1775 74.3462ZM64.4515 77.4227C66.4348 78.6659 68.1371 80.0534 69.5756 81.5782L73.94 77.4609C72.1233 75.5351 70.0171 73.8301 67.6383 72.339L64.4515 77.4227ZM69.5756 81.5782C70.8787 82.9595 71.9673 84.7533 72.7948 87.0361L78.4356 84.9913C77.3751 82.0657 75.8921 79.5301 73.94 77.4609L69.5756 81.5782ZM72.799 87.0475C73.6033 89.2384 74.0312 91.7619 74.0312 94.6562H80.0312C80.0312 91.1704 79.5152 87.9322 78.4315 84.9799L72.799 87.0475ZM74.0312 94.6562C74.0312 98.8789 73.3229 102.475 71.9896 105.51L77.483 107.923C79.2097 103.992 80.0312 99.5482 80.0312 94.6562H74.0312ZM71.9843 105.523C70.6463 108.606 68.8872 111.011 66.7438 112.825L70.6195 117.405C73.5542 114.922 75.8316 111.729 77.4884 107.911L71.9843 105.523ZM66.7293 112.837C64.5457 114.709 61.7513 116.302 58.2775 117.571L60.3358 123.207C64.3489 121.741 67.8046 119.818 70.634 117.393L66.7293 112.837ZM58.2992 117.563C54.7624 118.824 51.0818 119.702 47.2528 120.197L48.0206 126.147C52.2646 125.6 56.3639 124.623 60.3141 123.214L58.2992 117.563ZM47.2528 120.197C43.3673 120.698 39.006 120.953 34.1602 120.953V126.953C39.2101 126.953 43.8332 126.688 48.0206 126.147L47.2528 120.197ZM34.1602 120.953C24.5191 120.953 17.0694 119.112 11.5754 115.693L8.40511 120.787C15.1507 124.985 23.8142 126.953 34.1602 126.953V120.953ZM11.5815 115.697C6.296 112.39 3.85938 108.056 3.85938 102.469H-2.14062C-2.14062 110.293 1.50999 116.473 8.39902 120.783L11.5815 115.697ZM3.85938 102.469C3.85938 99.4881 4.87813 97.0286 6.9846 94.9221L2.74196 90.6795C-0.490108 93.9115 -2.14062 97.8973 -2.14062 102.469H3.85938ZM6.9846 94.9221C9.09107 92.8156 11.5506 91.7969 14.5312 91.7969V85.7969C9.95983 85.7969 5.97403 87.4474 2.74196 90.6795L6.9846 94.9221ZM14.5312 91.7969C17.5119 91.7969 19.9714 92.8156 22.0779 94.9221L26.3205 90.6795C23.0885 87.4474 19.1027 85.7969 14.5312 85.7969V91.7969ZM22.0779 94.9221C24.1844 97.0286 25.2031 99.4881 25.2031 102.469H31.2031C31.2031 97.8973 29.5526 93.9115 26.3205 90.6795L22.0779 94.9221ZM25.2031 102.469C25.2031 103.546 25.05 104.566 24.7499 105.542L30.4845 107.306C30.9657 105.742 31.2031 104.126 31.2031 102.469H25.2031ZM114.141 12.625V9.625H112.413L111.546 11.1192L114.141 12.625ZM123.906 12.625H126.906V9.625H123.906V12.625ZM123.906 32.1562H120.906V35.1562H123.906V32.1562ZM151.25 32.1562H154.25V29.1562H151.25V32.1562ZM151.25 47.7812V50.7812H154.25V47.7812H151.25ZM123.906 47.7812V44.7812H120.906V47.7812H123.906ZM125.762 104.129L123.449 106.04L123.461 106.054L123.473 106.069L125.762 104.129ZM139.434 103.396L141.487 105.584L141.495 105.576L141.504 105.567L139.434 103.396ZM143.438 94.6562L143.931 91.6971L140.909 91.1935L140.469 94.2249L143.438 94.6562ZM155.156 96.6094L158.132 96.9909L158.499 94.1252L155.649 93.6502L155.156 96.6094ZM152.324 107.205L149.568 106.02L149.565 106.027L149.562 106.033L152.324 107.205ZM146.953 115.848L149.202 117.833L149.208 117.826L149.214 117.819L146.953 115.848ZM138.701 121.805L139.909 124.551L139.922 124.545L138.701 121.805ZM104.863 117.166L102.956 119.482L102.964 119.488L102.971 119.494L104.863 117.166ZM96.5625 47.7812H99.5625V44.7812H96.5625V47.7812ZM86.7969 47.7812H83.7969V50.7812H86.7969V47.7812ZM86.7969 32.1562V29.1562H83.7969V32.1562H86.7969ZM102.031 27.8594L100.238 25.4545L102.031 27.8594ZM114.141 15.625H123.906V9.625H114.141V15.625ZM120.906 12.625V32.1562H126.906V12.625H120.906ZM123.906 35.1562H151.25V29.1562H123.906V35.1562ZM148.25 32.1562V47.7812H154.25V32.1562H148.25ZM151.25 44.7812H123.906V50.7812H151.25V44.7812ZM120.906 47.7812V98.5625H126.906V47.7812H120.906ZM120.906 98.5625C120.906 101.37 121.706 103.93 123.449 106.04L128.075 102.218C127.343 101.333 126.906 100.182 126.906 98.5625H120.906ZM123.473 106.069C125.505 108.465 128.483 109.375 131.719 109.375V103.375C129.55 103.375 128.557 102.787 128.05 102.189L123.473 106.069ZM131.719 109.375C135.472 109.375 138.788 108.116 141.487 105.584L137.381 101.209C135.847 102.648 134.02 103.375 131.719 103.375V109.375ZM141.504 105.567C144.24 102.958 145.787 99.3496 146.406 95.0876L140.469 94.2249C139.981 97.5801 138.859 99.7986 137.363 101.226L141.504 105.567ZM142.944 97.6154L154.663 99.5686L155.649 93.6502L143.931 91.6971L142.944 97.6154ZM152.181 96.2279C151.725 99.7827 150.849 103.042 149.568 106.02L155.08 108.39C156.599 104.858 157.611 101.053 158.132 96.9909L152.181 96.2279ZM149.562 106.033C148.314 108.976 146.689 111.585 144.692 113.876L149.214 117.819C151.644 115.032 153.6 111.879 155.086 108.377L149.562 106.033ZM144.704 113.862C142.797 116.022 140.406 117.761 137.48 119.064L139.922 124.545C143.572 122.919 146.682 120.686 149.202 117.833L144.704 113.862ZM137.493 119.059C134.664 120.304 131.453 120.953 127.812 120.953V126.953C132.18 126.953 136.228 126.17 139.909 124.551L137.493 119.059ZM127.812 120.953C118.524 120.953 111.624 118.795 106.756 114.838L102.971 119.494C109.236 124.586 117.635 126.953 127.812 126.953V120.953ZM106.77 114.85C101.999 110.921 99.5625 105.607 99.5625 98.5625H93.5625C93.5625 107.208 96.6594 114.296 102.956 119.482L106.77 114.85ZM99.5625 98.5625V47.7812H93.5625V98.5625H99.5625ZM96.5625 44.7812H86.7969V50.7812H96.5625V44.7812ZM89.7969 47.7812V32.1562H83.7969V47.7812H89.7969ZM86.7969 35.1562H88.75V29.1562H86.7969V35.1562ZM88.75 35.1562C94.3774 35.1562 99.4404 33.5339 103.825 30.2643L100.238 25.4545C96.9398 27.914 93.1486 29.1562 88.75 29.1562V35.1562ZM103.825 30.2643C108.15 27.0387 112.431 21.5471 116.735 14.1308L111.546 11.1192C107.386 18.2862 103.595 22.9509 100.238 25.4545L103.825 30.2643ZM162.969 32.1562V29.1562H159.969V32.1562H162.969ZM193.291 32.1562L195.954 30.7753L195.115 29.1562H193.291V32.1562ZM199.443 44.0215L196.78 45.4024L199.2 50.0687L201.987 45.6123L199.443 44.0215ZM240.703 36.7461L238.526 38.8098L238.534 38.8181L238.542 38.8264L240.703 36.7461ZM242.363 64.7246L240.242 62.6033L242.363 64.7246ZM220.244 64.7246L218.112 66.8346L218.123 66.846L218.134 66.8572L220.244 64.7246ZM216.533 48.5625L219.374 49.5282L220.157 47.2229L218.063 45.9816L216.533 48.5625ZM206.963 52.0781L204.641 50.1784L204.639 50.1813L206.963 52.0781ZM200.273 64.8223L197.468 63.7583L197.276 64.2656L197.273 64.8082L200.273 64.8223ZM200.078 106.375L197.078 106.361L197.064 109.375H200.078V106.375ZM221.562 106.375H224.562V103.375H221.562V106.375ZM221.562 122V125H224.562V122H221.562ZM162.969 122H159.969V125H162.969V122ZM162.969 106.375V103.375H159.969V106.375H162.969ZM172.734 106.375V109.375H175.734V106.375H172.734ZM172.734 47.7812H175.734V44.7812H172.734V47.7812ZM162.969 47.7812H159.969V50.7812H162.969V47.7812ZM162.969 35.1562H193.291V29.1562H162.969V35.1562ZM190.628 33.5372L196.78 45.4024L202.107 42.6405L195.954 30.7753L190.628 33.5372ZM201.987 45.6123C207.22 37.2445 214.431 33.2031 223.906 33.2031V27.2031C212.288 27.2031 203.19 32.374 196.9 42.4307L201.987 45.6123ZM223.906 33.2031C230.303 33.2031 235.058 35.1506 238.526 38.8098L242.881 34.6824C238.08 29.6176 231.637 27.2031 223.906 27.2031V33.2031ZM238.542 38.8264C242.087 42.5106 243.953 47.3542 243.953 53.6406H249.953C249.953 46.0599 247.652 39.6404 242.865 34.6658L238.542 38.8264ZM243.953 53.6406C243.953 57.1748 242.739 60.1063 240.242 62.6033L244.485 66.8459C248.107 63.2231 249.953 58.7653 249.953 53.6406H243.953ZM240.242 62.6033C237.784 65.061 234.872 66.2656 231.328 66.2656V72.2656C236.443 72.2656 240.888 70.4429 244.485 66.8459L240.242 62.6033ZM231.328 66.2656C227.784 66.2656 224.849 65.06 222.354 62.592L218.134 66.8572C221.759 70.4439 226.214 72.2656 231.328 72.2656V66.2656ZM222.377 62.6147C219.909 60.1201 218.703 57.1851 218.703 53.6406H212.703C212.703 58.755 214.525 63.2093 218.112 66.8346L222.377 62.6147ZM218.703 53.6406C218.703 52.2038 218.928 50.8378 219.374 49.5282L213.693 47.5968C213.031 49.5424 212.703 51.5618 212.703 53.6406H218.703ZM218.063 45.9816C216.743 45.1997 215.29 44.7812 213.75 44.7812V50.7812C214.163 50.7812 214.566 50.8837 215.004 51.1434L218.063 45.9816ZM213.75 44.7812C210.2 44.7812 207.17 47.0875 204.641 50.1784L209.285 53.9778C211.443 51.3396 212.938 50.7812 213.75 50.7812V44.7812ZM204.639 50.1813C202.033 53.3737 199.667 57.9634 197.468 63.7583L203.078 65.8862C205.177 60.353 207.27 56.4466 209.287 53.9749L204.639 50.1813ZM197.273 64.8082L197.078 106.361L203.078 106.389L203.273 64.8364L197.273 64.8082ZM200.078 109.375H221.562V103.375H200.078V109.375ZM218.562 106.375V122H224.562V106.375H218.562ZM221.562 119H162.969V125H221.562V119ZM165.969 122V106.375H159.969V122H165.969ZM162.969 109.375H172.734V103.375H162.969V109.375ZM175.734 106.375V47.7812H169.734V106.375H175.734ZM172.734 44.7812H162.969V50.7812H172.734V44.7812ZM165.969 47.7812V32.1562H159.969V47.7812H165.969ZM334.844 106.375H331.844V109.375H334.844V106.375ZM344.609 106.375H347.609V103.375H344.609V106.375ZM344.609 122V125H347.609V122H344.609ZM314.189 122L311.431 123.18L312.21 125H314.189V122ZM309.844 111.844L312.602 110.664L310.477 105.699L307.384 110.126L309.844 111.844ZM298.271 121.609L297.157 118.824L297.15 118.827L298.271 121.609ZM268.584 122.098L269.716 119.319L269.709 119.317L269.703 119.314L268.584 122.098ZM259.648 116.336L257.527 118.457L257.534 118.464L257.541 118.471L259.648 116.336ZM253.887 107.547L251.101 108.661L251.106 108.672L251.11 108.684L253.887 107.547ZM259.746 79.8125L261.675 82.1102L261.683 82.1032L259.746 79.8125ZM296.367 75.0273L295.523 77.9061L295.533 77.9091L295.543 77.9119L296.367 75.0273ZM307.5 80.9844L305.513 83.2318L310.5 87.6416V80.9844H307.5ZM306.279 52.957L303.488 54.0554L303.499 54.0833L303.51 54.1109L306.279 52.957ZM302.715 48.416L301.039 50.9043L301.057 50.9162L301.074 50.9278L302.715 48.416ZM297.344 46.1699L296.718 49.104L297.344 46.1699ZM284.209 46.9512L282.81 44.2975L280.261 45.6415L281.501 48.2426L284.209 46.9512ZM281.133 64.7246L283.254 66.8459L281.133 64.7246ZM259.014 64.7246L256.881 66.8346L256.892 66.846L256.904 66.8572L259.014 64.7246ZM255.742 47.3906L253.006 46.1595L252.998 46.1786L252.99 46.1978L255.742 47.3906ZM259.355 42.2637L261.43 44.4306L261.48 44.3827L261.528 44.3326L259.355 42.2637ZM263.408 38.6016L265.235 40.9815L265.252 40.9683L265.269 40.9548L263.408 38.6016ZM268.682 35.3301L270.04 38.0051L270.048 38.0011L270.056 37.997L268.682 35.3301ZM284.648 30.8867L285.01 33.8648L285.022 33.8634L285.034 33.8618L284.648 30.8867ZM307.5 100.32L309.776 102.275L310.5 101.432V100.32H307.5ZM307.5 93.582H310.5V92.2956L309.568 91.4088L307.5 93.582ZM300.664 88.748L299.254 91.3961L299.275 91.4069L299.295 91.4175L300.664 88.748ZM283.916 89.0898L285.805 91.4206L285.817 91.4109L285.829 91.401L283.916 89.0898ZM300.42 106.229L301.945 108.812L301.954 108.806L300.42 106.229ZM331.844 63.1621V106.375H337.844V63.1621H331.844ZM334.844 109.375H344.609V103.375H334.844V109.375ZM341.609 106.375V122H347.609V106.375H341.609ZM344.609 119H314.189V125H344.609V119ZM316.948 120.82L312.602 110.664L307.086 113.024L311.431 123.18L316.948 120.82ZM307.384 110.126C304.323 114.507 300.898 117.328 297.157 118.824L299.386 124.395C304.434 122.375 308.724 118.685 312.303 113.562L307.384 110.126ZM297.15 118.827C293.305 120.376 287.644 121.246 279.961 121.246V127.246C287.968 127.246 294.514 126.358 299.393 124.392L297.15 118.827ZM279.961 121.246C276.252 121.246 272.847 120.595 269.716 119.319L267.452 124.876C271.352 126.465 275.532 127.246 279.961 127.246V121.246ZM269.703 119.314C266.559 118.051 263.924 116.341 261.756 114.201L257.541 118.471C260.32 121.214 263.643 123.345 267.465 124.881L269.703 119.314ZM261.77 114.215C259.629 112.074 257.922 109.486 256.663 106.41L251.11 108.684C252.65 112.444 254.785 115.715 257.527 118.457L261.77 114.215ZM256.672 106.433C255.455 103.39 254.836 100.109 254.836 96.5605H248.836C248.836 100.825 249.584 104.867 251.101 108.661L256.672 106.433ZM254.836 96.5605C254.836 90.7309 257.063 85.9816 261.675 82.1102L257.817 77.5148C251.882 82.4976 248.836 88.9136 248.836 96.5605H254.836ZM261.683 82.1032C266.317 78.1843 272.328 76.123 279.961 76.123V70.123C271.188 70.123 263.722 72.5215 257.809 77.5218L261.683 82.1032ZM279.961 76.123C286.403 76.123 291.563 76.7449 295.523 77.9061L297.211 72.1486C292.513 70.7708 286.735 70.123 279.961 70.123V76.123ZM295.543 77.9119C299.482 79.0373 302.785 80.8201 305.513 83.2318L309.487 78.7369C306.03 75.6799 301.911 73.4914 297.191 72.1428L295.543 77.9119ZM310.5 80.9844V60.2812H304.5V80.9844H310.5ZM310.5 60.2812C310.5 57.0976 310.061 54.2335 309.049 51.8032L303.51 54.1109C304.125 55.5868 304.5 57.6055 304.5 60.2812H310.5ZM309.071 51.8587C308.09 49.3664 306.533 47.3265 304.355 45.9042L301.074 50.9278C302.087 51.5889 302.906 52.5763 303.488 54.0554L309.071 51.8587ZM304.391 45.9277C302.46 44.6272 300.309 43.7345 297.969 43.2358L296.718 49.104C298.35 49.4517 299.78 50.0563 301.039 50.9043L304.391 45.9277ZM297.969 43.2358C295.719 42.7563 293.122 42.5352 290.215 42.5352V48.5352C292.842 48.5352 294.997 48.7372 296.718 49.104L297.969 43.2358ZM290.215 42.5352C287.56 42.5352 285.071 43.1052 282.81 44.2975L285.608 49.6049C286.928 48.9091 288.442 48.5352 290.215 48.5352V42.5352ZM281.501 48.2426C282.318 49.9552 282.723 51.7438 282.723 53.6406H288.723C288.723 50.8499 288.118 48.1789 286.917 45.6598L281.501 48.2426ZM282.723 53.6406C282.723 57.1748 281.508 60.1063 279.011 62.6033L283.254 66.8459C286.877 63.2231 288.723 58.7653 288.723 53.6406H282.723ZM279.011 62.6033C276.554 65.061 273.641 66.2656 270.098 66.2656V72.2656C275.213 72.2656 279.657 70.4429 283.254 66.8459L279.011 62.6033ZM270.098 66.2656C266.553 66.2656 263.618 65.06 261.124 62.592L256.904 66.8572C260.529 70.4439 264.983 72.2656 270.098 72.2656V66.2656ZM261.146 62.6147C258.678 60.1201 257.473 57.1851 257.473 53.6406H251.473C251.473 58.755 253.294 63.2093 256.881 66.8346L261.146 62.6147ZM257.473 53.6406C257.473 51.8207 257.818 50.145 258.495 48.5834L252.99 46.1978C251.973 48.5425 251.473 51.0335 251.473 53.6406H257.473ZM258.478 48.6217C259.2 47.0161 260.182 45.6258 261.43 44.4306L257.281 40.0967C255.469 41.8312 254.042 43.8589 253.006 46.1595L258.478 48.6217ZM261.528 44.3326C262.73 43.0701 263.966 41.9548 265.235 40.9815L261.582 36.2216C260.051 37.3967 258.585 38.7228 257.183 40.1947L261.528 44.3326ZM265.269 40.9548C266.471 40.0045 268.047 39.0166 270.04 38.0051L267.324 32.6551C265.084 33.792 263.145 34.9851 261.547 36.2483L265.269 40.9548ZM270.056 37.997C272.015 36.9875 274.157 36.1464 276.488 35.4803L274.84 29.7111C272.158 30.4773 269.645 31.4591 267.308 32.6632L270.056 37.997ZM276.488 35.4803C278.802 34.8193 281.634 34.275 285.01 33.8648L284.287 27.9086C280.697 28.3447 277.539 28.9398 274.84 29.7111L276.488 35.4803ZM285.034 33.8618C288.402 33.4252 292.112 33.2031 296.172 33.2031V27.2031C291.898 27.2031 287.926 27.4367 284.263 27.9116L285.034 33.8618ZM296.172 33.2031C301.276 33.2031 306.03 33.9557 310.452 35.4398L312.361 29.7516C307.277 28.0456 301.875 27.2031 296.172 27.2031V33.2031ZM310.452 35.4398C314.901 36.9331 318.671 38.9812 321.808 41.5553L325.614 36.9174C321.849 33.8274 317.417 31.4484 312.361 29.7516L310.452 35.4398ZM321.808 41.5553C324.911 44.102 327.359 47.2335 329.161 50.9844L334.569 48.3867C332.4 43.8693 329.412 40.0347 325.614 36.9174L321.808 41.5553ZM329.161 50.9844C330.941 54.69 331.844 58.735 331.844 63.1621H337.844C337.844 57.8887 336.761 52.9493 334.569 48.3867L329.161 50.9844ZM310.5 100.32V93.582H304.5V100.32H310.5ZM309.568 91.4088C307.337 89.2854 304.821 87.5086 302.033 86.0786L299.295 91.4175C301.585 92.5917 303.627 94.0375 305.432 95.7553L309.568 91.4088ZM302.074 86.1C299.268 84.6059 296.454 83.7461 293.682 83.7461V89.7461C295.206 89.7461 297.047 90.2209 299.254 91.3961L302.074 86.1ZM293.682 83.7461C288.9 83.7461 284.734 84.5186 282.003 86.7787L285.829 91.401C286.874 90.536 289.219 89.7461 293.682 89.7461V83.7461ZM282.027 86.759C279.177 89.0687 278.084 92.6023 278.084 96.5605H284.084C284.084 93.6178 284.879 92.1709 285.805 91.4206L282.027 86.759ZM278.084 96.5605C278.084 100.987 278.938 104.872 281.221 107.612L285.83 103.771C284.858 102.604 284.084 100.402 284.084 96.5605H278.084ZM281.221 107.612C283.726 110.618 287.92 111.621 292.607 111.621V105.621C288.441 105.621 286.58 104.671 285.83 103.771L281.221 107.612ZM292.607 111.621C295.77 111.621 298.896 110.612 301.945 108.812L298.895 103.645C296.54 105.035 294.458 105.621 292.607 105.621V111.621ZM301.954 108.806C304.955 107.02 307.569 104.844 309.776 102.275L305.224 98.3653C303.46 100.419 301.353 102.182 298.885 103.651L301.954 108.806ZM343.633 32.1562V29.1562H340.633V32.1562H343.633ZM398.32 32.1562H401.32V29.1562H398.32V32.1562ZM398.32 47.7812V50.7812H401.32V47.7812H398.32ZM382.988 47.7812V44.7812H378.665L380.178 48.8312L382.988 47.7812ZM396.123 82.9375L393.313 83.9874L393.314 83.9909L396.123 82.9375ZM399.785 95.1445L396.881 95.8974L402.693 95.8806L399.785 95.1445ZM403.301 82.9375L400.477 81.9255L400.474 81.9331L400.471 81.9407L403.301 82.9375ZM415.898 47.7812L418.723 48.7932L420.16 44.7812H415.898V47.7812ZM408.086 47.7812H405.086V50.7812H408.086V47.7812ZM408.086 32.1562V29.1562H405.086V32.1562H408.086ZM443.242 32.1562H446.242V29.1562H443.242V32.1562ZM443.242 47.7812V50.7812H446.242V47.7812H443.242ZM433.672 47.7812V44.7812H429.343L430.863 48.8346L433.672 47.7812ZM446.855 82.9375L444.046 83.9909L446.855 82.9375ZM450.518 95.1445L447.614 95.8974L453.427 95.8761L450.518 95.1445ZM453.984 82.9375L451.16 81.9255L451.157 81.9353L453.984 82.9375ZM466.582 47.7812L469.406 48.7932L470.844 44.7812H466.582V47.7812ZM453.008 47.7812H450.008V50.7812H453.008V47.7812ZM453.008 32.1562V29.1562H450.008V32.1562H453.008ZM494.023 32.1562H497.023V29.1562H494.023V32.1562ZM494.023 47.7812V50.7812H497.023V47.7812H494.023ZM483.672 47.7812V44.7812H481.564L480.85 46.7638L483.672 47.7812ZM456.914 122V125H459.021L459.736 123.017L456.914 122ZM435.43 122L432.607 123.016L433.321 125H435.43V122ZM424.883 92.7031L427.705 91.687L427.704 91.6842L424.883 92.7031ZM420.83 79.0312L423.736 78.2878L417.923 78.2918L420.83 79.0312ZM416.777 92.7031L413.959 91.6758L413.955 91.687L416.777 92.7031ZM406.23 122V125H408.339L409.053 123.016L406.23 122ZM379.57 122L376.748 123.017L377.463 125H379.57V122ZM352.812 47.7812L355.635 46.7638L354.92 44.7812H352.812V47.7812ZM343.633 47.7812H340.633V50.7812H343.633V47.7812ZM343.633 35.1562H398.32V29.1562H343.633V35.1562ZM395.32 32.1562V47.7812H401.32V32.1562H395.32ZM398.32 44.7812H382.988V50.7812H398.32V44.7812ZM380.178 48.8312L393.313 83.9874L398.933 81.8876L385.799 46.7313L380.178 48.8312ZM393.314 83.9909C394.334 86.7094 395.523 90.6605 396.881 95.8974L402.689 94.3916C401.313 89.0817 400.061 84.8947 398.932 81.8841L393.314 83.9909ZM402.693 95.8806C404.02 90.6381 405.166 86.6714 406.13 83.9343L400.471 81.9407C399.417 84.9327 398.219 89.1041 396.877 94.4085L402.693 95.8806ZM406.125 83.9495L418.723 48.7932L413.074 46.7693L400.477 81.9255L406.125 83.9495ZM415.898 44.7812H408.086V50.7812H415.898V44.7812ZM411.086 47.7812V32.1562H405.086V47.7812H411.086ZM408.086 35.1562H443.242V29.1562H408.086V35.1562ZM440.242 32.1562V47.7812H446.242V32.1562H440.242ZM443.242 44.7812H433.672V50.7812H443.242V44.7812ZM430.863 48.8346L444.046 83.9909L449.664 81.8841L436.481 46.7279L430.863 48.8346ZM444.046 83.9909C445.066 86.7094 446.256 90.6605 447.614 95.8974L453.422 94.3916C452.045 89.0817 450.793 84.8947 449.664 81.8841L444.046 83.9909ZM453.427 95.8761C454.823 90.3245 455.951 86.3704 456.812 83.9397L451.157 81.9353C450.195 84.6478 449.012 88.8318 447.608 94.4129L453.427 95.8761ZM456.809 83.9495L469.406 48.7932L463.758 46.7693L451.16 81.9255L456.809 83.9495ZM466.582 44.7812H453.008V50.7812H466.582V44.7812ZM456.008 47.7812V32.1562H450.008V47.7812H456.008ZM453.008 35.1562H494.023V29.1562H453.008V35.1562ZM491.023 32.1562V47.7812H497.023V32.1562H491.023ZM494.023 44.7812H483.672V50.7812H494.023V44.7812ZM480.85 46.7638L454.092 120.983L459.736 123.017L486.494 48.7987L480.85 46.7638ZM456.914 119H435.43V125H456.914V119ZM438.252 120.984L427.705 91.687L422.06 93.7193L432.607 123.016L438.252 120.984ZM427.704 91.6842C426.48 88.2936 425.156 83.8379 423.736 78.2878L417.924 79.7747C419.368 85.4225 420.746 90.0814 422.061 93.7221L427.704 91.6842ZM417.923 78.2918C416.503 83.8738 415.18 88.3243 413.959 91.6758L419.596 93.7305C420.913 90.1158 422.293 85.4517 423.738 79.7707L417.923 78.2918ZM413.955 91.687L403.408 120.984L409.053 123.016L419.6 93.7193L413.955 91.687ZM406.23 119H379.57V125H406.23V119ZM382.393 120.983L355.635 46.7638L349.99 48.7987L376.748 123.017L382.393 120.983ZM352.812 44.7812H343.633V50.7812H352.812V44.7812ZM346.633 47.7812V32.1562H340.633V47.7812H346.633ZM588.164 36.0137L586.388 38.4315L586.396 38.4376L586.405 38.4437L588.164 36.0137ZM599.98 52.2246L597.166 53.2636L597.169 53.2715L597.172 53.2794L599.98 52.2246ZM600.957 96.5605L603.803 97.5092L603.805 97.5045L600.957 96.5605ZM592.852 111.355L590.579 109.397L590.578 109.398L592.852 111.355ZM580.547 120.633L579.287 117.91L579.28 117.913L580.547 120.633ZM551.201 121.609L550.131 124.412L550.153 124.421L550.176 124.429L551.201 121.609ZM545.928 119.021L544.355 121.576L544.366 121.583L544.377 121.59L545.928 119.021ZM541.68 116.141L539.814 118.49L539.831 118.503L539.847 118.516L541.68 116.141ZM538.311 113.016L536.102 115.046L536.116 115.061L536.131 115.077L538.311 113.016ZM535.82 110.184L533.434 112.002L533.461 112.037L533.489 112.071L535.82 110.184ZM534.062 107.791L536.504 106.047L533.984 102.519L531.57 106.121L534.062 107.791ZM524.541 122V125H526.142L527.033 123.67L524.541 122ZM511.602 122H508.602V125H511.602V122ZM511.602 16.5312H514.602V13.5312H511.602V16.5312ZM501.836 16.5312H498.836V19.5312H501.836V16.5312ZM501.836 0.90625V-2.09375H498.836V0.90625H501.836ZM538.945 0.90625H541.945V-2.09375H538.945V0.90625ZM538.945 46.8047H535.945V57.9989L541.543 48.3049L538.945 46.8047ZM549.932 35.2324L551.564 37.7493L551.572 37.7439L549.932 35.2324ZM538.945 92.752H535.945V93.3708L536.19 93.9391L538.945 92.752ZM545.684 102.322L543.729 104.598L543.737 104.605L543.745 104.611L545.684 102.322ZM569.854 98.2695L567.31 96.678L567.303 96.6899L569.854 98.2695ZM573.027 64.7246L570.132 65.5118L570.137 65.5269L570.141 65.542L573.027 64.7246ZM568.926 55.4961L566.46 57.2054L566.468 57.2165L566.476 57.2274L568.926 55.4961ZM563.066 49.832L561.49 52.3844L561.504 52.3929L561.517 52.4012L563.066 49.832ZM546.66 51.1016L548.545 53.4359L548.548 53.4333L546.66 51.1016ZM538.945 60.916L536.327 59.4508L535.945 60.1336V60.916H538.945ZM568.828 33.2031C575.915 33.2031 581.711 34.9956 586.388 38.4315L589.94 33.5959C584.071 29.2844 576.976 27.2031 568.828 27.2031V33.2031ZM586.405 38.4437C591.167 41.8908 594.772 46.7784 597.166 53.2636L602.795 51.1857C600.046 43.7385 595.774 37.8188 589.923 33.5836L586.405 38.4437ZM597.172 53.2794C599.617 59.7903 600.887 67.715 600.887 77.127H606.887C606.887 67.203 605.552 58.5261 602.789 51.1698L597.172 53.2794ZM600.887 77.127C600.887 83.9136 599.949 90.0679 598.109 95.6166L603.805 97.5045C605.872 91.2693 606.887 84.468 606.887 77.127H600.887ZM598.111 95.6119C596.261 101.162 593.735 105.735 590.579 109.397L595.124 113.314C598.869 108.968 601.747 103.678 603.803 97.5092L598.111 95.6119ZM590.578 109.398C587.441 113.043 583.686 115.875 579.287 117.91L581.806 123.356C586.978 120.963 591.426 117.611 595.125 113.312L590.578 109.398ZM579.28 117.913C574.951 119.93 570.211 120.953 565.02 120.953V126.953C571.026 126.953 576.638 125.763 581.813 123.352L579.28 117.913ZM565.02 120.953C562.591 120.953 560.272 120.741 558.058 120.322L556.942 126.217C559.546 126.71 562.24 126.953 565.02 126.953V120.953ZM558.058 120.322C555.765 119.888 553.829 119.373 552.226 118.79L550.176 124.429C552.154 125.148 554.417 125.739 556.942 126.217L558.058 120.322ZM552.271 118.807C550.656 118.19 549.059 117.407 547.478 116.453L544.377 121.59C546.247 122.719 548.166 123.662 550.131 124.412L552.271 118.807ZM547.5 116.467C545.866 115.461 544.543 114.561 543.512 113.765L539.847 118.516C541.095 119.478 542.604 120.499 544.355 121.576L547.5 116.467ZM543.545 113.791C542.567 113.014 541.548 112.072 540.49 110.954L536.131 115.077C537.352 116.368 538.579 117.509 539.814 118.49L543.545 113.791ZM540.52 110.986C539.426 109.796 538.646 108.906 538.152 108.296L533.489 112.071C534.102 112.828 534.982 113.827 536.102 115.046L540.52 110.986ZM538.207 108.365C537.709 107.712 537.142 106.941 536.504 106.047L531.621 109.535C532.285 110.464 532.89 111.288 533.434 112.002L538.207 108.365ZM531.57 106.121L522.049 120.33L527.033 123.67L536.555 109.461L531.57 106.121ZM524.541 119H511.602V125H524.541V119ZM514.602 122V16.5312H508.602V122H514.602ZM511.602 13.5312H501.836V19.5312H511.602V13.5312ZM504.836 16.5312V0.90625H498.836V16.5312H504.836ZM501.836 3.90625H538.945V-2.09375H501.836V3.90625ZM535.945 0.90625V46.8047H541.945V0.90625H535.945ZM541.543 48.3049C542.766 46.1869 544.194 44.2546 545.827 42.5027L541.438 38.4114C539.491 40.5007 537.794 42.8 536.347 45.3045L541.543 48.3049ZM545.827 42.5027C547.435 40.7774 549.342 39.1906 551.564 37.7493L548.299 32.7155C545.703 34.3992 543.411 36.2955 541.438 38.4114L545.827 42.5027ZM551.572 37.7439C553.717 36.343 556.253 35.2241 559.217 34.4158L557.638 28.6272C554.157 29.5767 551.029 30.9318 548.291 32.7209L551.572 37.7439ZM559.217 34.4158C562.156 33.6143 565.355 33.2031 568.828 33.2031V27.2031C564.88 27.2031 561.145 27.6709 557.638 28.6272L559.217 34.4158ZM536.19 93.9391C538.061 98.2811 540.555 101.872 543.729 104.598L547.638 100.046C545.279 98.0199 543.28 95.2306 541.7 91.5648L536.19 93.9391ZM543.745 104.611C547.077 107.434 551.044 108.838 555.498 108.838V102.838C552.4 102.838 549.824 101.898 547.623 100.033L543.745 104.611ZM555.498 108.838C562.875 108.838 568.678 105.865 572.404 99.8492L567.303 96.6899C564.779 100.765 561.012 102.838 555.498 102.838V108.838ZM572.397 99.861C575.976 94.1417 577.59 86.3366 577.59 76.7852H571.59C571.59 85.7884 570.046 92.3063 567.31 96.6781L572.397 99.861ZM577.59 76.7852C577.59 72.1849 577.041 67.8859 575.914 63.9072L570.141 65.542C571.097 68.9201 571.59 72.6614 571.59 76.7852H577.59ZM575.922 63.9374C574.846 59.9803 573.352 56.5613 571.376 53.7648L566.476 57.2274C567.95 59.3137 569.19 62.047 570.132 65.5118L575.922 63.9374ZM571.391 53.7868C569.493 51.049 567.242 48.8466 564.615 47.2629L561.517 52.4012C563.318 53.4868 564.973 55.0603 566.46 57.2054L571.391 53.7868ZM564.643 47.2796C561.995 45.6442 559.143 44.7812 556.133 44.7812V50.7812C557.94 50.7812 559.711 51.2855 561.49 52.3844L564.643 47.2796ZM556.133 44.7812C551.878 44.7812 548.051 46.1156 544.773 48.7698L548.548 53.4333C550.738 51.6604 553.226 50.7812 556.133 50.7812V44.7812ZM544.776 48.7672C541.676 51.2694 538.88 54.8897 536.327 59.4508L541.563 62.3812C543.893 58.2184 546.241 55.2957 548.545 53.4359L544.776 48.7672ZM535.945 60.916V92.752H541.945V60.916H535.945ZM642.949 82.9375V79.9375H639.707L639.958 83.1696L642.949 82.9375ZM648.223 100.32L645.773 102.052L645.783 102.066L645.793 102.08L648.223 100.32ZM652.959 105.008L651.254 107.476L651.269 107.487L651.284 107.497L652.959 105.008ZM658.477 107.596L657.679 110.488L657.702 110.494L657.725 110.5L658.477 107.596ZM680.596 104.373L682.294 106.846L682.298 106.843L680.596 104.373ZM689.873 92.0684L690.854 89.2331L688.191 88.3121L687.105 90.9122L689.873 92.0684ZM702.861 96.5605L705.674 97.6044L706.741 94.7281L703.842 93.7253L702.861 96.5605ZM698.369 105.496L695.855 103.859L695.85 103.866L698.369 105.496ZM683.379 119.217L684.798 121.86L684.808 121.855L683.379 119.217ZM642.314 121.17L641.214 123.961L641.219 123.963L642.314 121.17ZM627.422 111.795L625.343 113.958L625.351 113.966L625.36 113.974L627.422 111.795ZM617.412 96.9023L614.641 98.0508L614.646 98.0638L617.412 96.9023ZM617.412 58.3281L614.642 57.1775L614.636 57.1905L617.412 58.3281ZM627.422 43.2891L629.51 45.4435L629.51 45.4433L627.422 43.2891ZM642.314 33.6699L641.192 30.8878L641.187 30.89L642.314 33.6699ZM678.691 33.6699L677.564 36.4498L677.569 36.4521L678.691 33.6699ZM693.584 43.2891L691.488 45.4352L691.496 45.4434L691.505 45.4516L693.584 43.2891ZM703.594 58.3281L700.818 59.4658L700.823 59.4787L703.594 58.3281ZM707.305 77.6641L710.227 78.3406L710.305 78.0068V77.6641H707.305ZM706.084 82.9375V85.9375H708.469L709.007 83.6141L706.084 82.9375ZM643.291 67.3125L640.309 66.9867L639.945 70.3125H643.291V67.3125ZM677.764 67.3125V70.3125H681.122L680.745 66.9755L677.764 67.3125ZM672.148 50.9551L674.437 49.0153L672.148 50.9551ZM654.229 47L655.334 49.7887L655.355 49.7805L655.376 49.7721L654.229 47ZM649.15 50.6621L651.378 52.6714L651.388 52.6607L651.397 52.6498L649.15 50.6621ZM645.391 57.3516L642.568 56.3342L642.565 56.3437L642.562 56.3531L645.391 57.3516ZM639.958 83.1696C640.265 87.1282 640.919 90.7315 641.946 93.9558L647.663 92.134C646.803 89.4338 646.219 86.2989 645.94 82.7054L639.958 83.1696ZM641.946 93.9558C642.954 97.1169 644.212 99.8434 645.773 102.052L650.672 98.5886C649.564 97.0212 648.544 94.8974 647.663 92.134L641.946 93.9558ZM645.793 102.08C647.345 104.224 649.164 106.032 651.254 107.476L654.664 102.54C653.173 101.509 651.834 100.193 650.652 98.5608L645.793 102.08ZM651.284 107.497C653.316 108.864 655.449 109.872 657.679 110.488L659.274 104.704C657.728 104.277 656.182 103.561 654.634 102.519L651.284 107.497ZM657.725 110.5C659.882 111.058 662.155 111.328 664.531 111.328V105.328C662.611 105.328 660.847 105.11 659.228 104.691L657.725 110.5ZM664.531 111.328C671.734 111.328 677.767 109.953 682.294 106.846L678.898 101.9C675.742 104.066 671.066 105.328 664.531 105.328V111.328ZM682.298 106.843C686.76 103.769 690.169 99.1449 692.641 93.2245L687.105 90.9122C684.955 96.0596 682.179 99.639 678.893 101.903L682.298 106.843ZM688.892 94.9036L701.881 99.3958L703.842 93.7253L690.854 89.2331L688.892 94.9036ZM700.049 95.5167C698.954 98.4678 697.556 101.247 695.855 103.859L700.883 107.133C702.828 104.146 704.425 100.968 705.674 97.6044L700.049 95.5167ZM695.85 103.866C694.203 106.412 692.203 108.776 689.84 110.958L693.91 115.367C696.625 112.861 698.954 110.114 700.888 107.126L695.85 103.866ZM689.84 110.958C687.489 113.128 684.862 115.002 681.95 116.579L684.808 121.855C688.146 120.047 691.182 117.884 693.91 115.367L689.84 110.958ZM681.96 116.574C679.123 118.097 675.869 119.315 672.176 120.207L673.586 126.039C677.705 125.043 681.45 123.657 684.798 121.86L681.96 116.574ZM672.176 120.207C668.518 121.091 664.638 121.539 660.527 121.539V127.539C665.076 127.539 669.432 127.043 673.586 126.039L672.176 120.207ZM660.527 121.539C654.473 121.539 648.775 120.48 643.409 118.377L641.219 123.963C647.312 126.352 653.756 127.539 660.527 127.539V121.539ZM643.415 118.379C638.056 116.266 633.423 113.343 629.484 109.616L625.36 113.974C629.884 118.255 635.179 121.581 641.214 123.961L643.415 118.379ZM629.501 109.632C625.624 105.906 622.509 101.293 620.178 95.7409L614.646 98.0638C617.263 104.296 620.821 109.611 625.343 113.958L629.501 109.632ZM620.184 95.7539C617.906 90.2567 616.75 84.2382 616.75 77.6641H610.75C610.75 84.9572 612.036 91.7641 614.641 98.0508L620.184 95.7539ZM616.75 77.6641C616.75 71.0903 617.906 65.0348 620.188 59.4658L614.636 57.1905C612.036 63.5356 610.75 70.3706 610.75 77.6641H616.75ZM620.183 59.4787C622.516 53.8602 625.633 49.1999 629.51 45.4435L625.334 41.1346C620.812 45.5163 617.256 50.882 614.642 57.1775L620.183 59.4787ZM629.51 45.4433C633.453 41.6216 638.087 38.6225 643.442 36.4498L641.187 30.89C635.148 33.3398 629.854 36.7534 625.334 41.1349L629.51 45.4433ZM643.437 36.4521C648.796 34.2902 654.484 33.2031 660.527 33.2031V27.2031C653.745 27.2031 647.292 28.4272 641.192 30.8878L643.437 36.4521ZM660.527 33.2031C666.57 33.2031 672.241 34.2902 677.564 36.4498L679.819 30.89C673.749 28.4272 667.31 27.2031 660.527 27.2031V33.2031ZM677.569 36.4521C682.955 38.6246 687.583 41.6213 691.488 45.4352L695.68 41.1429C691.186 36.7537 685.887 33.3376 679.814 30.8878L677.569 36.4521ZM691.505 45.4516C695.407 49.2042 698.519 53.8575 700.818 59.4658L706.37 57.1905C703.785 50.8847 700.224 45.5119 695.663 41.1266L691.505 45.4516ZM700.823 59.4787C703.135 65.0444 704.305 71.0955 704.305 77.6641H710.305C710.305 70.3655 709.001 63.5259 706.364 57.1775L700.823 59.4787ZM704.382 76.9875L703.161 82.2609L709.007 83.6141L710.227 78.3406L704.382 76.9875ZM706.084 79.9375H642.949V85.9375H706.084V79.9375ZM643.291 70.3125H677.764V64.3125H643.291V70.3125ZM680.745 66.9755C679.872 59.2583 677.901 53.1017 674.437 49.0153L669.86 52.8949C672.19 55.6444 673.962 60.3927 674.783 67.6495L680.745 66.9755ZM674.437 49.0153C670.927 44.8745 666.223 42.8281 660.625 42.8281V48.8281C664.597 48.8281 667.575 50.1997 669.86 52.8949L674.437 49.0153ZM660.625 42.8281C657.918 42.8281 655.387 43.2737 653.081 44.2279L655.376 49.7721C656.846 49.1638 658.579 48.8281 660.625 48.8281V42.8281ZM653.123 44.2113C650.749 45.1525 648.677 46.6691 646.903 48.6744L651.397 52.6498C652.618 51.2697 653.932 50.3449 655.334 49.7887L653.123 44.2113ZM646.923 48.6528C645.094 50.6803 643.668 53.2832 642.568 56.3342L648.213 58.3689C649.131 55.821 650.212 53.9642 651.378 52.6714L646.923 48.6528ZM642.562 56.3531C641.488 59.3952 640.749 62.9535 640.309 66.9867L646.273 67.6383C646.679 63.9241 647.34 60.8418 648.22 58.35L642.562 56.3531ZM715.117 32.1562V29.1562H712.117V32.1562H715.117ZM745.439 32.1562L748.103 30.7753L747.263 29.1562H745.439V32.1562ZM751.592 44.0215L748.929 45.4024L751.348 50.0687L754.135 45.6123L751.592 44.0215ZM792.852 36.7461L790.674 38.8098L790.682 38.8181L790.69 38.8264L792.852 36.7461ZM794.512 64.7246L792.39 62.6033L794.512 64.7246ZM772.393 64.7246L770.26 66.8346L770.271 66.846L770.283 66.8572L772.393 64.7246ZM768.682 48.5625L771.522 49.5282L772.306 47.2229L770.211 45.9816L768.682 48.5625ZM759.111 52.0781L756.789 50.1784L756.787 50.1813L759.111 52.0781ZM752.422 64.8223L749.617 63.7583L749.424 64.2656L749.422 64.8082L752.422 64.8223ZM752.227 106.375L749.227 106.361L749.212 109.375H752.227V106.375ZM773.711 106.375H776.711V103.375H773.711V106.375ZM773.711 122V125H776.711V122H773.711ZM715.117 122H712.117V125H715.117V122ZM715.117 106.375V103.375H712.117V106.375H715.117ZM724.883 106.375V109.375H727.883V106.375H724.883ZM724.883 47.7812H727.883V44.7812H724.883V47.7812ZM715.117 47.7812H712.117V50.7812H715.117V47.7812ZM715.117 35.1562H745.439V29.1562H715.117V35.1562ZM742.776 33.5372L748.929 45.4024L754.255 42.6405L748.103 30.7753L742.776 33.5372ZM754.135 45.6123C759.369 37.2445 766.579 33.2031 776.055 33.2031V27.2031C764.436 27.2031 755.338 32.374 749.048 42.4307L754.135 45.6123ZM776.055 33.2031C782.452 33.2031 787.206 35.1506 790.674 38.8098L795.029 34.6824C790.229 29.6176 783.785 27.2031 776.055 27.2031V33.2031ZM790.69 38.8264C794.236 42.5106 796.102 47.3542 796.102 53.6406H802.102C802.102 46.0599 799.801 39.6404 795.013 34.6658L790.69 38.8264ZM796.102 53.6406C796.102 57.1748 794.887 60.1063 792.39 62.6033L796.633 66.8459C800.256 63.2231 802.102 58.7653 802.102 53.6406H796.102ZM792.39 62.6033C789.933 65.061 787.02 66.2656 783.477 66.2656V72.2656C788.592 72.2656 793.036 70.4429 796.633 66.8459L792.39 62.6033ZM783.477 66.2656C779.932 66.2656 776.997 65.06 774.503 62.592L770.283 66.8572C773.908 70.4439 778.362 72.2656 783.477 72.2656V66.2656ZM774.525 62.6147C772.057 60.1201 770.852 57.1851 770.852 53.6406H764.852C764.852 58.755 766.673 63.2093 770.26 66.8346L774.525 62.6147ZM770.852 53.6406C770.852 52.2038 771.077 50.8378 771.522 49.5282L765.841 47.5968C765.18 49.5424 764.852 51.5618 764.852 53.6406H770.852ZM770.211 45.9816C768.891 45.1997 767.439 44.7812 765.898 44.7812V50.7812C766.311 50.7812 766.714 50.8837 767.152 51.1434L770.211 45.9816ZM765.898 44.7812C762.349 44.7812 759.318 47.0875 756.789 50.1784L761.433 53.9778C763.592 51.3396 765.086 50.7812 765.898 50.7812V44.7812ZM756.787 50.1813C754.182 53.3737 751.815 57.9634 749.617 63.7583L755.227 65.8862C757.326 60.353 759.418 56.4466 761.436 53.9749L756.787 50.1813ZM749.422 64.8082L749.227 106.361L755.227 106.389L755.422 64.8364L749.422 64.8082ZM752.227 109.375H773.711V103.375H752.227V109.375ZM770.711 106.375V122H776.711V106.375H770.711ZM773.711 119H715.117V125H773.711V119ZM718.117 122V106.375H712.117V122H718.117ZM715.117 109.375H724.883V103.375H715.117V109.375ZM727.883 106.375V47.7812H721.883V106.375H727.883ZM724.883 44.7812H715.117V50.7812H724.883V44.7812ZM718.117 47.7812V32.1562H712.117V47.7812H718.117ZM806.914 32.1562V29.1562H803.914V32.1562H806.914ZM837.236 32.1562L839.9 30.7753L839.06 29.1562H837.236V32.1562ZM843.389 44.0215L840.725 45.4024L843.145 50.0687L845.932 45.6123L843.389 44.0215ZM884.648 36.7461L882.471 38.8098L882.479 38.8181L882.487 38.8264L884.648 36.7461ZM886.309 64.7246L884.187 62.6033L886.309 64.7246ZM864.189 64.7246L862.057 66.8346L862.068 66.846L862.08 66.8572L864.189 64.7246ZM860.479 48.5625L863.319 49.5282L864.103 47.2229L862.008 45.9816L860.479 48.5625ZM850.908 52.0781L848.586 50.1784L848.584 50.1813L850.908 52.0781ZM844.219 64.8223L841.414 63.7583L841.221 64.2656L841.219 64.8082L844.219 64.8223ZM844.023 106.375L841.023 106.361L841.009 109.375H844.023V106.375ZM865.508 106.375H868.508V103.375H865.508V106.375ZM865.508 122V125H868.508V122H865.508ZM806.914 122H803.914V125H806.914V122ZM806.914 106.375V103.375H803.914V106.375H806.914ZM816.68 106.375V109.375H819.68V106.375H816.68ZM816.68 47.7812H819.68V44.7812H816.68V47.7812ZM806.914 47.7812H803.914V50.7812H806.914V47.7812ZM806.914 35.1562H837.236V29.1562H806.914V35.1562ZM834.573 33.5372L840.725 45.4024L846.052 42.6405L839.9 30.7753L834.573 33.5372ZM845.932 45.6123C851.166 37.2445 858.376 33.2031 867.852 33.2031V27.2031C856.233 27.2031 847.135 32.374 840.845 42.4307L845.932 45.6123ZM867.852 33.2031C874.249 33.2031 879.003 35.1506 882.471 38.8098L886.826 34.6824C882.026 29.6176 875.582 27.2031 867.852 27.2031V33.2031ZM882.487 38.8264C886.033 42.5106 887.898 47.3542 887.898 53.6406H893.898C893.898 46.0599 891.598 39.6404 886.81 34.6658L882.487 38.8264ZM887.898 53.6406C887.898 57.1748 886.684 60.1063 884.187 62.6033L888.43 66.8459C892.053 63.2231 893.898 58.7653 893.898 53.6406H887.898ZM884.187 62.6033C881.73 65.061 878.817 66.2656 875.273 66.2656V72.2656C880.388 72.2656 884.833 70.4429 888.43 66.8459L884.187 62.6033ZM875.273 66.2656C871.729 66.2656 868.794 65.06 866.299 62.592L862.08 66.8572C865.705 70.4439 870.159 72.2656 875.273 72.2656V66.2656ZM866.322 62.6147C863.854 60.1201 862.648 57.1851 862.648 53.6406H856.648C856.648 58.755 858.47 63.2093 862.057 66.8346L866.322 62.6147ZM862.648 53.6406C862.648 52.2038 862.874 50.8378 863.319 49.5282L857.638 47.5968C856.977 49.5424 856.648 51.5618 856.648 53.6406H862.648ZM862.008 45.9816C860.688 45.1997 859.235 44.7812 857.695 44.7812V50.7812C858.108 50.7812 858.511 50.8837 858.949 51.1434L862.008 45.9816ZM857.695 44.7812C854.146 44.7812 851.115 47.0875 848.586 50.1784L853.23 53.9778C855.389 51.3396 856.883 50.7812 857.695 50.7812V44.7812ZM848.584 50.1813C845.979 53.3737 843.612 57.9634 841.414 63.7583L847.024 65.8862C849.123 60.353 851.215 56.4466 853.232 53.9749L848.584 50.1813ZM841.219 64.8082L841.023 106.361L847.023 106.389L847.219 64.8364L841.219 64.8082ZM844.023 109.375H865.508V103.375H844.023V109.375ZM862.508 106.375V122H868.508V106.375H862.508ZM865.508 119H806.914V125H865.508V119ZM809.914 122V106.375H803.914V122H809.914ZM806.914 109.375H816.68V103.375H806.914V109.375ZM819.68 106.375V47.7812H813.68V106.375H819.68ZM816.68 44.7812H806.914V50.7812H816.68V44.7812ZM809.914 47.7812V32.1562H803.914V47.7812H809.914ZM901.299 152.127L903.822 150.505L903.811 150.487L903.8 150.47L901.299 152.127ZM903.252 132.4L901.142 130.268L901.131 130.279L901.119 130.29L903.252 132.4ZM925.371 132.4L927.492 130.279L925.371 132.4ZM929.717 146.121L926.771 145.555L926.235 148.343L928.989 149.032L929.717 146.121ZM938.652 134.549L941.401 135.75L941.402 135.748L938.652 134.549ZM942.314 126.15L945.064 127.349L945.589 126.146L945.061 124.944L942.314 126.15ZM907.891 47.7812L910.637 46.5748L909.85 44.7812H907.891V47.7812ZM898.711 47.7812H895.711V50.7812H898.711V47.7812ZM898.711 32.1562V29.1562H895.711V32.1562H898.711ZM953.398 32.1562H956.398V29.1562H953.398V32.1562ZM953.398 47.7812V50.7812H956.398V47.7812H953.398ZM937.334 47.7812V44.7812H932.735L934.588 48.9901L937.334 47.7812ZM952.812 82.9375L955.569 81.7534L955.564 81.741L955.558 81.7286L952.812 82.9375ZM957.109 94.6562L954.217 95.4531L957.109 105.951L960.002 95.4531L957.109 94.6562ZM961.406 82.9375L958.659 81.7318L958.654 81.7426L958.65 81.7534L961.406 82.9375ZM976.836 47.7812L979.583 48.9869L981.429 44.7812H976.836V47.7812ZM963.164 47.7812H960.164V50.7812H963.164V47.7812ZM963.164 32.1562V29.1562H960.164V32.1562H963.164ZM1004.18 32.1562H1007.18V29.1562H1004.18V32.1562ZM1004.18 47.7812V50.7812H1007.18V47.7812H1004.18ZM993.828 47.7812V44.7812H991.87L991.082 46.5742L993.828 47.7812ZM961.211 122L963.956 123.21L963.957 123.207L961.211 122ZM956.621 131.912L953.932 130.583L953.922 130.602L953.913 130.621L956.621 131.912ZM952.08 140.408L949.497 138.882L949.487 138.899L949.477 138.917L952.08 140.408ZM947.246 147.732L949.604 149.588L947.246 147.732ZM941.924 153.396L939.915 151.168L939.906 151.177L939.897 151.185L941.924 153.396ZM935.82 157.645L934.495 154.953L934.479 154.961L934.462 154.97L935.82 157.645ZM928.789 160.135L928.123 157.21L928.105 157.214L928.088 157.218L928.789 160.135ZM913.164 160.379L913.796 157.446L913.774 157.442L913.752 157.437L913.164 160.379ZM907.744 158.426L909.263 155.839L909.254 155.833L909.245 155.828L907.744 158.426ZM904.082 155.643L906.238 153.556L906.221 153.539L906.203 153.521L904.082 155.643ZM903.8 150.47C902.404 148.363 901.711 146.059 901.711 143.484H895.711C895.711 147.224 896.743 150.683 898.798 153.784L903.8 150.47ZM901.711 143.484C901.711 139.94 902.917 137.005 905.385 134.51L901.119 130.29C897.533 133.916 895.711 138.37 895.711 143.484H901.711ZM905.362 134.533C907.856 132.065 910.791 130.859 914.336 130.859V124.859C909.222 124.859 904.767 126.681 901.142 130.268L905.362 134.533ZM914.336 130.859C917.88 130.859 920.792 132.064 923.25 134.522L927.492 130.279C923.895 126.682 919.451 124.859 914.336 124.859V130.859ZM923.25 134.522C925.747 137.019 926.961 139.95 926.961 143.484H932.961C932.961 138.36 931.115 133.902 927.492 130.279L923.25 134.522ZM926.961 143.484C926.961 144.217 926.896 144.905 926.771 145.555L932.663 146.688C932.863 145.644 932.961 144.575 932.961 143.484H926.961ZM928.989 149.032C929.276 149.103 929.644 149.17 930.059 149.17V143.17C930.174 143.17 930.265 143.179 930.324 143.188C930.384 143.196 930.425 143.206 930.444 143.211L928.989 149.032ZM930.059 149.17C931.496 149.17 932.731 148.575 933.704 147.851C934.677 147.128 935.562 146.151 936.377 145.048C938.007 142.844 939.675 139.7 941.401 135.75L935.903 133.348C934.244 137.145 932.787 139.811 931.553 141.481C930.936 142.315 930.453 142.791 930.124 143.036C929.795 143.281 929.793 143.17 930.059 143.17V149.17ZM941.402 135.748L945.064 127.349L939.565 124.951L935.902 133.35L941.402 135.748ZM945.061 124.944L910.637 46.5748L905.144 48.9877L939.568 127.357L945.061 124.944ZM907.891 44.7812H898.711V50.7812H907.891V44.7812ZM901.711 47.7812V32.1562H895.711V47.7812H901.711ZM898.711 35.1562H953.398V29.1562H898.711V35.1562ZM950.398 32.1562V47.7812H956.398V32.1562H950.398ZM953.398 44.7812H937.334V50.7812H953.398V44.7812ZM934.588 48.9901L950.067 84.1464L955.558 81.7286L940.08 46.5724L934.588 48.9901ZM950.056 84.1216C952.012 88.6757 953.388 92.4441 954.217 95.4531L960.002 93.8594C959.073 90.4882 957.584 86.4441 955.569 81.7534L950.056 84.1216ZM960.002 95.4531C960.831 92.4441 962.206 88.6757 964.163 84.1216L958.65 81.7534C956.635 86.4441 955.146 90.4882 954.217 93.8594L960.002 95.4531ZM964.153 84.1432L979.583 48.9869L974.089 46.5756L958.659 81.7318L964.153 84.1432ZM976.836 44.7812H963.164V50.7812H976.836V44.7812ZM966.164 47.7812V32.1562H960.164V47.7812H966.164ZM963.164 35.1562H1004.18V29.1562H963.164V35.1562ZM1001.18 32.1562V47.7812H1007.18V32.1562H1001.18ZM1004.18 44.7812H993.828V50.7812H1004.18V44.7812ZM991.082 46.5742L958.464 120.793L963.957 123.207L996.575 48.9883L991.082 46.5742ZM958.466 120.79C956.785 124.604 955.274 127.867 953.932 130.583L959.311 133.241C960.703 130.424 962.252 127.078 963.956 123.21L958.466 120.79ZM953.913 130.621C952.619 133.335 951.148 136.088 949.497 138.882L954.663 141.934C956.398 138.999 957.954 136.088 959.329 133.203L953.913 130.621ZM949.477 138.917C947.868 141.725 946.337 144.036 944.888 145.877L949.604 149.588C951.28 147.457 952.972 144.886 954.683 141.9L949.477 138.917ZM944.888 145.877C943.437 147.721 941.781 149.486 939.915 151.168L943.933 155.625C946.038 153.727 947.93 151.715 949.604 149.588L944.888 145.877ZM939.897 151.185C938.128 152.806 936.326 154.052 934.495 154.953L937.145 160.336C939.546 159.154 941.813 157.567 943.951 155.608L939.897 151.185ZM934.462 154.97C932.589 155.921 930.481 156.672 928.123 157.21L929.456 163.06C932.241 162.425 934.82 161.517 937.178 160.32L934.462 154.97ZM928.088 157.218C925.771 157.775 923.242 158.062 920.488 158.062V164.062C923.659 164.062 926.664 163.731 929.491 163.052L928.088 157.218ZM920.488 158.062C917.878 158.062 915.656 157.847 913.796 157.446L912.532 163.312C914.904 163.822 917.565 164.062 920.488 164.062V158.062ZM913.752 157.437C911.888 157.064 910.412 156.513 909.263 155.839L906.226 161.013C908.071 162.096 910.209 162.847 912.576 163.321L913.752 157.437ZM909.245 155.828C907.974 155.094 906.986 154.329 906.238 153.556L901.926 157.729C903.131 158.974 904.585 160.065 906.243 161.023L909.245 155.828ZM906.203 153.521C905.402 152.72 904.605 151.722 903.822 150.505L898.775 153.749C899.75 155.266 900.809 156.612 901.961 157.764L906.203 153.521Z" fill="white" mask="url(#path-1-outside-1_145_13)"/>
</svg>
