<svg width="1005" height="162" viewBox="0 0 1005 162" fill="none" xmlns="http://www.w3.org/2000/svg">
<path d="M27.6172 106.424C29.4727 107.693 32.2721 108.328 36.0156 108.328C39.3685 108.328 42.0866 108.133 44.1699 107.742C46.2858 107.352 47.8809 106.717 48.9551 105.838C50.0293 104.926 50.7454 103.934 51.1035 102.859C51.4616 101.753 51.6406 100.32 51.6406 98.5625C51.6406 96.4792 51.0872 94.6888 49.9805 93.1914C48.8737 91.694 47.3763 90.4896 45.4883 89.5781C43.6003 88.6667 41.4355 87.8691 38.9941 87.1855C36.5527 86.4694 33.9811 85.8021 31.2793 85.1836C28.5775 84.5326 25.8757 83.8327 23.1738 83.084C20.472 82.3027 17.9004 81.2936 15.459 80.0566C13.0176 78.7871 10.8529 77.306 8.96484 75.6133C7.07682 73.888 5.57943 71.6582 4.47266 68.9238C3.36589 66.1895 2.8125 63.0482 2.8125 59.5C2.8125 56.2448 3.20312 53.2826 3.98438 50.6133C4.76562 47.944 5.80729 45.6816 7.10938 43.8262C8.41146 41.9382 10.0553 40.2943 12.041 38.8945C14.0267 37.4948 16.0938 36.3717 18.2422 35.5254C20.4232 34.679 22.8646 33.9954 25.5664 33.4746C28.3008 32.9538 30.9375 32.612 33.4766 32.4492C36.0156 32.2539 38.7826 32.1562 41.7773 32.1562C48.2878 32.1562 53.9681 32.9863 58.8184 34.6465C63.7012 36.3066 67.5423 38.5365 70.3418 41.3359C71.8392 42.6055 72.9948 44.1517 73.8086 45.9746C74.6549 47.765 75.0781 49.6693 75.0781 51.6875C75.0781 55.4635 73.7435 58.6862 71.0742 61.3555C68.4049 64.0247 65.1823 65.3594 61.4062 65.3594C57.6302 65.3594 54.4076 64.0247 51.7383 61.3555C49.069 58.6862 47.7344 55.4635 47.7344 51.6875C47.7344 50.3203 47.9297 49.002 48.3203 47.7324C46.4648 46.4629 43.6654 45.8281 39.9219 45.8281C35.332 45.8281 31.8978 46.3815 29.6191 47.4883C27.373 48.5951 26.25 50.6458 26.25 53.6406C26.25 55.5286 26.722 57.2051 27.666 58.6699C28.61 60.1022 29.8958 61.2904 31.5234 62.2344C33.151 63.1458 35.0391 64.0247 37.1875 64.8711C39.3685 65.6849 41.6797 66.3848 44.1211 66.9707C46.5625 67.5241 49.069 68.2077 51.6406 69.0215C54.2122 69.8353 56.7188 70.6654 59.1602 71.5117C61.6016 72.3581 63.8965 73.4811 66.0449 74.8809C68.2259 76.248 70.1302 77.7943 71.7578 79.5195C73.3854 81.2448 74.6712 83.4095 75.6152 86.0137C76.5592 88.5853 77.0312 91.4661 77.0312 94.6562C77.0312 99.2135 76.2663 103.234 74.7363 106.717C73.2389 110.167 71.2207 112.967 68.6816 115.115C66.1751 117.264 63.0501 119.021 59.3066 120.389C55.5632 121.723 51.6732 122.651 47.6367 123.172C43.6003 123.693 39.1081 123.953 34.1602 123.953C24.1667 123.953 16.11 122.049 9.99023 118.24C3.90299 114.432 0.859375 109.174 0.859375 102.469C0.859375 98.6927 2.19401 95.4701 4.86328 92.8008C7.53255 90.1315 10.7552 88.7969 14.5312 88.7969C18.3073 88.7969 21.5299 90.1315 24.1992 92.8008C26.8685 95.4701 28.2031 98.6927 28.2031 102.469C28.2031 103.836 28.0078 105.154 27.6172 106.424ZM114.141 12.625H123.906V32.1562H151.25V47.7812H123.906V98.5625C123.906 100.776 124.525 102.632 125.762 104.129C127.031 105.626 129.017 106.375 131.719 106.375C134.746 106.375 137.318 105.382 139.434 103.396C141.549 101.378 142.884 98.4648 143.438 94.6562L155.156 96.6094C154.668 100.418 153.724 103.95 152.324 107.205C150.957 110.428 149.167 113.309 146.953 115.848C144.74 118.354 141.989 120.34 138.701 121.805C135.446 123.237 131.816 123.953 127.812 123.953C118.079 123.953 110.43 121.691 104.863 117.166C99.3294 112.609 96.5625 106.408 96.5625 98.5625V47.7812H86.7969V32.1562H88.75C93.763 32.1562 98.1901 30.724 102.031 27.8594C105.872 24.9948 109.909 19.9167 114.141 12.625ZM162.969 32.1562H193.291L199.443 44.0215C205.205 34.8092 213.359 30.2031 223.906 30.2031C230.97 30.2031 236.569 32.3841 240.703 36.7461C244.87 41.0755 246.953 46.707 246.953 53.6406C246.953 57.9701 245.423 61.6647 242.363 64.7246C239.336 67.752 235.658 69.2656 231.328 69.2656C226.999 69.2656 223.304 67.752 220.244 64.7246C217.217 61.6647 215.703 57.9701 215.703 53.6406C215.703 51.8828 215.98 50.1901 216.533 48.5625C215.654 48.0417 214.727 47.7812 213.75 47.7812C211.569 47.7812 209.307 49.2135 206.963 52.0781C204.652 54.9102 202.422 59.1582 200.273 64.8223L200.078 106.375H221.562V122H162.969V106.375H172.734V47.7812H162.969V32.1562ZM334.844 63.1621V106.375H344.609V122H314.189L309.844 111.844C306.523 116.596 302.666 119.852 298.271 121.609C293.91 123.367 287.806 124.246 279.961 124.246C275.892 124.246 272.1 123.53 268.584 122.098C265.101 120.698 262.122 118.777 259.648 116.336C257.207 113.895 255.286 110.965 253.887 107.547C252.52 104.129 251.836 100.467 251.836 96.5605C251.836 89.8223 254.473 84.2396 259.746 79.8125C265.02 75.3529 271.758 73.123 279.961 73.123C286.569 73.123 292.038 73.7578 296.367 75.0273C300.697 76.2643 304.408 78.25 307.5 80.9844V60.2812C307.5 57.3516 307.093 54.9102 306.279 52.957C305.498 50.9714 304.31 49.4577 302.715 48.416C301.12 47.3418 299.329 46.5931 297.344 46.1699C295.358 45.7467 292.982 45.5352 290.215 45.5352C288.001 45.5352 285.999 46.0072 284.209 46.9512C285.218 49.0671 285.723 51.2969 285.723 53.6406C285.723 57.9701 284.193 61.6647 281.133 64.7246C278.105 67.752 274.427 69.2656 270.098 69.2656C265.768 69.2656 262.074 67.752 259.014 64.7246C255.986 61.6647 254.473 57.9701 254.473 53.6406C254.473 51.4271 254.896 49.3438 255.742 47.3906C256.621 45.4375 257.826 43.7285 259.355 42.2637C260.658 40.8965 262.008 39.6758 263.408 38.6016C264.808 37.4948 266.566 36.4043 268.682 35.3301C270.83 34.2233 273.158 33.3118 275.664 32.5957C278.171 31.8796 281.165 31.3099 284.648 30.8867C288.164 30.431 292.005 30.2031 296.172 30.2031C301.576 30.2031 306.654 31.0007 311.406 32.5957C316.159 34.1908 320.26 36.4043 323.711 39.2363C327.161 42.0684 329.88 45.5514 331.865 49.6855C333.851 53.8197 334.844 58.3118 334.844 63.1621ZM307.5 100.32V93.582C305.482 91.6615 303.203 90.0501 300.664 88.748C298.158 87.4134 295.83 86.7461 293.682 86.7461C289.059 86.7461 285.804 87.5273 283.916 89.0898C282.028 90.6198 281.084 93.11 281.084 96.5605C281.084 100.695 281.898 103.738 283.525 105.691C285.153 107.645 288.18 108.621 292.607 108.621C295.114 108.621 297.718 107.824 300.42 106.229C303.154 104.601 305.514 102.632 307.5 100.32ZM343.633 32.1562H398.32V47.7812H382.988L396.123 82.9375C397.197 85.8021 398.418 89.8711 399.785 95.1445C401.12 89.8711 402.292 85.8021 403.301 82.9375L415.898 47.7812H408.086V32.1562H443.242V47.7812H433.672L446.855 82.9375C447.93 85.8021 449.15 89.8711 450.518 95.1445C451.917 89.5781 453.073 85.5091 453.984 82.9375L466.582 47.7812H453.008V32.1562H494.023V47.7812H483.672L456.914 122H435.43L424.883 92.7031C423.613 89.1875 422.262 84.6302 420.83 79.0312C419.398 84.6628 418.047 89.2201 416.777 92.7031L406.23 122H379.57L352.812 47.7812H343.633V32.1562ZM568.828 30.2031C576.445 30.2031 582.891 32.14 588.164 36.0137C593.47 39.8548 597.409 45.2585 599.98 52.2246C602.585 59.1582 603.887 67.459 603.887 77.127C603.887 84.1908 602.91 90.6686 600.957 96.5605C599.004 102.42 596.302 107.352 592.852 111.355C589.434 115.327 585.332 118.419 580.547 120.633C575.794 122.846 570.618 123.953 565.02 123.953C562.415 123.953 559.909 123.725 557.5 123.27C555.091 122.814 552.992 122.26 551.201 121.609C549.411 120.926 547.653 120.063 545.928 119.021C544.235 117.98 542.819 117.02 541.68 116.141C540.573 115.262 539.45 114.22 538.311 113.016C537.204 111.811 536.374 110.867 535.82 110.184C535.299 109.5 534.714 108.702 534.062 107.791L524.541 122H511.602V16.5312H501.836V0.90625H538.945V46.8047C540.28 44.4935 541.842 42.3776 543.633 40.457C545.423 38.5365 547.523 36.7949 549.932 35.2324C552.373 33.6374 555.205 32.4004 558.428 31.5215C561.65 30.6426 565.117 30.2031 568.828 30.2031ZM538.945 92.752C540.671 96.7559 542.917 99.946 545.684 102.322C548.451 104.666 551.722 105.838 555.498 105.838C561.943 105.838 566.729 103.315 569.854 98.2695C573.011 93.224 574.59 86.0625 574.59 76.7852C574.59 72.4232 574.069 68.403 573.027 64.7246C572.018 61.0137 570.651 57.9375 568.926 55.4961C567.233 53.0547 565.28 51.1667 563.066 49.832C560.853 48.4648 558.542 47.7812 556.133 47.7812C552.552 47.7812 549.395 48.888 546.66 51.1016C543.958 53.2826 541.387 56.554 538.945 60.916V92.752ZM642.949 82.9375C643.242 86.7135 643.861 90.0827 644.805 93.0449C645.749 96.0072 646.888 98.4323 648.223 100.32C649.59 102.208 651.169 103.771 652.959 105.008C654.749 106.212 656.589 107.075 658.477 107.596C660.365 108.084 662.383 108.328 664.531 108.328C671.4 108.328 676.755 107.01 680.596 104.373C684.469 101.704 687.562 97.6022 689.873 92.0684L702.861 96.5605C701.689 99.7181 700.192 102.697 698.369 105.496C696.579 108.263 694.414 110.818 691.875 113.162C689.336 115.506 686.504 117.524 683.379 119.217C680.286 120.877 676.787 122.179 672.881 123.123C668.975 124.067 664.857 124.539 660.527 124.539C654.115 124.539 648.044 123.416 642.314 121.17C636.618 118.924 631.654 115.799 627.422 111.795C623.223 107.758 619.886 102.794 617.412 96.9023C614.971 91.0104 613.75 84.5977 613.75 77.6641C613.75 70.7305 614.971 64.2852 617.412 58.3281C619.886 52.3711 623.223 47.3581 627.422 43.2891C631.654 39.1875 636.618 35.9811 642.314 33.6699C648.044 31.3587 654.115 30.2031 660.527 30.2031C666.94 30.2031 672.995 31.3587 678.691 33.6699C684.421 35.9811 689.385 39.1875 693.584 43.2891C697.816 47.3581 701.152 52.3711 703.594 58.3281C706.068 64.2852 707.305 70.7305 707.305 77.6641L706.084 82.9375H642.949ZM643.291 67.3125H677.764C676.917 59.8255 675.046 54.373 672.148 50.9551C669.251 47.5371 665.41 45.8281 660.625 45.8281C658.249 45.8281 656.117 46.2188 654.229 47C652.34 47.7487 650.648 48.9694 649.15 50.6621C647.653 52.3223 646.4 54.5521 645.391 57.3516C644.414 60.1185 643.714 63.4388 643.291 67.3125ZM715.117 32.1562H745.439L751.592 44.0215C757.354 34.8092 765.508 30.2031 776.055 30.2031C783.118 30.2031 788.717 32.3841 792.852 36.7461C797.018 41.0755 799.102 46.707 799.102 53.6406C799.102 57.9701 797.572 61.6647 794.512 64.7246C791.484 67.752 787.806 69.2656 783.477 69.2656C779.147 69.2656 775.452 67.752 772.393 64.7246C769.365 61.6647 767.852 57.9701 767.852 53.6406C767.852 51.8828 768.128 50.1901 768.682 48.5625C767.803 48.0417 766.875 47.7812 765.898 47.7812C763.717 47.7812 761.455 49.2135 759.111 52.0781C756.8 54.9102 754.57 59.1582 752.422 64.8223L752.227 106.375H773.711V122H715.117V106.375H724.883V47.7812H715.117V32.1562ZM806.914 32.1562H837.236L843.389 44.0215C849.15 34.8092 857.305 30.2031 867.852 30.2031C874.915 30.2031 880.514 32.3841 884.648 36.7461C888.815 41.0755 890.898 46.707 890.898 53.6406C890.898 57.9701 889.368 61.6647 886.309 64.7246C883.281 67.752 879.603 69.2656 875.273 69.2656C870.944 69.2656 867.249 67.752 864.189 64.7246C861.162 61.6647 859.648 57.9701 859.648 53.6406C859.648 51.8828 859.925 50.1901 860.479 48.5625C859.6 48.0417 858.672 47.7812 857.695 47.7812C855.514 47.7812 853.252 49.2135 850.908 52.0781C848.597 54.9102 846.367 59.1582 844.219 64.8223L844.023 106.375H865.508V122H806.914V106.375H816.68V47.7812H806.914V32.1562ZM901.299 152.127C899.574 149.523 898.711 146.642 898.711 143.484C898.711 139.155 900.225 135.46 903.252 132.4C906.312 129.373 910.007 127.859 914.336 127.859C918.665 127.859 922.344 129.373 925.371 132.4C928.431 135.46 929.961 139.155 929.961 143.484C929.961 144.396 929.88 145.275 929.717 146.121C929.847 146.154 929.961 146.17 930.059 146.17C932.402 146.17 935.267 142.296 938.652 134.549L942.314 126.15L907.891 47.7812H898.711V32.1562H953.398V47.7812H937.334L952.812 82.9375C954.798 87.5599 956.23 91.4661 957.109 94.6562C957.988 91.4661 959.421 87.5599 961.406 82.9375L976.836 47.7812H963.164V32.1562H1004.18V47.7812H993.828L961.211 122C959.518 125.841 957.988 129.145 956.621 131.912C955.286 134.712 953.773 137.544 952.08 140.408C950.42 143.305 948.809 145.747 947.246 147.732C945.684 149.718 943.91 151.606 941.924 153.396C939.971 155.187 937.936 156.603 935.82 157.645C933.704 158.719 931.361 159.549 928.789 160.135C926.217 160.753 923.451 161.062 920.488 161.062C917.721 161.062 915.28 160.835 913.164 160.379C911.048 159.956 909.242 159.305 907.744 158.426C906.279 157.579 905.059 156.652 904.082 155.643C903.105 154.666 902.178 153.494 901.299 152.127Z" fill="white"/>
</svg>
