<svg width="97" height="97" viewBox="0 0 97 97" fill="none" xmlns="http://www.w3.org/2000/svg">
<rect width="97" height="97" rx="13" fill="#232323"/>
<g clip-path="url(#clip0_117_37)">
<path d="M67.487 34.034C60.627 34.067 55.413 38.604 53.461 45.834C50.186 40.794 47.631 35.029 46.166 30.162L38.946 30.196L39.046 49.334C39.0503 50.235 38.877 51.128 38.5362 51.9621C38.1953 52.7961 37.6935 53.5548 37.0594 54.195C36.4254 54.8351 35.6714 55.344 34.8406 55.6928C34.0098 56.0415 33.1185 56.2232 32.2175 56.2275C30.3978 56.2361 28.6493 55.5215 27.3565 54.2409C26.7164 53.6068 26.2074 52.8529 25.8587 52.0221C25.51 51.1913 25.3283 50.3 25.324 49.399L25.224 30.261L18 30.296L18.1 49.435C18.128 57.377 24.474 63.67 32.24 63.63C40.006 63.59 46.295 57.244 46.26 49.3L46.245 46.05C47.701 48.93 49.521 51.99 51.521 54.69L47.106 75.834L54.506 75.8L57.686 60.438C60.582 62.231 63.836 63.298 67.626 63.28C75.57 63.245 82.04 56.717 82 48.41C81.964 40.464 75.432 33.997 67.488 34.033L67.487 34.034ZM67.59 55.88C64.702 55.893 61.808 54.644 59.452 52.667L60.16 49.767V49.585C60.688 46.511 62.286 41.269 67.702 41.245C69.6158 41.2415 71.4533 41.9955 72.813 43.3423C74.1727 44.6891 74.9442 46.5192 74.959 48.433C74.796 52.586 71.382 55.853 67.589 55.87L67.59 55.88Z" fill="#6FDA44"/>
</g>
<defs>
<clipPath id="clip0_117_37">
<rect width="64" height="64" fill="white" transform="translate(18 19)"/>
</clipPath>
</defs>
</svg>
